<svg width="62" height="66" viewBox="0 0 62 66" fill="none" xmlns="http://www.w3.org/2000/svg">
<path d="M53.039 30.6405L52.9174 60.0001C58.8366 56.4762 61.9697 51.8283 61.9611 47.2071L61.9091 17.0269C61.9265 21.6391 58.9582 27.1167 53.039 30.6405Z" fill="#FD0D06"/>
<path d="M43.7302 13.9318C41.7869 11.3137 38.366 10.0318 35.2943 9.445C31.8376 8.78597 28.1749 8.91236 24.7899 9.87833C24.0108 10.104 23.2406 10.3749 22.4973 10.7089C22.2018 10.8443 20.2346 11.1422 20.0824 11.4311C20.0376 11.5214 20.1272 42.2429 21.1272 42.2429C25.3093 39.8144 30.6555 39.3631 35.3391 40.2568C39.1093 40.97 44.9302 43.2721 44.9302 47.9665L45.8854 20.4318C45.8854 18.1749 45.172 15.8728 43.7302 13.9318Z" fill="#FF6763"/>
<path d="M41.0662 42.9531L52.9338 49.9552L53.0389 30.9522L41.0662 24V42.9531Z" fill="#FF3A34"/>
<path d="M9.07062 24.9532L20.9294 31.9553V13.047L9.07062 6.04492V24.9532Z" fill="#FF3A34"/>
<path d="M1.96 30.8281C0.989998 29.3933 0.0599976 25.0444 0.0599976 25.0444C0.0599976 25.0444 0.0699976 46.5939 0.0899976 47.8339C0.149998 50.9073 1.68 53.6707 3.94 55.9559C3.94 54.707 3.89 33.131 3.89 33.131C3.89 33.131 2.25 31.2533 1.96 30.8281Z" fill="#FF9E19"/>
<path d="M16.0392 24.6578C16.0308 25.074 17.0392 25.4812 17.0392 25.8974L17.0808 52.9911C17.0808 51.849 17.4975 50.7776 18.1308 49.8745C18.5058 49.3432 18.9558 48.874 19.4392 48.449C19.7475 48.1745 20.0725 47.9266 20.4142 47.6964C20.4058 47.6964 20.9725 47.3245 20.9642 47.3422C20.9642 47.3422 20.9725 29.0312 20.9642 20C18.9808 21.213 16.1142 22.0901 16.0392 24.6578Z" fill="#FF9E19"/>
<path d="M4.05231 33.405L4.10463 55.9956C4.10463 55.9956 18.9564 54.97 18.9477 53.8128C18.9389 45.5463 18.9215 37.271 18.9128 29.0044C14.6918 30.2492 4.05231 33.405 4.05231 33.405Z" fill="#FAB802"/>
<path d="M0.475108 22.8495C-0.469892 26.1969 0.370108 29.6341 2.27761 32.4521C2.49636 32.7841 3.99998 34.0001 3.99998 34.0001L18.9477 29.3625C17.7839 27.9984 16.5226 26.3136 17.0126 24.5098C17.5551 22.5175 19.2264 21.0457 20.9151 20.0495L9.12886 13.0405C5.41011 15.2482 1.71761 18.461 0.475108 22.8495Z" fill="#F6E000"/>
<path d="M18.3373 47.4014C13.7956 46.2584 9.11079 44.4134 5.48993 41.3444C4.61377 40.6334 3.80019 39.8594 3.06708 39.0044C3.07602 40.6604 3.11178 56.1224 3.11178 56.1224C3.37999 56.5814 13.2055 65.9954 29.933 65.9954C29.933 64.3394 29.933 48.8864 29.933 48.8864C29.933 48.8864 25.7936 48.6704 24.7475 48.5534C22.584 48.3104 20.4383 47.9324 18.3373 47.4014Z" fill="#353FAD"/>
<path d="M18.3015 35L3.06708 39C9.68006 46.3855 21.2845 48.7985 30 49V39.3016C26.3791 39.1877 22.4167 38.3379 19.5145 36.1039C19.227 35.8761 18.3015 35 18.3015 35Z" fill="#5966EC"/>
<path d="M32.1544 55.2078C31.4626 55.2342 30.7708 55.2254 30.088 55.2166V65.9331C30.088 65.9331 29.9802 65.9419 30.7888 65.9419C32.1455 65.9507 33.5021 65.8979 34.8587 65.8012C40.1865 65.4056 45.5771 64.2627 50.4287 62.0386C50.9767 61.7924 52.9173 60.7726 52.9173 60.7726C52.9173 60.7726 52.8724 52.0957 52.8634 50.0562C46.6283 53.5463 39.297 55.0232 32.1544 55.2078Z" fill="#A7D6E0"/>
<path d="M30 45.4861C30 46.9285 30 56 30 56C30 56 32.5562 55.9715 32.9822 55.962C33.9195 55.9241 34.8663 55.8672 35.7941 55.7818C42.1089 55.2314 47.3883 53.2256 52.9173 50.0563L41.2568 43C37.8959 44.9263 33.8438 45.6095 30 45.4861Z" fill="#C5EAF2"/>
<path d="M53.1152 5.34998C41.2571 -1.72414 21.0078 -1.06534 9.07062 5.99978L20.9152 13.0402C26.282 9.85906 35.8902 9.21597 41.222 12.3971C46.5537 15.5782 46.3669 20.8277 41 23.9998L52.9835 30.952C64.9119 23.8869 64.9733 12.4151 53.1152 5.34998Z" fill="#FF0700"/>
</svg>
