<svg width="81" height="62" viewBox="0 0 81 62" fill="none" xmlns="http://www.w3.org/2000/svg">
<rect x="9.0878" y="17.084" width="8.82439" height="35.8316" fill="#353FAD"/>
<path d="M17.9122 53C17.9122 54.0778 15.9366 54.9555 13.5 54.9555C11.0634 54.9555 9.0878 54.0778 9.0878 53C9.0878 51.9222 11.0634 51.0444 13.5 51.0444C15.9366 51.0444 17.9122 51.9111 17.9122 53Z" fill="#353FAD"/>
<path d="M17.98 40.682L16.02 41.918V36.318L17.98 35.082V40.682Z" fill="#353FAD"/>
<path d="M15.9458 41.9637L15.0542 41.3327V36.0361L15.9458 36.6775V41.9637Z" fill="#353FAD"/>
<path d="M17.9122 31.8687V48.9059C15.6293 44.6361 11.711 41.4442 9.0878 39.6547V31.0942C11.5573 31.157 14.6744 31.471 17.9122 31.8687Z" fill="#353FAD"/>
<path d="M23.9172 5.95184L14.0276 28.9707L3.66207 24.4663C1.50001 23.7359 0.0827637 21.2707 0.0827637 17.5678C0.0827637 11.5721 3.79656 4.60256 8.38966 2.00546C10.2621 0.950387 11.9897 0.777923 13.3759 1.35618L13.5104 1.41705L23.9172 5.95184Z" fill="#353FAD"/>
<path d="M36.9846 6.91985L23.7231 38.9228L9.82564 32.6661C6.92307 31.6442 5.01538 28.2134 5.01538 23.0725C5.01538 14.7303 10 5.05327 16.1538 1.43482C18.6667 -0.0354984 20.9744 -0.275338 22.841 0.538031L23.0256 0.621453L36.9846 6.91985Z" fill="#FD0D06"/>
<path d="M68.9897 9.12518L58.8804 32.1919L47.15 58.9508C41.925 52.6329 26.0332 41.5765 18.1027 39.0431C12.7435 37.3406 12.0103 34.3047 12.0103 28.1508C12.0103 27.4226 12.0413 26.6944 12.1239 25.956C12.9087 17.4124 18.1337 8.16108 24.4636 4.53031C27.4478 2.81749 30.1842 2.64313 32.3321 3.73031C32.3321 3.73031 32.3321 3.73031 32.3424 3.73031C32.3527 3.73031 32.3734 3.74057 32.394 3.75082C32.394 3.75082 32.4044 3.75082 32.4147 3.76108C33.6332 4.28416 48.2962 10.2534 68.9897 9.12518Z" fill="#353FAD" stroke="black" stroke-width="0.5"/>
<path d="M58.9949 30.8465L47.4848 57.9345C42.3579 51.5389 26.7645 40.3465 18.983 37.782C13.7244 36.0585 13.0051 32.9853 13.0051 26.7558C13.0051 26.0186 13.0355 25.2815 13.1165 24.5339C19.0033 27.1503 32.5095 33.0164 38.0416 34.47C45.2152 36.3389 43.9081 26.7454 50.2914 20.5159C52.328 18.5225 55.5601 23.3399 58.9949 30.8465Z" fill="#353FAD"/>
<path d="M77.9591 24.0033C77.9591 37.3879 69.9205 52.9463 60 58.7432C50.0795 64.54 42.0409 58.3912 42.0409 44.9963C42.0409 31.6014 50.0795 16.0533 60 10.2565C69.9205 4.45958 77.9591 10.6084 77.9591 24.0033Z" fill="#020D65"/>
<path d="M80.9591 25.0033C80.9591 38.3879 72.9205 53.9463 63 59.7432C53.0795 65.54 45.0409 59.3912 45.0409 45.9963C45.0409 32.6014 53.0693 17.0533 62.9898 11.2565C72.9102 5.45958 80.9591 11.6084 80.9591 25.0033Z" fill="#353FAD"/>
<path d="M76.9188 26.6859C76.9188 37.2909 70.6898 49.6179 63 54.2064C55.3101 58.7949 49.0811 53.9229 49.0811 43.3179C49.0811 32.7129 55.3101 20.3859 63 15.7974C70.6898 11.1984 76.9188 16.0809 76.9188 26.6859Z" fill="#020D65"/>
<path d="M66.94 23.3976L57.28 45.9386L49.06 40.375C49.68 33.4796 52.76 26.1845 56.98 21.0615L66.94 23.3976Z" fill="#FD0D06"/>
<path d="M71 30.9555C71 36.7459 67.4205 43.4744 63 45.9862C58.5795 48.4981 55 45.8349 55 40.0446C55 34.2542 58.5795 27.5257 63 25.0139C67.4205 22.502 71 25.1652 71 30.9555Z" fill="#FF6763"/>
<path d="M67.92 32.2496C67.92 35.7603 65.94 39.8311 63.5 41.3496C61.06 42.868 59.08 41.2527 59.08 37.7527C59.08 34.2527 61.06 30.1711 63.5 28.6527C65.95 27.1342 67.92 28.7388 67.92 32.2496Z" fill="#E6E9EB"/>
</svg>
