<svg width="50" height="81" viewBox="0 0 50 81" fill="none" xmlns="http://www.w3.org/2000/svg">
<path d="M6.32922 20.829C7.67922 21.6256 8.92922 22.9392 9.95422 24.5239L0.729223 29.9392C0.287557 28.5155 0.0458899 27.0578 0.0458899 25.6595C0.0458899 23.1426 0.84589 21.3544 2.12922 20.5493L2.32089 20.4392C3.39589 19.846 4.79589 19.9307 6.32922 20.829Z" fill="#020D65"/>
<path d="M36.2814 0.521784C36.3671 0.460882 36.4614 0.40868 36.5557 0.365178C37.67 -0.217743 39.0928 -0.12204 40.6442 0.791494C42.0328 1.60932 43.3185 2.95787 44.3728 4.58483C45.9414 7.01222 46.9957 10.0573 47.0985 12.8936C47.1071 13.0415 47.0985 47.8341 47.0985 47.8341V51.8798C47.0985 54.8901 48.2214 58.2049 49.9357 60.7802L47.0985 62.442L24.9671 75.4142L15.5728 80.9128C13.8157 78.3201 12.6585 74.953 12.6585 71.8905V68.0102V33.5221C12.6585 30.5727 11.5785 27.3275 9.92424 24.7783C8.86995 23.1513 7.58424 21.8028 6.19567 20.9849C4.62709 20.0627 3.1871 19.9757 2.06424 20.5847L12.6585 14.3727L36.2814 0.521784Z" fill="#353FAD"/>
<path d="M19.6171 29.8837L40.3828 17.702C40.7019 17.5142 40.9622 17.002 40.9622 16.5666C40.9622 16.1313 40.7019 15.9264 40.3828 16.1142L19.6171 28.3044C19.298 28.4922 19.0377 29.0044 19.0377 29.4398C19.0293 29.8752 19.2896 30.0715 19.6171 29.8837Z" fill="#FD0D06"/>
<path d="M19.6171 35.8883L40.3828 23.6981C40.7019 23.5103 40.9622 22.9981 40.9622 22.5627C40.9622 22.1274 40.7019 21.9225 40.3828 22.1103L19.6171 34.3005C19.298 34.4883 19.0377 35.0005 19.0377 35.4359C19.0293 35.8798 19.2896 36.0761 19.6171 35.8883Z" fill="#FD0D06"/>
<path d="M19.6171 41.8883L40.3828 29.6981C40.7019 29.5103 40.9622 28.9981 40.9622 28.5627C40.9622 28.1274 40.7019 27.9225 40.3828 28.1103L19.6171 40.3005C19.298 40.4883 19.0377 41.0005 19.0377 41.4359C19.0293 41.8798 19.2896 42.0761 19.6171 41.8883Z" fill="#FD0D06"/>
<path d="M20.6171 47.8883L41.3828 35.6981C41.7019 35.5103 41.9622 34.9981 41.9622 34.5627C41.9622 34.1274 41.7019 33.9225 41.3828 34.1103L20.6171 46.3005C20.298 46.4883 20.0377 47.0005 20.0377 47.4359C20.0293 47.8798 20.2896 48.0761 20.6171 47.8883Z" fill="#FD0D06"/>
<path d="M20.6171 54.8883L41.3828 42.6981C41.7019 42.5103 41.9622 41.9981 41.9622 41.5627C41.9622 41.1274 41.7019 40.9225 41.3828 41.1103L20.6171 53.3005C20.298 53.4883 20.0377 54.0005 20.0377 54.4359C20.0293 54.8798 20.2896 55.0761 20.6171 54.8883Z" fill="#FD0D06"/>
<path d="M20.6171 61.8883L41.3828 49.6981C41.7019 49.5103 41.9622 48.9981 41.9622 48.5627C41.9622 48.1274 41.7019 47.9225 41.3828 48.1103L20.6171 60.3005C20.298 60.4883 20.0377 61.0005 20.0377 61.4359C20.0293 61.8798 20.2896 62.0761 20.6171 61.8883Z" fill="#FD0D06"/>
<path d="M47.665 53.9106C47.315 53.3891 46.765 53.0606 46.24 53.0034L45.0733 53.582C45.0483 53.632 45.0316 53.682 45.015 53.732C45.4816 53.8391 45.9483 54.1463 46.2566 54.6034C46.565 55.0606 46.6483 55.5677 46.515 55.9677C46.5733 55.982 46.64 55.9891 46.6983 55.9963L47.865 55.4177C48.0733 55.0034 48.015 54.432 47.665 53.9106Z" fill="#EE1011"/>
<path d="M49.2035 52L48.6693 52.3106L48 52.7019C48.2395 52.7329 48.4912 52.9068 48.6509 53.1863C48.8105 53.4658 48.8351 53.7764 48.743 54L49.4123 53.6087L49.9465 53.2981C50.0387 53.0745 50.0141 52.764 49.8544 52.4845C49.7009 52.2112 49.4492 52.0311 49.2035 52Z" fill="#FD0D06"/>
<path d="M45.2024 53.043L44.0153 53.7425L18.0255 69.0289C18.5597 69.098 19.1193 69.4952 19.4755 70.1257C19.8316 70.7562 19.891 71.4471 19.679 71.9566L45.6688 56.6702L46.8559 55.9707C46.8813 55.9102 46.8983 55.8498 46.9153 55.7893C47.0424 55.3057 46.9661 54.7012 46.6524 54.1398C46.3386 53.5871 45.8638 53.2071 45.3889 53.0862C45.3296 53.0689 45.2702 53.0516 45.2024 53.043Z" fill="#FD0D06"/>
<path d="M18.0857 69.0352L16.8257 69.7439L11.0297 72.9989C11.5967 73.0689 12.1907 73.4714 12.5687 74.1102C12.9467 74.7489 13.0097 75.4489 12.7847 75.9652L18.5807 72.7102L19.8407 72.0014C20.0657 71.4852 20.0027 70.7852 19.6247 70.1464C19.2467 69.5077 18.6527 69.1052 18.0857 69.0352Z" fill="#FF5B56"/>
<path d="M47.3911 52.0703L46.3541 52.6703L45.0578 53.4185C45.5244 53.4777 46.0133 53.8185 46.3244 54.3592C46.6355 54.8999 46.6874 55.4925 46.5022 55.9296L47.7985 55.1814L48.8355 54.5814C49.0207 54.1518 48.9689 53.5518 48.6578 53.0111C48.3466 52.4629 47.8578 52.1222 47.3911 52.0703Z" fill="#CC0B05"/>
<path d="M11.0667 73.0161L9.70793 74.2801L7.15793 76.6561L7.12263 76.6881C7.07851 76.7441 7.06969 76.8241 7.11381 76.8881C7.15793 76.9521 7.22851 76.9841 7.30793 76.9841L7.35204 76.9761L11 76.2454L12.8119 75.9515C13.0325 75.4795 12.9462 74.6161 12.5756 74.0321C12.2138 73.4481 11.6226 73.0801 11.0667 73.0161Z" fill="#020D65"/>
<path d="M8.2908 75.9998C7.99996 75.7145 6.94984 76.7694 7.00141 76.9518C7.10456 77.1343 8.59888 76.677 8.59888 76.677L8.2908 75.9998Z" fill="#353FAD"/>
</svg>
