<svg width="12" height="8" viewBox="0 0 12 8" fill="none" xmlns="http://www.w3.org/2000/svg">
<path fill-rule="evenodd" clip-rule="evenodd" d="M11.9658 1.07497C11.9581 1.04525 11.9419 1.01655 11.9047 0.992196C11.8183 0.935362 11.7019 0.834716 11.5677 0.718663C11.1741 0.378211 10.6271 -0.0948347 10.2336 0.0166239C9.52386 0.217824 5.73689 4.33663 4.6618 5.50592L4.55321 5.624C4.23991 5.25202 1.63042 2.27803 1.49949 2.3447C1.34877 2.42123 1.19642 2.49402 1.0443 2.5667L1.04428 2.56671C0.743793 2.71028 0.444201 2.85343 0.159831 3.02405C0.11188 3.05295 0.0872834 3.09032 0.0800783 3.12851C0.0214435 3.16649 -0.0160728 3.22945 0.00678485 3.30645C0.287082 4.25215 1.08017 5.04467 1.83692 5.80088C2.07291 6.03671 2.30537 6.269 2.51764 6.50131C2.61902 6.61225 2.7282 6.7561 2.84556 6.91072L2.84557 6.91072C3.32848 7.54695 3.94972 8.3654 4.73384 7.82285C4.74893 7.81237 4.75851 7.80053 4.76832 7.78841L4.77135 7.78466C4.96266 7.71985 5.12639 7.59372 5.29782 7.44014C5.82979 6.96416 6.31614 6.45452 6.80249 5.94487C6.99532 5.74281 7.18815 5.54075 7.38383 5.34078C8.12049 4.58774 8.93765 3.88279 9.74686 3.18754C9.98748 2.9808 10.2189 2.75125 10.4525 2.51965L10.4525 2.51963L10.4525 2.51961L10.4525 2.51958L10.4526 2.51956L10.4526 2.51953C10.9048 2.07106 11.3647 1.61491 11.9139 1.30184C12.0177 1.24218 12.018 1.14371 11.9658 1.07497ZM2.34646 3.26413C2.11291 3.09259 1.87092 2.92579 1.61825 2.76519C1.89055 2.90536 2.1308 3.07401 2.34646 3.26413ZM1.06991 3.36899C1.12084 3.35929 1.17675 3.36734 1.22669 3.40656C1.53682 3.64882 1.82804 3.90599 2.11941 4.16328L2.11941 4.16328L2.11942 4.16329C2.40179 4.41264 2.68429 4.6621 2.98424 4.8982L2.93775 4.85267C2.88867 4.80455 2.83949 4.75635 2.78945 4.7085C2.52228 4.45364 2.24164 4.21011 1.96102 3.9666C1.6391 3.68725 1.31721 3.40793 1.01575 3.11158C0.984196 3.0802 0.969289 3.04573 0.966556 3.01126C0.956609 3.01712 0.947283 3.02307 0.93791 3.02905L0.937899 3.02906L0.922331 3.03892C0.959102 3.06266 0.987426 3.09795 0.996867 3.14585C1.01128 3.21995 1.03786 3.29468 1.06991 3.36899ZM3.51294 7.10986L3.53729 7.1332C3.58604 7.17994 3.63478 7.22669 3.68462 7.27252C3.75195 7.3489 3.82003 7.42528 3.89034 7.50062L3.89109 7.5031C3.7532 7.39989 3.62649 7.25415 3.51294 7.10986ZM4.22153 6.23358C4.03767 6.13986 3.86276 6.02302 3.69556 5.9004C3.87966 6.04304 4.06277 6.1861 4.23842 6.33472L4.23769 6.33318C4.23319 6.32376 4.22862 6.31417 4.2265 6.30459C4.21929 6.28167 4.21706 6.25793 4.22153 6.23358ZM4.50874 7.49422L4.50838 7.49245C4.5083 7.49185 4.50823 7.49127 4.50801 7.49077L4.50775 7.4903C4.50465 7.48441 4.50129 7.47886 4.49794 7.47332C4.49483 7.46818 4.49173 7.46305 4.48886 7.45769C4.6593 7.45603 4.88241 7.35096 5.12739 7.18727C4.91098 7.35695 4.69707 7.47647 4.50874 7.49422ZM10.3138 0.412963C10.1548 0.470556 10.0224 0.55932 9.90388 0.663565C10.0211 0.524433 10.1454 0.417504 10.3138 0.412963ZM5.98938 4.99592L5.98937 4.99592L5.90976 5.0555C5.99289 4.98643 6.07744 4.91892 6.1609 4.85228L6.16094 4.85225L6.16095 4.85225C6.25931 4.77371 6.35616 4.69638 6.44741 4.61911C6.9123 4.22641 7.28853 3.75858 7.66194 3.29427L7.66198 3.29423C7.73059 3.20891 7.79911 3.12371 7.86806 3.03912C8.02883 2.90805 8.19144 2.779 8.35399 2.65L8.35401 2.64998C8.70092 2.37467 9.04756 2.09957 9.37542 1.80552C9.51084 1.68392 9.62401 1.53097 9.73814 1.37672C9.891 1.17013 10.0456 0.961202 10.2577 0.822101C10.0107 1.03844 9.81568 1.35097 9.64922 1.65132C9.44999 1.82572 9.26815 2.01728 9.08568 2.2095L9.08557 2.20961C9.02619 2.27217 8.96674 2.3348 8.90659 2.39693C8.2613 3.06441 7.53566 3.6924 6.81929 4.31236C6.67207 4.43977 6.52524 4.56684 6.37959 4.69384C6.29726 4.76564 6.15849 4.86943 5.98938 4.99592ZM8.77603 3.55359C9.06947 3.29801 9.36296 3.0424 9.63356 2.76994C9.73641 2.6665 9.85821 2.55298 9.98785 2.43216C10.3831 2.06378 10.8513 1.62748 11.0771 1.20172C10.8701 1.31319 10.687 1.49856 10.5198 1.68538C10.3358 1.96467 10.0499 2.20938 9.78847 2.43324C9.75233 2.46418 9.71665 2.49473 9.68176 2.52491C9.58847 2.60534 9.49342 2.6843 9.39826 2.76336L9.38039 2.7782C9.35033 2.82547 9.323 2.86407 9.30039 2.89153C9.01268 3.23956 8.69938 3.56985 8.38385 3.89848C8.5132 3.78252 8.64461 3.66806 8.77603 3.55359Z" fill="#050407"/>
</svg>
