<svg width="69" height="63" viewBox="0 0 69 63" fill="none" xmlns="http://www.w3.org/2000/svg">
<path fill-rule="evenodd" clip-rule="evenodd" d="M24.0755 0.283983C21.2585 -0.478703 18.1922 0.349894 15.8955 2.11066C13.5281 4.00953 12.0011 7.06341 12.1304 10.1581C12.1345 11.6959 12.1331 13.2337 12.1318 14.7706V14.7707V14.7708V14.7709V14.771V14.7711V14.7712V14.7713V14.7714V14.7715V14.7716V14.7723V14.773V14.7737V14.7744V14.7751V14.7758V14.7765V14.7772V14.7779V14.7786C12.1311 15.5446 12.1304 16.3103 12.1304 17.0756C12.0904 19.2915 13.0263 21.4164 14.3378 23.1395C14.8309 23.7795 15.451 24.2831 16.0703 24.7861L16.0703 24.7861L16.0704 24.7861C16.3712 25.0305 16.6718 25.2746 16.9577 25.5342C16.9808 25.619 17.0162 25.7469 17.0516 25.8748C17.087 26.0027 17.1224 26.1306 17.1455 26.2153C10.2401 26.5229 3.83656 31.2716 1.2813 37.7968C-0.163627 41.5065 -0.0508692 45.5361 0.0587938 49.455C0.064088 49.6442 0.0693749 49.8332 0.0744791 50.0218C0.163759 50.7374 0.896473 51.158 1.55838 51.1077C3.26437 51.1241 4.97036 51.1192 6.67591 51.1142H6.67653H6.67683H6.67713H6.67744H6.67774H6.67804H6.67835H6.67865H6.67895H6.67926H6.67956C8.24761 51.1097 9.8153 51.1051 11.3823 51.1172C10.7359 53.741 10.766 56.4361 10.796 59.1225V59.1226V59.1227V59.1228V59.1229V59.123V59.1231V59.1233V59.1234V59.1235V59.1236C10.8043 59.8656 10.8126 60.607 10.8066 61.3459C10.705 62.2028 11.4285 63.0314 12.2843 62.9655C14.7732 62.9868 17.2614 62.9804 19.7493 62.9741H19.7495H19.7497H19.75H19.7502H19.7505H19.7507H19.7509H19.7512H19.7514H19.7516C22.7592 62.9664 25.7663 62.9588 28.7734 63C28.8374 62.9464 28.9053 62.8928 28.9743 62.8382C29.3743 62.5222 29.8146 62.1743 29.7648 61.6096C29.8848 60.7716 29.0875 60.1533 28.324 60.2003C24.6204 60.1862 20.9151 60.188 17.2107 60.1898C15.9758 60.1903 14.7411 60.1909 13.5065 60.1909C13.5105 59.6363 13.5068 59.0809 13.503 58.5252V58.525V58.5249V58.5247V58.5245V58.5244V58.5242V58.5241V58.5239V58.5237V58.5236C13.4893 56.5041 13.4756 54.4813 13.8329 52.4856C13.9252 52.1529 14.0039 51.8175 14.0826 51.482L14.0826 51.4819C14.1219 51.3142 14.1613 51.1465 14.2023 50.9791C15.8401 45.408 20.4119 40.8476 25.935 39.3599C26.1606 39.3069 26.3877 39.2585 26.6147 39.2101L26.6151 39.21L26.6152 39.21L26.6152 39.21L26.6153 39.21L26.6153 39.21L26.6154 39.21L26.6155 39.21L26.6155 39.2099L26.6156 39.2099L26.6157 39.2099L26.6157 39.2099C26.9798 39.1323 27.3439 39.0548 27.7021 38.9581C28.3209 38.9016 28.9366 38.8577 29.5554 38.8294C30.0759 39.6853 30.5805 40.5515 31.0851 41.4177L31.0852 41.4178L31.0853 41.418L31.0854 41.4181L31.0854 41.4183L31.0855 41.4184L31.0856 41.4186L31.0857 41.4187L31.0858 41.4189L31.0859 41.419L31.086 41.4192L31.086 41.4192C31.9153 42.8427 32.7445 44.2661 33.6438 45.6434C34.1918 45.9133 35.1339 46.0326 35.5064 45.4174C36.4864 43.8899 37.4057 42.3227 38.3252 40.7553C38.6998 40.1167 39.0744 39.478 39.4532 38.842C40.0751 38.864 40.6939 38.9016 41.3158 38.9487C41.7541 39.0669 42.2011 39.1531 42.649 39.2393L42.6491 39.2394L42.6493 39.2394L42.6494 39.2394L42.6496 39.2395L42.6497 39.2395L42.6499 39.2395L42.6508 39.2397C42.7969 39.2679 42.9431 39.296 43.0891 39.3253C49.0893 41.0171 53.9474 46.2366 55.1912 52.4699C55.5404 54.4636 55.5241 56.4822 55.5078 58.5002V58.5003V58.5003V58.5004V58.5005V58.5006V58.5007V58.5007V58.5008V58.5009V58.501V58.5011C55.5033 59.0625 55.4987 59.6239 55.5021 60.1847C51.291 60.1986 47.0774 60.1927 42.8636 60.1868H42.8634H42.8632H42.8629H42.8627H42.8624H42.8622H42.862H42.8617H42.8615H42.8612L41.2819 60.1847L41.1832 60.185C40.5799 60.1862 39.8638 60.1878 39.4932 60.7559C39.0284 61.3177 39.327 62.0835 39.6287 62.6485C39.7149 62.6893 39.8434 62.7505 39.972 62.8117L40.1565 62.8995L40.3152 62.9749C42.8374 62.9662 45.3595 62.9695 47.8817 62.9729C50.8241 62.9768 53.7665 62.9807 56.7089 62.9655C57.5771 63.0408 58.3129 62.2028 58.2051 61.3334C58.2013 60.6344 58.2092 59.9334 58.217 59.2317C58.2475 56.5091 58.2781 53.7774 57.6294 51.1172C59.1276 51.1071 60.6259 51.1108 62.1241 51.1145C63.9077 51.119 65.6913 51.1234 67.4749 51.1046C68.2445 51.1768 69.0204 50.5553 68.968 49.733C68.9643 49.049 68.9739 48.3616 68.9836 47.673V47.6726V47.6723V47.672V47.6717V47.6713V47.671V47.6707V47.6704V47.6701V47.6697C69.0213 44.9722 69.0594 42.2556 68.2969 39.6486C66.3974 32.1881 59.3966 26.5543 51.8662 26.209C51.88 25.5674 52.3479 25.2293 52.8098 24.8956C52.9692 24.7804 53.128 24.6657 53.267 24.5393C54.7509 23.3811 55.7976 21.7239 56.4134 19.9381C56.9433 18.4219 56.9109 16.8222 56.8787 15.2283C56.8654 14.572 56.8522 13.9166 56.8782 13.2685C56.8531 12.6491 56.8666 12.0216 56.8801 11.3927V11.3927V11.3927V11.3926V11.3926V11.3926V11.3925V11.3925V11.3925V11.3925V11.3924V11.3924C56.9145 9.79059 56.9491 8.18058 56.3456 6.67736C55.4128 4.11938 53.4979 1.91921 51.0104 0.858352C48.4366 -0.356296 45.3457 -0.25586 42.8397 1.08119C40.2998 2.29898 38.4496 4.73769 37.6799 7.46202C36.8775 7.46558 36.0751 7.46285 35.2725 7.46013H35.2724H35.2724H35.2724H35.2723H35.2723H35.2723H35.2722H35.2722H35.2722H35.2721C33.9532 7.45564 32.6339 7.45116 31.3133 7.47457C31.261 7.28626 31.1563 6.90648 31.104 6.71503C29.9926 3.55443 27.3019 1.03098 24.0755 0.283983ZM15.5877 11.219C14.3316 10.3872 14.8704 8.68295 15.2614 7.49968C16.068 5.10805 18.2138 3.34414 20.6397 2.9016C23.9677 2.22993 27.5759 4.40814 28.5703 7.72253C28.5672 7.77588 28.5641 7.85592 28.561 7.93595C28.5579 8.01599 28.5549 8.09602 28.5518 8.14938C27.2218 8.89323 26.0242 9.8819 25.1961 11.1938C23.36 11.228 21.5228 11.222 19.6858 11.2159H19.6858H19.6857H19.6857H19.6856H19.6855H19.6855H19.6854H19.6853H19.6853H19.6852C18.3191 11.2114 16.9531 11.2069 15.5877 11.219ZM43.9973 3.54815C42.3317 4.27631 41.2296 5.83307 40.4661 7.44947C40.936 7.4905 41.4164 7.47453 41.8973 7.45855C42.8876 7.42564 43.8798 7.39267 44.7854 7.85749C45.0389 8.86267 45.0166 9.89939 44.9945 10.9292C44.9925 11.0248 44.9904 11.1203 44.9886 11.2158C46.8604 11.2179 48.7322 11.2172 50.604 11.2165C51.5399 11.2162 52.4758 11.2158 53.4117 11.2158C53.4861 11.1317 53.5724 11.0519 53.6596 10.9713C53.901 10.7484 54.1495 10.5188 54.1721 10.1707C54.2953 8.40361 53.5687 6.66481 52.5066 5.29637C50.4778 2.87649 46.7896 2.03534 43.9973 3.54815ZM26.7292 14.5208C27.1695 12.5748 28.5826 10.9804 30.4451 10.3496C33.0116 10.2007 35.582 10.2214 38.152 10.2422C39.5373 10.2533 40.9226 10.2645 42.3071 10.2491C42.3037 10.8978 42.3061 11.5468 42.3086 12.196C42.3128 13.309 42.317 14.4224 42.2917 15.5346C41.8607 17.5747 40.2537 19.213 38.2525 19.6493C35.7677 19.6736 33.2829 19.6718 30.7989 19.6699C29.4328 19.6689 28.067 19.6679 26.7015 19.6713C26.7015 19.2898 26.7006 18.9082 26.6997 18.5267C26.6965 17.1914 26.6933 15.8561 26.7292 14.5208ZM14.8334 13.8303C14.8495 14.3276 14.8383 14.8333 14.8271 15.3408C14.7933 16.8739 14.7591 18.4245 15.4738 19.8157C16.2034 21.5921 17.7335 22.8601 19.4267 23.6291C20.5258 23.9021 21.6495 24.147 22.7886 24.0089C23.1857 23.8959 23.5921 23.8017 23.9954 23.7107C24.0403 22.3994 24.0261 21.0866 24.012 19.774V19.7739V19.7739V19.7738V19.7738V19.7738V19.7737V19.7737C23.9911 17.8439 23.9703 15.9143 24.137 13.9904C22.9626 13.9523 21.7852 13.9706 20.6079 13.9888C18.6775 14.0187 16.7477 14.0487 14.8334 13.8303ZM45.0132 23.7327C44.9978 20.4842 44.9917 17.2357 44.9947 13.9841C46.1434 13.9476 47.2955 13.968 48.4478 13.9885C50.3685 14.0226 52.2899 14.0567 54.1968 13.8272C54.1784 14.3246 54.1867 14.8303 54.195 15.3378C54.2202 16.8697 54.2456 18.4184 53.5379 19.8094C52.8021 21.5953 51.269 22.8758 49.5665 23.6542C48.0734 24.0873 46.5187 24.1532 45.0132 23.7327ZM29.5892 22.409H29.5891H29.5888H29.5885H29.5882H29.5879H29.5876C28.6254 22.407 27.6634 22.405 26.7015 22.405C26.7015 22.7305 26.6981 23.0566 26.6946 23.383V23.3831V23.3833V23.3834V23.3836V23.3838C26.6768 25.0494 26.659 26.7211 27.1018 28.3402C28.404 31.9339 32.3508 34.3035 36.0575 33.4373C38.7267 32.9445 40.9371 30.8793 41.8976 28.3307L41.9359 28.1665L41.9703 28.0179L41.9703 28.0178C42.0643 27.6108 42.1581 27.2051 42.2732 26.8054C42.32 25.4423 42.3144 24.0793 42.3087 22.7163C42.3058 22.0172 42.3029 21.3182 42.3071 20.6191C40.971 21.6863 39.3208 22.3548 37.6122 22.383C34.9388 22.42 32.2637 22.4145 29.5894 22.409H29.5893H29.5893H29.5892H29.5892ZM21.1123 30.222C20.3686 29.1008 19.6152 27.965 19.75 26.5637C21.1692 26.7771 22.6131 26.7708 24.0354 26.5574C24.1572 27.8493 23.4779 28.8831 22.7979 29.9178L22.7979 29.9179L22.7979 29.9179L22.7979 29.9179L22.7979 29.9179C22.4636 30.4267 22.1291 30.9356 21.8896 31.4756C21.6623 31.0512 21.388 30.6376 21.1123 30.222ZM44.927 26.5417C44.9055 26.8242 44.8624 27.3923 44.8408 27.6779C45.5256 28.6938 46.1361 29.7595 46.7464 30.8246L46.7464 30.8246L46.7464 30.8247L46.7465 30.8248C46.8715 31.043 46.9965 31.2611 47.1221 31.4788C47.5685 30.7632 48.0026 30.0413 48.4366 29.3163C49.0062 28.5034 49.3664 27.5837 49.2648 26.5637C47.824 26.7803 46.3647 26.774 44.927 26.5417ZM3.02996 41.5067C3.98742 36.4535 7.61096 32.05 12.2843 30.1229C13.8729 29.5203 15.5261 29.0746 17.2255 28.9553C17.6121 29.6056 17.9949 30.2586 18.3779 30.9117L18.378 30.912L18.3782 30.9123L18.3782 30.9123C19.1541 32.2356 19.9303 33.5595 20.7382 34.8622C21.1908 35.7002 22.5485 35.694 22.9856 34.8403C23.8169 33.5754 24.5834 32.2666 25.2977 30.9264C26.3629 32.5334 27.6374 34.0556 29.3522 34.9658C29.3599 35.1431 29.3669 35.3197 29.3738 35.4962L29.3738 35.4963L29.3738 35.4964C29.3807 35.6729 29.3876 35.8494 29.3953 36.0266C27.4835 36.1836 25.5932 36.5634 23.7645 37.1503C18.6571 39.0648 14.3747 43.167 12.2936 48.305C10.4823 48.3442 8.6721 48.3368 6.8623 48.3295H6.86206H6.86182H6.86162H6.86141C5.48456 48.3239 4.10795 48.3183 2.73133 48.3332C2.73717 47.7937 2.73263 47.253 2.72808 46.7119C2.71345 44.9708 2.69879 43.2259 3.02996 41.5067ZM48.2704 34.8559C47.8733 35.6249 46.6326 35.7191 46.1523 35.0003C45.2318 33.7135 44.4652 32.3199 43.7171 30.9264C42.6457 32.5302 41.3712 34.0556 39.6595 34.9689C39.6533 35.1017 39.6449 35.2999 39.6365 35.4984L39.6364 35.5015L39.6363 35.5028C39.6279 35.7015 39.6194 35.8999 39.6133 36.0329C41.5282 36.171 43.4185 36.5445 45.2472 37.1503C50.3546 39.0586 54.6401 43.167 56.7182 48.305C59.07 48.349 61.4218 48.34 63.7737 48.331C64.6082 48.3278 65.4428 48.3246 66.2773 48.3238C66.2742 47.8306 66.2785 47.3362 66.2828 46.8414C66.3001 44.8612 66.3174 42.8754 65.8617 40.9417C65.4553 38.9895 64.5379 37.1942 63.4542 35.5496C60.8004 31.6922 56.3764 29.2692 51.7831 28.9553L51.5309 29.3856L51.5306 29.386C50.4574 31.2169 49.3838 33.0486 48.2704 34.8559ZM32.054 36.7712C32.0608 36.5475 32.0676 36.3249 32.046 36.1114C33.6654 36.4629 35.3463 36.4629 36.9657 36.1114C36.9429 36.3273 36.9494 36.5522 36.9559 36.7781C36.9697 37.2551 36.9836 37.7363 36.7225 38.1452C36.2018 39.009 35.6929 39.8787 35.1835 40.7493C34.9581 41.1346 34.7325 41.5201 34.5059 41.9053C34.2508 41.473 33.9972 41.0395 33.7435 40.606C33.2624 39.7837 32.7811 38.9611 32.2892 38.1452C32.0246 37.7363 32.0394 37.2514 32.054 36.7712Z" fill="#FD0D06"/>
<path d="M34.3644 60.3415C35.5204 59.4833 37.1965 60.3382 36.9811 61.8401C36.8619 62.0144 36.6234 62.363 36.5042 62.5374C36.1663 62.6916 35.8317 62.8458 35.4939 63C35.156 62.8458 34.8182 62.6916 34.4836 62.5407C34.3611 62.363 34.1192 62.0077 34 61.83C34.1093 61.3305 34.2385 60.8344 34.3644 60.3415Z" fill="#FD0D06"/>
</svg>
