<svg width="67" height="63" viewBox="0 0 67 63" fill="none" xmlns="http://www.w3.org/2000/svg">
<path fill-rule="evenodd" clip-rule="evenodd" d="M67 5.829V14.9621V14.9725V14.9836V50.5954C67 53.788 64.4876 56.361 61.3997 56.361H51.7371C51.7436 56.424 51.7508 56.4889 51.7582 56.5551C51.784 56.7857 51.8114 57.0314 51.8114 57.262V61.8308C51.8004 62.4686 51.2858 62.984 50.6454 63H16.3546C15.7142 62.984 15.1996 62.4686 15.1886 61.8308V57.262C15.1886 57.036 15.2154 56.7942 15.2407 56.5667L15.2407 56.5666L15.2407 56.5666C15.2485 56.4964 15.2562 56.4276 15.2629 56.361H5.59978C2.51239 56.361 0 53.788 0 50.5954V5.829C0 2.6364 2.51239 0 5.59978 0H61.3997C64.4876 0 67 2.6364 67 5.829ZM61.3997 2.26009H5.59978C3.76442 2.26009 2.27119 3.88232 2.27119 5.829V13.843H64.7288V5.829C64.7288 3.88232 63.235 2.26009 61.3997 2.26009ZM25.9767 60.7399V56.926H41.0233V60.7399H25.9767ZM43.2945 60.7399H49.5403V57.262C49.5353 56.7075 49.4599 56.1557 49.3151 55.6199C49.3101 55.6057 49.3027 55.5919 49.2952 55.578C49.2852 55.5596 49.2752 55.541 49.2708 55.5212C48.4773 52.679 45.8773 50.7119 42.9136 50.7108H24.0864C20.4495 50.7108 17.4597 53.6429 17.4597 57.262V60.7399H23.7055V55.7485C23.6989 55.4577 23.8131 55.1769 24.0205 54.9722C24.2284 54.7674 24.5117 54.6565 24.8045 54.6659H42.1955C42.4883 54.6565 42.7716 54.7674 42.9795 54.9722C43.1869 55.1769 43.3011 55.4577 43.2945 55.7485V60.7399ZM33.5 21.744C32.7703 21.744 32.1787 21.1552 32.1787 20.4285C32.1787 19.7024 32.7703 19.1136 33.5 19.1136C34.2297 19.1136 34.8213 19.7024 34.8213 20.4285C34.8208 21.1547 34.2297 21.7429 33.5 21.744ZM46.1335 44.3543V27.2623H20.8665V44.3543H46.1335ZM38.6102 46.6143V48.4507H28.3898V46.6143H38.6102ZM51.1998 54.1009H61.3997C63.235 54.1009 64.7288 52.5416 64.7288 50.5954V16.1031H2.27119V50.5954C2.27119 52.5416 3.76442 54.1009 5.59978 54.1009H15.8002C17.1404 50.708 20.4229 48.4694 24.0864 48.4507H26.1186V46.6143H19.7232C19.096 46.6143 18.5953 46.0493 18.5953 45.4258V39.1736C16.77 38.6941 15.498 37.0509 15.498 35.1721C15.498 33.2933 16.77 31.6501 18.5953 31.17V26.1604C18.5892 25.5325 19.0922 25.016 19.7232 25.0022H32.2225V23.7696C30.5756 23.1461 29.6263 21.4262 29.9807 19.7085C30.3355 17.9913 31.8892 16.7829 33.6497 16.8563C35.4102 16.9292 36.8574 18.2617 37.067 20.0026C37.2766 21.7434 36.1871 23.3789 34.4936 23.8639V25.0022H47.2768C47.9078 25.016 48.4108 25.5325 48.4047 26.1604V31.1695C50.23 31.6495 51.502 33.2927 51.502 35.1715C51.502 37.0504 50.23 38.6936 48.4047 39.173V45.4253C48.4047 46.0493 47.904 46.6143 47.2768 46.6143H40.8814V48.4507H42.9136C46.5771 48.4694 49.8596 50.708 51.1998 54.1009ZM48.4047 33.6188C48.9725 33.9576 49.2303 34.5265 49.2303 35.171C49.2303 35.8155 48.9725 36.3849 48.4047 36.7237V33.6188ZM17.7697 35.1715C17.7697 35.8155 18.0275 36.3844 18.5953 36.7237V33.6188C18.0275 33.9576 17.7697 34.5271 17.7697 35.1715Z" fill="#FD0D06"/>
<path fill-rule="evenodd" clip-rule="evenodd" d="M22 7.99974C22 10.2054 20.2054 12 17.9997 12C15.7946 12 14 10.2054 14 7.99974C14 5.7941 15.7946 4 17.9997 4C20.2054 4 22 5.7941 22 7.99974ZM19.7906 7.99974C19.7906 6.97089 18.9874 6.13375 17.9997 6.13375C17.0126 6.13375 16.2094 6.97089 16.2094 7.99974C16.2094 9.02911 17.0126 9.86625 17.9997 9.86625C18.9874 9.86625 19.7906 9.02859 19.7906 7.99974Z" fill="#FD0D06"/>
<path fill-rule="evenodd" clip-rule="evenodd" d="M31 7.99974C31 10.2054 29.2059 12 27.0003 12C24.7946 12 23 10.2054 23 7.99974C23 5.7941 24.7946 4 27.0003 4C29.2059 4 31 5.7941 31 7.99974ZM28.7906 7.99974C28.7906 6.97089 27.9874 6.13375 27.0003 6.13375C26.0131 6.13375 25.2094 6.97089 25.2094 7.99974C25.2094 9.02911 26.0126 9.86625 27.0003 9.86625C27.9874 9.86625 28.7906 9.02859 28.7906 7.99974Z" fill="#FD0D06"/>
<path fill-rule="evenodd" clip-rule="evenodd" d="M12 7.99974C12 10.2054 10.2058 12 8 12C5.7942 12 4 10.2054 4 7.99974C4 5.7941 5.7942 4 8 4C10.2058 4 12 5.7941 12 7.99974ZM9.79042 7.99974C9.79042 6.97089 8.98719 6.13375 8 6.13375C7.01281 6.13375 6.20958 6.97089 6.20958 7.99974C6.20958 9.02911 7.01281 9.86625 8 9.86625C8.98719 9.86625 9.79042 9.02859 9.79042 7.99974Z" fill="#FD0D06"/>
<path fill-rule="evenodd" clip-rule="evenodd" d="M40.8571 37C41.4883 37 42 37.5117 42 38.1429V41.8571C42 42.4883 41.4883 43 40.8571 43H27.1429C26.5117 43 26 42.4883 26 41.8571V38.1429C26 37.5117 26.5117 37 27.1429 37H40.8571ZM28.2857 40.7143H39.7143V39.2857H28.2857V40.7143Z" fill="#FD0D06"/>
<path fill-rule="evenodd" clip-rule="evenodd" d="M29.8837 29C30.5002 29 31 29.4998 31 30.1163V33.8837C31 34.5002 30.5002 35 29.8837 35H26.1163C25.4998 35 25 34.5002 25 33.8837V30.1163C25 29.4998 25.4998 29 26.1163 29H29.8837ZM28.907 31.2326H27.2326V32.7674H28.907V31.2326Z" fill="#FD0D06"/>
<path fill-rule="evenodd" clip-rule="evenodd" d="M40.8837 29C41.5002 29 42 29.4998 42 30.1163V33.8837C42 34.5002 41.5002 35 40.8837 35H37.1163C36.4998 35 36 34.5002 36 33.8837V30.1163C36 29.4998 36.4998 29 37.1163 29H40.8837ZM39.907 31.2326H38.2326V32.7674H39.907V31.2326Z" fill="#FD0D06"/>
</svg>
