<svg width="63" height="63" viewBox="0 0 63 63" fill="none" xmlns="http://www.w3.org/2000/svg">
<path fill-rule="evenodd" clip-rule="evenodd" d="M31.5 0C39.9139 0 47.8243 3.27649 53.7738 9.22618C59.7235 15.1757 63 23.0861 63 31.5C63 39.9139 59.7235 47.8243 53.7738 53.7738C47.8243 59.7235 39.9139 63 31.5 63C23.0861 63 15.1757 59.7235 9.22618 53.7738C3.27649 47.8243 0 39.9139 0 31.5C0 23.0861 3.27649 15.1757 9.22618 9.22618C15.1757 3.27649 23.0861 0 31.5 0ZM2.46094 31.5C2.46094 47.5122 15.4878 60.5391 31.5 60.5391C47.5122 60.5391 60.5391 47.5122 60.5391 31.5C60.5391 15.4878 47.5122 2.46094 31.5 2.46094C15.4878 2.46094 2.46094 15.4878 2.46094 31.5Z" fill="#FD0D06"/>
<path d="M49.5299 13.4724C40.8591 4.80385 27.2298 3.52592 17.1224 10.4335C16.5701 10.811 16.4283 11.5647 16.806 12.1171C17.1837 12.6695 17.9377 12.811 18.49 12.4335C27.6357 6.18303 39.9693 7.34043 47.8163 15.1854C52.1758 19.5438 54.5768 25.3385 54.5768 31.5021C54.5768 37.6658 52.176 43.4604 47.8165 47.8188C43.457 52.1772 37.6607 54.5774 31.4956 54.5774C25.3304 54.5774 19.5342 52.1772 15.1747 47.8188C7.40858 40.0549 6.19576 27.8062 12.2907 18.6942C12.6626 18.1381 12.5132 17.3859 11.957 17.014C11.4007 16.642 10.6483 16.7915 10.2763 17.3476C3.54063 27.4175 4.88007 40.9531 13.4612 49.532C18.2783 54.3477 24.683 57 31.4956 57C38.3081 57 44.7128 54.3477 49.5299 49.5318C54.3471 44.716 57 38.3129 57 31.5021C57 24.6913 54.3471 18.2883 49.5299 13.4724Z" fill="#FD0D06"/>
<path d="M13.9856 16C14.239 16 14.4924 15.9028 14.685 15.7084L14.706 15.6873L14.712 15.6813C15.0973 15.2964 15.0951 14.6744 14.7107 14.2885C14.3263 13.9026 13.6994 13.9047 13.314 14.2897L13.2862 14.3176C12.9027 14.7044 12.9049 15.3293 13.2911 15.7134C13.4835 15.9045 13.7346 16 13.9856 16Z" fill="#FD0D06"/>
<path d="M51.8278 33C52.4752 33 53 32.5523 53 32C53 31.4477 52.4752 31 51.8278 31H50.1722C49.5248 31 49 31.4477 49 32C49 32.5523 49.5248 33 50.1722 33H51.8278Z" fill="#FD0D06"/>
<path d="M11.1722 30C10.5248 30 10 30.4477 10 31C10 31.5523 10.5248 32 11.1722 32H12.8278C13.4752 32 14 31.5523 14 31C14 30.4477 13.4752 30 12.8278 30H11.1722V30Z" fill="#FD0D06"/>
<path d="M30 50.1722V51.8278C30 52.4752 30.4477 53 31 53C31.5523 53 32 52.4752 32 51.8278V50.1722C32 49.5248 31.5523 49 31 49C30.4477 49 30 49.5249 30 50.1722Z" fill="#FD0D06"/>
<path d="M32 12.8278V11.1722C32 10.5248 31.5523 10 31 10C30.4477 10 30 10.5248 30 11.1722V12.8278C30 13.4752 30.4477 14 31 14C31.5523 14 32 13.4752 32 12.8278Z" fill="#FD0D06"/>
<path d="M48.5412 37.7965C47.3437 40.7316 45.4221 43.3328 42.9845 45.319C42.8273 45.4471 42.666 45.5741 42.505 45.6967C41.9434 46.1247 41.8334 46.9289 42.2598 47.4929C42.5109 47.8251 42.8922 48 43.2779 48C43.5468 48 43.818 47.915 44.0488 47.7392C44.2317 47.5999 44.4149 47.4555 44.5936 47.31C47.3629 45.0536 49.5452 42.1 50.9043 38.7684C51.1717 38.1133 50.8594 37.3645 50.2068 37.0962C49.554 36.8274 48.8083 37.1413 48.5412 37.7965Z" fill="#FD0D06"/>
<path d="M39.4425 51C39.6287 51 39.818 50.9628 40.0004 50.8844L40.1225 50.8316C40.855 50.5128 41.1962 49.6469 40.8846 48.8976C40.5729 48.1483 39.7266 47.7993 38.9937 48.1181L38.8833 48.1658C38.1495 48.4814 37.8045 49.3457 38.113 50.0963C38.3448 50.6606 38.8796 51 39.4425 51Z" fill="#FD0D06"/>
<path fill-rule="evenodd" clip-rule="evenodd" d="M18.2478 45C17.9285 45 17.6092 44.8816 17.3655 44.6446C16.8782 44.1709 16.8782 43.4026 17.3655 42.9288L27.134 33.4313C26.7416 32.7603 26.5162 31.9856 26.5162 31.1601C26.5162 30.3288 26.7448 29.5488 27.1425 28.8746L22.2021 24.0712C21.7148 23.5973 21.7147 22.8291 22.2021 22.3553C22.6895 21.8816 23.4796 21.8816 23.9669 22.3553L28.9074 27.1587C29.6008 26.772 30.4031 26.5497 31.2581 26.5497C33.8728 26.5497 36 28.618 36 31.1601C36 33.7022 33.8728 35.7704 31.2581 35.7704C30.3969 35.7704 29.5895 35.545 28.8925 35.1532L19.1302 44.6446C18.8866 44.8816 18.5672 45 18.2478 45ZM31.2581 33.3439C32.4966 33.3439 33.5043 32.3642 33.5043 31.1601C33.5043 29.9559 32.4966 28.9762 31.2581 28.9762C30.0196 28.9762 29.0119 29.9559 29.0119 31.1601C29.0119 32.3642 30.0196 33.3439 31.2581 33.3439Z" fill="#FD0D06"/>
</svg>
