<svg width="60" height="51" viewBox="0 0 60 51" fill="none" xmlns="http://www.w3.org/2000/svg">
<path fill-rule="evenodd" clip-rule="evenodd" d="M57.6331 45.1705L53.2258 38.9161V5.88462H54.3717C54.7724 7.02342 55.837 7.84615 57.0968 7.84615C58.6972 7.84615 60 6.52585 60 4.90385C60 3.28184 58.6972 1.96154 57.0968 1.96154C55.837 1.96154 54.7724 2.78427 54.3717 3.92308H41.6129C41.6129 1.75945 39.8768 0 37.7419 0C35.607 0 33.871 1.75945 33.871 3.92308H21.2903C21.2903 1.75945 19.5542 0 17.4194 0C15.2845 0 13.5484 1.75945 13.5484 3.92308H5.62831C5.2276 2.78427 4.16299 1.96154 2.90323 1.96154C1.30277 1.96154 0 3.28184 0 4.90385C0 6.52585 1.30277 7.84615 2.90323 7.84615C4.16299 7.84615 5.2276 7.02342 5.62831 5.88462H6.77419V38.9161L2.3669 45.1705C1.02208 45.4262 0 46.622 0 48.0577V51H60V48.0577C60 46.622 58.9779 45.4262 57.6331 45.1705ZM57.0968 3.92308C57.6307 3.92308 58.0645 4.36366 58.0645 4.90385C58.0645 5.44404 57.6307 5.88462 57.0968 5.88462C56.5628 5.88462 56.129 5.44404 56.129 4.90385C56.129 4.36366 56.5628 3.92308 57.0968 3.92308ZM39.6774 3.92308C39.6774 2.84126 38.8094 1.96154 37.7419 1.96154C36.6745 1.96154 35.8064 2.84126 35.8064 3.92308H39.6774ZM37.7419 30.4038V15.6923H43.5484V30.4038H37.7419ZM35.8064 15.6923C35.8064 14.6105 36.6745 13.7308 37.7419 13.7308H43.5484C44.6158 13.7308 45.4839 14.6105 45.4839 15.6923H47.4194V11.7692H45.3175C43.6018 11.7692 41.973 11.1955 40.6452 10.1362C39.3174 11.1955 37.6885 11.7692 35.9728 11.7692H33.871V15.6923H35.8064ZM17.4194 1.96154C18.4868 1.96154 19.3548 2.84126 19.3548 3.92308H15.4839C15.4839 2.84126 16.3519 1.96154 17.4194 1.96154ZM24.4634 22.5577H16.1809L12.7044 33.1283C13.5503 34.0386 16.0703 36.2885 20.3226 36.2885C24.573 36.2885 27.092 34.0405 27.9398 33.1283L24.4634 22.5577ZM24.2488 20.5962H16.3973C16.1303 18.1983 14.8899 15.9758 12.9686 14.5152L12.5806 14.2212V11.7692H15.5817C16.0315 14.0042 17.9854 15.6923 20.3226 15.6923C22.6597 15.6923 24.6136 14.0042 25.0635 11.7692H28.0645V14.2212L27.6785 14.5152C25.7553 15.9758 24.5158 18.1983 24.2488 20.5962ZM17.5181 11.5082C17.8366 12.7826 18.9678 13.7308 20.3226 13.7308C21.6773 13.7308 22.8086 12.7826 23.127 11.5082C22.1121 11.2487 21.1547 10.8004 20.3226 10.1372C19.4914 10.8004 18.5331 11.2472 17.5181 11.5082ZM2.90323 5.88462C2.36927 5.88462 1.93548 5.44404 1.93548 4.90385C1.93548 4.36366 2.36927 3.92308 2.90323 3.92308C3.43718 3.92308 3.87097 4.36366 3.87097 4.90385C3.87097 5.44404 3.43718 5.88462 2.90323 5.88462ZM19.3548 8.39448V5.88462H8.70968V38.9161L13.117 45.1705C14.4618 45.4262 15.4839 46.622 15.4839 48.0577V49.0385H44.5161V48.0577C44.5161 46.622 45.5382 45.4262 46.883 45.1705L51.2903 38.9161V5.88462H41.6129V8.39448C42.6397 9.30438 43.9392 9.80769 45.3175 9.80769H49.3548V17.6538H45.4839V36.2885H43.5484V32.3654H41.6129V36.2885H39.6774V32.3654H37.7419V36.2885H35.8065V17.6538H31.9355V9.80769H35.9728C37.3512 9.80769 38.6497 9.30438 39.6774 8.39448V5.88462H21.2903V8.39448C22.3171 9.30438 23.6166 9.80769 24.995 9.80769H30V15.2019L28.8395 16.0855C27.178 17.3478 26.1782 19.3439 26.1366 21.4433L30.1101 33.5238L29.8063 33.9347C29.6758 34.1109 26.5411 38.25 20.3226 38.25C14.1041 38.25 10.9693 34.1109 10.8389 33.9347L10.5351 33.5229L14.5086 21.4424C14.467 19.3429 13.4671 17.3469 11.8066 16.0845L10.6452 15.2019V9.80769H15.6502C17.0286 9.80769 18.3271 9.30438 19.3548 8.39448ZM46.4516 49.0385V48.0577C46.4516 47.5175 46.8854 47.0769 47.4194 47.0769C47.9533 47.0769 48.3871 47.5175 48.3871 48.0577V49.0385H46.4516ZM13.5484 48.0577C13.5484 47.5175 13.1146 47.0769 12.5806 47.0769C12.0467 47.0769 11.6129 47.5175 11.6129 48.0577V49.0385H13.5484V48.0577ZM3.87097 49.0385H1.93548V48.0577C1.93548 47.5175 2.36927 47.0769 2.90323 47.0769C3.43718 47.0769 3.87097 47.5175 3.87097 48.0577V49.0385ZM7.74194 40.9189L4.45549 45.5804C5.2654 46.1029 5.80645 47.0151 5.80645 48.0577V49.0385H9.67742V48.0577C9.67742 47.0151 10.2185 46.1029 11.0284 45.5804L7.74194 40.9189ZM54.1935 48.0577V49.0385H50.3226V48.0577C50.3226 47.0151 49.7815 46.1029 48.9716 45.5804L52.2581 40.9189L55.5445 45.5804C54.7346 46.1029 54.1935 47.0151 54.1935 48.0577ZM56.129 49.0385H58.0645V48.0577C58.0645 47.5175 57.6307 47.0769 57.0968 47.0769C56.5628 47.0769 56.129 47.5175 56.129 48.0577V49.0385Z" fill="#FD0D06"/>
</svg>
