<svg width="49" height="49" viewBox="0 0 49 49" fill="none" xmlns="http://www.w3.org/2000/svg">
<path fill-rule="evenodd" clip-rule="evenodd" d="M47.8496 21.5569L40.3232 10.4029C40.1535 10.1515 39.8651 10 39.5557 10H9.48C9.17129 10 8.88332 10.1508 8.7135 10.4014L1.17495 21.5221C1.13906 21.5702 1.10794 21.6221 1.08196 21.6776C0.933159 21.9964 0.990073 22.3703 1.22746 22.6337L5.04851 26.8738C5.38256 27.2444 5.96234 27.2817 6.34367 26.9572C6.72499 26.6325 6.76336 26.069 6.42941 25.6985L3.94199 22.9381H16.2888L22.493 43.524L15.4821 35.744C15.1481 35.3734 14.5681 35.3361 14.1869 35.6606C13.8056 35.9853 13.7672 36.5488 14.1011 36.9193L23.8123 47.6956C23.9866 47.889 24.2384 48 24.5028 48C24.7674 48 25.019 47.889 25.1932 47.6955L35.5323 36.2197C35.8664 35.8491 35.8279 35.2855 35.4464 34.961C35.0649 34.6364 34.485 34.6737 34.1512 35.0445L26.5128 43.5228L32.7168 22.938H45.0585L39.3503 29.274C39.0162 29.6447 39.0547 30.2082 39.4362 30.5327C39.6103 30.681 39.8259 30.7537 40.0405 30.7537C40.2959 30.7537 40.55 30.6506 40.7313 30.4492L47.7727 22.6336C48.0442 22.3322 48.0757 21.8919 47.8496 21.5569ZM3.6229 21.154L9.47817 12.5162L15.3068 21.154H3.6229ZM22.8031 11.7842H11.1795L16.9914 20.397L22.8031 11.7842ZM24.5027 12.5188L30.3296 21.154H18.6759L24.5027 12.5188ZM18.2016 22.9381L24.5027 43.8454L30.8039 22.9381H18.2016ZM32.0292 20.4194L26.2024 11.7842H37.8562L32.0292 20.4194ZM39.5557 12.5188L33.7288 21.154H45.3824L39.5557 12.5188Z" fill="#FD0D06"/>
<path d="M40.3232 10.4029L40.5304 10.2631L40.5304 10.263L40.3232 10.4029ZM47.8496 21.5569L47.6424 21.6967L47.6424 21.6967L47.8496 21.5569ZM8.7135 10.4014L8.92043 10.5417L8.92045 10.5416L8.7135 10.4014ZM1.17495 21.5221L1.3755 21.6718L1.38189 21.6624L1.17495 21.5221ZM1.08196 21.6776L0.855545 21.5716L0.855418 21.5719L1.08196 21.6776ZM1.22746 22.6337L1.41318 22.4663L1.41316 22.4663L1.22746 22.6337ZM5.04851 26.8738L5.23422 26.7064L5.23422 26.7064L5.04851 26.8738ZM6.34367 26.9572L6.50571 27.1476L6.50573 27.1475L6.34367 26.9572ZM6.42941 25.6985L6.24369 25.8658L6.24371 25.8658L6.42941 25.6985ZM3.94199 22.9381V22.6881H3.38018L3.75627 23.1054L3.94199 22.9381ZM16.2888 22.9381L16.5281 22.8659L16.4745 22.6881H16.2888V22.9381ZM22.493 43.524L22.3073 43.6913L22.7324 43.4518L22.493 43.524ZM15.4821 35.744L15.2963 35.9114L15.2963 35.9114L15.4821 35.744ZM14.1869 35.6606L14.0248 35.4703L14.0248 35.4703L14.1869 35.6606ZM14.1011 36.9193L14.2869 36.752L14.2868 36.752L14.1011 36.9193ZM23.8123 47.6956L23.9981 47.5283L23.9981 47.5282L23.8123 47.6956ZM25.1932 47.6955L25.0075 47.5282L25.0075 47.5282L25.1932 47.6955ZM35.5323 36.2197L35.3466 36.0524L35.3466 36.0524L35.5323 36.2197ZM35.4464 34.961L35.2844 35.1514L35.2844 35.1515L35.4464 34.961ZM34.1512 35.0445L34.337 35.2119L34.337 35.2118L34.1512 35.0445ZM26.5128 43.5228L26.2735 43.4507L26.6986 43.6901L26.5128 43.5228ZM32.7168 22.938V22.688H32.5311L32.4775 22.8659L32.7168 22.938ZM45.0585 22.938L45.2442 23.1053L45.6202 22.688H45.0585V22.938ZM39.3503 29.274L39.536 29.4413L39.536 29.4413L39.3503 29.274ZM39.4362 30.5327L39.5983 30.3424L39.5981 30.3423L39.4362 30.5327ZM40.7313 30.4492L40.5456 30.2819L40.5456 30.2819L40.7313 30.4492ZM47.7727 22.6336L47.587 22.4663L47.587 22.4663L47.7727 22.6336ZM9.47817 12.5162L9.6854 12.3764L9.47864 12.0699L9.27123 12.3759L9.47817 12.5162ZM3.6229 21.154L3.41596 21.0137L3.15141 21.404H3.6229V21.154ZM15.3068 21.154V21.404H15.7771L15.514 21.0141L15.3068 21.154ZM11.1795 11.7842V11.5342H10.7092L10.9723 11.924L11.1795 11.7842ZM22.8031 11.7842L23.0104 11.924L23.2734 11.5342H22.8031V11.7842ZM16.9914 20.397L16.7841 20.5368L16.9914 20.8439L17.1986 20.5368L16.9914 20.397ZM30.3296 21.154V21.404H30.7998L30.5368 21.0141L30.3296 21.154ZM24.5027 12.5188L24.71 12.3789L24.5027 12.0718L24.2955 12.3789L24.5027 12.5188ZM18.6759 21.154L18.4687 21.0141L18.2057 21.404H18.6759V21.154ZM24.5027 43.8454L24.2634 43.9175L24.5027 44.7118L24.7421 43.9175L24.5027 43.8454ZM18.2016 22.9381V22.6881H17.8652L17.9623 23.0102L18.2016 22.9381ZM30.8039 22.9381L31.0432 23.0102L31.1403 22.6881H30.8039V22.9381ZM26.2024 11.7842V11.5342H25.7321L25.9951 11.924L26.2024 11.7842ZM32.0292 20.4194L31.8219 20.5592L32.0292 20.8663L32.2364 20.5592L32.0292 20.4194ZM37.8562 11.7842L38.0634 11.924L38.3265 11.5342H37.8562V11.7842ZM33.7288 21.154L33.5216 21.0141L33.2585 21.404H33.7288V21.154ZM39.5557 12.5188L39.7629 12.3789L39.5557 12.0718L39.3485 12.3789L39.5557 12.5188ZM45.3824 21.154V21.404H45.8527L45.5896 21.0141L45.3824 21.154ZM40.116 10.5427L47.6424 21.6967L48.0569 21.417L40.5304 10.2631L40.116 10.5427ZM39.5557 10.25C39.7839 10.25 39.9938 10.3618 40.116 10.5428L40.5304 10.263C40.3131 9.94118 39.9462 9.75 39.5557 9.75V10.25ZM9.48 10.25H39.5557V9.75H9.48V10.25ZM8.92045 10.5416C9.04266 10.3613 9.25222 10.25 9.48 10.25V9.75C9.09036 9.75 8.72399 9.94025 8.50654 10.2611L8.92045 10.5416ZM1.38189 21.6624L8.92043 10.5417L8.50656 10.2611L0.968017 21.3818L1.38189 21.6624ZM1.30838 21.7836C1.32721 21.7433 1.34961 21.706 1.3753 21.6716L0.974609 21.3725C0.928504 21.4343 0.888668 21.5008 0.855545 21.5716L1.30838 21.7836ZM1.41316 22.4663C1.2423 22.2768 1.20259 22.0103 1.30851 21.7833L0.855418 21.5719C0.663724 21.9826 0.737844 22.4639 1.04176 22.8011L1.41316 22.4663ZM5.23422 26.7064L1.41318 22.4663L1.04174 22.801L4.86279 27.0411L5.23422 26.7064ZM6.18163 26.7668C5.90271 27.0042 5.47712 26.9759 5.23422 26.7064L4.86279 27.0411C5.28799 27.5129 6.02198 27.5593 6.50571 27.1476L6.18163 26.7668ZM6.24371 25.8658C6.48272 26.131 6.45643 26.5328 6.1816 26.7668L6.50573 27.1475C6.99356 26.7322 7.04401 26.0069 6.61511 25.5311L6.24371 25.8658ZM3.75627 23.1054L6.24369 25.8658L6.61513 25.5311L4.12771 22.7707L3.75627 23.1054ZM16.2888 22.6881H3.94199V23.1881H16.2888V22.6881ZM22.7324 43.4518L16.5281 22.8659L16.0494 23.0102L22.2537 43.5961L22.7324 43.4518ZM15.2963 35.9114L22.3073 43.6913L22.6788 43.3566L15.6678 35.5767L15.2963 35.9114ZM14.3489 35.851C14.6278 35.6136 15.0535 35.6419 15.2963 35.9114L15.6678 35.5767C15.2427 35.1048 14.5085 35.0585 14.0248 35.4703L14.3489 35.851ZM14.2868 36.752C14.0478 36.4868 14.0741 36.085 14.349 35.851L14.0248 35.4703C13.537 35.8856 13.4866 36.6109 13.9155 37.0867L14.2868 36.752ZM23.9981 47.5282L14.2869 36.752L13.9154 37.0867L23.6266 47.863L23.9981 47.5282ZM24.5028 47.75C24.3079 47.75 24.124 47.6681 23.9981 47.5283L23.6266 47.8629C23.8491 48.1099 24.1688 48.25 24.5028 48.25V47.75ZM25.0075 47.5282C24.8815 47.6681 24.6978 47.75 24.5028 47.75V48.25C24.837 48.25 25.1565 48.1099 25.379 47.8628L25.0075 47.5282ZM35.3466 36.0524L25.0075 47.5282L25.379 47.8629L35.7181 36.3871L35.3466 36.0524ZM35.2844 35.1515C35.5593 35.3852 35.5858 35.787 35.3466 36.0524L35.718 36.3871C36.147 35.9111 36.0965 35.1857 35.6084 34.7706L35.2844 35.1515ZM34.337 35.2118C34.5796 34.9423 35.0052 34.9139 35.2844 35.1514L35.6084 34.7706C35.1245 34.3589 34.3904 34.4052 33.9654 34.8773L34.337 35.2118ZM26.6986 43.6901L34.337 35.2119L33.9655 34.8772L26.3271 43.3555L26.6986 43.6901ZM32.4775 22.8659L26.2735 43.4507L26.7522 43.5949L32.9562 23.0101L32.4775 22.8659ZM45.0585 22.688H32.7168V23.188H45.0585V22.688ZM39.536 29.4413L45.2442 23.1053L44.8727 22.7707L39.1645 29.1066L39.536 29.4413ZM39.5981 30.3423C39.3233 30.1085 39.2968 29.7067 39.536 29.4413L39.1645 29.1066C38.7356 29.5826 38.7861 30.308 39.2742 30.7231L39.5981 30.3423ZM40.0405 30.5037C39.8821 30.5037 39.7248 30.4501 39.5983 30.3424L39.2741 30.723C39.4958 30.9118 39.7696 31.0037 40.0405 31.0037V30.5037ZM40.5456 30.2819C40.4144 30.4276 40.2293 30.5037 40.0405 30.5037V31.0037C40.3624 31.0037 40.6855 30.8737 40.9171 30.6165L40.5456 30.2819ZM47.587 22.4663L40.5456 30.2819L40.9171 30.6165L47.9585 22.8009L47.587 22.4663ZM47.6424 21.6967C47.8039 21.936 47.7821 22.2497 47.587 22.4663L47.9584 22.8009C48.3064 22.4147 48.3476 21.8477 48.0569 21.417L47.6424 21.6967ZM9.27123 12.3759L3.41596 21.0137L3.82984 21.2943L9.6851 12.6565L9.27123 12.3759ZM15.514 21.0141L9.6854 12.3764L9.27093 12.656L15.0996 21.2938L15.514 21.0141ZM3.6229 21.404H15.3068V20.904H3.6229V21.404ZM11.1795 12.0342H22.8031V11.5342H11.1795V12.0342ZM17.1986 20.2572L11.3868 11.6444L10.9723 11.924L16.7841 20.5368L17.1986 20.2572ZM22.5959 11.6444L16.7841 20.2572L17.1986 20.5368L23.0104 11.924L22.5959 11.6444ZM30.5368 21.0141L24.71 12.3789L24.2955 12.6586L30.1223 21.2938L30.5368 21.0141ZM18.6759 21.404H30.3296V20.904H18.6759V21.404ZM24.2955 12.3789L18.4687 21.0141L18.8832 21.2938L24.71 12.6586L24.2955 12.3789ZM24.7421 43.7733L18.441 22.8659L17.9623 23.0102L24.2634 43.9175L24.7421 43.7733ZM30.5645 22.8659L24.2634 43.7733L24.7421 43.9175L31.0432 23.0102L30.5645 22.8659ZM18.2016 23.1881H30.8039V22.6881H18.2016V23.1881ZM25.9951 11.924L31.8219 20.5592L32.2364 20.2796L26.4096 11.6444L25.9951 11.924ZM37.8562 11.5342H26.2024V12.0342H37.8562V11.5342ZM32.2364 20.5592L38.0634 11.924L37.6489 11.6444L31.8219 20.2796L32.2364 20.5592ZM33.936 21.2938L39.7629 12.6586L39.3485 12.3789L33.5216 21.0141L33.936 21.2938ZM45.3824 20.904H33.7288V21.404H45.3824V20.904ZM39.3485 12.6586L45.1752 21.2938L45.5896 21.0141L39.7629 12.3789L39.3485 12.6586Z" fill="#FD0D06"/>
<path fill-rule="evenodd" clip-rule="evenodd" d="M10.8984 26.8984C10.8984 29.216 12.784 31.1016 15.1016 31.1016C15.5977 31.1016 16 31.5038 16 32C16 32.4962 15.5977 32.8984 15.1016 32.8984C12.784 32.8984 10.8984 34.784 10.8984 37.1016C10.8984 37.5977 10.4961 38 10 38C9.50392 38 9.10156 37.5977 9.10156 37.1016C9.10156 34.784 7.21601 32.8984 4.89844 32.8984C4.40236 32.8984 4 32.4962 4 32C4 31.5038 4.40236 31.1016 4.89844 31.1016C7.21601 31.1016 9.10156 29.216 9.10156 26.8984C9.10156 26.4023 9.50383 26 10 26C10.4962 26 10.8984 26.4023 10.8984 26.8984ZM8.05379 32C8.84279 32.4899 9.51021 33.1572 10 33.9463C10.4899 33.1571 11.1572 32.4899 11.9462 32C11.1572 31.5101 10.4898 30.8428 10 30.0537C9.51012 30.8429 8.84279 31.5102 8.05379 32Z" fill="#FD0D06"/>
<path d="M10 33.9463L9.78759 34.0781L9.99999 34.4203L10.2124 34.0781L10 33.9463ZM8.05379 32L7.92194 31.7876L7.57981 32L7.92192 32.2124L8.05379 32ZM11.9462 32L12.0781 32.2124L12.4202 32L12.0781 31.7876L11.9462 32ZM10 30.0537L10.2124 29.9219L10 29.5797L9.7876 29.9219L10 30.0537ZM15.1016 30.8516C12.9221 30.8516 11.1484 29.0779 11.1484 26.8984H10.6484C10.6484 29.3541 12.6459 31.3516 15.1016 31.3516V30.8516ZM16.25 32C16.25 31.3658 15.7358 30.8516 15.1016 30.8516V31.3516C15.4597 31.3516 15.75 31.6419 15.75 32H16.25ZM15.1016 33.1484C15.7358 33.1484 16.25 32.6342 16.25 32H15.75C15.75 32.3581 15.4597 32.6484 15.1016 32.6484V33.1484ZM11.1484 37.1016C11.1484 34.9221 12.9221 33.1484 15.1016 33.1484V32.6484C12.6459 32.6484 10.6484 34.6459 10.6484 37.1016H11.1484ZM10 38.25C10.6341 38.25 11.1484 37.7358 11.1484 37.1016H10.6484C10.6484 37.4596 10.358 37.75 10 37.75V38.25ZM8.85156 37.1016C8.85156 37.7358 9.36587 38.25 10 38.25V37.75C9.64198 37.75 9.35156 37.4596 9.35156 37.1016H8.85156ZM4.89844 33.1484C7.07793 33.1484 8.85156 34.9221 8.85156 37.1016H9.35156C9.35156 34.6459 7.35408 32.6484 4.89844 32.6484V33.1484ZM3.75 32C3.75 32.6343 4.26431 33.1484 4.89844 33.1484V32.6484C4.54042 32.6484 4.25 32.3581 4.25 32H3.75ZM4.89844 30.8516C4.26431 30.8516 3.75 31.3657 3.75 32H4.25C4.25 31.6419 4.54042 31.3516 4.89844 31.3516V30.8516ZM8.85156 26.8984C8.85156 29.0779 7.07793 30.8516 4.89844 30.8516V31.3516C7.35408 31.3516 9.35156 29.3541 9.35156 26.8984H8.85156ZM10 25.75C9.36576 25.75 8.85156 26.2642 8.85156 26.8984H9.35156C9.35156 26.5403 9.6419 26.25 10 26.25V25.75ZM11.1484 26.8984C11.1484 26.2642 10.6342 25.75 10 25.75V26.25C10.3581 26.25 10.6484 26.5403 10.6484 26.8984H11.1484ZM10.2124 33.8145C9.70232 32.9927 9.00733 32.2978 8.18566 31.7876L7.92192 32.2124C8.67825 32.682 9.31811 33.3218 9.78759 34.0781L10.2124 33.8145ZM11.8143 31.7876C10.9927 32.2978 10.2978 32.9926 9.7876 33.8144L10.2124 34.0781C10.682 33.3217 11.3218 32.682 12.0781 32.2124L11.8143 31.7876ZM9.78759 30.1855C10.2977 31.0073 10.9927 31.7022 11.8143 32.2124L12.0781 31.7876C11.3218 31.318 10.6819 30.6782 10.2124 29.9219L9.78759 30.1855ZM8.18565 32.2124C9.00734 31.7023 9.70224 31.0074 10.2124 30.1856L9.7876 29.9219C9.31801 30.6783 8.67824 31.3181 7.92194 31.7876L8.18565 32.2124Z" fill="#FD0D06"/>
<path fill-rule="evenodd" clip-rule="evenodd" d="M44 2C44 3.65417 45.3458 5 47 5C47.5522 5 48 5.44774 48 6C48 6.55226 47.5522 7 47 7C45.3458 7 44 8.34583 44 10C44 10.5523 43.5522 11 43 11C42.4478 11 42 10.5523 42 10C42 8.34583 40.6542 7 39 7C38.4478 7 38 6.55226 38 6C38 5.44774 38.4478 5 39 5C40.6542 5 42 3.65417 42 2C42 1.44774 42.4478 1 43 1C43.5522 1 44 1.44774 44 2ZM41.9969 6C42.3767 6.28533 42.7147 6.62326 43 7.0031C43.2852 6.62326 43.6233 6.28523 44.0031 6C43.6233 5.71467 43.2853 5.37674 43 4.9969C42.7147 5.37674 42.3767 5.71467 41.9969 6Z" fill="#FD0D06"/>
<path d="M43 7.0031L42.8001 7.15325L43 7.41939L43.1999 7.15322L43 7.0031ZM41.9969 6L41.8467 5.80011L41.5807 6L41.8467 6.19989L41.9969 6ZM44.0031 6L44.1532 6.19991L44.4194 6.00004L44.1533 5.80011L44.0031 6ZM43 4.9969L43.1999 4.84675L43 4.58065L42.8001 4.84675L43 4.9969ZM47 4.75C45.4839 4.75 44.25 3.51609 44.25 2H43.75C43.75 3.79224 45.2078 5.25 47 5.25V4.75ZM48.25 6C48.25 5.30966 47.6902 4.75 47 4.75V5.25C47.4141 5.25 47.75 5.58583 47.75 6H48.25ZM47 7.25C47.6902 7.25 48.25 6.69034 48.25 6H47.75C47.75 6.41417 47.4141 6.75 47 6.75V7.25ZM44.25 10C44.25 8.48391 45.4839 7.25 47 7.25V6.75C45.2078 6.75 43.75 8.20776 43.75 10H44.25ZM43 11.25C43.6902 11.25 44.25 10.6903 44.25 10H43.75C43.75 10.4142 43.4141 10.75 43 10.75V11.25ZM41.75 10C41.75 10.6903 42.3098 11.25 43 11.25V10.75C42.5859 10.75 42.25 10.4142 42.25 10H41.75ZM39 7.25C40.5161 7.25 41.75 8.48391 41.75 10H42.25C42.25 8.20776 40.7922 6.75 39 6.75V7.25ZM37.75 6C37.75 6.69034 38.3098 7.25 39 7.25V6.75C38.5859 6.75 38.25 6.41417 38.25 6H37.75ZM39 4.75C38.3098 4.75 37.75 5.30966 37.75 6H38.25C38.25 5.58583 38.5859 5.25 39 5.25V4.75ZM41.75 2C41.75 3.51609 40.5161 4.75 39 4.75V5.25C40.7922 5.25 42.25 3.79224 42.25 2H41.75ZM43 0.75C42.3098 0.75 41.75 1.30966 41.75 2H42.25C42.25 1.58583 42.5859 1.25 43 1.25V0.75ZM44.25 2C44.25 1.30966 43.6902 0.75 43 0.75V1.25C43.4141 1.25 43.75 1.58583 43.75 2H44.25ZM43.1999 6.85295C42.9004 6.45427 42.5457 6.09959 42.1471 5.80011L41.8467 6.19989C42.2077 6.47106 42.5289 6.79225 42.8001 7.15325L43.1999 6.85295ZM43.853 5.80009C43.4543 6.09948 43.0995 6.45428 42.8001 6.85298L43.1999 7.15322C43.471 6.79224 43.7922 6.47097 44.1532 6.19991L43.853 5.80009ZM42.8001 5.14705C43.0996 5.54573 43.4543 5.90041 43.8529 6.19989L44.1533 5.80011C43.7923 5.52894 43.4711 5.20775 43.1999 4.84675L42.8001 5.14705ZM42.1471 6.19989C42.5457 5.90041 42.9004 5.54573 43.1999 5.14705L42.8001 4.84675C42.5289 5.20775 42.2077 5.52894 41.8467 5.80011L42.1471 6.19989Z" fill="#FD0D06"/>
<path d="M37.7069 32.293C37.521 32.106 37.2629 32 37 32C36.7369 32 36.48 32.106 36.293 32.293C36.107 32.479 36 32.7371 36 33C36 33.2629 36.1069 33.521 36.293 33.707C36.479 33.893 36.7369 34 37 34C37.263 34 37.521 33.893 37.7069 33.707C37.8929 33.521 38 33.2629 38 33C38 32.7371 37.893 32.479 37.7069 32.293Z" fill="#FD0D06" stroke="#FD0D06" stroke-width="0.5"/>
</svg>
