<svg width="53" height="53" viewBox="0 0 53 53" fill="none" xmlns="http://www.w3.org/2000/svg">
<path fill-rule="evenodd" clip-rule="evenodd" d="M18.6483 16.9114L4.36053 13.0937C4.13118 13.0303 3.89365 12.9992 3.6557 13C2.3252 12.9945 1.1978 13.9681 1.0231 15.2734C0.848396 16.5787 1.68103 17.8091 2.96721 18.1464L16.9486 21.8818C17.0024 26.1688 19.9203 29.9016 24.0998 31.029L37.7164 34.666C40.1984 35.3321 42.846 34.9935 45.0754 33.7256C47.3048 32.4574 48.9335 30.3637 49.6018 27.9064L49.9456 26.6415C50.3023 25.3332 48.912 23.9699 45.5673 22.3469C42.1085 20.7528 38.5098 19.4747 34.8161 18.5284C33.378 18.1426 22.2044 15.241 18.6483 16.9114ZM3.42979 16.4595C2.95989 16.3326 2.68321 15.8526 2.81144 15.3875C2.93967 14.9225 3.42462 14.6482 3.89451 14.7751L17.5072 18.4122L17.2765 19.2541C17.1986 19.5382 17.1405 19.8235 17.0893 20.1089L3.42979 16.4595ZM24.5598 29.3412L38.1755 32.9782C42.1451 34.0348 46.2725 31.9148 47.6843 28.0938C47.0484 28.1939 46.4051 28.2411 45.7613 28.2352C45.3728 28.2352 44.9425 28.2186 44.5018 28.1943H44.4553C44.4048 28.1915 44.3549 28.1889 44.3051 28.1864L44.305 28.1864C44.1968 28.1809 44.0889 28.1755 43.9743 28.167C43.7296 28.1501 43.4725 28.1256 43.2152 28.1011L43.1115 28.0912L43.0655 28.087C41.6037 27.9447 39.9802 27.7032 38.2547 27.3732L38.2155 27.3654L38.2154 27.3654C38.1931 27.3609 38.1707 27.3563 38.148 27.3523C37.6406 27.2578 37.126 27.1521 36.604 27.0359L36.2903 26.9686C35.8286 26.8668 35.3626 26.7595 34.8927 26.6466C34.7572 26.6155 34.6268 26.5849 34.4925 26.5516C33.9146 26.4115 33.3316 26.2629 32.7442 26.1062C32.5088 26.0431 32.0075 25.9064 31.3341 25.711C29.6826 25.2416 28.0999 24.7263 26.6266 24.1952C26.3998 24.1143 26.1718 24.0313 25.9428 23.9465L25.5732 23.8102C23.1652 23.004 20.8928 21.8435 18.8334 20.3678C18.7262 20.9526 18.6866 21.5475 18.7155 22.1412C18.7204 22.1457 18.7263 22.1487 18.7322 22.1516C18.7385 22.1547 18.7448 22.1579 18.7499 22.1629C19.7757 23.1527 22.29 24.4376 25.6455 25.6892C26.0444 25.8374 26.2785 26.2467 26.2023 26.6615C26.1261 27.0763 25.7612 27.3779 25.3352 27.3779C25.2294 27.3774 25.124 27.3587 25.0246 27.3221C23.0387 26.6147 21.12 25.7352 19.2899 24.6948C20.2125 26.9763 22.1639 28.6968 24.5598 29.3412ZM40.8343 26.044C40.3864 25.9763 39.9316 25.903 39.463 25.82L39.2198 25.7782C38.6191 25.6692 38.0055 25.5491 37.3777 25.4179L37.2219 25.3847C36.6621 25.2659 36.0911 25.1369 35.5167 25.001L35.1341 24.9137C34.4968 24.7604 33.8535 24.599 33.2059 24.4252C32.5583 24.2519 31.9202 24.0713 31.2902 23.8856C31.2228 23.8658 31.1567 23.8459 31.0908 23.826C31.0334 23.8088 30.9761 23.7915 30.9184 23.7745C30.3526 23.6054 29.7945 23.4329 29.251 23.2515L29.0931 23.2008C28.4868 23.0032 27.8973 22.8013 27.3245 22.5956L27.0823 22.5083C26.6416 22.3478 26.2139 22.1855 25.7965 22.0224C25.701 21.9858 25.6042 21.9483 25.5108 21.9108C28.1826 22.3175 30.8285 22.8754 33.4361 23.5811C36.0485 24.271 38.6187 25.1088 41.1338 26.0904L40.8343 26.044ZM46.1025 26.4873C46.8143 26.5329 47.5277 26.4252 48.1934 26.1722H48.1947C47.6551 25.1701 42.8602 22.4866 34.3561 20.2124C25.852 17.9386 20.345 17.8645 19.3674 18.462C19.8157 19.0114 20.3777 19.4594 21.0154 19.7754C25.3787 19.9743 29.7028 20.6864 33.8961 21.8959C38.132 22.9487 42.229 24.4899 46.1025 26.4873Z" fill="#FD160F"/>
<path d="M4.36053 13.0937L4.33387 13.1901L4.33472 13.1904L4.36053 13.0937ZM18.6483 16.9114L18.6225 17.008L18.6578 17.0174L18.6908 17.0019L18.6483 16.9114ZM3.6557 13L3.65528 13.1L3.65605 13.1L3.6557 13ZM1.0231 15.2734L0.923983 15.2601L1.0231 15.2734ZM2.96721 18.1464L2.99302 18.0498L2.99258 18.0497L2.96721 18.1464ZM16.9486 21.8818L17.0486 21.8806L17.0477 21.8048L16.9744 21.7852L16.9486 21.8818ZM24.0998 31.029L24.0738 31.1255L24.074 31.1256L24.0998 31.029ZM37.7164 34.666L37.7423 34.5694L37.7422 34.5694L37.7164 34.666ZM45.0754 33.7256L45.1249 33.8126L45.1249 33.8126L45.0754 33.7256ZM49.6018 27.9064L49.6983 27.9326L49.6983 27.9326L49.6018 27.9064ZM49.9456 26.6415L49.8491 26.6152L49.8491 26.6153L49.9456 26.6415ZM45.5673 22.3469L45.6109 22.2569L45.6091 22.2561L45.5673 22.3469ZM34.8161 18.5284L34.7902 18.625L34.7913 18.6253L34.8161 18.5284ZM2.81144 15.3875L2.71504 15.361L2.81144 15.3875ZM3.42979 16.4595L3.40371 16.556L3.40397 16.5561L3.42979 16.4595ZM3.89451 14.7751L3.86844 14.8717L3.8687 14.8717L3.89451 14.7751ZM17.5072 18.4122L17.6036 18.4386L17.6302 18.3415L17.533 18.3156L17.5072 18.4122ZM17.2765 19.2541L17.373 19.2806L17.373 19.2806L17.2765 19.2541ZM17.0893 20.1089L17.0635 20.2055L17.1686 20.2336L17.1878 20.1266L17.0893 20.1089ZM38.1755 32.9782L38.1497 33.0748L38.1498 33.0749L38.1755 32.9782ZM24.5598 29.3412L24.5339 29.4377L24.534 29.4378L24.5598 29.3412ZM47.6843 28.0938L47.7781 28.1284L47.8372 27.9685L47.6688 27.995L47.6843 28.0938ZM45.7613 28.2352L45.7622 28.1352H45.7613V28.2352ZM44.5018 28.1943L44.5073 28.0943H44.5018V28.1943ZM44.4553 28.1943L44.4498 28.2943H44.4553V28.1943ZM44.3051 28.1864L44.2995 28.2863L44.3 28.2863L44.3051 28.1864ZM44.305 28.1864L44.3105 28.0866L44.31 28.0865L44.305 28.1864ZM43.9743 28.167L43.9816 28.0673L43.9812 28.0673L43.9743 28.167ZM43.2152 28.1011L43.2247 28.0015L43.2247 28.0015L43.2152 28.1011ZM43.1115 28.0912L43.121 27.9917L43.1207 27.9916L43.1115 28.0912ZM43.0655 28.087L43.0558 28.1865L43.0563 28.1865L43.0655 28.087ZM38.2547 27.3732L38.2352 27.4713L38.2359 27.4714L38.2547 27.3732ZM38.2155 27.3654L38.1912 27.4625L38.1959 27.4634L38.2155 27.3654ZM38.2154 27.3654L38.2397 27.2682L38.2352 27.2673L38.2154 27.3654ZM38.148 27.3523L38.1296 27.4506L38.1306 27.4508L38.148 27.3523ZM36.604 27.0359L36.6258 26.9383L36.625 26.9381L36.604 27.0359ZM36.2903 26.9686L36.2688 27.0662L36.2694 27.0664L36.2903 26.9686ZM34.8927 26.6466L34.9161 26.5494L34.9151 26.5491L34.8927 26.6466ZM34.4925 26.5516L34.5165 26.4546L34.5161 26.4545L34.4925 26.5516ZM32.7442 26.1062L32.7183 26.2028L32.7184 26.2028L32.7442 26.1062ZM31.3341 25.711L31.362 25.6149L31.3614 25.6148L31.3341 25.711ZM26.6266 24.1952L26.6605 24.1012L26.6602 24.1011L26.6266 24.1952ZM25.9428 23.9465L25.9776 23.8527L25.9774 23.8527L25.9428 23.9465ZM25.5732 23.8102L25.6078 23.7164L25.6049 23.7154L25.5732 23.8102ZM18.8334 20.3678L18.8916 20.2865L18.7634 20.1947L18.735 20.3498L18.8334 20.3678ZM18.7155 22.1412L18.6156 22.1461L18.6176 22.1874L18.6483 22.2153L18.7155 22.1412ZM18.7322 22.1516L18.6875 22.2411L18.6876 22.2411L18.7322 22.1516ZM18.7499 22.1629L18.6795 22.234L18.6804 22.2349L18.7499 22.1629ZM25.6455 25.6892L25.6105 25.7829L25.6107 25.783L25.6455 25.6892ZM26.2023 26.6615L26.3007 26.6796V26.6796L26.2023 26.6615ZM25.3352 27.3779L25.3348 27.4779H25.3352V27.3779ZM25.0246 27.3221L25.0591 27.2282L25.0581 27.2279L25.0246 27.3221ZM19.2899 24.6948L19.3393 24.6079L19.0894 24.4658L19.1972 24.7323L19.2899 24.6948ZM39.463 25.82L39.4804 25.7215L39.4799 25.7214L39.463 25.82ZM40.8343 26.044L40.8497 25.9452L40.8493 25.9451L40.8343 26.044ZM39.2198 25.7782L39.202 25.8766L39.2029 25.8768L39.2198 25.7782ZM37.3777 25.4179L37.3569 25.5157L37.3573 25.5158L37.3777 25.4179ZM37.2219 25.3847L37.2428 25.2869L37.2427 25.2869L37.2219 25.3847ZM35.5167 25.001L35.5397 24.9037L35.5389 24.9035L35.5167 25.001ZM35.1341 24.9137L35.1107 25.0109L35.1119 25.0112L35.1341 24.9137ZM33.2059 24.4252L33.2318 24.3286L33.2318 24.3286L33.2059 24.4252ZM31.2902 23.8856L31.3185 23.7897L31.3184 23.7897L31.2902 23.8856ZM31.0908 23.826L31.1196 23.7303H31.1196L31.0908 23.826ZM30.9184 23.7745L30.8898 23.8703L30.8901 23.8704L30.9184 23.7745ZM29.251 23.2515L29.2827 23.1566L29.2816 23.1563L29.251 23.2515ZM29.0931 23.2008L29.0621 23.2959L29.0625 23.296L29.0931 23.2008ZM27.3245 22.5956L27.2906 22.6897L27.2907 22.6897L27.3245 22.5956ZM27.0823 22.5083L27.048 22.6023L27.0484 22.6024L27.0823 22.5083ZM25.7965 22.0224L25.8329 21.9292L25.8323 21.929L25.7965 22.0224ZM25.5108 21.9108L25.5259 21.8119L25.4736 22.0036L25.5108 21.9108ZM33.4361 23.5811L33.41 23.6776L33.4106 23.6778L33.4361 23.5811ZM41.1338 26.0904L41.1185 26.1892L41.1702 25.9973L41.1338 26.0904ZM48.1934 26.1722V26.0722H48.175L48.1579 26.0787L48.1934 26.1722ZM46.1025 26.4873L46.0567 26.5762L46.0753 26.5858L46.0962 26.5871L46.1025 26.4873ZM48.1947 26.1722V26.2722H48.3621L48.2827 26.1248L48.1947 26.1722ZM34.3561 20.2124L34.382 20.1158L34.382 20.1158L34.3561 20.2124ZM19.3674 18.462L19.3152 18.3767L19.2174 18.4364L19.2899 18.5252L19.3674 18.462ZM21.0154 19.7754L20.971 19.865L20.9899 19.8744L21.0109 19.8753L21.0154 19.7754ZM33.8961 21.8959L33.8684 21.992L33.872 21.9929L33.8961 21.8959ZM4.33472 13.1904L18.6225 17.008L18.6741 16.8147L4.38635 12.9971L4.33472 13.1904ZM3.65605 13.1C3.88509 13.0992 4.11351 13.1292 4.33387 13.1901L4.3872 12.9974C4.14885 12.9314 3.90222 12.8992 3.65534 12.9L3.65605 13.1ZM1.12221 15.2867C1.29015 14.0319 2.37424 13.0947 3.65528 13.1L3.65611 12.9C2.27615 12.8943 1.10546 13.9042 0.923983 15.2601L1.12221 15.2867ZM2.99258 18.0497C1.75448 17.725 0.954307 16.5412 1.12221 15.2867L0.923983 15.2601C0.742484 16.6163 1.60759 17.8932 2.94184 18.2431L2.99258 18.0497ZM16.9744 21.7852L2.99302 18.0498L2.9414 18.243L16.9228 21.9784L16.9744 21.7852ZM24.1259 30.9324C19.989 29.8166 17.1018 26.1222 17.0486 21.8806L16.8486 21.8831C16.903 26.2154 19.8517 29.9867 24.0738 31.1255L24.1259 30.9324ZM37.7422 34.5694L24.1257 30.9323L24.074 31.1256L37.6906 34.7626L37.7422 34.5694ZM45.026 33.6387C42.8195 34.8935 40.1989 35.2287 37.7423 34.5694L37.6904 34.7626C40.1978 35.4355 42.8725 35.0935 45.1249 33.8126L45.026 33.6387ZM49.5053 27.8801C48.8441 30.3116 47.2324 32.3835 45.026 33.6387L45.1249 33.8126C47.3772 32.5312 49.023 30.4159 49.6983 27.9326L49.5053 27.8801ZM49.8491 26.6153L49.5053 27.8801L49.6983 27.9326L50.0421 26.6677L49.8491 26.6153ZM45.5236 22.4369C47.1932 23.247 48.3652 23.9879 49.0745 24.6836C49.7829 25.3785 50.0139 26.0108 49.8491 26.6152L50.0421 26.6678C50.234 25.9639 49.9482 25.2605 49.2145 24.5408C48.4816 23.822 47.2861 23.0698 45.6109 22.2569L45.5236 22.4369ZM34.7913 18.6253C38.4792 19.5701 42.0721 20.8462 45.5254 22.4377L45.6091 22.2561C42.1448 20.6595 38.5405 19.3794 34.8409 18.4316L34.7913 18.6253ZM18.6908 17.0019C19.5572 16.5949 20.9019 16.462 22.4698 16.5051C24.0335 16.548 25.8035 16.7654 27.5102 17.0475C30.9231 17.6115 34.0724 18.4324 34.7902 18.625L34.842 18.4319C34.1217 18.2386 30.9652 17.4158 27.5428 16.8502C25.8317 16.5674 24.0517 16.3485 22.4753 16.3051C20.903 16.2619 19.5175 16.3926 18.6058 16.8208L18.6908 17.0019ZM2.71504 15.361C2.57186 15.8802 2.88106 16.4149 3.40371 16.556L3.45586 16.363C3.03873 16.2503 2.79455 15.825 2.90784 15.4141L2.71504 15.361ZM3.92059 14.6786C3.39836 14.5375 2.85811 14.8421 2.71504 15.361L2.90784 15.4141C3.02123 15.0029 3.45088 14.7589 3.86844 14.8717L3.92059 14.6786ZM17.533 18.3156L3.92033 14.6785L3.8687 14.8717L17.4814 18.5088L17.533 18.3156ZM17.373 19.2806L17.6036 18.4386L17.4107 18.3857L17.1801 19.2277L17.373 19.2806ZM17.1878 20.1266C17.2387 19.8426 17.2962 19.5605 17.373 19.2806L17.1801 19.2277C17.1011 19.5159 17.0424 19.8045 16.9909 20.0912L17.1878 20.1266ZM3.40397 16.5561L17.0635 20.2055L17.1152 20.0123L3.4556 16.3629L3.40397 16.5561ZM38.2013 32.8816L24.5856 29.2446L24.534 29.4378L38.1497 33.0748L38.2013 32.8816ZM47.5905 28.0591C46.1968 31.8311 42.1216 33.9251 38.2012 32.8816L38.1498 33.0749C42.1685 34.1446 46.3482 31.9985 47.7781 28.1284L47.5905 28.0591ZM45.7604 28.3352C46.4096 28.3412 47.0584 28.2935 47.6999 28.1926L47.6688 27.995C47.0383 28.0942 46.4005 28.1411 45.7622 28.1352L45.7604 28.3352ZM44.4963 28.2941C44.9378 28.3184 45.3702 28.3352 45.7613 28.3352V28.1352C45.3754 28.1352 44.9471 28.1187 44.5073 28.0944L44.4963 28.2941ZM44.4553 28.2943H44.5018V28.0943H44.4553V28.2943ZM44.3 28.2863C44.3499 28.2888 44.3995 28.2913 44.4498 28.2941L44.4609 28.0944C44.41 28.0916 44.3599 28.0891 44.3101 28.0865L44.3 28.2863ZM44.2994 28.2863L44.2995 28.2863L44.3106 28.0866L44.3105 28.0866L44.2994 28.2863ZM43.9669 28.2667C44.0828 28.2753 44.1919 28.2808 44.2999 28.2863L44.31 28.0865C44.2017 28.0811 44.0949 28.0756 43.9816 28.0673L43.9669 28.2667ZM43.2057 28.2006C43.4628 28.2251 43.7212 28.2498 43.9674 28.2668L43.9812 28.0673C43.738 28.0505 43.4823 28.0261 43.2247 28.0015L43.2057 28.2006ZM43.102 28.1908L43.2057 28.2006L43.2247 28.0015L43.121 27.9917L43.102 28.1908ZM43.0563 28.1865L43.1023 28.1908L43.1207 27.9916L43.0747 27.9874L43.0563 28.1865ZM38.2359 27.4714C39.9638 27.8019 41.5904 28.0439 43.0558 28.1865L43.0752 27.9874C41.617 27.8455 39.9966 27.6046 38.2735 27.275L38.2359 27.4714ZM38.1959 27.4634L38.2352 27.4713L38.2742 27.2751L38.235 27.2673L38.1959 27.4634ZM38.1912 27.4624L38.1912 27.4624L38.2397 27.2684L38.2397 27.2683L38.1912 27.4624ZM38.1306 27.4508C38.1519 27.4546 38.1732 27.4588 38.1956 27.4634L38.2352 27.2673C38.2131 27.2629 38.1895 27.2581 38.1654 27.2538L38.1306 27.4508ZM36.5823 27.1335C37.1053 27.25 37.6211 27.3558 38.1296 27.4506L38.1663 27.254C37.6602 27.1597 37.1467 27.0543 36.6258 26.9383L36.5823 27.1335ZM36.2694 27.0664L36.5831 27.1337L36.625 26.9381L36.3113 26.8708L36.2694 27.0664ZM34.8694 26.7439C35.3399 26.8569 35.8065 26.9643 36.2688 27.0662L36.3119 26.8709C35.8508 26.7693 35.3854 26.6621 34.9161 26.5494L34.8694 26.7439ZM34.4685 26.6487C34.6035 26.6821 34.7345 26.7129 34.8704 26.7441L34.9151 26.5491C34.7799 26.5181 34.6501 26.4876 34.5165 26.4546L34.4685 26.6487ZM32.7184 26.2028C33.3065 26.3597 33.8903 26.5085 34.469 26.6488L34.5161 26.4545C33.939 26.3145 33.3566 26.1661 32.77 26.0096L32.7184 26.2028ZM31.3062 25.807C31.9804 26.0027 32.4824 26.1396 32.7183 26.2028L32.7701 26.0096C32.5353 25.9467 32.0347 25.8102 31.362 25.6149L31.3062 25.807ZM26.5927 24.2893C28.0681 24.8211 29.6529 25.3372 31.3068 25.8071L31.3614 25.6148C29.7123 25.1461 28.1318 24.6315 26.6605 24.1012L26.5927 24.2893ZM25.9081 24.0403C26.1374 24.1252 26.3658 24.2084 26.593 24.2894L26.6602 24.1011C26.4338 24.0203 26.2061 23.9374 25.9776 23.8527L25.9081 24.0403ZM25.5386 23.9041L25.9082 24.0403L25.9774 23.8527L25.6078 23.7164L25.5386 23.9041ZM18.7751 20.4491C20.8427 21.9306 23.124 23.0957 25.5415 23.9051L25.6049 23.7154C23.2064 22.9124 20.9429 21.7564 18.8916 20.2865L18.7751 20.4491ZM18.8153 22.1364C18.7869 21.5503 18.826 20.9631 18.9317 20.3858L18.735 20.3498C18.6265 20.9421 18.5864 21.5447 18.6156 22.1461L18.8153 22.1364ZM18.7768 22.0621C18.7734 22.0604 18.7736 22.0604 18.7742 22.0608C18.7753 22.0614 18.7786 22.0635 18.7826 22.0671L18.6483 22.2153C18.6651 22.2305 18.6836 22.2391 18.6875 22.2411L18.7768 22.0621ZM18.8202 22.0918C18.8019 22.0737 18.7809 22.0641 18.7768 22.0621L18.6876 22.2411C18.6913 22.2429 18.6908 22.2428 18.6898 22.2421C18.6882 22.2412 18.6842 22.2386 18.6795 22.234L18.8202 22.0918ZM25.6804 25.5955C24.0053 24.9707 22.5415 24.338 21.3696 23.7388C20.1956 23.1386 19.3213 22.5753 18.8193 22.091L18.6804 22.2349C19.2043 22.7403 20.1 23.3143 21.2785 23.9169C22.4591 24.5205 23.9302 25.1561 25.6105 25.7829L25.6804 25.5955ZM26.3007 26.6796C26.3857 26.2165 26.1242 25.7604 25.6803 25.5955L25.6107 25.783C25.9646 25.9145 26.1712 26.2769 26.104 26.6435L26.3007 26.6796ZM25.3352 27.4779C25.8088 27.4779 26.2157 27.1426 26.3007 26.6796L26.104 26.6435C26.0366 27.0101 25.7137 27.2779 25.3352 27.2779V27.4779ZM24.99 27.4159C25.1005 27.4566 25.2175 27.4774 25.3348 27.4779L25.3356 27.2779C25.2413 27.2775 25.1474 27.2608 25.0591 27.2282L24.99 27.4159ZM19.2405 24.7817C21.0756 25.825 22.9997 26.7069 24.991 27.4163L25.0581 27.2279C23.0778 26.5224 21.1644 25.6454 19.3393 24.6079L19.2405 24.7817ZM24.5858 29.2446C22.2199 28.6083 20.2933 26.9094 19.3826 24.6573L19.1972 24.7323C20.1316 27.0431 22.108 28.7853 24.5339 29.4377L24.5858 29.2446ZM39.4455 25.9184C39.9151 26.0017 40.3708 26.0751 40.8194 26.1429L40.8493 25.9451C40.402 25.8775 39.948 25.8044 39.4804 25.7215L39.4455 25.9184ZM39.2029 25.8768L39.446 25.9185L39.4799 25.7214L39.2368 25.6797L39.2029 25.8768ZM37.3573 25.5158C37.9859 25.6472 38.6004 25.7674 39.202 25.8766L39.2377 25.6798C38.6379 25.571 38.0252 25.4511 37.3982 25.3201L37.3573 25.5158ZM37.2011 25.4825L37.3569 25.5157L37.3986 25.3201L37.2428 25.2869L37.2011 25.4825ZM35.4936 25.0983C36.0687 25.2343 36.6405 25.3635 37.2012 25.4825L37.2427 25.2869C36.6838 25.1683 36.1135 25.0394 35.5397 24.9037L35.4936 25.0983ZM35.1119 25.0112L35.4944 25.0985L35.5389 24.9035L35.1564 24.8162L35.1119 25.0112ZM33.18 24.5218C33.8286 24.6958 34.4728 24.8575 35.1107 25.0109L35.1575 24.8165C34.5209 24.6633 33.8784 24.5021 33.2318 24.3286L33.18 24.5218ZM31.2619 23.9815C31.8926 24.1674 32.5316 24.3482 33.1801 24.5218L33.2318 24.3286C32.5851 24.1555 31.9478 23.9752 31.3185 23.7897L31.2619 23.9815ZM31.0619 23.9218C31.1278 23.9416 31.1943 23.9616 31.262 23.9816L31.3184 23.7897C31.2514 23.77 31.1856 23.7502 31.1196 23.7303L31.0619 23.9218ZM30.8901 23.8704C30.9475 23.8873 31.0045 23.9045 31.0619 23.9218L31.1196 23.7303C31.0622 23.713 31.0048 23.6957 30.9468 23.6786L30.8901 23.8704ZM29.2193 23.3463C29.7642 23.5282 30.3234 23.701 30.8898 23.8703L30.9471 23.6786C30.3817 23.5097 29.8248 23.3376 29.2827 23.1566L29.2193 23.3463ZM29.0625 23.296L29.2204 23.3467L29.2816 23.1563L29.1236 23.1056L29.0625 23.296ZM27.2907 22.6897C27.8644 22.8958 28.4549 23.098 29.0621 23.2959L29.1241 23.1057C28.5187 22.9084 27.9301 22.7069 27.3583 22.5015L27.2907 22.6897ZM27.0484 22.6024L27.2906 22.6897L27.3584 22.5015L27.1162 22.4142L27.0484 22.6024ZM25.7601 22.1155C26.1782 22.2789 26.6066 22.4414 27.048 22.6023L27.1165 22.4144C26.6767 22.2541 26.2497 22.0921 25.8329 21.9292L25.7601 22.1155ZM25.4736 22.0036C25.5677 22.0414 25.6651 22.0791 25.7607 22.1158L25.8323 21.929C25.737 21.8924 25.6407 21.8552 25.5481 21.818L25.4736 22.0036ZM33.4623 23.4846C30.851 22.7779 28.2014 22.2192 25.5259 21.8119L25.4958 22.0097C28.1638 22.4158 30.806 22.9729 33.41 23.6776L33.4623 23.4846ZM41.1702 25.9973C38.6515 25.0142 36.0777 24.1753 33.4617 23.4844L33.4106 23.6778C36.0193 24.3668 38.5859 25.2033 41.0975 26.1836L41.1702 25.9973ZM40.819 26.1428L41.1185 26.1892L41.1492 25.9916L40.8497 25.9452L40.819 26.1428ZM48.1579 26.0787C47.5055 26.3266 46.8064 26.4322 46.1089 26.3875L46.0962 26.5871C46.8222 26.6336 47.5499 26.5237 48.2289 26.2657L48.1579 26.0787ZM48.1947 26.0722H48.1934V26.2722H48.1947V26.0722ZM34.3303 20.309C38.5777 21.4448 41.8969 22.6824 44.22 23.76C45.3818 24.2989 46.293 24.7972 46.9461 25.2218C47.2728 25.4342 47.5335 25.6273 47.7282 25.7971C47.9246 25.9682 48.0478 26.1103 48.1066 26.2196L48.2827 26.1248C48.2067 25.9836 48.062 25.8226 47.8596 25.6463C47.6557 25.4685 47.3868 25.2698 47.0552 25.0542C46.3918 24.6228 45.4716 24.1201 44.3042 23.5786C41.969 22.4954 38.6387 21.2541 34.382 20.1158L34.3303 20.309ZM19.4195 18.5473C19.5265 18.482 19.7055 18.4205 19.9624 18.3706C20.2172 18.321 20.5408 18.2841 20.9312 18.2635C21.7118 18.2223 22.7526 18.2463 24.0305 18.3601C26.5859 18.5875 30.0829 19.1733 34.3303 20.309L34.382 20.1158C30.1252 18.9776 26.6168 18.3895 24.0482 18.1608C22.7641 18.0465 21.7134 18.0219 20.9206 18.0638C20.5244 18.0847 20.1909 18.1224 19.9242 18.1742C19.6596 18.2257 19.4527 18.2927 19.3152 18.3767L19.4195 18.5473ZM21.0598 19.6858C20.4349 19.3761 19.8842 18.9371 19.4448 18.3988L19.2899 18.5252C19.7473 19.0857 20.3206 19.5427 20.971 19.865L21.0598 19.6858ZM33.9238 21.7998C29.723 20.5881 25.3911 19.8748 21.02 19.6755L21.0109 19.8753C25.3663 20.0738 29.6827 20.7846 33.8684 21.992L33.9238 21.7998ZM46.1484 26.3985C42.2679 24.3975 38.1637 22.8535 33.9202 21.7988L33.872 21.9929C38.1004 23.0439 42.19 24.5824 46.0567 26.5762L46.1484 26.3985Z" fill="#FD201A"/>
<path d="M30.4486 27.4844C29.9552 27.3375 29.4719 27.188 28.9983 27.0366C28.5951 26.9071 28.1642 27.1321 28.0363 27.5392C27.908 27.9462 28.1309 28.3812 28.5341 28.5103C29.0178 28.6651 29.5119 28.8176 30.0165 28.9683C30.0865 28.9887 30.1594 28.9996 30.2323 29C30.6139 29.0008 30.9378 28.7179 30.9921 28.3366C31.0467 27.9556 30.8148 27.592 30.4486 27.4844Z" fill="#FD160F" stroke="#FD201A" stroke-width="0.2"/>
<path d="M35.4028 28.39C34.922 28.275 34.4311 28.1521 33.9343 28.0208C33.5284 27.9214 33.1225 28.1875 33.0226 28.6192C32.9224 29.0504 33.1646 29.488 33.5672 29.6022C34.0759 29.7366 34.5772 29.8624 35.0711 29.9805C35.1258 29.9932 35.1818 30 35.238 30C35.6271 29.9992 35.9533 29.6865 35.9954 29.2736C36.0379 28.861 35.7826 28.4803 35.4028 28.39Z" fill="#FD160F" stroke="#FD201A" stroke-width="0.2"/>
<path fill-rule="evenodd" clip-rule="evenodd" d="M31 3.86365C31.0053 4.96547 31.7047 5.96702 32.7996 6.43923V9.18181C32.7996 9.63365 33.2025 9.99999 33.6994 9.99999H37.2985C37.7954 9.99999 38.1983 9.63365 38.1983 9.18181V6.44083C39.53 5.86954 40.2465 4.53441 39.9227 3.22844C39.5985 1.92247 38.3209 0.996425 36.8486 1.00002H34.1493C32.4103 1.00002 31 2.28202 31 3.86365ZM34.5991 8.36363V6.72727H36.3987V8.36363H34.5991ZM36.8486 5.09092C37.5942 5.09092 38.1983 4.5416 38.1983 3.86365C38.1983 3.18569 37.5942 2.63638 36.8486 2.63638H34.1493C33.4041 2.63638 32.7996 3.18569 32.7996 3.86365C32.7996 4.5416 33.4041 5.09092 34.1493 5.09092H36.8486Z" fill="#FD160F"/>
<path d="M32.7996 6.43923H32.8996V6.37346L32.8392 6.34741L32.7996 6.43923ZM31 3.86365H30.9L30.9 3.86413L31 3.86365ZM38.1983 6.44083L38.1589 6.34893L38.0983 6.37492V6.44083H38.1983ZM39.9227 3.22844L40.0198 3.20437L40.0198 3.20434L39.9227 3.22844ZM36.8486 1.00002V1.10002L36.8489 1.10002L36.8486 1.00002ZM34.5991 6.72727V6.62727H34.4991V6.72727H34.5991ZM34.5991 8.36363H34.4991V8.46363H34.5991V8.36363ZM36.3987 6.72727H36.4987V6.62727H36.3987V6.72727ZM36.3987 8.36363V8.46363H36.4987V8.36363H36.3987ZM32.8392 6.34741C31.777 5.88929 31.1051 4.92125 31.1 3.86317L30.9 3.86413C30.9055 5.00969 31.6324 6.04475 32.76 6.53106L32.8392 6.34741ZM32.8996 9.18181V6.43923H32.6996V9.18181H32.8996ZM33.6994 9.89999C33.2485 9.89999 32.8996 9.56968 32.8996 9.18181H32.6996C32.6996 9.69761 33.1564 10.1 33.6994 10.1V9.89999ZM37.2985 9.89999H33.6994V10.1H37.2985V9.89999ZM38.0983 9.18181C38.0983 9.56968 37.7493 9.89999 37.2985 9.89999V10.1C37.8415 10.1 38.2983 9.69761 38.2983 9.18181H38.0983ZM38.0983 6.44083V9.18181H38.2983V6.44083H38.0983ZM39.8257 3.25251C40.1364 4.50569 39.4506 5.79476 38.1589 6.34893L38.2377 6.53273C39.6093 5.94433 40.3567 4.56313 40.0198 3.20437L39.8257 3.25251ZM36.8489 1.10002C38.2812 1.09652 39.5139 1.99692 39.8257 3.25254L40.0198 3.20434C39.683 1.84802 38.3606 0.896328 36.8484 0.900021L36.8489 1.10002ZM34.1493 1.10002H36.8486V0.900021H34.1493V1.10002ZM31.1 3.86365C31.1 2.34599 32.4564 1.10002 34.1493 1.10002V0.900021C32.3642 0.900021 30.9 2.21805 30.9 3.86365H31.1ZM34.4991 6.72727V8.36363H34.6991V6.72727H34.4991ZM36.3987 6.62727H34.5991V6.82727H36.3987V6.62727ZM36.4987 8.36363V6.72727H36.2987V8.36363H36.4987ZM34.5991 8.46363H36.3987V8.26363H34.5991V8.46363ZM38.0983 3.86365C38.0983 4.47764 37.5481 4.99092 36.8486 4.99092V5.19092C37.6403 5.19092 38.2983 4.60556 38.2983 3.86365H38.0983ZM36.8486 2.73638C37.5481 2.73638 38.0983 3.24966 38.0983 3.86365H38.2983C38.2983 3.12173 37.6403 2.53638 36.8486 2.53638V2.73638ZM34.1493 2.73638H36.8486V2.53638H34.1493V2.73638ZM32.8996 3.86365C32.8996 3.24968 33.4502 2.73638 34.1493 2.73638V2.53638C33.3581 2.53638 32.6996 3.12171 32.6996 3.86365H32.8996ZM34.1493 4.99092C33.4502 4.99092 32.8996 4.47762 32.8996 3.86365H32.6996C32.6996 4.60558 33.3581 5.19092 34.1493 5.19092V4.99092ZM36.8486 4.99092H34.1493V5.19092H36.8486V4.99092Z" fill="#FD201A"/>
<path fill-rule="evenodd" clip-rule="evenodd" d="M47.801 11.7594C47.9489 11.9419 48.0189 12.1754 47.9956 12.4094C47.9705 12.6421 47.8542 12.8549 47.6726 13.0019L44.2405 15.7993C44.0822 15.9282 43.8846 15.9987 43.6806 15.9987C43.6512 16.0004 43.6218 16.0004 43.5924 15.9987C43.3589 15.9745 43.1444 15.859 42.9961 15.6769L40.1991 12.2438C39.89 11.8645 39.9471 11.3066 40.3267 10.9978L43.758 8.1995C43.9383 8.049 44.173 7.9785 44.4069 8.00575C44.6404 8.0291 44.8549 8.14458 45.0036 8.32622L47.801 11.7594ZM42.1275 11.8117L43.8098 13.8708L45.8679 12.1888L44.1856 10.1289L42.1275 11.8117Z" fill="#FD160F"/>
<path d="M47.9956 12.4094L48.095 12.4201L48.0951 12.4193L47.9956 12.4094ZM47.801 11.7594L47.8787 11.6964L47.8785 11.6962L47.801 11.7594ZM47.6726 13.0019L47.6097 12.9242L47.6094 12.9244L47.6726 13.0019ZM44.2405 15.7993L44.3036 15.8769L44.3037 15.8768L44.2405 15.7993ZM43.6806 15.9987V15.8985L43.6747 15.8989L43.6806 15.9987ZM43.5924 15.9987L43.582 16.0983L43.5865 16.0985L43.5924 15.9987ZM42.9961 15.6769L43.0737 15.6138L43.0737 15.6138L42.9961 15.6769ZM40.1991 12.2438L40.2767 12.1806L40.2767 12.1806L40.1991 12.2438ZM40.3267 10.9978L40.3898 11.0753L40.3899 11.0752L40.3267 10.9978ZM43.758 8.1995L43.8212 8.27701L43.822 8.27627L43.758 8.1995ZM44.4069 8.00575L44.3954 8.10509L44.397 8.10525L44.4069 8.00575ZM45.0036 8.32622L45.0811 8.26306L45.081 8.26287L45.0036 8.32622ZM43.8098 13.8708L43.7324 13.9341L43.7957 14.0115L43.8731 13.9483L43.8098 13.8708ZM42.1275 11.8117L42.0642 11.7343L41.9868 11.7976L42.0501 11.875L42.1275 11.8117ZM45.8679 12.1888L45.9312 12.2663L46.0086 12.203L45.9454 12.1256L45.8679 12.1888ZM44.1856 10.1289L44.263 10.0656L44.1997 9.98811L44.1223 10.0515L44.1856 10.1289ZM48.0951 12.4193C48.1211 12.1591 48.0432 11.8994 47.8787 11.6964L47.7233 11.8223C47.8546 11.9844 47.9168 12.1918 47.8961 12.3995L48.0951 12.4193ZM47.7355 13.0797C47.9376 12.916 48.0671 12.6792 48.095 12.4201L47.8962 12.3987C47.8739 12.605 47.7708 12.7938 47.6097 12.9242L47.7355 13.0797ZM44.3037 15.8768L47.7358 13.0795L47.6094 12.9244L44.1773 15.7218L44.3037 15.8768ZM43.6806 16.0987C43.9077 16.0987 44.1276 16.0202 44.3036 15.8769L44.1773 15.7218C44.0369 15.8362 43.8616 15.8987 43.6806 15.8987V16.0987ZM43.5865 16.0985C43.6198 16.1005 43.6531 16.1005 43.6864 16.0985L43.6747 15.8989C43.6492 15.9004 43.6237 15.9004 43.5982 15.8989L43.5865 16.0985ZM42.9186 15.7401C43.0837 15.9428 43.3223 16.0712 43.582 16.0982L43.6027 15.8992C43.3954 15.8777 43.2052 15.7753 43.0737 15.6138L42.9186 15.7401ZM40.1216 12.3069L42.9186 15.7401L43.0737 15.6138L40.2767 12.1806L40.1216 12.3069ZM40.2636 10.9202C39.8411 11.2639 39.7776 11.8848 40.1216 12.307L40.2767 12.1806C40.0024 11.8441 40.053 11.3492 40.3898 11.0753L40.2636 10.9202ZM43.6948 8.12201L40.2635 10.9203L40.3899 11.0752L43.8212 8.277L43.6948 8.12201ZM44.4185 7.90642C44.1572 7.87598 43.8951 7.95472 43.6939 8.12274L43.822 8.27627C43.9814 8.14327 44.1888 8.08101 44.3954 8.10507L44.4185 7.90642ZM45.081 8.26287C44.9155 8.06082 44.6769 7.93225 44.4169 7.90624L44.397 8.10525C44.6039 8.12595 44.7942 8.22833 44.9262 8.38958L45.081 8.26287ZM47.8785 11.6962L45.0811 8.26306L44.9261 8.38939L47.7235 11.8225L47.8785 11.6962ZM43.8873 13.8076L42.2049 11.7484L42.0501 11.875L43.7324 13.9341L43.8873 13.8076ZM45.8046 12.1114L43.7466 13.7934L43.8731 13.9483L45.9312 12.2663L45.8046 12.1114ZM44.1081 10.1921L45.7905 12.2521L45.9454 12.1256L44.263 10.0656L44.1081 10.1921ZM42.1908 11.8891L44.2489 10.2063L44.1223 10.0515L42.0642 11.7343L42.1908 11.8891Z" fill="#FD201A"/>
<path fill-rule="evenodd" clip-rule="evenodd" d="M28.5 5C30.4333 5 32 6.56714 32 8.5C32 10.4329 30.4333 12 28.5 12C26.5671 12 25 10.4329 25 8.5C25 6.56714 26.5671 5 28.5 5ZM26.75 8.5C26.75 9.46643 27.5336 10.25 28.5 10.25C29.4669 10.25 30.25 9.46643 30.25 8.5C30.25 7.53357 29.4669 6.75 28.5 6.75C27.5336 6.75 26.75 7.53357 26.75 8.5Z" fill="#FD160F"/>
<path d="M32.1 8.5C32.1 6.51192 30.4885 4.9 28.5 4.9V5.1C30.3781 5.1 31.9 6.62236 31.9 8.5H32.1ZM28.5 12.1C30.4885 12.1 32.1 10.4881 32.1 8.5H31.9C31.9 10.3776 30.3781 11.9 28.5 11.9V12.1ZM24.9 8.5C24.9 10.4881 26.5119 12.1 28.5 12.1V11.9C26.6224 11.9 25.1 10.3776 25.1 8.5H24.9ZM28.5 4.9C26.5119 4.9 24.9 6.51191 24.9 8.5H25.1C25.1 6.62237 26.6224 5.1 28.5 5.1V4.9ZM28.5 10.15C27.5888 10.15 26.85 9.4112 26.85 8.5H26.65C26.65 9.52166 27.4783 10.35 28.5 10.35V10.15ZM30.15 8.5C30.15 9.41122 29.4116 10.15 28.5 10.15V10.35C29.5221 10.35 30.35 9.52164 30.35 8.5H30.15ZM28.5 6.85C29.4116 6.85 30.15 7.58878 30.15 8.5H30.35C30.35 7.47836 29.5221 6.65 28.5 6.65V6.85ZM26.85 8.5C26.85 7.5888 27.5888 6.85 28.5 6.85V6.65C27.4783 6.65 26.65 7.47834 26.65 8.5H26.85Z" fill="#FD201A"/>
<path d="M28 14H30V16H28V14Z" fill="#FD160F" stroke="#FD201A" stroke-width="0.2"/>
<path d="M35 12H37V14H35V12Z" fill="#FD160F" stroke="#FD201A" stroke-width="0.2"/>
<path d="M35 16H37V18H35V16Z" fill="#FD160F" stroke="#FD201A" stroke-width="0.2"/>
<path d="M45 16H47V18H45V16Z" fill="#FD160F" stroke="#FD201A" stroke-width="0.2"/>
<path d="M45 19H47V21H45V19Z" fill="#FD160F" stroke="#FD201A" stroke-width="0.2"/>
<path d="M19 41.0227L20.6795 37L22 37.9773L20.3205 42L19 41.0227Z" fill="#FD160F" stroke="#FD201A" stroke-width="0.2"/>
<path d="M16.2632 48.6295L16.8397 48.3686L16.2638 48.6295L16.8454 51L18 50.4781L17.4184 48.1076C17.0691 46.68 17.1763 45.1185 17.7131 43.8029L16.6507 43C15.948 44.7204 15.8074 46.7619 16.2632 48.6295Z" fill="#FD160F" stroke="#FD201A" stroke-width="0.2"/>
<path fill-rule="evenodd" clip-rule="evenodd" d="M38.7737 51.4185L39.6161 48.979C40.2793 47.0578 40.0769 44.9565 39.0579 43.1855L36.0592 37.9873C35.8624 37.6515 35.4563 37.4851 35.0691 37.5822C34.6819 37.6789 34.4111 38.0146 34.4089 38.4002V43.0751C34.4089 43.2283 34.4016 43.381 34.3887 43.5342C34.203 42.8867 33.9382 42.2625 33.6001 41.6752L30.0032 35.4373C29.8081 35.0986 29.3998 34.9301 29.0109 35.0272C28.622 35.1248 28.3503 35.463 28.3503 35.8503V41.4602C28.3473 42.9311 27.8524 44.3617 26.939 45.54C26.6126 45.9634 26.3279 46.4153 26.0889 46.8897C25.9786 46.72 25.8666 46.5498 25.7413 46.3917C25.001 45.4334 24.5988 44.2717 24.5949 43.0768V38.4002C24.5945 38.013 24.3227 37.6752 23.9338 37.578C23.5449 37.4813 23.1371 37.6498 22.942 37.9881L19.9428 43.188C18.9239 44.9581 18.7206 47.059 19.383 48.9798L20.2297 51.4194C20.3498 51.7659 20.6862 51.9996 21.0651 52H37.9369C38.3168 52 38.654 51.7659 38.7737 51.4185ZM21.0552 48.4436C20.5501 46.9748 20.7051 45.369 21.4829 44.0152L22.8292 41.681V43.0751C22.8348 44.6373 23.3602 46.1568 24.3283 47.4102C24.7809 47.9875 25.1048 48.6486 25.2801 49.3525C25.2327 49.6659 25.203 49.9817 25.1918 50.2984H21.6999L21.0552 48.4436ZM28.3503 46.5602C27.5092 47.6455 27.0213 48.947 26.948 50.3H37.3008L37.9429 48.4411C38.4494 46.9715 38.2948 45.3649 37.5162 44.0102L36.1656 41.6802V43.0751C36.1621 44.6377 35.6363 46.158 34.6664 47.4102C34.6018 47.4952 34.5428 47.5841 34.4899 47.6762L34.4016 47.8239C34.1768 48.1751 33.7224 48.3199 33.3249 48.1672C32.927 48.0144 32.7004 47.6085 32.7879 47.2043C33.1376 45.6027 32.8775 43.9326 32.0549 42.5007L30.1143 39.1294V41.4602C30.1109 43.2988 29.4924 45.0872 28.3503 46.5602Z" fill="#FD160F"/>
<path d="M39.6161 48.979L39.7106 49.0116L39.7106 49.0116L39.6161 48.979ZM38.7737 51.4185L38.6792 51.3859L38.6792 51.386L38.7737 51.4185ZM39.0579 43.1855L39.1446 43.1357L39.1446 43.1356L39.0579 43.1855ZM36.0592 37.9873L36.1458 37.9373L36.1455 37.9367L36.0592 37.9873ZM35.0691 37.5822L35.0933 37.6792L35.0934 37.6792L35.0691 37.5822ZM34.4089 38.4002L34.3089 38.3997V38.4002H34.4089ZM34.3887 43.5342L34.2925 43.5617L34.4883 43.5426L34.3887 43.5342ZM33.6001 41.6752L33.6868 41.6253L33.6867 41.6253L33.6001 41.6752ZM30.0032 35.4373L29.9165 35.4872L29.9166 35.4873L30.0032 35.4373ZM29.0109 35.0272L28.9867 34.9302L28.9866 34.9302L29.0109 35.0272ZM28.3503 41.4602L28.4503 41.4605V41.4602H28.3503ZM26.939 45.54L26.86 45.4788L26.8598 45.479L26.939 45.54ZM26.0889 46.8897L26.005 46.9442L26.0998 47.0902L26.1782 46.9347L26.0889 46.8897ZM25.7413 46.3917L25.6622 46.4528L25.6629 46.4538L25.7413 46.3917ZM24.5949 43.0768H24.4949L24.4949 43.0771L24.5949 43.0768ZM24.5949 38.4002H24.6949V38.4001L24.5949 38.4002ZM23.9338 37.578L23.958 37.481L23.9579 37.481L23.9338 37.578ZM22.942 37.9881L23.0286 38.038L22.942 37.9881ZM19.9428 43.188L19.8562 43.1381L19.8562 43.1381L19.9428 43.188ZM19.383 48.9798L19.2884 49.0124L19.2885 49.0126L19.383 48.9798ZM20.2297 51.4194L20.3241 51.3866L20.3241 51.3866L20.2297 51.4194ZM21.0651 52L21.065 52.1H21.0651V52ZM21.4829 44.0152L21.3963 43.9652L21.3962 43.9654L21.4829 44.0152ZM21.0552 48.4436L20.9607 48.4761L20.9608 48.4764L21.0552 48.4436ZM22.8292 41.681H22.9292V41.3075L22.7425 41.6311L22.8292 41.681ZM22.8292 43.0751H22.7292L22.7292 43.0755L22.8292 43.0751ZM24.3283 47.4102L24.2492 47.4713L24.2496 47.4719L24.3283 47.4102ZM25.2801 49.3525L25.379 49.3675L25.3819 49.3477L25.3771 49.3283L25.2801 49.3525ZM25.1918 50.2984V50.3984H25.2883L25.2917 50.3019L25.1918 50.2984ZM21.6999 50.2984L21.6055 50.3312L21.6288 50.3984H21.6999V50.2984ZM26.948 50.3L26.8482 50.2946L26.8425 50.4H26.948V50.3ZM28.3503 46.5602L28.2713 46.4989L28.2712 46.4989L28.3503 46.5602ZM37.3008 50.3V50.4H37.3721L37.3953 50.3327L37.3008 50.3ZM37.9429 48.4411L38.0375 48.4737L38.0375 48.4737L37.9429 48.4411ZM37.5162 44.0102L37.6029 43.9604L37.6027 43.9601L37.5162 44.0102ZM36.1656 41.6802L36.2521 41.6301L36.0656 41.3083V41.6802H36.1656ZM36.1656 43.0751L36.2656 43.0754V43.0751H36.1656ZM34.6664 47.4102L34.5874 47.3489L34.5868 47.3497L34.6664 47.4102ZM34.4899 47.6762L34.5757 47.7275L34.5766 47.726L34.4899 47.6762ZM34.4016 47.8239L34.4858 47.8779L34.4874 47.8752L34.4016 47.8239ZM33.3249 48.1672L33.3608 48.0738L33.3607 48.0738L33.3249 48.1672ZM32.7879 47.2043L32.6902 47.183L32.6901 47.1832L32.7879 47.2043ZM32.0549 42.5007L32.1416 42.4509L32.1415 42.4508L32.0549 42.5007ZM30.1143 39.1294L30.201 39.0795L30.0143 38.7552V39.1294H30.1143ZM30.1143 41.4602L30.2143 41.4604V41.4602H30.1143ZM39.5216 48.9463L38.6792 51.3859L38.8682 51.4512L39.7106 49.0116L39.5216 48.9463ZM38.9713 43.2354C39.9759 44.9814 40.1753 47.0527 39.5216 48.9463L39.7106 49.0116C40.3833 47.0629 40.1779 44.9315 39.1446 43.1357L38.9713 43.2354ZM35.9726 38.0372L38.9713 43.2355L39.1446 43.1356L36.1458 37.9373L35.9726 38.0372ZM35.0934 37.6792C35.439 37.5925 35.7993 37.7417 35.9729 38.0378L36.1455 37.9367C35.9255 37.5613 35.4736 37.3776 35.0448 37.4852L35.0934 37.6792ZM34.5089 38.4008C34.5108 38.0631 34.7483 37.7654 35.0933 37.6792L35.0449 37.4852C34.6156 37.5924 34.3113 37.9662 34.3089 38.3997L34.5089 38.4008ZM34.5089 43.0751V38.4002H34.3089V43.0751H34.5089ZM34.4883 43.5426C34.5014 43.387 34.5089 43.2315 34.5089 43.0751H34.3089C34.3089 43.2251 34.3017 43.375 34.289 43.5258L34.4883 43.5426ZM33.5134 41.7251C33.8475 42.3054 34.1092 42.9221 34.2925 43.5617L34.4848 43.5066C34.2969 42.8513 34.0289 42.2196 33.6868 41.6253L33.5134 41.7251ZM29.9166 35.4873L33.5135 41.7252L33.6867 41.6253L30.0898 35.3873L29.9166 35.4873ZM29.0352 35.1243C29.3823 35.0376 29.7446 35.1887 29.9165 35.4872L30.0898 35.3874C29.8716 35.0086 29.4173 34.8227 28.9867 34.9302L29.0352 35.1243ZM28.4503 35.8503C28.4503 35.5112 28.6885 35.2112 29.0353 35.1242L28.9866 34.9302C28.5555 35.0384 28.2503 35.4148 28.2503 35.8503H28.4503ZM28.4503 41.4602V35.8503H28.2503V41.4602H28.4503ZM27.018 45.6013C27.9448 44.4058 28.4472 42.9538 28.4503 41.4605L28.2503 41.46C28.2473 42.9085 27.7601 44.3177 26.86 45.4788L27.018 45.6013ZM26.1782 46.9347C26.4143 46.466 26.6956 46.0194 27.0182 45.6011L26.8598 45.479C26.5295 45.9073 26.2415 46.3646 25.9996 46.8447L26.1782 46.9347ZM25.6629 46.4538C25.785 46.6078 25.8946 46.7742 26.005 46.9442L26.1727 46.8352C26.0626 46.6657 25.9483 46.4918 25.8197 46.3296L25.6629 46.4538ZM24.4949 43.0771C24.4988 44.2944 24.9086 45.4774 25.6622 46.4528L25.8205 46.3305C25.0934 45.3894 24.6987 44.249 24.6949 43.0765L24.4949 43.0771ZM24.4949 38.4002V43.0768H24.6949V38.4002H24.4949ZM23.9096 37.6751C24.2562 37.7616 24.4945 38.0612 24.4949 38.4003L24.6949 38.4001C24.6944 37.9647 24.3892 37.5887 23.958 37.481L23.9096 37.6751ZM23.0286 38.038C23.2006 37.7399 23.5624 37.5887 23.9097 37.6751L23.9579 37.481C23.5274 37.3739 23.0736 37.5598 22.8554 37.9381L23.0286 38.038ZM20.0295 43.238L23.0286 38.038L22.8554 37.9381L19.8562 43.1381L20.0295 43.238ZM19.4775 48.9472C18.8246 47.054 19.0249 44.9831 20.0295 43.2379L19.8562 43.1381C18.8229 44.9332 18.6166 47.0641 19.2884 49.0124L19.4775 48.9472ZM20.3241 51.3866L19.4774 48.947L19.2885 49.0126L20.1352 51.4522L20.3241 51.3866ZM21.0653 51.9C20.7269 51.8996 20.4297 51.6911 20.3241 51.3866L20.1352 51.4521C20.2699 51.8407 20.6454 52.0995 21.065 52.1L21.0653 51.9ZM37.9369 51.9H21.0651V52.1H37.9369V51.9ZM38.6792 51.386C38.574 51.6911 38.2761 51.9 37.9369 51.9V52.1C38.3574 52.1 38.734 51.8407 38.8682 51.4511L38.6792 51.386ZM21.3962 43.9654C20.6041 45.3441 20.4461 46.9799 20.9607 48.4761L21.1498 48.4111C20.6541 46.9697 20.8061 45.394 21.5696 44.065L21.3962 43.9654ZM22.7425 41.6311L21.3963 43.9652L21.5695 44.0652L22.9158 41.731L22.7425 41.6311ZM22.9292 43.0751V41.681H22.7292V43.0751H22.9292ZM24.4074 47.349C23.4526 46.1128 22.9347 44.6146 22.9292 43.0748L22.7292 43.0755C22.7348 44.66 23.2678 46.2007 24.2492 47.4713L24.4074 47.349ZM25.3771 49.3283C25.1984 48.6106 24.8682 47.9367 24.407 47.3485L24.2496 47.4719C24.6936 48.0382 25.0112 48.6866 25.183 49.3767L25.3771 49.3283ZM25.2917 50.3019C25.3028 49.9891 25.3321 49.6771 25.379 49.3675L25.1812 49.3376C25.1333 49.6546 25.1032 49.9743 25.0918 50.2948L25.2917 50.3019ZM21.6999 50.3984H25.1918V50.1984H21.6999V50.3984ZM20.9608 48.4764L21.6055 50.3312L21.7944 50.2655L21.1497 48.4108L20.9608 48.4764ZM27.0479 50.3054C27.12 48.973 27.6005 47.6909 28.4293 46.6214L28.2712 46.4989C27.4179 47.6001 26.9225 48.921 26.8482 50.2946L27.0479 50.3054ZM37.3008 50.2H26.948V50.4H37.3008V50.2ZM37.8484 48.4084L37.2063 50.2674L37.3953 50.3327L38.0375 48.4737L37.8484 48.4084ZM37.4295 44.06C38.1938 45.3898 38.3454 46.9664 37.8484 48.4085L38.0375 48.4737C38.5534 46.9766 38.3958 45.3399 37.6029 43.9604L37.4295 44.06ZM36.0791 41.7304L37.4296 44.0604L37.6027 43.9601L36.2521 41.6301L36.0791 41.7304ZM36.2656 43.0751V41.6802H36.0656V43.0751H36.2656ZM34.7455 47.4714C35.7287 46.202 36.2621 44.6604 36.2656 43.0754L36.0656 43.0749C36.0622 44.6151 35.5439 46.114 34.5874 47.3489L34.7455 47.4714ZM34.5766 47.726C34.6274 47.6376 34.684 47.5524 34.7461 47.4706L34.5868 47.3497C34.5197 47.4381 34.4583 47.5305 34.4032 47.6263L34.5766 47.726ZM34.4874 47.8752L34.5757 47.7275L34.404 47.6249L34.3157 47.7726L34.4874 47.8752ZM33.2891 48.2605C33.7295 48.4297 34.2346 48.2702 34.4858 47.8779L34.3174 47.77C34.1189 48.0799 33.7154 48.2101 33.3608 48.0738L33.2891 48.2605ZM32.6901 47.1832C32.5918 47.6379 32.8473 48.091 33.2891 48.2605L33.3607 48.0738C33.0067 47.9379 32.8091 47.5792 32.8856 47.2254L32.6901 47.1832ZM31.9682 42.5505C32.7785 43.961 33.0345 45.6058 32.6902 47.183L32.8856 47.2256C33.2406 45.5996 32.9764 43.9041 32.1416 42.4509L31.9682 42.5505ZM30.0276 39.1793L31.9682 42.5506L32.1415 42.4508L30.201 39.0795L30.0276 39.1793ZM30.2143 41.4602V39.1294H30.0143V41.4602H30.2143ZM28.4293 46.6214C29.5848 45.1313 30.2108 43.3215 30.2143 41.4604L30.0143 41.4601C30.0109 43.2762 29.4 45.0432 28.2713 46.4989L28.4293 46.6214Z" fill="#FD201A"/>
<path d="M39 37.8603L40.1316 37L41 39.1393L39.8687 40L39 37.8603Z" fill="#FD160F" stroke="#FD201A" stroke-width="0.2"/>
<path d="M43.1692 43.8088L42.3522 42L41 42.9246L41.817 44.7334C42.2593 45.7119 42.478 46.8197 42.4497 47.9386L43.9968 48C44.0341 46.5366 43.7478 45.0881 43.1692 43.8088Z" fill="#FD160F" stroke="#FD201A" stroke-width="0.2"/>
<path d="M42 51.5192L42.5204 50L44 50.4808L43.4792 52L42 51.5192Z" fill="#FD160F" stroke="#FD201A" stroke-width="0.2"/>
<path d="M21 36.3819L21.7172 35L23 35.6181L22.2831 37L21 36.3819Z" fill="#FD160F" stroke="#FD201A" stroke-width="0.2"/>
<path d="M51.084 15C52.1377 13.5607 52.3014 11.3115 51.4757 9.61904L51.172 9L50 10.0622L50.3037 10.6831C50.758 11.6147 50.6679 12.8528 50.088 13.6449L51.084 15Z" fill="#FD160F" stroke="#FD201A" stroke-width="0.2"/>
</svg>
