<svg width="54" height="49" viewBox="0 0 54 49" fill="none" xmlns="http://www.w3.org/2000/svg">
<path fill-rule="evenodd" clip-rule="evenodd" d="M18.9432 14.0887L14.5303 0.715314C14.3889 0.286832 14.0087 0 13.5819 0H5.4181C4.99125 0 4.61105 0.286832 4.46961 0.715421L0.0567851 14.0888C-0.0511831 14.4162 -0.0034318 14.7788 0.18506 15.0619C0.373552 15.345 0.679261 15.5131 1.00528 15.5131H1.4094V18.9367C1.4094 19.5276 1.85947 20.0065 2.41469 20.0065C2.96991 20.0065 3.41998 19.5276 3.41998 18.9367V15.5131H6.48411V46.8603H4.39682C3.8416 46.8603 3.39153 47.3392 3.39153 47.9301C3.39153 48.521 3.8416 49 4.39682 49H7.4894H11.5106H14.6005C15.1557 49 15.6058 48.521 15.6058 47.9301C15.6058 47.3392 15.1557 46.8603 14.6005 46.8603H12.5158V15.5131H17.9947C18.3207 15.5131 18.6264 15.3449 18.8149 15.0618C19.0034 14.7787 19.0512 14.4161 18.9432 14.0887ZM10.5053 46.8603H8.49469V15.5131H10.5053V46.8603ZM7.4894 13.3734H11.5106H16.5762L12.8694 2.13974H6.13055L2.42374 13.3734H7.4894Z" fill="#FD0D06"/>
<path fill-rule="evenodd" clip-rule="evenodd" d="M47.8073 23.8397C48.3455 23.5995 48.9381 23.4659 49.5605 23.4659C52.0085 23.4659 54 25.5247 54 28.0553V28.1542C54 29.7773 53.1497 31.1984 51.886 31.9686V34.7879C51.886 39.1322 49.1468 42.827 45.3602 44.1251L46.6973 47.4924C46.8312 47.8294 46.7937 48.2132 46.5975 48.5158C46.4012 48.8184 46.0719 49 45.7195 49H41.0686C40.7298 49 40.4114 48.832 40.2126 48.5484L37.4611 44.6222H32.5387L29.7872 48.5484C29.5884 48.832 29.2701 49 28.9312 49H24.2803C23.9279 49 23.5985 48.8185 23.4023 48.5158C23.206 48.2132 23.1686 47.8294 23.3024 47.4924L24.6396 44.1251C20.8532 42.827 18.114 39.1321 18.114 34.7879V31.9686C16.8503 31.1984 16 29.7774 16 28.1542V28.0553C16 25.5247 17.9915 23.4659 20.4395 23.4659C21.0619 23.4659 21.6545 23.5996 22.1927 23.8397C22.7957 19.4153 26.4803 16 30.9238 16H39.0762C43.5197 16 47.2043 19.4153 47.8073 23.8397ZM25.8569 46.8147H28.3918L29.9282 44.6223H27.6273C27.3295 44.6223 27.0351 44.6074 26.7443 44.5796L25.8569 46.8147ZM41.6081 46.8147L40.0717 44.6223H42.3727C42.6705 44.6223 42.9648 44.6074 43.2557 44.5796L44.143 46.8147H41.6081ZM49.7191 30.3943C50.9139 30.3943 51.886 29.3894 51.886 28.1542V28.0553C51.886 26.7297 50.8428 25.6513 49.5605 25.6513C48.2782 25.6513 47.2351 26.7297 47.2351 28.0553V34.3508C47.2351 37.3634 44.8641 39.8144 41.9499 39.8144H38.5675C37.9837 39.8144 37.5104 39.3252 37.5104 38.7217C37.5104 38.1182 37.9837 37.6289 38.5675 37.6289H41.9499C43.6985 37.6289 45.121 36.1584 45.121 34.3508V28.0553C45.121 27.1737 45.3632 26.3499 45.7816 25.6499V25.1172C45.7816 21.295 42.7736 18.1853 39.0762 18.1853H30.9238C27.2264 18.1853 24.2184 21.2949 24.2184 25.1172V25.6499C24.6368 26.3499 24.879 27.1738 24.879 28.0553V34.3508C24.879 36.1584 26.3015 37.6289 28.0501 37.6289H29.9811C30.5649 37.6289 31.0382 38.1182 31.0382 38.7217C31.0382 39.3252 30.5649 39.8144 29.9811 39.8144H28.0501C25.1359 39.8144 22.765 37.3634 22.765 34.3508V28.0553C22.765 26.7297 21.7218 25.6513 20.4395 25.6513C19.1572 25.6513 18.114 26.7297 18.114 28.0553V28.1542C18.114 29.3894 19.0861 30.3943 20.2809 30.3943C20.8647 30.3943 21.338 30.8835 21.338 31.487C21.338 32.0905 20.8647 32.5797 20.2809 32.5797C20.2712 32.5797 20.2615 32.5793 20.2518 32.579C20.2439 32.5787 20.236 32.5784 20.2281 32.5783V34.7879C20.2281 39.0056 23.5474 42.4369 27.6273 42.4369H42.3727C46.4526 42.4369 49.7719 39.0056 49.7719 34.7879V32.5783C49.7618 32.5784 49.7518 32.5789 49.7418 32.5792C49.7342 32.5795 49.7267 32.5797 49.7191 32.5797C49.1353 32.5797 48.662 32.0905 48.662 31.487C48.662 30.8835 49.1353 30.3943 49.7191 30.3943Z" fill="#FD0D06"/>
<path d="M40.707 28.293C40.521 28.107 40.263 28 40 28C39.737 28 39.479 28.107 39.293 28.293C39.107 28.479 39 28.737 39 29C39 29.263 39.107 29.521 39.293 29.707C39.479 29.893 39.737 30 40 30C40.263 30 40.521 29.893 40.707 29.707C40.893 29.521 41 29.263 41 29C41 28.737 40.893 28.479 40.707 28.293Z" fill="#FD0D06"/>
<path d="M30.707 28.293C30.521 28.107 30.263 28 30 28C29.737 28 29.479 28.107 29.293 28.293C29.107 28.479 29 28.737 29 29C29 29.263 29.107 29.521 29.293 29.707C29.479 29.893 29.737 30 30 30C30.263 30 30.521 29.893 30.707 29.707C30.893 29.521 31 29.263 31 29C31 28.737 30.893 28.479 30.707 28.293Z" fill="#FD0D06"/>
<path d="M2.707 22.293C2.521 22.107 2.263 22 2 22C1.737 22 1.479 22.107 1.293 22.293C1.107 22.479 1 22.737 1 23C1 23.263 1.107 23.521 1.293 23.707C1.479 23.893 1.737 24 2 24C2.263 24 2.521 23.893 2.707 23.707C2.893 23.521 3 23.263 3 23C3 22.737 2.893 22.479 2.707 22.293Z" fill="#FD0D06"/>
<path d="M35.707 38.293C35.521 38.107 35.263 38 35 38C34.737 38 34.479 38.107 34.293 38.293C34.107 38.479 34 38.737 34 39C34 39.263 34.107 39.521 34.293 39.707C34.479 39.893 34.737 40 35 40C35.263 40 35.521 39.893 35.707 39.707C35.893 39.521 36 39.263 36 39C36 38.737 35.893 38.479 35.707 38.293Z" fill="#FD0D06"/>
</svg>
