<svg width="53" height="53" viewBox="0 0 53 53" fill="none" xmlns="http://www.w3.org/2000/svg">
<path fill-rule="evenodd" clip-rule="evenodd" d="M35.3251 6.2685C35.3123 5.57884 35.5511 4.90804 35.997 4.38107C36.6093 3.62119 36.9356 2.67117 36.9191 1.6961C36.9191 1.31166 36.6069 1 36.2217 1C35.8366 1 35.5244 1.31166 35.5244 1.6961C35.5377 2.38645 35.2989 3.05804 34.8525 3.58552C34.2405 4.3448 33.9142 5.29409 33.9304 6.2685C33.9142 7.24335 34.2403 8.19312 34.8521 8.95307C35.2983 9.48066 35.5373 10.1521 35.5244 10.8425C35.5373 11.5328 35.2984 12.2044 34.8521 12.7319C34.2403 13.4919 33.9142 14.4416 33.9304 15.4165C33.9304 15.8009 34.2427 16.1126 34.6278 16.1126C35.0129 16.1126 35.3251 15.8009 35.3251 15.4165C35.3122 14.7261 35.5511 14.0546 35.9974 13.5271C36.6093 12.7671 36.9354 11.8173 36.9191 10.8425C36.9354 9.86765 36.6093 8.91787 35.9974 8.15792C35.5512 7.63033 35.3123 6.95885 35.3251 6.2685ZM49.62 43.1241C48.598 41.4827 47.1642 40.1361 45.4606 39.2176C46.886 39.0176 48.1135 38.1116 48.7227 36.8098C49.332 35.508 49.2405 33.987 48.4795 32.7673L48.1058 32.1707C47.2245 30.7518 45.9572 29.6125 44.4516 28.8855C45.4282 28.3782 46.1484 27.4871 46.4387 26.4271C46.7289 25.367 46.5629 24.2342 45.9806 23.3015C44.633 21.1265 42.2505 19.8062 39.6886 19.8147H31.1602C28.5982 19.8062 26.2157 21.1265 24.8681 23.3015C24.2864 24.234 24.1206 25.3665 24.4109 26.4261C24.7011 27.4858 25.421 28.3765 26.3971 28.8839C24.8916 29.6109 23.6242 30.7503 22.743 32.1691L22.3692 32.7677C21.9164 33.4843 21.6939 34.3219 21.7316 35.1683C21.0764 35.4555 20.4454 35.7948 19.8448 36.183C19.1212 33.348 17.2862 30.9224 14.7525 29.4519C14.5364 29.3272 14.2701 29.3272 14.054 29.4519C13.1155 29.9935 12.2631 30.6716 11.5248 31.4638C11.2625 31.7454 11.2784 32.1859 11.5605 32.4477C11.8425 32.7096 12.2838 32.6937 12.5461 32.4121C13.0965 31.8212 13.7199 31.3026 14.4015 30.8688C16.737 32.3601 18.3055 34.7933 18.6975 37.5331C19.1802 41.1962 17.5096 44.8099 14.4043 46.8203C10.226 44.1614 8.80253 38.7399 11.1371 34.3771C11.2592 34.1578 11.2536 33.8897 11.1224 33.6757C10.9912 33.4616 10.7547 33.3346 10.5034 33.3433C10.2521 33.352 10.025 33.495 9.90894 33.7176C9.49039 34.4958 9.1692 35.3223 8.95258 36.1786C6.79264 34.7804 4.2717 34.04 1.69735 34.0478C1.31222 34.0478 1 34.3594 1 34.7439V34.9587C0.998089 38.3424 2.28582 41.6001 4.60191 44.0708C3.13285 44.7652 1.90991 45.8888 1.09524 47.2928C0.97013 47.5085 0.97013 47.7745 1.09524 47.9901C2.43326 50.3052 4.83933 51.8023 7.51085 51.9818C10.1824 52.1614 12.7678 50.9999 14.4047 48.8847C15.9282 50.8445 18.2718 51.9936 20.7569 51.9993C21.1623 51.998 21.567 51.9658 21.9675 51.903C22.2389 51.9642 22.5161 51.9965 22.7944 51.9993H36.4034C36.7886 51.9993 37.1008 51.6876 37.1008 51.3032C37.1008 50.9187 36.7886 50.6071 36.4034 50.6071H25.2793C26.274 49.9255 27.1043 49.0316 27.7101 47.9901C27.8352 47.7745 27.8352 47.5085 27.7101 47.2928C26.8947 45.8931 25.6773 44.7699 24.2154 44.0685C25.3057 42.8957 26.1787 41.5389 26.7936 40.0613C28.0535 39.5183 29.4133 39.2442 30.7856 39.2566H40.0647C43.4675 39.2337 46.638 40.9763 48.4381 43.8588L50.2209 46.7152C50.7095 47.4998 50.734 48.4871 50.2849 49.2948C49.8357 50.1026 48.9834 50.604 48.0579 50.6051H43.5762C43.191 50.6051 42.8788 50.9167 42.8788 51.3012C42.8788 51.6856 43.191 51.9973 43.5762 51.9973H48.0575C49.4897 51.9963 50.8088 51.2207 51.504 49.9709C52.1992 48.721 52.1613 47.1933 51.4048 45.9794L49.62 43.1241ZM25.9862 26.6237C25.5285 25.8149 25.5537 24.8203 26.0516 24.0354C27.1457 22.2697 29.0799 21.1978 31.1598 21.2045H39.6898C41.7698 21.1976 43.7042 22.2696 44.7983 24.0354C45.2895 24.8223 45.3145 25.8131 44.8638 26.6237C44.413 27.4343 43.5573 27.9371 42.6286 27.9372H28.2213C27.2907 27.944 26.4318 27.4393 25.9862 26.6237ZM24.248 35.7852C22.7646 36.1495 21.3641 36.7922 20.1213 37.679C20.4657 41.0332 19.2461 44.3592 16.8139 46.6989C22.1834 45.551 26.1134 40.9497 26.3999 35.4758C26.3999 35.438 24.4473 35.7355 24.248 35.7852ZM8.6848 37.679C8.33745 41.0335 9.55751 44.3606 11.9922 46.6985C11.6493 46.6288 11.31 46.5442 10.9745 46.4448C6.0676 44.9765 2.62965 40.5685 2.40706 35.4599C4.66841 35.5865 6.84621 36.3565 8.6832 37.679H8.6848ZM2.51903 47.6401C3.75159 49.4887 5.82697 50.6016 8.0516 50.6067L8.05001 50.6059C9.99476 50.6019 11.8407 49.75 13.1036 48.2737C10.3642 48.0009 7.77396 46.8985 5.68021 45.1142C4.38833 45.6064 3.28301 46.4896 2.51903 47.6401ZM15.7025 48.2745L15.7031 48.2745C18.0596 51.0406 22.2094 51.3937 25.0008 49.0653C25.1713 48.9233 26.429 47.8529 26.2803 47.6305C26.1815 47.4833 26.0775 47.3405 25.9683 47.2021C25.2241 46.2646 24.2403 45.5446 23.1207 45.1182C21.0291 46.9017 18.4405 48.0032 15.7031 48.2745L15.7025 48.2737V48.2745ZM27.4833 37.8652H30.7852V37.8664H44.8717C45.91 37.8664 46.8667 37.3043 47.3707 36.3981C47.8746 35.4919 47.8467 34.3841 47.2976 33.5044L46.9239 32.9058C45.5692 30.7197 43.1746 29.3927 40.5995 29.401H30.2508C27.676 29.3923 25.2813 30.7189 23.9265 32.9046L23.5527 33.5032C23.3344 33.8492 23.1942 34.2385 23.1418 34.644C24.4264 34.2487 25.763 34.0476 27.1072 34.0474C27.4923 34.0474 27.8045 34.359 27.8045 34.7435C27.8124 35.7927 27.7047 36.8395 27.4833 37.8652ZM39.2925 51.9981C38.9073 51.9981 38.5951 51.6864 38.5951 51.302C38.5951 50.9175 38.9073 50.6059 39.2925 50.6059H40.6872C41.0723 50.6059 41.3845 50.9175 41.3845 51.302C41.3845 51.6864 41.0723 51.9981 40.6872 51.9981H39.2925ZM41.7886 4.38107C41.3427 4.90804 41.1039 5.57884 41.1167 6.2685C41.1039 6.95885 41.3428 7.63033 41.789 8.15792C42.4009 8.91787 42.7269 9.86765 42.7107 10.8425C42.7269 11.8173 42.4009 12.7671 41.789 13.5271C41.3427 14.0546 41.1038 14.7261 41.1167 15.4165C41.1167 15.8009 40.8045 16.1126 40.4194 16.1126C40.0342 16.1126 39.722 15.8009 39.722 15.4165C39.7057 14.4416 40.0318 13.4919 40.6437 12.7319C41.09 12.2044 41.3289 11.5328 41.316 10.8425C41.3288 10.1521 41.0899 9.48066 40.6437 8.95307C40.0318 8.19312 39.7057 7.24335 39.722 6.2685C39.7059 5.29404 40.0323 4.34474 40.6445 3.58552C41.0905 3.05845 41.3293 2.3875 41.3164 1.69769C41.3164 1.31325 41.6286 1.00159 42.0137 1.00159C42.3988 1.00159 42.7111 1.31325 42.7111 1.69769C42.7272 2.67222 42.4009 3.62161 41.789 4.38107H41.7886ZM29.5336 6.2685C29.5207 5.57884 29.7595 4.90804 30.2054 4.38107C30.8177 3.62119 31.144 2.67117 31.1275 1.6961C31.1275 1.31166 30.8153 1 30.4301 1C30.045 1 29.7328 1.31166 29.7328 1.6961C29.7461 2.38645 29.5073 3.05804 29.0609 3.58552C28.4489 4.3448 28.1227 5.29409 28.1389 6.2685C28.1226 7.24335 28.4487 8.19312 29.0605 8.95307C29.5068 9.48066 29.7457 10.1521 29.7328 10.8425C29.7457 11.5328 29.5068 12.2044 29.0605 12.7319C28.4487 13.4919 28.1226 14.4416 28.1389 15.4165C28.1389 15.8009 28.4511 16.1126 28.8362 16.1126C29.2213 16.1126 29.5336 15.8009 29.5336 15.4165C29.5206 14.7261 29.7596 14.0546 30.2058 13.5271C30.8177 12.7671 31.1438 11.8173 31.1275 10.8425C31.1438 9.86765 30.8177 8.91787 30.2058 8.15792C29.7596 7.63033 29.5207 6.95885 29.5336 6.2685Z" fill="#FD120B"/>
<path d="M35.997 4.38107L36.2642 4.60721L36.2695 4.60068L35.997 4.38107ZM35.3251 6.2685L35.6753 6.27503L35.6751 6.262L35.3251 6.2685ZM36.9191 1.6961H36.569L36.5691 1.70202L36.9191 1.6961ZM35.5244 1.6961H35.1743L35.1744 1.70285L35.5244 1.6961ZM34.8525 3.58552L34.5853 3.35937L34.58 3.36587L34.8525 3.58552ZM33.9304 6.2685L34.2806 6.27435L34.2804 6.26269L33.9304 6.2685ZM34.8521 8.95307L34.5794 9.17264L34.5849 9.17909L34.8521 8.95307ZM35.5244 10.8425L35.1742 10.836L35.1744 10.8491L35.5244 10.8425ZM34.8521 12.7319L34.5848 12.5058L34.5795 12.5124L34.8521 12.7319ZM33.9304 15.4165H34.2805L34.2804 15.4106L33.9304 15.4165ZM35.3251 15.4165H35.6752L35.6751 15.4099L35.3251 15.4165ZM35.9974 13.5271L36.2647 13.7532L36.27 13.7466L35.9974 13.5271ZM36.9191 10.8425L36.5689 10.8366L36.5691 10.8483L36.9191 10.8425ZM35.9974 8.15792L36.2701 7.93836L36.2646 7.93191L35.9974 8.15792ZM45.4606 39.2176L45.412 38.871L44.3552 39.0193L45.2945 39.5257L45.4606 39.2176ZM49.62 43.1241L49.3229 43.3091L49.3232 43.3097L49.62 43.1241ZM48.7227 36.8098L49.0397 36.9582L48.7227 36.8098ZM48.4795 32.7673L48.7765 32.5821L48.7761 32.5815L48.4795 32.7673ZM48.1058 32.1707L47.8084 32.3553L47.8092 32.3565L48.1058 32.1707ZM44.4516 28.8855L44.2903 28.5749L43.6704 28.8969L44.2995 29.2006L44.4516 28.8855ZM46.4387 26.4271L46.7762 26.5195L46.4387 26.4271ZM45.9806 23.3015L45.6831 23.4859L45.6838 23.4869L45.9806 23.3015ZM39.6886 19.8147V20.1647L39.6897 20.1647L39.6886 19.8147ZM31.1602 19.8147L31.159 20.1647H31.1602V19.8147ZM24.8681 23.3015L25.165 23.4868L25.1656 23.4859L24.8681 23.3015ZM24.4109 26.4261L24.7484 26.3337L24.4109 26.4261ZM26.3971 28.8839L26.5493 29.1991L27.1781 28.8954L26.5585 28.5733L26.3971 28.8839ZM22.743 32.1691L23.0398 32.3545L23.0403 32.3538L22.743 32.1691ZM22.3692 32.7677L22.6651 32.9547L22.6661 32.9531L22.3692 32.7677ZM21.7316 35.1683L21.8721 35.4889L22.0919 35.3925L22.0813 35.1527L21.7316 35.1683ZM19.8448 36.183L19.5056 36.2696L19.626 36.7411L20.0348 36.477L19.8448 36.183ZM14.7525 29.4519L14.9282 29.1492L14.9275 29.1488L14.7525 29.4519ZM14.054 29.4519L14.2289 29.755L14.229 29.755L14.054 29.4519ZM11.5248 31.4638L11.2687 31.2252L11.2687 31.2252L11.5248 31.4638ZM11.5605 32.4477L11.3223 32.7042L11.3223 32.7042L11.5605 32.4477ZM12.5461 32.4121L12.8022 32.6507L12.8022 32.6507L12.5461 32.4121ZM14.4015 30.8688L14.5898 30.5738L14.4018 30.4537L14.2135 30.5735L14.4015 30.8688ZM18.6975 37.5331L19.0446 37.4873L19.044 37.4835L18.6975 37.5331ZM14.4043 46.8203L14.2163 47.1155L14.4059 47.2361L14.5945 47.1141L14.4043 46.8203ZM11.1371 34.3771L10.8312 34.2068L10.8285 34.212L11.1371 34.3771ZM11.1224 33.6757L11.4208 33.4928H11.4208L11.1224 33.6757ZM10.5034 33.3433L10.4913 32.9935H10.4913L10.5034 33.3433ZM9.90894 33.7176L10.2172 33.8834L10.2193 33.8794L9.90894 33.7176ZM8.95258 36.1786L8.76238 36.4724L9.17218 36.7377L9.29189 36.2645L8.95258 36.1786ZM1.69735 34.0478V34.3978L1.69841 34.3978L1.69735 34.0478ZM1 34.7439H0.650004H1ZM1 34.9587L1.35 34.9589V34.9587H1ZM4.60191 44.0708L4.75147 44.3873L5.18584 44.182L4.85726 43.8315L4.60191 44.0708ZM1.09524 47.2928L0.792514 47.1171L0.792501 47.1172L1.09524 47.2928ZM1.09524 47.9901L1.39827 47.815L1.39798 47.8145L1.09524 47.9901ZM7.51085 51.9818L7.48738 52.3311L7.51085 51.9818ZM14.4047 48.8847L14.681 48.6699L14.404 48.3136L14.1279 48.6705L14.4047 48.8847ZM20.7569 51.9993L20.7561 52.3493L20.758 52.3493L20.7569 51.9993ZM21.9675 51.903L22.0445 51.5616L21.9793 51.5469L21.9132 51.5572L21.9675 51.903ZM22.7944 51.9993L22.7909 52.3493H22.7944V51.9993ZM25.2793 50.6071L25.0815 50.3183L24.1494 50.9571H25.2793V50.6071ZM27.7101 47.9901L28.0126 48.1661L28.0128 48.1657L27.7101 47.9901ZM27.7101 47.2928L28.0128 47.1172L28.0125 47.1166L27.7101 47.2928ZM24.2154 44.0685L23.959 43.8301L23.6353 44.1783L24.064 44.384L24.2154 44.0685ZM26.7936 40.0613L26.655 39.7399L26.5249 39.796L26.4704 39.9268L26.7936 40.0613ZM30.7856 39.2566L30.7824 39.6066H30.7856V39.2566ZM40.0647 39.2566V39.6066L40.0671 39.6066L40.0647 39.2566ZM48.4381 43.8588L48.735 43.6735L48.735 43.6734L48.4381 43.8588ZM50.2209 46.7152L50.518 46.5302L50.5178 46.5299L50.2209 46.7152ZM50.2849 49.2948L50.5908 49.4649L50.2849 49.2948ZM48.0579 50.6051V50.9551H48.0583L48.0579 50.6051ZM48.0575 51.9973V52.3473H48.0578L48.0575 51.9973ZM51.504 49.9709L51.8099 50.141L51.504 49.9709ZM51.4048 45.9794L51.7019 45.7943L51.7016 45.7938L51.4048 45.9794ZM26.0516 24.0354L26.3471 24.2229L26.3491 24.2198L26.0516 24.0354ZM25.9862 26.6237L26.2934 26.4559L26.2909 26.4514L25.9862 26.6237ZM31.1598 21.2045L31.1586 21.5545H31.1598V21.2045ZM39.6898 21.2045V21.5545L39.6909 21.5545L39.6898 21.2045ZM44.7983 24.0354L44.5008 24.2198L44.5014 24.2208L44.7983 24.0354ZM44.8638 26.6237L45.1697 26.7938V26.7938L44.8638 26.6237ZM42.6286 27.9372V28.2872H42.6286L42.6286 27.9372ZM28.2213 27.9372V27.5872L28.2188 27.5872L28.2213 27.9372ZM20.1213 37.679L19.918 37.3941L19.7524 37.5123L19.7732 37.7148L20.1213 37.679ZM24.248 35.7852L24.3315 36.1251L24.3328 36.1248L24.248 35.7852ZM16.8139 46.6989L16.5713 46.4467L15.6864 47.2979L16.8871 47.0412L16.8139 46.6989ZM26.3999 35.4758L26.7494 35.4941L26.7499 35.4849V35.4758H26.3999ZM11.9922 46.6985L11.9225 47.0415L13.1052 47.282L12.2346 46.4461L11.9922 46.6985ZM8.6848 37.679L9.03293 37.7151L9.07291 37.329H8.6848V37.679ZM10.9745 46.4448L10.8742 46.7801L10.875 46.7803L10.9745 46.4448ZM2.40706 35.4599L2.42662 35.1104L2.04056 35.0888L2.05739 35.4751L2.40706 35.4599ZM8.6832 37.679L8.47871 37.9631L8.57032 38.029H8.6832V37.679ZM8.0516 50.6067L8.0508 50.9567L8.20756 50.2933L8.0516 50.6067ZM2.51903 47.6401L2.22746 47.4465L2.09863 47.6405L2.22782 47.8342L2.51903 47.6401ZM8.05001 50.6059L8.04929 50.2559L7.89405 50.9192L8.05001 50.6059ZM13.1036 48.2737L13.3696 48.5012L13.8053 47.9919L13.1383 47.9254L13.1036 48.2737ZM5.68021 45.1142L5.90723 44.8478L5.74939 44.7133L5.55561 44.7871L5.68021 45.1142ZM15.7025 48.2745H15.3525V48.6604L15.7366 48.6228L15.7025 48.2745ZM25.0008 49.0653L24.7768 48.7963L24.7766 48.7965L25.0008 49.0653ZM26.2803 47.6305L26.5713 47.436L26.5709 47.4354L26.2803 47.6305ZM25.9683 47.2021L26.2431 46.9854L26.2424 46.9845L25.9683 47.2021ZM23.1207 45.1182L23.2453 44.7911L23.0515 44.7173L22.8936 44.8519L23.1207 45.1182ZM15.7025 48.2737L15.969 48.0468L15.3525 47.3229V48.2737H15.7025ZM30.7852 37.8652H31.1352V37.5152H30.7852V37.8652ZM27.4833 37.8652L27.1412 37.7914L27.0498 38.2152H27.4833V37.8652ZM30.7852 37.8664H30.4352V38.2164H30.7852V37.8664ZM44.8717 37.8664V38.2164H44.8717L44.8717 37.8664ZM47.3707 36.3981L47.0648 36.228H47.0648L47.3707 36.3981ZM47.2976 33.5044L47.5945 33.3191L47.5945 33.319L47.2976 33.5044ZM46.9239 32.9058L46.6263 33.0901L46.627 33.0911L46.9239 32.9058ZM40.5995 29.401V29.751L40.6006 29.751L40.5995 29.401ZM30.2508 29.401L30.2496 29.751H30.2508V29.401ZM23.9265 32.9046L24.2233 33.0899L24.2239 33.089L23.9265 32.9046ZM23.5527 33.5032L23.8487 33.69L23.8496 33.6886L23.5527 33.5032ZM23.1418 34.644L22.7947 34.5992L22.7251 35.1385L23.2448 34.9785L23.1418 34.644ZM27.1072 34.0474V33.6974H27.1071L27.1072 34.0474ZM27.8045 34.7435H27.4545L27.4545 34.7461L27.8045 34.7435ZM41.1167 6.2685L41.4669 6.27503L41.4667 6.262L41.1167 6.2685ZM41.7886 4.38107V4.03107H41.6262L41.5214 4.15499L41.7886 4.38107ZM41.789 8.15792L42.0617 7.93836L42.0562 7.93191L41.789 8.15792ZM42.7107 10.8425L42.3605 10.8366L42.3607 10.8483L42.7107 10.8425ZM41.789 13.5271L42.0563 13.7532L42.0616 13.7466L41.789 13.5271ZM41.1167 15.4165H41.4668L41.4667 15.4099L41.1167 15.4165ZM39.722 15.4165H40.0721L40.072 15.4106L39.722 15.4165ZM40.6437 12.7319L40.3764 12.5058L40.3711 12.5124L40.6437 12.7319ZM41.316 10.8425L40.9658 10.836L40.966 10.8491L41.316 10.8425ZM40.6437 8.95307L40.371 9.17264L40.3765 9.17909L40.6437 8.95307ZM39.722 6.2685L40.0722 6.27435L40.072 6.26273L39.722 6.2685ZM40.6445 3.58552L40.3773 3.35938L40.3721 3.36583L40.6445 3.58552ZM41.3164 1.69769H40.9663L40.9664 1.70425L41.3164 1.69769ZM42.7111 1.69769H42.361L42.3611 1.70348L42.7111 1.69769ZM41.789 4.38107V4.73107H41.9564L42.0615 4.60068L41.789 4.38107ZM30.2054 4.38107L30.4727 4.60721L30.4779 4.60068L30.2054 4.38107ZM29.5336 6.2685L29.8837 6.27503L29.8835 6.262L29.5336 6.2685ZM31.1275 1.6961H30.7774L30.7775 1.70202L31.1275 1.6961ZM29.7328 1.6961H29.3827L29.3829 1.70285L29.7328 1.6961ZM29.0609 3.58552L28.7937 3.35938L28.7885 3.36587L29.0609 3.58552ZM28.1389 6.2685L28.489 6.27435L28.4888 6.26269L28.1389 6.2685ZM29.0605 8.95307L28.7879 9.17264L28.7933 9.17909L29.0605 8.95307ZM29.7328 10.8425L29.3826 10.836L29.3829 10.8491L29.7328 10.8425ZM29.0605 12.7319L28.7933 12.5058L28.7879 12.5124L29.0605 12.7319ZM28.1389 15.4165H28.4889L28.4888 15.4106L28.1389 15.4165ZM29.5336 15.4165H29.8836L29.8835 15.4099L29.5336 15.4165ZM30.2058 13.5271L30.4731 13.7532L30.4784 13.7466L30.2058 13.5271ZM31.1275 10.8425L30.7773 10.8366L30.7775 10.8483L31.1275 10.8425ZM30.2058 8.15792L30.4785 7.93836L30.473 7.93191L30.2058 8.15792ZM35.7298 4.15499C35.229 4.74681 34.9608 5.50027 34.9752 6.27501L35.6751 6.262C35.6638 5.65741 35.8732 5.06926 36.2642 4.60715L35.7298 4.15499ZM36.5691 1.70202C36.5842 2.5951 36.2854 3.46533 35.7245 4.16146L36.2695 4.60068C36.9332 3.77705 37.2869 2.74723 37.269 1.69018L36.5691 1.70202ZM36.2217 1.35C36.4142 1.35 36.5691 1.50555 36.5691 1.6961H37.2691C37.2691 1.11776 36.7996 0.65 36.2217 0.65V1.35ZM35.8744 1.6961C35.8744 1.50555 36.0293 1.35 36.2217 1.35V0.65C35.6439 0.65 35.1744 1.11777 35.1744 1.6961H35.8744ZM35.1197 3.81161C35.621 3.21921 35.8893 2.46486 35.8743 1.68936L35.1744 1.70285C35.1861 2.30803 34.9768 2.89687 34.5854 3.35944L35.1197 3.81161ZM34.2804 6.26269C34.2656 5.37024 34.5644 4.50072 35.125 3.80518L34.58 3.36587C33.9166 4.18887 33.5629 5.21794 33.5805 6.27432L34.2804 6.26269ZM35.1248 8.73357C34.5642 8.03733 34.2655 7.16728 34.2804 6.27434L33.5805 6.26266C33.5628 7.31941 33.9163 8.34891 34.5795 9.17257L35.1248 8.73357ZM35.8743 10.849C35.8888 10.0736 35.6204 9.3195 35.1194 8.72706L34.5849 9.17909C34.9763 9.64183 35.1857 10.2307 35.1744 10.836L35.8743 10.849ZM35.1194 12.958C35.6205 12.3655 35.8889 11.6114 35.8743 10.8359L35.1744 10.8491C35.1858 11.4543 34.9763 12.0432 34.5849 12.5059L35.1194 12.958ZM34.2804 15.4106C34.2655 14.5177 34.5642 13.6477 35.1248 12.9514L34.5795 12.5124C33.9163 13.3361 33.5628 14.3656 33.5805 15.4223L34.2804 15.4106ZM34.6278 15.7626C34.4354 15.7626 34.2804 15.607 34.2804 15.4165H33.5804C33.5804 15.9948 34.0499 16.4626 34.6278 16.4626V15.7626ZM34.9751 15.4165C34.9751 15.607 34.8202 15.7626 34.6278 15.7626V16.4626C35.2056 16.4626 35.6751 15.9948 35.6751 15.4165H34.9751ZM35.7302 13.301C35.2291 13.8935 34.9607 14.6476 34.9752 15.423L35.6751 15.4099C35.6638 14.8047 35.8732 14.2158 36.2646 13.7531L35.7302 13.301ZM36.5691 10.8483C36.584 11.7413 36.2854 12.6113 35.7248 13.3076L36.27 13.7466C36.9332 12.9229 37.2867 11.8934 37.269 10.8367L36.5691 10.8483ZM35.7248 8.37742C36.2854 9.07366 36.584 9.94372 36.5691 10.8367L37.269 10.8483C37.2867 9.79158 36.9332 8.76208 36.27 7.93842L35.7248 8.37742ZM34.9752 6.26198C34.9607 7.03738 35.2291 7.7915 35.7301 8.38394L36.2646 7.93191C35.8733 7.46916 35.6638 6.88032 35.6751 6.27502L34.9752 6.26198ZM45.2945 39.5257C46.9445 40.4152 48.3331 41.7194 49.3229 43.3091L49.9171 42.9392C48.8628 41.2459 47.3839 39.8569 45.6267 38.9095L45.2945 39.5257ZM48.4057 36.6615C47.8467 37.8559 46.7204 38.6874 45.412 38.871L45.5093 39.5642C47.0517 39.3478 48.3802 38.3674 49.0397 36.9582L48.4057 36.6615ZM48.1826 32.9526C48.8808 34.0717 48.9647 35.4671 48.4057 36.6615L49.0397 36.9582C49.6993 35.549 49.6002 33.9023 48.7765 32.5821L48.1826 32.9526ZM47.8092 32.3565L48.1829 32.9531L48.7761 32.5815L48.4024 31.9849L47.8092 32.3565ZM44.2995 29.2006C45.7453 29.8988 46.9622 30.993 47.8084 32.3553L48.4031 31.986C47.4868 30.5107 46.1691 29.3261 44.6038 28.5703L44.2995 29.2006ZM46.1011 26.3346C45.8366 27.3004 45.1804 28.1125 44.2903 28.5749L44.613 29.1961C45.676 28.6438 46.4602 27.6738 46.7762 26.5195L46.1011 26.3346ZM45.6838 23.4869C46.2143 24.3367 46.3655 25.3688 46.1011 26.3346L46.7762 26.5195C47.0923 25.3652 46.9115 24.1316 46.2775 23.1162L45.6838 23.4869ZM39.6897 20.1647C42.1303 20.1566 44.3996 21.4144 45.6831 23.4859L46.2782 23.1172C44.8664 20.8387 42.3707 19.4558 39.6874 19.4647L39.6897 20.1647ZM31.1602 20.1647H39.6886V19.4647H31.1602V20.1647ZM25.1656 23.4859C26.4491 21.4144 28.7184 20.1566 31.159 20.1647L31.1613 19.4647C28.478 19.4558 25.9823 20.8387 24.5706 23.1172L25.1656 23.4859ZM24.7484 26.3337C24.484 25.3683 24.635 24.3365 25.165 23.4868L24.5711 23.1163C23.9377 24.1316 23.7573 25.3647 24.0733 26.5186L24.7484 26.3337ZM26.5585 28.5733C25.6688 28.1109 25.0129 27.2991 24.7484 26.3337L24.0733 26.5186C24.3893 27.6724 25.1731 28.6422 26.2357 29.1944L26.5585 28.5733ZM23.0403 32.3538C23.8865 30.9914 25.1035 29.8972 26.5493 29.1991L26.2449 28.5687C24.6797 29.3245 23.362 30.5091 22.4456 31.9844L23.0403 32.3538ZM22.6661 32.9531L23.0398 32.3545L22.4461 31.9837L22.0723 32.5824L22.6661 32.9531ZM22.0813 35.1527C22.0468 34.3778 22.2504 33.6109 22.6651 32.9547L22.0733 32.5808C21.5823 33.3577 21.3411 34.266 21.382 35.1839L22.0813 35.1527ZM20.0348 36.477C20.6197 36.0989 21.2341 35.7685 21.8721 35.4889L21.5911 34.8477C20.9187 35.1424 20.2712 35.4907 19.6548 35.8891L20.0348 36.477ZM14.5768 29.7546C17.0293 31.178 18.8053 33.5258 19.5056 36.2696L20.1839 36.0965C19.437 33.1703 17.543 30.6669 14.9282 29.1492L14.5768 29.7546ZM14.229 29.755C14.3368 29.6928 14.4698 29.6928 14.5776 29.755L14.9275 29.1488C14.6031 28.9616 14.2034 28.9616 13.879 29.1488L14.229 29.755ZM11.7809 31.7024C12.4955 30.9356 13.3205 30.2793 14.2289 29.755L13.879 29.1488C12.9105 29.7077 12.0308 30.4075 11.2687 31.2252L11.7809 31.7024ZM11.7986 32.1912C11.6584 32.061 11.6505 31.8423 11.7809 31.7024L11.2687 31.2252C10.8744 31.6484 10.8985 32.3107 11.3223 32.7042L11.7986 32.1912ZM12.2901 32.1735C12.1594 32.3138 11.9392 32.3218 11.7986 32.1912L11.3223 32.7042C11.7458 33.0974 12.4082 33.0735 12.8022 32.6507L12.2901 32.1735ZM14.2135 30.5735C13.507 31.0233 12.8606 31.5609 12.29 32.1736L12.8022 32.6507C13.3324 32.0815 13.9329 31.5819 14.5894 31.164L14.2135 30.5735ZM19.044 37.4835C18.6376 34.6427 17.0112 32.1199 14.5898 30.5738L14.2131 31.1638C16.4628 32.6003 17.9735 34.944 18.3511 37.5826L19.044 37.4835ZM14.5945 47.1141C17.8131 45.0304 19.5449 41.2846 19.0445 37.4873L18.3505 37.5788C18.8155 41.1077 17.2062 44.5894 14.2141 46.5265L14.5945 47.1141ZM10.8285 34.212C8.40744 38.7365 9.88389 44.3585 14.2163 47.1155L14.5922 46.525C10.5682 43.9642 9.19762 38.7434 11.4457 34.5423L10.8285 34.212ZM10.824 33.8586C10.8892 33.9649 10.8919 34.0979 10.8313 34.2069L11.4429 34.5474C11.6265 34.2176 11.6181 33.8146 11.4208 33.4928L10.824 33.8586ZM10.5155 33.6931C10.641 33.6887 10.7588 33.7521 10.824 33.8586L11.4208 33.4928C11.2236 33.171 10.8684 32.9804 10.4913 32.9935L10.5155 33.6931ZM10.2193 33.8794C10.277 33.7688 10.39 33.6974 10.5155 33.6931L10.4913 32.9935C10.1142 33.0065 9.77304 33.2212 9.59858 33.5558L10.2193 33.8794ZM9.29189 36.2645C9.50147 35.436 9.81222 34.6363 10.2172 33.8834L9.6007 33.5518C9.16856 34.3552 8.83692 35.2086 8.61326 36.0928L9.29189 36.2645ZM1.69841 34.3978C4.20494 34.3902 6.65944 35.1111 8.76238 36.4724L9.14277 35.8848C6.92585 34.4497 4.33846 33.6898 1.6963 33.6978L1.69841 34.3978ZM1.35 34.7439C1.35 34.5533 1.50493 34.3978 1.69735 34.3978V33.6978C1.11951 33.6978 0.650004 34.1655 0.650004 34.7439H1.35ZM1.35 34.9587V34.7439H0.650004V34.9587H1.35ZM4.85726 43.8315C2.60197 41.4256 1.34814 38.2535 1.35 34.9589L0.650004 34.9585C0.648039 38.4313 1.96967 41.7746 4.34656 44.3102L4.85726 43.8315ZM1.39797 47.4685C2.17699 46.1259 3.34648 45.0513 4.75147 44.3873L4.45236 43.7544C2.91922 44.479 1.64283 45.6517 0.792514 47.1171L1.39797 47.4685ZM1.39798 47.8145C1.33588 47.7074 1.33588 47.5755 1.39798 47.4684L0.792501 47.1172C0.604377 47.4414 0.604376 47.8415 0.792502 48.1657L1.39798 47.8145ZM7.53433 51.6326C4.97899 51.4609 2.67784 50.029 1.39827 47.815L0.792211 48.1652C2.18869 50.5815 4.69968 52.1437 7.48738 52.3311L7.53433 51.6326ZM14.1279 48.6705C12.5624 50.6933 10.0897 51.8044 7.53433 51.6326L7.48738 52.3311C10.2751 52.5184 12.9731 51.3064 14.6815 49.0989L14.1279 48.6705ZM20.7577 51.6493C18.3802 51.6439 16.1383 50.5445 14.681 48.6699L14.1283 49.0995C15.7181 51.1445 18.1634 52.3434 20.7561 52.3493L20.7577 51.6493ZM21.9132 51.5572C21.5304 51.6173 21.1434 51.6481 20.7558 51.6493L20.758 52.3493C21.1812 52.348 21.6037 52.3144 22.0218 52.2488L21.9132 51.5572ZM22.7979 51.6493C22.5443 51.6467 22.2918 51.6173 22.0445 51.5616L21.8905 52.2444C22.1861 52.3111 22.4879 52.3462 22.7909 52.3492L22.7979 51.6493ZM36.4034 51.6493H22.7944V52.3493H36.4034V51.6493ZM36.7508 51.3032C36.7508 51.4937 36.5959 51.6493 36.4034 51.6493V52.3493C36.9813 52.3493 37.4508 51.8815 37.4508 51.3032H36.7508ZM36.4034 50.9571C36.5959 50.9571 36.7508 51.1126 36.7508 51.3032H37.4508C37.4508 50.7248 36.9813 50.2571 36.4034 50.2571V50.9571ZM25.2793 50.9571H36.4034V50.2571H25.2793V50.9571ZM27.4075 47.8141C26.8278 48.8107 26.0333 49.6661 25.0815 50.3183L25.4772 50.8958C26.5146 50.1849 27.3807 49.2525 28.0126 48.1661L27.4075 47.8141ZM27.4073 47.4684C27.4694 47.5755 27.4694 47.7074 27.4073 47.8145L28.0128 48.1657C28.2009 47.8415 28.2009 47.4414 28.0128 47.1172L27.4073 47.4684ZM24.064 44.384C25.4628 45.0552 26.6276 46.1299 27.4077 47.469L28.0125 47.1166C27.1618 45.6564 25.8918 44.4846 24.3668 43.7529L24.064 44.384ZM26.4704 39.9268C25.8715 41.3661 25.0212 42.6877 23.959 43.8301L24.4717 44.3068C25.5903 43.1036 26.4859 41.7117 27.1167 40.1958L26.4704 39.9268ZM30.7888 38.9066C29.3678 38.8937 27.9597 39.1776 26.655 39.7399L26.9321 40.3827C28.1473 39.859 29.4588 39.5946 30.7824 39.6066L30.7888 38.9066ZM40.0647 38.9066H30.7856V39.6066H40.0647V38.9066ZM48.735 43.6734C46.8704 40.6876 43.5865 38.8829 40.0624 38.9066L40.0671 39.6066C43.3484 39.5845 46.4056 41.265 48.1412 44.0442L48.735 43.6734ZM50.5178 46.5299L48.735 43.6735L48.1412 44.0442L49.924 46.9006L50.5178 46.5299ZM50.5908 49.4649C51.1017 48.546 51.0739 47.4228 50.518 46.5302L49.9238 46.9003C50.3452 47.5769 50.3663 48.4282 49.979 49.1247L50.5908 49.4649ZM48.0583 50.9551C49.1105 50.9539 50.0798 50.3838 50.5908 49.4649L49.979 49.1247C49.5916 49.8214 48.8563 50.2542 48.0575 50.2551L48.0583 50.9551ZM43.5762 50.9551H48.0579V50.2551H43.5762V50.9551ZM43.2288 51.3012C43.2288 51.1106 43.3838 50.9551 43.5762 50.9551V50.2551C42.9983 50.2551 42.5288 50.7228 42.5288 51.3012H43.2288ZM43.5762 51.6473C43.3838 51.6473 43.2288 51.4917 43.2288 51.3012H42.5288C42.5288 51.8795 42.9983 52.3473 43.5762 52.3473V51.6473ZM48.0575 51.6473H43.5762V52.3473H48.0575V51.6473ZM51.1982 49.8008C50.5648 50.9395 49.3627 51.6464 48.0573 51.6473L48.0578 52.3473C49.6167 52.3463 51.0529 51.502 51.8099 50.141L51.1982 49.8008ZM51.1078 46.1645C51.7969 47.2704 51.8315 48.6621 51.1982 49.8008L51.8099 50.141C52.567 48.7799 52.5256 47.1162 51.7019 45.7943L51.1078 46.1645ZM49.3232 43.3097L51.108 46.1649L51.7016 45.7938L49.9168 42.9386L49.3232 43.3097ZM25.756 23.8479C25.1889 24.7418 25.1603 25.8748 25.6816 26.7961L26.2909 26.4514C25.8968 25.7549 25.9184 24.8987 26.3471 24.2229L25.756 23.8479ZM31.1609 20.8545C28.9596 20.8474 26.9123 21.9819 25.7541 23.8511L26.3491 24.2198C27.3791 22.5575 29.2001 21.5482 31.1586 21.5545L31.1609 20.8545ZM39.6898 20.8545H31.1598V21.5545H39.6898V20.8545ZM45.0958 23.8511C43.9375 21.9817 41.89 20.8472 39.6886 20.8545L39.6909 21.5545C41.6496 21.548 43.4708 22.5574 44.5008 24.2198L45.0958 23.8511ZM45.1697 26.7938C45.6823 25.8719 45.6538 24.745 45.0952 23.8501L44.5014 24.2208C44.9252 24.8996 44.9468 25.7543 44.5579 26.4536L45.1697 26.7938ZM42.6286 28.2872C43.6842 28.2871 44.6571 27.7156 45.1697 26.7938L44.5579 26.4536C44.169 27.153 43.4305 27.5871 42.6286 27.5872L42.6286 28.2872ZM28.2213 28.2872H42.6286V27.5872H28.2213V28.2872ZM25.6791 26.7916C26.1866 27.7204 27.1646 28.2949 28.2239 28.2872L28.2188 27.5872C27.4169 27.5931 26.6771 27.1581 26.2934 26.4559L25.6791 26.7916ZM20.3246 37.9639C21.5313 37.1028 22.8911 36.4788 24.3315 36.1251L24.1646 35.4453C22.6381 35.8201 21.1969 36.4815 19.918 37.3941L20.3246 37.9639ZM17.0565 46.9512C19.5663 44.5369 20.8249 41.1047 20.4695 37.6433L19.7732 37.7148C20.1065 40.9617 18.9259 44.1816 16.5713 46.4467L17.0565 46.9512ZM26.0503 35.4575C25.7722 40.773 21.9558 45.2417 16.7407 46.3567L16.8871 47.0412C22.4109 45.8602 26.4546 41.1265 26.7494 35.4941L26.0503 35.4575ZM24.3328 36.1248C24.3328 36.1248 24.333 36.1248 24.3336 36.1246C24.3342 36.1245 24.3349 36.1243 24.336 36.1241C24.338 36.1236 24.3408 36.123 24.3443 36.1223C24.3513 36.1208 24.3604 36.1189 24.3717 36.1167C24.3944 36.1123 24.4235 36.107 24.4587 36.1008C24.5289 36.0883 24.6198 36.0731 24.7245 36.0561C24.9337 36.0221 25.1947 35.9817 25.4499 35.9439C25.7054 35.9061 25.9528 35.8714 26.1352 35.8485C26.2272 35.8369 26.2988 35.8289 26.3455 35.8249C26.3569 35.8239 26.3657 35.8233 26.3723 35.8229C26.3794 35.8225 26.3817 35.8225 26.3807 35.8225C26.3801 35.8225 26.377 35.8225 26.3721 35.8223C26.368 35.8221 26.3575 35.8216 26.3434 35.8195C26.335 35.8182 26.2975 35.8129 26.2531 35.7926C26.2308 35.7825 26.0499 35.6966 26.0499 35.4758H26.7499C26.7499 35.2537 26.5679 35.1669 26.5438 35.1559C26.4975 35.1347 26.4572 35.1287 26.4451 35.1269C26.4139 35.1223 26.3864 35.1224 26.3751 35.1225C26.3466 35.1227 26.3145 35.125 26.2856 35.1275C26.2248 35.1327 26.1423 35.1421 26.0481 35.1539C25.8582 35.1777 25.605 35.2134 25.3475 35.2515C24.8448 35.3258 24.2841 35.4155 24.1633 35.4457L24.3328 36.1248ZM12.2346 46.4461C9.87767 44.1828 8.69671 40.9621 9.03293 37.7151L8.33666 37.643C7.97818 41.1049 9.23735 44.5384 11.7498 46.951L12.2346 46.4461ZM10.875 46.7803C11.2204 46.8827 11.5695 46.9697 11.9225 47.0415L12.062 46.3556C11.729 46.2878 11.3997 46.2057 11.0739 46.1092L10.875 46.7803ZM2.05739 35.4751C2.28648 40.7329 5.8248 45.2692 10.8742 46.7801L11.0748 46.1094C6.31039 44.6838 2.97282 40.404 2.75672 35.4446L2.05739 35.4751ZM8.88769 37.395C6.99653 36.0335 4.75455 35.2408 2.42662 35.1104L2.38749 35.8093C4.58227 35.9322 6.6959 36.6796 8.47871 37.9631L8.88769 37.395ZM8.6848 37.329H8.6832V38.029H8.6848V37.329ZM8.0524 50.2567C5.94433 50.2518 3.97795 49.1973 2.81024 47.4459L2.22782 47.8342C3.52524 49.7802 5.70961 50.9513 8.0508 50.9567L8.0524 50.2567ZM7.89405 50.9192L7.89564 50.92L8.20756 50.2933L8.20597 50.2925L7.89405 50.9192ZM12.8376 48.0462C11.6412 49.4448 9.89212 50.2521 8.04929 50.2559L8.05073 50.9559C10.0974 50.9516 12.0403 50.0551 13.3696 48.5012L12.8376 48.0462ZM5.4532 45.3806C7.60127 47.2111 10.2587 48.3421 13.0689 48.622L13.1383 47.9254C10.4698 47.6597 7.94666 46.5858 5.90723 44.8478L5.4532 45.3806ZM2.8106 47.8337C3.53416 46.744 4.58107 45.9075 5.80482 45.4413L5.55561 44.7871C4.19559 45.3053 3.03186 46.2351 2.22746 47.4465L2.8106 47.8337ZM15.6691 47.9261L15.6684 47.9262L15.7366 48.6228L15.7372 48.6228L15.6691 47.9261ZM24.7766 48.7965C22.1325 51.0021 18.2015 50.6675 15.9696 48.0475L15.4367 48.5014C17.9176 51.4138 22.2863 51.7853 25.225 49.3341L24.7766 48.7965ZM25.9893 47.825C25.9045 47.6982 25.9631 47.5878 25.9504 47.6193C25.9465 47.629 25.9296 47.6615 25.8864 47.7195C25.8029 47.8316 25.6695 47.9758 25.5143 48.129C25.2074 48.432 24.859 48.7279 24.7768 48.7963L25.2247 49.3343C25.3131 49.2607 25.6788 48.9503 26.0062 48.6271C26.1681 48.4672 26.3319 48.2932 26.4478 48.1376C26.5043 48.0617 26.5625 47.973 26.5996 47.8811C26.6279 47.8109 26.6933 47.6185 26.5713 47.436L25.9893 47.825ZM25.6935 47.4189C25.7971 47.5503 25.8959 47.6858 25.9897 47.8256L26.5709 47.4354C26.4671 47.2809 26.3578 47.1308 26.2431 46.9854L25.6935 47.4189ZM22.9961 45.4453C24.057 45.8494 24.9891 46.5315 25.6942 47.4197L26.2424 46.9845C25.459 45.9976 24.4237 45.2399 23.2453 44.7911L22.9961 45.4453ZM15.7377 48.6227C18.5461 48.3444 21.2018 47.2144 23.3478 45.3845L22.8936 44.8519C20.8564 46.589 18.335 47.6619 15.6686 47.9262L15.7377 48.6227ZM15.436 48.5006L15.4367 48.5014L15.9696 48.0475L15.969 48.0468L15.436 48.5006ZM16.0525 48.2745V48.2737H15.3525V48.2745H16.0525ZM30.7852 37.5152H27.4833V38.2152H30.7852V37.5152ZM31.1352 37.8664V37.8652H30.4352V37.8664H31.1352ZM44.8717 37.5164H30.7852V38.2164H44.8717V37.5164ZM47.0648 36.228C46.6226 37.0229 45.7832 37.5164 44.8716 37.5164L44.8717 38.2164C46.0368 38.2164 47.1107 37.5856 47.6765 36.5682L47.0648 36.228ZM47.0007 33.6897C47.4824 34.4614 47.5069 35.4331 47.0648 36.228L47.6765 36.5682C48.2424 35.5507 48.211 34.3068 47.5945 33.3191L47.0007 33.6897ZM46.627 33.0911L47.0007 33.6898L47.5945 33.319L47.2207 32.7204L46.627 33.0911ZM40.6006 29.751C43.0543 29.743 45.3358 31.0076 46.6263 33.0901L47.2214 32.7214C45.8026 30.4319 43.2948 29.0423 40.5984 29.051L40.6006 29.751ZM30.2508 29.751H40.5995V29.051H30.2508V29.751ZM24.2239 33.089C25.5147 31.0068 27.7962 29.7427 30.2496 29.751L30.252 29.051C27.5558 29.0419 25.048 30.431 23.629 32.7202L24.2239 33.089ZM23.8496 33.6886L24.2233 33.0899L23.6296 32.7192L23.2558 33.3179L23.8496 33.6886ZM23.489 34.6888C23.5348 34.3338 23.6575 33.9929 23.8487 33.69L23.2567 33.3164C23.0112 33.7054 22.8536 34.1432 22.7947 34.5992L23.489 34.6888ZM27.1071 33.6974C25.728 33.6976 24.3568 33.904 23.0389 34.3095L23.2448 34.9785C24.496 34.5935 25.7979 34.3976 27.1072 34.3974L27.1071 33.6974ZM28.1545 34.7435C28.1545 34.1651 27.685 33.6974 27.1072 33.6974V34.3974C27.2996 34.3974 27.4545 34.5529 27.4545 34.7435H28.1545ZM27.8255 37.939C28.0522 36.8882 28.1626 35.8157 28.1545 34.7409L27.4545 34.7461C27.4622 35.7696 27.3571 36.7908 27.1412 37.7914L27.8255 37.939ZM38.2451 51.302C38.2451 51.8803 38.7146 52.3481 39.2925 52.3481V51.6481C39.1 51.6481 38.9451 51.4925 38.9451 51.302H38.2451ZM39.2925 50.2559C38.7146 50.2559 38.2451 50.7236 38.2451 51.302H38.9451C38.9451 51.1114 39.1 50.9559 39.2925 50.9559V50.2559ZM40.6872 50.2559H39.2925V50.9559H40.6872V50.2559ZM41.7345 51.302C41.7345 50.7236 41.265 50.2559 40.6872 50.2559V50.9559C40.8796 50.9559 41.0345 51.1114 41.0345 51.302H41.7345ZM40.6872 52.3481C41.265 52.3481 41.7345 51.8803 41.7345 51.302H41.0345C41.0345 51.4925 40.8796 51.6481 40.6872 51.6481V52.3481ZM39.2925 52.3481H40.6872V51.6481H39.2925V52.3481ZM41.4667 6.262C41.4554 5.65741 41.6647 5.06926 42.0558 4.60715L41.5214 4.15499C41.0206 4.74681 40.7524 5.50027 40.7668 6.27501L41.4667 6.262ZM42.0562 7.93191C41.6648 7.46916 41.4554 6.88032 41.4667 6.27502L40.7668 6.26198C40.7523 7.03738 41.0207 7.7915 41.5217 8.38394L42.0562 7.93191ZM43.0606 10.8483C43.0783 9.79158 42.7248 8.76208 42.0616 7.93842L41.5163 8.37742C42.0769 9.07366 42.3756 9.94372 42.3607 10.8366L43.0606 10.8483ZM42.0616 13.7466C42.7248 12.9229 43.0783 11.8934 43.0606 10.8366L42.3607 10.8483C42.3756 11.7413 42.0769 12.6113 41.5163 13.3076L42.0616 13.7466ZM41.4667 15.4099C41.4553 14.8047 41.6648 14.2158 42.0562 13.7531L41.5217 13.301C41.0206 13.8935 40.7523 14.6476 40.7668 15.423L41.4667 15.4099ZM40.4194 16.4626C40.9972 16.4626 41.4667 15.9948 41.4667 15.4165H40.7667C40.7667 15.607 40.6118 15.7626 40.4194 15.7626V16.4626ZM39.372 15.4165C39.372 15.9948 39.8415 16.4626 40.4194 16.4626V15.7626C40.2269 15.7626 40.072 15.607 40.072 15.4165H39.372ZM40.3711 12.5124C39.7079 13.3361 39.3544 14.3656 39.3721 15.4223L40.072 15.4106C40.0571 14.5177 40.3558 13.6477 40.9163 12.9514L40.3711 12.5124ZM40.966 10.8491C40.9774 11.4543 40.7679 12.0432 40.3765 12.5059L40.9109 12.958C41.4121 12.3655 41.6804 11.6114 41.6659 10.8359L40.966 10.8491ZM40.3765 9.17909C40.7678 9.64183 40.9773 10.2307 40.966 10.836L41.6659 10.849C41.6804 10.0736 41.412 9.3195 40.911 8.72706L40.3765 9.17909ZM39.3721 6.26266C39.3544 7.31941 39.7079 8.34891 40.3711 9.17257L40.9163 8.73357C40.3558 8.03733 40.0571 7.16728 40.072 6.27434L39.3721 6.26266ZM40.3721 3.36583C39.7085 4.18877 39.3546 5.21784 39.3721 6.27428L40.072 6.26273C40.0572 5.37024 40.3562 4.50071 40.917 3.80522L40.3721 3.36583ZM40.9664 1.70425C40.9778 2.30896 40.7684 2.89724 40.3773 3.35944L40.9117 3.8116C41.4126 3.21967 41.6808 2.46603 41.6663 1.69114L40.9664 1.70425ZM42.0137 0.651591C41.4359 0.651591 40.9664 1.11936 40.9664 1.69769H41.6664C41.6664 1.50714 41.8213 1.35159 42.0137 1.35159V0.651591ZM43.0611 1.69769C43.0611 1.11936 42.5916 0.651591 42.0137 0.651591V1.35159C42.2061 1.35159 42.3611 1.50714 42.3611 1.69769H43.0611ZM42.0615 4.60068C42.7248 3.7775 43.0785 2.74837 43.061 1.6919L42.3611 1.70348C42.3759 2.59607 42.0771 3.46572 41.5164 4.16146L42.0615 4.60068ZM41.7886 4.73107H41.789V4.03107H41.7886V4.73107ZM29.9382 4.15499C29.4374 4.74681 29.1692 5.50027 29.1836 6.27501L29.8835 6.262C29.8722 5.65741 30.0816 5.06926 30.4726 4.60715L29.9382 4.15499ZM30.7775 1.70202C30.7926 2.5951 30.4938 3.46533 29.9329 4.16146L30.4779 4.60068C31.1416 3.77705 31.4953 2.74723 31.4774 1.69018L30.7775 1.70202ZM30.4301 1.35C30.6226 1.35 30.7775 1.50555 30.7775 1.6961H31.4775C31.4775 1.11777 31.008 0.65 30.4301 0.65V1.35ZM30.0828 1.6961C30.0828 1.50555 30.2377 1.35 30.4301 1.35V0.65C29.8523 0.65 29.3828 1.11777 29.3828 1.6961H30.0828ZM29.3281 3.81161C29.8294 3.21921 30.0977 2.46486 30.0827 1.68936L29.3829 1.70285C29.3945 2.30803 29.1852 2.89687 28.7938 3.35944L29.3281 3.81161ZM28.4888 6.26269C28.474 5.37024 28.7728 4.50072 29.3334 3.80518L28.7885 3.36587C28.1251 4.18887 27.7713 5.21794 27.7889 6.27432L28.4888 6.26269ZM29.3332 8.73357C28.7726 8.03733 28.4739 7.16728 28.4888 6.27435L27.7889 6.26266C27.7713 7.31941 28.1248 8.34891 28.7879 9.17257L29.3332 8.73357ZM30.0827 10.849C30.0972 10.0736 29.8288 9.3195 29.3278 8.72706L28.7933 9.17909C29.1847 9.64183 29.3941 10.2307 29.3829 10.836L30.0827 10.849ZM29.3278 12.958C29.8289 12.3655 30.0973 11.6114 30.0827 10.8359L29.3829 10.8491C29.3942 11.4543 29.1847 12.0432 28.7933 12.5059L29.3278 12.958ZM28.4888 15.4106C28.4739 14.5177 28.7726 13.6477 29.3332 12.9514L28.7879 12.5124C28.1248 13.3361 27.7713 14.3656 27.7889 15.4223L28.4888 15.4106ZM28.8362 15.7626C28.6438 15.7626 28.4889 15.607 28.4889 15.4165H27.7889C27.7889 15.9948 28.2584 16.4626 28.8362 16.4626V15.7626ZM29.1836 15.4165C29.1836 15.607 29.0286 15.7626 28.8362 15.7626V16.4626C29.414 16.4626 29.8836 15.9948 29.8836 15.4165H29.1836ZM29.9386 13.301C29.4375 13.8935 29.1691 14.6476 29.1836 15.423L29.8835 15.4099C29.8722 14.8047 30.0816 14.2158 30.473 13.7531L29.9386 13.301ZM30.7775 10.8483C30.7925 11.7413 30.4938 12.6113 29.9332 13.3076L30.4784 13.7466C31.1416 12.9229 31.4951 11.8934 31.4774 10.8366L30.7775 10.8483ZM29.9332 8.37742C30.4938 9.07366 30.7925 9.94372 30.7775 10.8366L31.4774 10.8483C31.4951 9.79158 31.1416 8.76208 30.4784 7.93842L29.9332 8.37742ZM29.1836 6.26198C29.1692 7.03738 29.4375 7.7915 29.9386 8.38394L30.473 7.93191C30.0817 7.46916 29.8722 6.88032 29.8835 6.27503L29.1836 6.26198Z" fill="#FD221C"/>
</svg>
