<svg width="476" height="245" viewBox="0 0 476 245" fill="none" xmlns="http://www.w3.org/2000/svg">
<path d="M159.5 118.3C159.5 119.6 159.5 121.1 159.5 122.4C158.9 132.7 156.4 142.1 152.3 150.9C140.1 175.9 114.4 193.5 84.7 193.5C43.1 193.5 9.60001 159.7 9.60001 118.4C9.60001 76.8 43.1 43.3 84.7 43.3C126 43.2 159.5 76.7 159.5 118.3Z" fill="#FF7058"/>
<path d="M84.3 177.8C117.161 177.8 143.8 151.161 143.8 118.3C143.8 85.4391 117.161 58.8 84.3 58.8C51.4391 58.8 24.8 85.4391 24.8 118.3C24.8 151.161 51.4391 177.8 84.3 177.8Z" fill="white"/>
<path d="M84.3 162.4C108.656 162.4 128.4 142.656 128.4 118.3C128.4 93.9442 108.656 74.2 84.3 74.2C59.9443 74.2 40.2 93.9442 40.2 118.3C40.2 142.656 59.9443 162.4 84.3 162.4Z" fill="#FF7058"/>
<path d="M83.9 149.9C101.573 149.9 115.9 135.573 115.9 117.9C115.9 100.227 101.573 85.9 83.9 85.9C66.2269 85.9 51.9 100.227 51.9 117.9C51.9 135.573 66.2269 149.9 83.9 149.9Z" fill="white"/>
<path opacity="0.2" d="M155.9 123.7C155.3 134.3 152.9 143.9 149 152.9L138.6 150L135.6 139.1L83.5 124C80.8 123.4 79.3 120.5 80.2 117.6C80.8 114.7 83.5 113.1 86.2 114.1L138.1 129.2L145.9 121.2L155.9 123.7Z" fill="#334A5E"/>
<path d="M85.1 109.5V103.4C85.1 101.7 86.5 100.3 88.2 100.3H91.3V92.6H85.2C80.1 92.6 76 96.7 76 101.8V109.5H69.9V117.2H76V141.8H85.2V117.2H91.3L94.4 109.5H85.1Z" fill="#576EC1"/>
<path d="M127.3 78.6C125.5 76.8 122.2 76.8 120.4 78.6L81.3 117.7C79.5 119.5 79.5 122.8 81.3 124.6C83.1 126.4 86.4 126.4 88.2 124.6L127.3 85.5C129.1 83.7 129.1 80.4 127.3 78.6Z" fill="#40596B"/>
<path d="M138.3 67.6L120.7 84.9L116.9 69L134.5 51.4L138.3 67.6Z" fill="#84DBFF"/>
<path d="M136.8 88.7L154.2 71.4L138.3 67.6L120.7 84.9L136.8 88.7Z" fill="#54C0EB"/>
<path d="M166.059 185.356L175.979 110.353H189.528L185.899 138.371C185.673 139.822 185.431 141.048 185.173 142.048C184.947 143.048 184.657 144 184.302 144.903C187.076 141.935 189.85 139.758 192.625 138.371C195.399 136.983 198.367 136.29 201.528 136.29C206.657 136.29 210.641 137.548 213.48 140.064C216.351 142.58 217.787 146.081 217.787 150.565C217.787 152.339 217.513 155.21 216.964 159.178C216.9 159.662 216.851 160.017 216.819 160.242L213.529 185.356H199.835L203.319 158.888C203.415 157.952 203.48 157.146 203.512 156.468C203.577 155.758 203.609 155.178 203.609 154.726C203.609 152.5 202.98 150.774 201.722 149.548C200.464 148.323 198.689 147.71 196.399 147.71C192.399 147.71 189.286 148.887 187.06 151.242C184.866 153.565 183.447 157.178 182.802 162.081L179.753 185.356H166.059ZM245.949 137.887L243.385 157.726C243.32 158.275 243.207 159.097 243.046 160.194C242.627 163.162 242.417 165.21 242.417 166.339C242.417 169.178 243.143 171.356 244.594 172.872C246.078 174.388 248.191 175.146 250.933 175.146C254.708 175.146 257.498 173.936 259.305 171.517C261.111 169.065 262.515 164.194 263.515 156.904L265.982 137.887H279.676L276.87 158.597C276.031 165.114 275.031 169.904 273.87 172.969C272.741 176.033 271.176 178.582 269.176 180.614C267.015 182.808 264.369 184.453 261.24 185.55C258.143 186.679 254.611 187.243 250.643 187.243C243.901 187.243 238.546 185.663 234.578 182.501C230.61 179.308 228.626 175.033 228.626 169.678C228.626 168.42 228.723 166.646 228.916 164.355C229.142 162.065 229.513 159.017 230.029 155.21L232.304 137.887H245.949ZM286.451 185.356L292.693 137.887H305.371L304.306 145.339C307.21 142.209 310.081 139.919 312.92 138.467C315.759 137.016 318.759 136.29 321.92 136.29C327.049 136.29 331.033 137.548 333.872 140.064C336.743 142.58 338.179 146.081 338.179 150.565C338.179 152.339 337.905 155.21 337.356 159.178C337.292 159.662 337.243 160.017 337.211 160.242L333.921 185.356H320.226L323.71 158.888C323.807 157.952 323.872 157.146 323.904 156.468C323.969 155.758 324.001 155.178 324.001 154.726C324.001 152.5 323.372 150.774 322.114 149.548C320.856 148.323 319.081 147.71 316.791 147.71C312.791 147.71 309.678 148.887 307.452 151.242C305.258 153.565 303.839 157.178 303.194 162.081L300.145 185.356H286.451ZM349.502 185.356L354.389 148.677H345.34L346.744 137.887H355.744L357.825 122.112H371.616L369.438 137.887H378.632L377.277 148.677H368.035L363.196 185.356H349.502ZM394.407 156.613H416.763C416.73 153.355 415.875 150.839 414.198 149.065C412.52 147.29 410.149 146.403 407.085 146.403C403.827 146.403 401.133 147.258 399.004 148.968C396.907 150.678 395.375 153.226 394.407 156.613ZM393.681 164.646V165.71C393.681 168.904 394.681 171.42 396.681 173.259C398.713 175.098 401.488 176.017 405.004 176.017C407.423 176.017 409.569 175.501 411.44 174.469C413.343 173.404 415.166 171.711 416.908 169.388L426.102 177.033C423.779 180.421 420.779 182.969 417.101 184.679C413.456 186.389 409.198 187.243 404.327 187.243C396.971 187.243 391.1 185.114 386.713 180.856C382.326 176.566 380.132 170.872 380.132 163.775C380.132 155.807 382.664 149.242 387.729 144.08C392.794 138.887 399.181 136.29 406.891 136.29C414.021 136.29 419.618 138.451 423.682 142.774C427.747 147.097 429.779 153.065 429.779 160.678C429.779 161.452 429.715 162.694 429.586 164.404V164.646H393.681ZM436.747 185.356L442.989 137.887H456.683L455.474 146.21C457.184 142.951 459.248 140.484 461.668 138.806C464.119 137.129 466.845 136.29 469.845 136.29C470.684 136.29 471.442 136.338 472.12 136.435C472.797 136.5 473.458 136.612 474.104 136.774L471.442 150.468C470.442 150.145 469.474 149.903 468.539 149.742C467.636 149.581 466.748 149.5 465.877 149.5C462.232 149.5 459.329 150.807 457.167 153.42C455.038 156 453.651 159.904 453.006 165.13L450.441 185.356H436.747Z" fill="#333333"/>
<path d="M177.794 95.2481L181.295 68.9727H174.813L175.818 61.2426H182.265L183.756 49.9421H193.635L192.075 61.2426H198.661L197.691 68.9727H191.07L187.604 95.2481H177.794ZM226.289 76.3562C226.289 73.7217 225.595 71.6649 224.209 70.1859C222.822 68.6838 220.904 67.9328 218.455 67.9328C215.658 67.9328 213.44 68.9843 211.799 71.0872C210.181 73.1671 209.373 76.0326 209.373 79.6839C209.373 82.1797 210.101 84.1671 211.556 85.6461C213.035 87.1251 215.034 87.8646 217.553 87.8646C220.165 87.8646 222.268 86.8132 223.862 84.7102C225.48 82.6073 226.289 79.8226 226.289 76.3562ZM233.152 95.2481H223.377L223.932 91.4697C222.776 93.1798 221.332 94.4624 219.599 95.3174C217.865 96.1725 215.855 96.6 213.567 96.6C209.222 96.6 205.837 95.1903 203.41 92.371C201.007 89.5285 199.805 85.5421 199.805 80.4119C199.805 74.4959 201.342 69.6313 204.416 65.8183C207.512 62.0052 211.441 60.0987 216.201 60.0987C218.628 60.0987 220.766 60.5955 222.614 61.5892C224.463 62.5598 226.011 64.0273 227.259 65.9916L227.849 61.2426H237.624L233.152 95.2481ZM242.304 95.2481L246.775 61.2426H256.585L255.719 67.2048C256.943 64.8708 258.422 63.1029 260.156 61.9012C261.912 60.6995 263.865 60.0987 266.014 60.0987C266.615 60.0987 267.158 60.1334 267.643 60.2027C268.128 60.2489 268.602 60.3298 269.064 60.4453L267.158 70.2553C266.441 70.0242 265.748 69.8509 265.078 69.7353C264.431 69.6198 263.795 69.562 263.171 69.562C260.56 69.562 258.48 70.4979 256.932 72.3698C255.407 74.2185 254.413 77.0148 253.951 80.7585L252.114 95.2481H242.304ZM296.865 75.8015C296.865 73.2595 296.183 71.2721 294.82 69.8393C293.456 68.4065 291.561 67.6901 289.135 67.6901C286.292 67.6901 284.051 68.7069 282.41 70.7406C280.769 72.7511 279.949 75.5242 279.949 79.06C279.949 81.4171 280.677 83.3236 282.133 84.7795C283.589 86.2123 285.495 86.9287 287.852 86.9287C290.602 86.9287 292.786 85.9235 294.404 83.9129C296.044 81.9024 296.865 79.1986 296.865 75.8015ZM298.702 61.2426H308.2L304.595 89.2165C304.572 89.4476 304.526 89.7943 304.456 90.2565C303.463 97.9288 302.064 102.909 300.262 105.197C298.76 107.069 296.772 108.455 294.3 109.356C291.85 110.258 288.823 110.708 285.218 110.708C280.203 110.708 276.355 109.715 273.675 107.727C270.994 105.74 269.422 102.712 268.96 98.6452L277.973 97.8132C278.366 99.662 279.186 101.037 280.434 101.938C281.705 102.863 283.415 103.325 285.564 103.325C288.753 103.325 291.053 102.331 292.463 100.344C293.895 98.3794 294.716 94.9246 294.924 89.9792C293.653 91.7586 292.139 93.0874 290.383 93.9655C288.626 94.8206 286.57 95.2481 284.212 95.2481C279.822 95.2481 276.413 93.8962 273.987 91.1924C271.583 88.4655 270.381 84.6293 270.381 79.6839C270.381 73.9759 271.918 69.2847 274.992 65.6103C278.065 61.9359 281.971 60.0987 286.708 60.0987C289.158 60.0987 291.33 60.5955 293.225 61.5892C295.12 62.583 296.715 64.0504 298.009 65.9916L298.702 61.2426ZM322.967 74.6576H338.982C338.959 72.3236 338.346 70.521 337.145 69.25C335.943 67.979 334.244 67.3435 332.049 67.3435C329.715 67.3435 327.785 67.9559 326.26 69.1807C324.758 70.4055 323.66 72.2311 322.967 74.6576ZM322.447 80.4119V81.1745C322.447 83.4623 323.163 85.2648 324.596 86.5821C326.052 87.8993 328.039 88.5579 330.558 88.5579C332.292 88.5579 333.828 88.1882 335.169 87.4487C336.532 86.6861 337.838 85.4728 339.086 83.8089L345.672 89.2859C344.008 91.7124 341.859 93.538 339.224 94.7628C336.613 95.9876 333.563 96.6 330.073 96.6C324.804 96.6 320.598 95.0748 317.455 92.0243C314.312 88.9508 312.741 84.872 312.741 79.7879C312.741 74.0799 314.555 69.3771 318.183 65.6796C321.811 61.959 326.387 60.0987 331.91 60.0987C337.017 60.0987 341.027 61.647 343.939 64.7437C346.851 67.8403 348.306 72.1156 348.306 77.5694C348.306 78.124 348.26 79.0137 348.168 80.2385V80.4119H322.447ZM355.205 95.2481L358.706 68.9727H352.223L353.229 61.2426H359.676L361.167 49.9421H371.046L369.486 61.2426H376.072L375.102 68.9727H368.481L365.015 95.2481H355.205Z" fill="#333333"/>
</svg>
