<svg width="61" height="62" viewBox="0 0 61 62" fill="none" xmlns="http://www.w3.org/2000/svg">
<path fill-rule="evenodd" clip-rule="evenodd" d="M33.9167 54H35.9722C36.5398 54 37 54.4477 37 55V57C37 59.7614 34.6992 62 31.8611 62H5.13889C2.30076 62 0 59.7614 0 57V55C0 54.4477 0.460152 54 1.02778 54H3.08333V33C3.08333 32.4477 3.54349 32 4.11111 32H13.69C14.2576 32 14.7178 32.4477 14.7178 33C14.7178 33.5523 14.2576 34 13.69 34H5.13889V54H31.8611V44.2C31.8611 43.6477 32.3213 43.2 32.8889 43.2C33.4565 43.2 33.9167 43.6477 33.9167 44.2V54ZM31.8611 60C33.564 60 34.9444 58.6569 34.9444 57V56H2.05556V57C2.05556 58.6569 3.43601 60 5.13889 60H7.19444V59C7.19444 58.4477 7.6546 58 8.22222 58C8.78985 58 9.25 58.4477 9.25 59V60H27.75V59C27.75 58.4477 28.2102 58 28.7778 58C29.3454 58 29.8056 58.4477 29.8056 59V60H31.8611Z" fill="#FD0D06"/>
<path d="M53 7H55C55.5523 7 56 6.55228 56 6C56 5.44772 55.5523 5 55 5H53C51.3431 5 50 6.34315 50 8V9H49C48.4477 9 48 9.44772 48 10C48 10.5523 48.4477 11 49 11H50V14C50 14.5523 50.4477 15 51 15C51.5523 15 52 14.5523 52 14V11H53C53.5523 11 54 10.5523 54 10C54 9.44772 53.5523 9 53 9H52V8C52 7.44772 52.4477 7 53 7Z" fill="#FD0D06"/>
<path d="M58 1H46C44.3431 1 43 2.34315 43 4V6C43 6.55228 43.4477 7 44 7C44.5523 7 45 6.55228 45 6V4C45 3.44772 45.4477 3 46 3H58C58.5523 3 59 3.44772 59 4V16C59 16.5523 58.5523 17 58 17H46C45.4477 17 45 16.5523 45 16V10C45 9.44771 44.5523 9 44 9C43.4477 9 43 9.44771 43 10V16C43 17.6569 44.3431 19 46 19H58C59.6569 19 61 17.6569 61 16V4C61 2.34315 59.6569 1 58 1V1Z" fill="#FD0D06"/>
<path fill-rule="evenodd" clip-rule="evenodd" d="M52 46C49.7909 46 48 44.2091 48 42C48 39.7909 49.7909 38 52 38C54.2091 38 56 39.7909 56 42C56 44.2091 54.2091 46 52 46ZM52 44C53.1046 44 54 43.1046 54 42C54 40.8954 53.1046 40 52 40C50.8954 40 50 40.8954 50 42C50 43.1046 50.8954 44 52 44Z" fill="#FD0D06"/>
<path d="M58 33H46C44.3431 33 43 34.3431 43 36V48C43 49.6569 44.3431 51 46 51H58C59.6569 51 61 49.6569 61 48V46C61 45.4477 60.5523 45 60 45C59.4477 45 59 45.4477 59 46V48C59 48.5523 58.5523 49 58 49H46C45.4477 49 45 48.5523 45 48V36C45 35.4477 45.4477 35 46 35H58C58.5523 35 59 35.4477 59 36V42C59 42.5523 59.4477 43 60 43C60.5523 43 61 42.5523 61 42V36C61 34.3431 59.6569 33 58 33Z" fill="#FD0D06"/>
<path fill-rule="evenodd" clip-rule="evenodd" d="M23.0007 13C22.8134 13.0006 22.6296 12.9486 22.4704 12.8499C22.1772 12.6667 21.9993 12.3452 22 11.9996V5.99735C22.0011 5.65063 22.1816 5.32917 22.4772 5.14779C22.7729 4.96642 23.1413 4.95099 23.4511 5.10702L29.4556 8.10815C29.7898 8.27931 30 8.6231 30 8.99848C30 9.37387 29.7898 9.71766 29.4556 9.88882L23.4511 12.8899C23.3117 12.9614 23.1574 12.9991 23.0007 13ZM26.7636 8.99848L24.0015 7.61796V10.379L26.7636 8.99848Z" fill="#FD0D06"/>
<path fill-rule="evenodd" clip-rule="evenodd" d="M34 9C34 13.9706 29.9706 18 25 18C20.0294 18 16 13.9706 16 9C16 4.02944 20.0294 0 25 0C29.9706 0 34 4.02944 34 9ZM32 9C32 5.13401 28.866 2 25 2C21.134 2 18 5.13401 18 9C18 12.866 21.134 16 25 16C28.866 16 32 12.866 32 9Z" fill="#FD0D06"/>
<path d="M36 22C36.3148 22 36.6112 21.8518 36.8 21.6L39.7999 17.6C40.1313 17.1582 40.0418 16.5314 39.6 16.2001C39.1581 15.8687 38.5313 15.9582 38.2 16.4001L35.2001 20.4C34.8687 20.8418 34.9582 21.4686 35.4 21.8C35.5731 21.9298 35.7837 22 36 22Z" fill="#FD0D06"/>
<path d="M38.2001 25.6C38.3889 25.8518 38.6853 26 39 26C39.2164 26 39.4269 25.9298 39.6 25.8L43.5999 22.8C44.0418 22.4687 44.1313 21.8419 43.7999 21.4001C43.4686 20.9582 42.8418 20.8687 42.4 21.2001L38.4001 24.2C37.9582 24.5314 37.8687 25.1582 38.2001 25.6Z" fill="#FD0D06"/>
<path d="M47.9769 27.8158C47.9297 27.5504 47.7774 27.3159 47.555 27.1664C47.3327 27.0168 47.0595 26.9652 46.7985 27.0233L41.8887 28.0139C41.3464 28.0686 40.9507 28.5564 41.005 29.1035C41.0592 29.6506 41.5428 30.0497 42.0851 29.995H42.2815L47.1913 29.0044C47.4544 28.9569 47.6868 28.8032 47.8351 28.5789C47.9833 28.3546 48.0345 28.079 47.9769 27.8158Z" fill="#FD0D06"/>
<path fill-rule="evenodd" clip-rule="evenodd" d="M13 28H1C0.447715 28 0 27.5523 0 27V11C0 10.4477 0.447715 10 1 10H13C13.5523 10 14 10.4477 14 11V27C14 27.5523 13.5523 28 13 28ZM12 12H2V26H12V12Z" fill="#FD0D06"/>
<path d="M9 14H7C6.44772 14 6 14.4477 6 15C6 15.5523 6.44772 16 7 16H9C9.55228 16 10 15.5523 10 15C10 14.4477 9.55228 14 9 14Z" fill="#FD0D06"/>
<path d="M9 18H5C4.44772 18 4 18.4477 4 19C4 19.5523 4.44772 20 5 20H9C9.55228 20 10 19.5523 10 19C10 18.4477 9.55228 18 9 18Z" fill="#FD0D06"/>
<path d="M9 22H5C4.44772 22 4 22.4477 4 23C4 23.5523 4.44772 24 5 24H9C9.55228 24 10 23.5523 10 23C10 22.4477 9.55228 22 9 22Z" fill="#FD0D06"/>
<path fill-rule="evenodd" clip-rule="evenodd" d="M34.7632 27.8804C34.5801 27.5596 34.241 27.3615 33.8735 27.3608C33.506 27.3601 33.1661 27.5568 32.9818 27.8769C32.7974 28.197 32.7966 28.5918 32.9797 28.9126L37.5 36.7878L21.1 42.9807H21.0282H20.9462L18.2813 44.5289L16.508 45.561C16.0365 45.8355 15.476 45.9098 14.95 45.7675C14.4269 45.6251 13.9809 45.28 13.7098 44.8076L11.6598 41.2364C11.1591 40.2664 11.4962 39.0715 12.4285 38.5115L15.975 36.4472L18.5375 40.9164C18.7213 41.237 19.0616 41.4339 19.4293 41.4325C19.7962 41.4339 20.1359 41.2378 20.32 40.9182C20.5041 40.5986 20.5045 40.2042 20.321 39.8842L17.6765 35.2809L30.5402 24.5982L30.9605 25.331C31.2435 25.827 31.8722 25.998 32.3647 25.7129C32.8572 25.4279 33.027 24.7948 32.744 24.2989L31.719 22.5133C31.5669 22.2516 31.3083 22.0704 31.0117 22.0179C30.7135 21.9613 30.4057 22.0406 30.1712 22.2346L15.8213 34.1455L11.4548 36.6846C9.84323 37.6298 9.06823 39.5511 9.56878 41.3602L8.54378 41.9485C7.4637 42.5731 6.86444 43.7921 7.02611 45.0356C7.18778 46.2792 8.07844 47.3018 9.28178 47.6253C9.54263 47.6949 9.81143 47.7296 10.0813 47.7285C10.6205 47.7263 11.15 47.5841 11.6188 47.3157L12.6438 46.7274C13.1362 47.2395 13.7554 47.6101 14.4375 47.8008C14.7878 47.8994 15.1501 47.9481 15.5138 47.9453C16.2342 47.947 16.942 47.7545 17.5638 47.3879L18.4555 46.8718L20.5055 50.4534C21.3537 51.9301 23.2283 52.4378 24.6977 51.5887C25.4049 51.1785 25.9211 50.5019 26.1325 49.7082C26.344 48.9144 26.2335 48.0686 25.8252 47.357L23.9597 44.0851L39.3347 38.2741C39.6169 38.1673 39.8381 37.9408 39.9395 37.6548C40.0404 37.3723 40.0142 37.0596 39.8677 36.7981L34.7632 27.8804ZM10.5528 45.5197C10.317 45.657 10.0368 45.6941 9.77378 45.623C9.51117 45.5543 9.28633 45.3835 9.14853 45.1482C9.01224 44.9108 8.97536 44.6286 9.04603 44.3637C9.11671 44.0975 9.29017 43.8708 9.52778 43.7341L10.4195 43.2181L11.4445 45.0037L10.5528 45.5197ZM24.1442 49.1942C24.2149 48.9294 24.178 48.6471 24.0417 48.4097L22.002 44.8798H21.92L20.2185 45.8604L22.2685 49.4419C22.5535 49.9296 23.1752 50.0953 23.6625 49.8135C23.898 49.6792 24.0711 49.4565 24.1442 49.1942Z" fill="#FD0D06"/>
</svg>
