<svg width="45" height="47" viewBox="0 0 45 47" fill="none" xmlns="http://www.w3.org/2000/svg">
<path fill-rule="evenodd" clip-rule="evenodd" d="M29.912 29.0735C30.31 29.0797 30.6877 29.2495 30.9564 29.5427L38.8411 38.0738L40 37.0031L34.6635 31.2308H34.6825V9.94231C34.6799 7.76615 32.9142 6.00256 30.7354 6H27.5777V7.57692H30.7354C32.0434 7.57692 33.1037 8.63593 33.1037 9.94231V10.7308H27.5777V12.3077H33.1037V29.5427L32.1153 28.4712C31.5565 27.8632 30.7722 27.5111 29.946 27.4974C29.7362 27.4883 29.5261 27.5017 29.3192 27.5376L29.9263 25.1139L30.5625 22.5577H31.5248V20.9808H29.946C29.5837 20.9809 29.268 21.2273 29.1803 21.5784L28.5408 24.1346H16.5259C16.09 24.1347 15.7366 24.4878 15.7367 24.9233C15.7367 24.9875 15.7446 25.0515 15.7602 25.1139L17.339 31.4216C17.4267 31.7727 17.7424 32.0191 18.1047 32.0192H27.2351C27.3401 32.2092 27.4654 32.3874 27.6085 32.5507L28.2274 33.2461C28.0822 33.4629 27.8389 33.594 27.5777 33.5962H17.3153V35.1731H27.5777C28.2242 35.1702 28.8413 34.9036 29.286 34.4351L32.2203 37.7324C31.6639 39.773 31.9368 41.9504 32.9797 43.791C32.6646 44.7632 31.7586 45.4222 30.7354 45.4231H14.9471C13.6391 45.4231 12.5788 44.3641 12.5788 43.0577V42.2692H30.7354V40.6923H12.5788V18.6154H11V43.0577C11.0026 45.2338 12.7683 46.9974 14.9471 47H30.7354C32.05 47 33.2782 46.3465 34.0115 45.2567C34.2734 45.5464 34.5553 45.8172 34.8554 46.0672L35.7561 46.8179L36.7666 45.6052L35.8666 44.8554C33.7936 43.144 32.9925 40.3327 33.8528 37.7876C33.9422 37.5204 33.882 37.2258 33.6949 37.0149L28.7903 31.5036C28.2771 30.9254 28.3026 30.0483 28.8487 29.5009C29.1353 29.2277 29.5159 29.0747 29.912 29.0735ZM17.9319 27.2885L17.5372 25.7115H19.7759L19.9733 27.2885H17.9319ZM18.3266 28.8654L18.7213 30.4423H20.368L20.1707 28.8654H18.3266ZM23.723 30.4423H21.9595L21.7621 28.8654H23.9204L23.723 30.4423ZM21.5648 27.2885H24.1177L24.3151 25.7115H21.3674L21.5648 27.2885ZM26.842 30.4423H25.3145L25.5118 28.8654H27.3409C27.0316 29.3347 26.8589 29.8806 26.842 30.4423ZM25.7092 27.2885H27.7506L28.1453 25.7115H25.9065L25.7092 27.2885Z" fill="#FD0D06"/>
<path d="M19.5 39C20.3284 39 21 38.3284 21 37.5C21 36.6716 20.3284 36 19.5 36C18.6716 36 18 36.6716 18 37.5C18 38.3284 18.6716 39 19.5 39Z" fill="#FD0D06"/>
<path d="M27.5 39C28.3284 39 29 38.3284 29 37.5C29 36.6716 28.3284 36 27.5 36C26.6716 36 26 36.6716 26 37.5C26 38.3284 26.6716 39 27.5 39Z" fill="#FD0D06"/>
<path fill-rule="evenodd" clip-rule="evenodd" d="M3.05882 0H22.9412C24.6305 0 26 1.38386 26 3.09091V13.9091C26 15.6161 24.6305 17 22.9412 17H3.05882C1.36949 17 0 15.6161 0 13.9091V3.09091C0 1.38386 1.36949 0 3.05882 0ZM22.9412 15.4545C23.7859 15.4545 24.4706 14.7627 24.4706 13.9091V3.09091C24.4706 2.23734 23.7859 1.54545 22.9412 1.54545H3.05882C2.21411 1.54545 1.52941 2.23734 1.52941 3.09091V13.9091C1.52941 14.7627 2.21411 15.4545 3.05882 15.4545H22.9412Z" fill="#FD0D06"/>
<rect x="3" y="4" width="14" height="2" fill="#FD0D06"/>
<path fill-rule="evenodd" clip-rule="evenodd" d="M21.8508 9.34575C21.1218 8.88586 20.2177 8.88586 19.4887 9.34575C19.1378 9.12226 18.7379 9.00292 18.3299 9C17.0431 9 16 10.119 16 11.4994C16 12.8798 17.0431 13.9988 18.3299 13.9988C18.7377 13.9964 19.1377 13.8776 19.4887 13.6547C20.5979 14.3544 22.0258 13.9571 22.6781 12.7672C23.3304 11.5773 22.9599 10.0455 21.8508 9.34575ZM18.3299 12.3325C17.901 12.3325 17.5533 11.9595 17.5533 11.4994C17.5533 11.0393 17.901 10.6663 18.3299 10.6663C18.7588 10.6663 19.1065 11.0393 19.1065 11.4994C19.1065 11.9595 18.7588 12.3325 18.3299 12.3325ZM20.5224 12.3117C20.5675 12.3231 20.6135 12.3301 20.6598 12.3325C21.0887 12.3325 21.4365 11.9595 21.4365 11.4994C21.4365 11.0393 21.0887 10.6663 20.6598 10.6663C20.6135 10.6692 20.5675 10.6765 20.5224 10.6879C20.7052 11.2114 20.7052 11.7882 20.5224 12.3117Z" fill="#FD0D06"/>
<rect x="3" y="8" width="2" height="2" fill="#FD0D06"/>
<rect x="6" y="8" width="2" height="2" fill="#FD0D06"/>
<rect x="9" y="8" width="2" height="2" fill="#FD0D06"/>
<rect x="13" y="8" width="2" height="2" fill="#FD0D06"/>
<rect x="3" y="12" width="11" height="2" fill="#FD0D06"/>
<path d="M43.573 30.2562L37.1357 23L36 24.05L42.4411 31.3132C43.1016 32.0364 43.4684 32.9886 43.4673 33.9774V47H45V33.9774C45.0033 32.5972 44.4933 31.2672 43.573 30.2562Z" fill="#FD0D06"/>
<path d="M24.2194 19.9344L23.2032 20.7047V19H21.7968V20.7047L20.7806 19.9344L20 21.2655L22.1097 22.8655C22.346 23.0448 22.654 23.0448 22.8903 22.8655L25 21.2655L24.2194 19.9344Z" fill="#FD0D06"/>
</svg>
