<svg width="61" height="61" viewBox="0 0 61 61" fill="none" xmlns="http://www.w3.org/2000/svg">
<path d="M1.87757 1.87502C3.08102 0.63892 4.81814 -0.00908182 6.53075 0.00453167C22.4098 0.00180897 38.2889 0.00725436 54.168 0.00180897C55.8017 -0.0335861 57.449 0.451054 58.7804 1.40128C60.2915 2.5203 60.9804 4.46976 60.9776 6.29941C61.043 7.26052 59.8423 7.98204 59.0418 7.40755C58.2576 6.92835 58.4373 5.90462 58.342 5.12593C57.8846 3.57399 56.3435 2.52847 54.7425 2.58293C38.9478 2.5557 23.1532 2.58565 7.35847 2.56931C6.70773 2.56387 6.05699 2.59382 5.40898 2.64283C4.08027 3.05668 3.04018 4.08313 2.64266 5.41998C2.53375 6.61252 2.57187 7.80778 2.56914 9.00032C2.57187 23.2509 2.57187 37.4988 2.56914 51.7467C2.57187 53.0345 2.53919 54.3223 2.63177 55.6075C3.13003 57.1703 4.57854 58.4745 6.28026 58.4173C21.3398 58.4363 36.3966 58.4173 51.4562 58.4255C52.8366 58.4146 54.2198 58.4663 55.6002 58.3574C56.9126 57.9381 57.9363 56.9171 58.3556 55.6047C58.4019 54.9567 58.4291 54.306 58.4264 53.658C58.4074 40.001 58.4428 26.3439 58.4101 12.6869C41.5699 12.6814 24.7324 12.6896 7.89485 12.6814C7.25773 12.7413 6.43818 12.4064 6.40006 11.6795C6.22308 10.9416 6.82753 10.1248 7.61168 10.2038C24.5935 10.182 41.5753 10.2038 58.5571 10.1929C59.1207 10.201 59.6952 10.1629 60.2507 10.2773C60.9014 10.574 61.0321 11.3337 60.994 11.9735C60.9831 26.2296 61.0049 40.4883 60.9831 54.7444C60.9913 58.0606 58.0588 60.993 54.7398 60.9848C39.1275 61.0038 23.5153 60.9875 7.90302 60.993C6.60154 61.0066 5.2565 61.0501 4.03399 60.5301C1.58079 59.6289 -0.0583118 57.0668 0.00158879 54.4748C0.00158879 38.498 0.00158879 22.5212 0.00158879 6.54173C-0.012025 4.82371 0.63599 3.08118 1.87757 1.87502Z" fill="#FD0D06"/>
<path d="M14.0797 4.04616C15.0215 3.98305 15.9713 3.9862 16.9158 4.04616C17.8061 4.16924 18.3419 5.54202 17.752 6.37199C17.2567 7.17041 16.3258 6.95582 15.5979 7C14.8321 6.93057 13.8957 7.21144 13.2977 6.49507C12.9161 6.09744 13.0595 5.46312 13 4.93926C13.3274 4.60158 13.5981 4.07456 14.0797 4.04616Z" fill="#FD0D06"/>
<path d="M51.2907 4.42048C52.4795 3.70857 53.8544 4.13758 55.1309 4.04432C55.4341 4.35209 55.7239 4.68161 55.9979 5.02979C56.0324 5.87537 55.6495 6.86395 54.833 6.92302C53.7985 6.97898 52.7188 7.11265 51.7056 6.80178C50.8758 6.38521 50.8333 5.20699 51.2907 4.42048Z" fill="#FD0D06"/>
<path d="M6.01022 4.91517C6.29762 4.60139 6.59315 4.29389 6.89953 4.00836C7.94067 4.03346 8.98453 3.95188 10.023 4.04915C11.1915 4.30645 11.3759 6.40246 10.2263 6.84802C9.11467 7.06766 7.94338 7.03001 6.82903 6.85743C6.06444 6.63465 5.96141 5.68078 6.01022 4.91517Z" fill="#FD0D06"/>
<path d="M6.02333 19.6595C6.01227 17.6173 7.99769 15.9228 10.0135 16.0049C23.6654 15.9994 37.3173 15.9994 50.9692 16.0021C52.6421 15.9447 54.2653 17.0506 54.8211 18.611C55.1114 19.9497 54.9483 21.3267 54.9898 22.6845C54.9566 27.1768 55.0672 31.6719 54.9262 36.1615C54.5031 37.481 53.4606 38.5185 52.125 38.9319C50.9111 39.0195 49.6944 38.9976 48.4777 38.9976C35.578 38.9948 22.6782 39.0058 9.77849 38.9921C8.04747 39.0414 6.56808 37.7438 6.06757 36.1615C6.05928 35.4935 5.85188 34.6941 6.44641 34.1959C10.3094 30.3579 14.189 26.5308 18.0575 22.6955C18.5608 22.1726 19.089 21.6689 19.6503 21.2035C19.9987 21.2007 20.3471 21.2007 20.6956 21.2035C23.1207 23.4428 25.3715 25.8628 27.78 28.1185L28.0013 28.124C30.4402 25.8902 32.6662 23.4291 35.1189 21.209C35.4701 21.2035 35.8241 21.2007 36.178 21.2007C39.911 24.7924 43.5888 28.447 47.225 32.1318C47.1974 32.6465 47.3191 33.2925 46.7909 33.6128C46.224 34.0946 45.3668 33.9085 44.905 33.3719C42.5269 31.0614 40.1903 28.7044 37.8205 26.3802C37.0905 25.6602 36.4075 24.8828 35.5641 24.286C33.634 26.2378 31.6818 28.1678 29.7129 30.0814C30.4264 30.7603 31.137 31.4392 31.7703 32.1948C31.6845 32.6848 31.8311 33.3637 31.278 33.6292C30.7029 34.1001 29.8623 33.892 29.4088 33.361C27.1247 31.149 24.8959 28.8796 22.6174 26.6622C21.7768 25.8601 21.0302 24.9512 20.0734 24.275C16.274 28.0775 12.458 31.8662 8.60881 35.6194C8.87703 36.156 9.39689 36.5557 10.0274 36.4927C23.6709 36.4954 37.3145 36.4982 50.9581 36.49C51.7849 36.5803 52.5232 35.8494 52.4568 35.0391C52.4541 30.002 52.4817 24.9649 52.4485 19.9278C52.4707 19.1804 51.7517 18.5344 51.0051 18.5919C37.4362 18.5809 23.87 18.5837 10.3039 18.5919C9.47155 18.4687 8.50926 19.0217 8.54797 19.9305C8.4982 22.627 8.56733 25.3235 8.51202 28.02C8.1719 28.3622 7.83731 28.8659 7.28427 28.8194C6.71187 28.8878 6.37175 28.3677 6.02609 28.0145C6.00397 25.2304 5.98185 22.4436 6.02333 19.6595Z" fill="#FD0D06"/>
<path d="M6.03264 43.9253C6.41589 43.528 6.77627 42.9417 7.37404 43.011C8.98716 42.9952 10.6031 43.0205 12.2191 43.0079C12.7397 42.9543 13.2173 43.1844 13.6835 43.4051C14.2498 44.2531 14.0639 45.5898 13.0629 45.8925C11.1609 46.0816 9.236 45.965 7.32542 45.9587C6.33867 45.9776 5.86675 44.8836 6.03264 43.9253Z" fill="#FD0D06"/>
<path d="M16.01 44.0414C16.3758 43.492 16.8446 42.908 17.503 43.0122C29.3634 43.0216 41.2238 43.0058 53.0842 43.0185C53.3849 43.3089 53.6776 43.6183 53.9648 43.9372C54.1626 45.0232 53.5069 46.1376 52.4934 45.9861C40.8173 45.9987 29.1412 46.0082 17.4678 45.9798C16.5384 46.0745 15.9124 45.039 16.01 44.0414Z" fill="#FD0D06"/>
<path d="M5.0379 51.0559C4.82778 49.9716 5.51343 48.8747 6.54744 49.0279C21.0207 49.0091 35.494 49.0185 49.9673 49.0216C51.0981 49.0966 52.2759 48.831 53.3734 49.2091C54.0314 49.5403 54.0038 50.3653 53.9983 51.0528C53.3016 52.3059 51.922 51.934 50.8188 51.9778C36.622 51.9621 22.4252 51.9653 8.22838 51.9778C7.11973 51.9403 5.74014 52.3059 5.0379 51.0559Z" fill="#FD0D06"/>
</svg>
