<svg width="14" height="14" viewBox="0 0 14 14" fill="none" xmlns="http://www.w3.org/2000/svg">
<path fill-rule="evenodd" clip-rule="evenodd" d="M12.9996 9.9843V11.7908C13.001 12.1299 12.8591 12.4539 12.6087 12.6831C12.3583 12.9124 12.0227 13.0256 11.6843 12.9951C9.82768 12.7938 8.04426 12.1606 6.47734 11.1465C5.01953 10.222 3.78356 8.98843 2.85721 7.53351C1.83752 5.96259 1.20295 4.17405 1.0049 2.31277C0.974416 1.97609 1.08712 1.64211 1.31549 1.39244C1.54386 1.14277 1.86685 1.00038 2.20558 1.00006H4.01565C4.62134 0.99411 5.13759 1.43721 5.22236 2.03578C5.29876 2.61389 5.44044 3.18152 5.64471 3.72785C5.81047 4.16795 5.70445 4.66409 5.3732 4.99841L4.60694 5.76315C5.46585 7.27069 6.71655 8.51891 8.22708 9.37612L8.99334 8.61137C9.32832 8.28078 9.82544 8.17497 10.2664 8.3404C10.8138 8.54426 11.3826 8.68567 11.9619 8.76192C12.5686 8.84734 13.0148 9.37298 12.9996 9.9843Z" stroke="#85888A" stroke-width="1.5" stroke-linecap="round" stroke-linejoin="round"/>
</svg>
