<svg width="77" height="63" viewBox="0 0 77 63" fill="none" xmlns="http://www.w3.org/2000/svg">
<path fill-rule="evenodd" clip-rule="evenodd" d="M20.2667 5H55.7333C56.4328 5 57 5.57506 57 6.28571V39.7143C57 40.4243 56.4328 41 55.7333 41H20.2667C20.1145 40.9956 19.9636 40.9642 19.822 40.9058C19.7812 40.8889 19.741 40.8694 19.702 40.8481C19.5696 40.7759 19.4478 40.6848 19.3408 40.5781C19.248 40.4777 19.1713 40.3628 19.1157 40.2372C19.1136 40.2326 19.11 40.2284 19.1064 40.2243L19.1064 40.2243H19.1064C19.1013 40.2186 19.0965 40.2131 19.0965 40.2065C19.0421 40.0646 19.0124 39.9139 19.0093 39.7614C19.0093 39.7532 19.007 39.7455 19.0046 39.7378C19.0023 39.7301 19 39.7225 19 39.7143V6.28571C19 5.57506 19.5672 5 20.2667 5ZM54.4667 26.3248V7.57143H21.5333V36.6105L32.0378 25.9481C32.501 25.4773 33.2407 25.4427 33.7442 25.8684L39.7646 30.9623L48.5044 22.091C48.7425 21.8493 49.0648 21.7137 49.4006 21.7137C49.7371 21.7137 50.0593 21.8493 50.2968 22.091L54.4667 26.3248ZM32.9333 38.4286H23.3245L33.0119 28.5968L38.9364 33.6109V33.6184L38.9568 33.631L44.6352 38.4286H32.9333ZM48.5923 38.4286H54.4667V29.9603L49.4 24.8175L41.719 32.6146L48.5923 38.4286Z" fill="#FD0D06"/>
<path fill-rule="evenodd" clip-rule="evenodd" d="M62.8833 9.85442L75.9912 12.7284V12.7322C76.3239 12.805 76.614 13.0078 76.7976 13.2953C76.9812 13.5822 77.0433 13.9313 76.9699 14.2646L66.5113 61.9905C66.3816 62.58 65.8603 63 65.2575 63C65.1673 62.9994 65.0777 62.9893 64.9893 62.9699L38.501 57.1433L12.0195 62.9699C11.9293 62.9893 11.8372 62.9994 11.745 63C11.1441 63.0006 10.6234 62.5838 10.4912 61.9968L0.0319706 14.2709C-0.0438484 13.9363 0.0163054 13.5848 0.200527 13.2947C0.384121 13.0053 0.676118 12.8013 1.01135 12.7284L14.1186 9.85442V1.28571C14.1186 0.575056 14.6932 0 15.4019 0H61.6C62.3087 0 62.8833 0.575056 62.8833 1.28571V9.85442ZM68.0797 18.8858L62.8833 17.7426V42.5849L68.0797 18.8858ZM16.6852 2.57143H60.3167V48.8571H16.6852V2.57143ZM8.92283 18.8896L14.1186 42.5849V17.7426L8.92283 18.8896ZM12.7225 60.1825L2.81408 14.969L14.1186 12.4867V15.1134L7.11821 16.6559C6.42582 16.8085 5.98782 17.4946 6.14071 18.189L13.3015 50.846C13.4312 51.4355 13.9526 51.8555 14.5554 51.8555C14.6481 51.8548 14.7402 51.8448 14.8311 51.8253L16.6188 51.4286H18.9015L18.8839 51.5133C18.7317 52.207 19.1703 52.8926 19.8627 53.0445L32.5131 55.8269L12.7225 60.1825ZM38.7422 54.5644L64.28 60.1825L74.1878 14.969L62.8833 12.4867V15.1134L69.8837 16.6534C70.5761 16.8059 71.0141 17.4921 70.8618 18.1865L63.701 50.8435C63.5713 51.433 63.05 51.853 62.4472 51.8523C62.3544 51.8523 62.2617 51.8423 62.1715 51.8228L60.3838 51.4286H24.4851L38.7284 54.5644H38.7422Z" fill="#FD0D06"/>
<path fill-rule="evenodd" clip-rule="evenodd" d="M45.5857 18.8054C44.6329 21.3381 42.2057 23.0113 39.4998 22.9999C35.9103 22.9999 33 20.0895 33 16.4999C33 12.9097 35.9103 10 39.4998 10C40.959 10.0057 42.3726 10.5078 43.5088 11.4231C43.5843 11.4625 43.6554 11.5095 43.7208 11.5634C43.7328 11.5754 43.7405 11.5895 43.7484 11.6039C43.7551 11.6163 43.7619 11.6288 43.7716 11.6402C45.8142 13.415 46.5378 16.2727 45.5857 18.8054ZM43.3996 16.4999C43.3996 14.3456 41.6541 12.6 39.4998 12.6C37.3461 12.6 35.5999 14.3456 35.5999 16.4999C35.5999 18.6537 37.3461 20.3999 39.4998 20.3999C41.6541 20.3999 43.3996 18.6537 43.3996 16.4999Z" fill="#FD0D06"/>
</svg>
