<svg width="65" height="65" viewBox="0 0 65 65" fill="none" xmlns="http://www.w3.org/2000/svg">
<path fill-rule="evenodd" clip-rule="evenodd" d="M59.5065 42.8975H62.0924C63.1441 42.8975 63.9997 43.753 63.9997 44.8047V45.543C63.9997 48.0875 61.93 50.1572 59.3854 50.1572H53.1287C54.0107 51.3007 54.5943 52.6778 54.8495 54.2183L55.421 54.1106C55.8007 54.039 56.1862 54.2125 56.3842 54.5446L61.1912 62.6042C61.3609 62.8897 61.3647 63.2439 61.2008 63.5328C61.0369 63.8217 60.7303 64 60.3986 64H43.3854C43.0475 64 42.7365 63.8154 42.5751 63.5184L39.9901 58.7705H39.8719C38.6943 58.7705 37.5186 58.6201 36.3775 58.3235C35.2374 58.0274 34.1367 57.5857 33.1052 57.0113C31.3148 56.013 29.286 55.4853 27.2374 55.4853H24.6251C24.1156 55.4853 23.7022 55.0719 23.7022 54.5624C23.7022 54.0524 24.1156 53.6395 24.6251 53.6395H27.2374C29.5998 53.6395 31.9401 54.2481 34.0041 55.3992C34.8981 55.8977 35.8531 56.2803 36.8418 56.5374C37.8315 56.7945 38.851 56.9248 39.8719 56.9248H40.4525L53.0384 54.5586C52.7812 52.9349 52.0458 51.2502 50.3559 50.0034C50.3304 49.9866 50.3059 49.9688 50.2828 49.9496C48.7096 48.8191 46.3299 48.0621 42.7769 48.0621H29.2307C28.2016 48.0621 27.2663 48.6696 26.8476 49.6098C26.7303 49.8717 26.6582 50.1457 26.6323 50.4283C29.9834 50.5288 35.5792 50.8652 37.41 51.9924C37.9728 52.3379 38.5952 52.8157 39.1845 53.2805C39.5849 53.5963 39.6532 54.1764 39.3374 54.5763C39.0216 54.9767 38.4414 55.045 38.0415 54.7297C37.5224 54.3202 36.9269 53.8616 36.4434 53.5646C35.3874 52.9142 31.4167 52.4052 26.3261 52.2658C25.9075 52.2548 25.5162 52.0827 25.2249 51.7828C24.9337 51.479 24.775 51.0858 24.775 50.6715C24.775 50.4985 24.7861 50.3269 24.8053 50.1572H15.4816C13.5744 50.1572 12.0214 51.7179 12.0127 53.6395H20.6876C21.1975 53.6395 21.6104 54.0524 21.6104 54.5624C21.6104 55.0719 21.1975 55.4853 20.6876 55.4853H11.9906C10.9851 55.4853 10.167 54.6643 10.167 53.6554C10.167 52.3182 10.6592 51.0955 11.4691 50.1572H5.61478C3.0702 50.1572 1.00051 48.0875 1.00051 45.543V44.8047C1.00051 43.753 1.85607 42.8975 2.90774 42.8975H5.49365C5.25669 42.4356 5.12211 41.9131 5.12211 41.3594V20.6567C5.12211 20.1468 5.53547 19.7339 6.04496 19.7339C6.55493 19.7339 6.96782 20.1468 6.96782 20.6567V41.3594C6.96782 42.2077 7.65803 42.8975 8.5059 42.8975H56.4938C57.3421 42.8975 58.0319 42.2077 58.0319 41.3594V40.9042L56.9245 40.3269L54.5183 41.5814C54.2506 41.7208 53.9612 41.7896 53.6738 41.7896C53.2955 41.7896 52.9206 41.6708 52.601 41.4372C52.4496 41.3267 52.3198 41.1964 52.2126 41.0518H9.73638C9.22688 41.0518 8.81352 40.6389 8.81352 40.1289V13.4566L8.07524 13.0721L6.96782 13.6493V16.7192C6.96782 17.2292 6.55493 17.6421 6.04496 17.6421C5.53547 17.6421 5.12211 17.2292 5.12211 16.7192V14.5068C5.02358 14.5231 4.92408 14.5347 4.82458 14.5347C4.44631 14.5347 4.0714 14.416 3.75129 14.1824C3.19229 13.7738 2.91784 13.097 3.0356 12.416L3.49366 9.76997L1.55278 7.89447C1.05338 7.41142 0.875542 6.70197 1.08847 6.04204C1.30284 5.37874 1.86569 4.9053 2.55783 4.80532L5.2466 4.41792L6.44775 2.00552C6.75633 1.38548 7.38022 1 8.07524 1C8.77074 1 9.39415 1.38548 9.70321 2.006L10.9044 4.4184L13.5927 4.80532C14.2641 4.90241 14.813 5.35134 15.0409 5.9834H56.4938C58.3597 5.9834 59.8776 7.5013 59.8776 9.36719V31.6911L62.4419 32.0602C63.134 32.1602 63.6969 32.6336 63.9112 33.2969C64.1246 33.9569 63.9468 34.6663 63.4474 35.1494L61.5065 37.0249L61.9646 39.6713C62.0819 40.3519 61.8079 41.0287 61.2484 41.4372C60.8375 41.7376 60.3352 41.8472 59.8531 41.7598C59.805 42.1649 59.6853 42.5485 59.5065 42.8975ZM5.60949 12.2756L7.23314 11.4297C7.49653 11.2922 7.78589 11.2235 8.07524 11.2235C8.36507 11.2235 8.65443 11.2922 8.9183 11.4297L10.1502 12.0718L10.1613 12.0775C10.1706 12.0822 10.1797 12.0868 10.1887 12.092L11.2846 12.6635L10.8347 10.0622C10.7328 9.47341 10.9294 8.87308 11.36 8.45683L13.2586 6.62218L10.6275 6.24295C10.0363 6.15788 9.52489 5.78922 9.25957 5.25617L8.07572 2.87743L6.89139 5.25617C6.62607 5.78922 6.11466 6.15788 5.52345 6.24295L2.89236 6.62218L4.79094 8.45683C5.2216 8.87356 5.41771 9.47341 5.31629 10.0622L4.86592 12.663L5.60324 12.279C5.60565 12.278 5.60757 12.2771 5.60949 12.2756ZM10.6592 14.4059C11.2379 14.6347 11.8887 14.5553 12.3992 14.1824C12.9587 13.7738 13.2326 13.097 13.1154 12.4164L12.9601 11.5205H48.2501C48.7596 11.5205 49.173 11.1076 49.173 10.5977C49.173 10.0877 48.7596 9.6748 48.2501 9.6748H12.7558L14.5982 7.89447C14.6171 7.8764 14.6346 7.85763 14.6521 7.83876L14.6611 7.8291H56.4943C57.3421 7.8291 58.0324 8.51884 58.0324 9.36719V28.6288C57.7214 28.3904 57.3359 28.2549 56.9245 28.2549C56.6644 28.2549 56.414 28.3092 56.1867 28.4092V10.5977C56.1867 10.0877 55.7733 9.6748 55.2638 9.6748H52.2184C51.7084 9.6748 51.2955 10.0877 51.2955 10.5977C51.2955 11.1076 51.7084 11.5205 52.2184 11.5205H54.341V31.1811L54.0958 31.6733L51.4075 32.0602C50.7154 32.1602 50.1521 32.6341 49.9382 33.2969C49.7248 33.9569 49.9026 34.6663 50.402 35.1494L52.3429 37.0249L51.9656 39.2061H10.6592V14.4059ZM56.0819 38.6845C56.3458 38.5471 56.6351 38.4783 56.9245 38.4783C57.2143 38.4783 57.5032 38.5471 57.7666 38.6845L59.3888 39.53L59.3974 39.5343L60.1338 39.9184L59.6839 37.3171C59.5815 36.7283 59.7781 36.128 60.2088 35.7117L62.1073 33.8771L59.4762 33.4978C58.9418 33.4209 58.4746 33.1109 58.1934 32.6586C58.1684 32.6216 58.1463 32.5827 58.1266 32.5428C58.1239 32.5373 58.1208 32.5321 58.1177 32.5269C58.1162 32.5244 58.1146 32.5219 58.1132 32.5193C58.1116 32.5166 58.1101 32.5139 58.1088 32.5111L56.9245 30.1323L55.7401 32.5111C55.4748 33.0441 54.9639 33.4128 54.3727 33.4978L51.7416 33.8771L53.6402 35.7117C54.0708 36.1284 54.2669 36.7283 54.1655 37.3171L53.7151 39.9179L56.0819 38.6845ZM58.7735 62.1543H43.9339L41.9555 58.5206L55.1292 56.0438L58.7735 62.1543ZM59.3854 48.3115C60.912 48.3115 62.154 47.0695 62.154 45.543V44.8047C62.154 44.771 62.1266 44.7432 62.0924 44.7432H2.90774C2.87362 44.7432 2.84622 44.771 2.84622 44.8047V45.543C2.84622 47.0695 4.08822 48.3115 5.61478 48.3115H25.4532C26.2583 47.0224 27.682 46.2159 29.2307 46.2159H42.7769C46.2977 46.2159 49.1071 46.9196 51.1571 48.3115H59.3854Z" fill="#FD0D06"/>
<path d="M59.5065 42.8975L59.4175 42.8519L59.3429 42.9975H59.5065V42.8975ZM53.1287 50.1572V50.0572H52.9253L53.0496 50.2183L53.1287 50.1572ZM54.8495 54.2183L54.7508 54.2346L54.7675 54.3355L54.868 54.3165L54.8495 54.2183ZM55.421 54.1106L55.4395 54.2089L55.4395 54.2089L55.421 54.1106ZM56.3842 54.5446L56.2983 54.5958L56.2983 54.5958L56.3842 54.5446ZM61.1912 62.6042L61.2772 62.5531L61.2771 62.553L61.1912 62.6042ZM42.5751 63.5184L42.6629 63.4706L42.6629 63.4706L42.5751 63.5184ZM39.9901 58.7705L40.0779 58.7227L40.0495 58.6705H39.9901V58.7705ZM36.3775 58.3235L36.4027 58.2267L36.4026 58.2267L36.3775 58.3235ZM33.1052 57.0113L33.0565 57.0987L33.0566 57.0987L33.1052 57.0113ZM34.0041 55.3992L33.9553 55.4865L33.9554 55.4866L34.0041 55.3992ZM36.8418 56.5374L36.8167 56.6342L36.8167 56.6342L36.8418 56.5374ZM40.4525 56.9248V57.0248H40.4618L40.471 57.0231L40.4525 56.9248ZM53.0384 54.5586L53.0569 54.6568L53.1524 54.6389L53.1372 54.5429L53.0384 54.5586ZM50.3559 50.0034L50.4153 49.9228L50.411 49.92L50.3559 50.0034ZM50.2828 49.9496L50.347 49.8726L50.3412 49.8684L50.2828 49.9496ZM26.8476 49.6098L26.9389 49.6506L26.939 49.6504L26.8476 49.6098ZM26.6323 50.4283L26.5327 50.4192L26.523 50.5251L26.6293 50.5283L26.6323 50.4283ZM37.41 51.9924L37.3575 52.0775L37.3576 52.0776L37.41 51.9924ZM39.1845 53.2805L39.1226 53.359L39.1845 53.2805ZM39.3374 54.5763L39.2589 54.5144L39.2589 54.5144L39.3374 54.5763ZM38.0415 54.7297L37.9796 54.8082L37.9796 54.8082L38.0415 54.7297ZM36.4434 53.5646L36.3909 53.6497L36.391 53.6498L36.4434 53.5646ZM26.3261 52.2658L26.3288 52.1659H26.3287L26.3261 52.2658ZM25.2249 51.7828L25.1527 51.852L25.1532 51.8525L25.2249 51.7828ZM24.8053 50.1572L24.9047 50.1685L24.9173 50.0572H24.8053V50.1572ZM12.0127 53.6395L11.9127 53.6391L11.9123 53.7395H12.0127V53.6395ZM11.4691 50.1572L11.5448 50.2226L11.6876 50.0572H11.4691V50.1572ZM5.49365 42.8975V42.9975H5.65735L5.58263 42.8518L5.49365 42.8975ZM58.0319 40.9042H58.1319V40.8436L58.0781 40.8155L58.0319 40.9042ZM56.9245 40.3269L56.9707 40.2383L56.9245 40.2142L56.8782 40.2383L56.9245 40.3269ZM54.5183 41.5814L54.5645 41.6701L54.5645 41.6701L54.5183 41.5814ZM52.601 41.4372L52.66 41.3565L52.66 41.3565L52.601 41.4372ZM52.2126 41.0518L52.293 40.9922L52.263 40.9518H52.2126V41.0518ZM8.81352 13.4566H8.91352V13.3959L8.85972 13.3679L8.81352 13.4566ZM8.07524 13.0721L8.12143 12.9834L8.07522 12.9593L8.02902 12.9834L8.07524 13.0721ZM6.96782 13.6493L6.92159 13.5606L6.86782 13.5887V13.6493H6.96782ZM5.12211 14.5068H5.22211V14.3888L5.10575 14.4081L5.12211 14.5068ZM3.75129 14.1824L3.69228 14.2631L3.69234 14.2631L3.75129 14.1824ZM3.0356 12.416L2.93706 12.3989L2.93706 12.3989L3.0356 12.416ZM3.49366 9.76997L3.59219 9.78703L3.60122 9.73486L3.56315 9.69806L3.49366 9.76997ZM1.55278 7.89447L1.48326 7.96635L1.48329 7.96638L1.55278 7.89447ZM1.08847 6.04204L0.993317 6.01129L0.993302 6.01133L1.08847 6.04204ZM2.55783 4.80532L2.54357 4.70634L2.54353 4.70635L2.55783 4.80532ZM5.2466 4.41792L5.26086 4.51689L5.31275 4.50942L5.33612 4.46249L5.2466 4.41792ZM6.44775 2.00552L6.53727 2.0501L6.53727 2.05008L6.44775 2.00552ZM9.70321 2.006L9.79273 1.96143L9.79272 1.96142L9.70321 2.006ZM10.9044 4.4184L10.8148 4.46297L10.8382 4.50991L10.8901 4.51738L10.9044 4.4184ZM13.5927 4.80532L13.607 4.70635L13.6069 4.70634L13.5927 4.80532ZM15.0409 5.9834L14.9468 6.01731L14.9706 6.0834H15.0409V5.9834ZM59.8776 31.6911H59.7776V31.7777L59.8633 31.79L59.8776 31.6911ZM62.4419 32.0602L62.4562 31.9612L62.4561 31.9612L62.4419 32.0602ZM63.9112 33.2969L63.8161 33.3277L63.8161 33.3277L63.9112 33.2969ZM63.4474 35.1494L63.5169 35.2213L63.5169 35.2212L63.4474 35.1494ZM61.5065 37.0249L61.437 36.9529L61.399 36.9897L61.408 37.0419L61.5065 37.0249ZM61.9646 39.6713L62.0631 39.6543L62.0631 39.6543L61.9646 39.6713ZM61.2484 41.4372L61.1894 41.3565L61.1894 41.3565L61.2484 41.4372ZM59.8531 41.7598L59.8709 41.6614L59.7663 41.6424L59.7538 41.748L59.8531 41.7598ZM7.23314 11.4297L7.27934 11.5183L7.2794 11.5183L7.23314 11.4297ZM5.60949 12.2756L5.56328 12.1869L5.55603 12.1907L5.54949 12.1956L5.60949 12.2756ZM8.9183 11.4297L8.96453 11.341L8.96451 11.341L8.9183 11.4297ZM10.1502 12.0718L10.104 12.1605L10.1047 12.1608L10.1502 12.0718ZM10.1613 12.0775L10.1158 12.1665L10.116 12.1666L10.1613 12.0775ZM10.1887 12.092L10.1387 12.1787L10.1424 12.1807L10.1887 12.092ZM11.2846 12.6635L11.2383 12.7522L11.4175 12.8456L11.3831 12.6465L11.2846 12.6635ZM10.8347 10.0622L10.9332 10.0452L10.9332 10.0452L10.8347 10.0622ZM11.36 8.45683L11.2905 8.38492L11.2905 8.38493L11.36 8.45683ZM13.2586 6.62218L13.3281 6.6941L13.4748 6.55232L13.2729 6.52321L13.2586 6.62218ZM10.6275 6.24295L10.6418 6.14397L10.6417 6.14397L10.6275 6.24295ZM9.25957 5.25617L9.17004 5.30073L9.17004 5.30073L9.25957 5.25617ZM8.07572 2.87743L8.16525 2.83287L8.07574 2.65302L7.9862 2.83286L8.07572 2.87743ZM6.89139 5.25617L6.80187 5.2116L6.80187 5.21161L6.89139 5.25617ZM5.52345 6.24295L5.50921 6.14397L5.50919 6.14397L5.52345 6.24295ZM2.89236 6.62218L2.87809 6.52321L2.67615 6.55232L2.82287 6.6941L2.89236 6.62218ZM4.79094 8.45683L4.86048 8.38497L4.86043 8.38492L4.79094 8.45683ZM5.31629 10.0622L5.41483 10.0793L5.41484 10.0792L5.31629 10.0622ZM4.86592 12.663L4.76739 12.646L4.73291 12.845L4.91212 12.7517L4.86592 12.663ZM5.60324 12.279L5.56592 12.1857L5.55705 12.1903L5.60324 12.279ZM12.3992 14.1824L12.3402 14.1016L12.3402 14.1016L12.3992 14.1824ZM10.6592 14.4059L10.696 14.3129L10.5592 14.2588V14.4059H10.6592ZM13.1154 12.4164L13.2139 12.3995L13.2139 12.3994L13.1154 12.4164ZM12.9601 11.5205V11.4205H12.8413L12.8616 11.5376L12.9601 11.5205ZM12.7558 9.6748L12.6863 9.60289L12.5084 9.77481H12.7558V9.6748ZM14.5982 7.89447L14.5291 7.82221L14.5287 7.82256L14.5982 7.89447ZM14.6521 7.83876L14.579 7.77056L14.579 7.7706L14.6521 7.83876ZM14.6611 7.8291V7.7291H14.6177L14.588 7.7609L14.6611 7.8291ZM58.0324 28.6288L57.9715 28.7082L58.1324 28.8315V28.6288H58.0324ZM56.1867 28.4092H56.0867V28.5624L56.2269 28.5007L56.1867 28.4092ZM54.341 11.5205H54.4409V11.4205H54.341V11.5205ZM54.341 31.1811L54.4305 31.2257L54.4409 31.2046V31.1811H54.341ZM54.0958 31.6733L54.1101 31.7723L54.162 31.7648L54.1853 31.7179L54.0958 31.6733ZM51.4075 32.0602L51.3933 31.9612L51.3932 31.9612L51.4075 32.0602ZM49.9382 33.2969L50.0333 33.3277L50.0333 33.3276L49.9382 33.2969ZM50.402 35.1494L50.3325 35.2212L50.3325 35.2213L50.402 35.1494ZM52.3429 37.0249L52.4414 37.0419L52.4504 36.9897L52.4124 36.9529L52.3429 37.0249ZM51.9656 39.2061V39.3061H52.0498L52.0641 39.2231L51.9656 39.2061ZM10.6592 39.2061H10.5592V39.3061H10.6592V39.2061ZM56.0819 38.6845L56.0357 38.5959L56.0357 38.5959L56.0819 38.6845ZM57.7666 38.6845L57.7203 38.7732L57.7203 38.7732L57.7666 38.6845ZM59.3888 39.53L59.3425 39.6187L59.344 39.6195L59.3888 39.53ZM59.3974 39.5343L59.4437 39.4457L59.4421 39.4449L59.3974 39.5343ZM60.1338 39.9184L60.0875 40.007L60.2668 40.1005L60.2323 39.9013L60.1338 39.9184ZM59.6839 37.3171L59.7824 37.3001L59.7824 37.3L59.6839 37.3171ZM60.2088 35.7117L60.1393 35.6398L60.1393 35.6398L60.2088 35.7117ZM62.1073 33.8771L62.1768 33.949L62.3235 33.8072L62.1216 33.7781L62.1073 33.8771ZM59.4762 33.4978L59.4905 33.3989L59.4905 33.3989L59.4762 33.4978ZM58.1934 32.6586L58.2784 32.6058L58.2763 32.6026L58.1934 32.6586ZM58.1266 32.5428L58.0364 32.5859L58.0369 32.5871L58.1266 32.5428ZM58.1177 32.5269L58.2033 32.4752L58.2032 32.4752L58.1177 32.5269ZM58.1132 32.5193L58.0264 32.569L58.0264 32.5691L58.1132 32.5193ZM58.1088 32.5111L58.199 32.4679L58.1983 32.4665L58.1088 32.5111ZM56.9245 30.1323L57.014 30.0877L56.9245 29.9079L56.8349 30.0877L56.9245 30.1323ZM55.7401 32.5111L55.6506 32.4665L55.6506 32.4665L55.7401 32.5111ZM54.3727 33.4978L54.3584 33.3989L54.3584 33.3989L54.3727 33.4978ZM51.7416 33.8771L51.7273 33.7781L51.5254 33.8072L51.6721 33.949L51.7416 33.8771ZM53.6402 35.7117L53.7097 35.6399L53.7096 35.6398L53.6402 35.7117ZM54.1655 37.3171L54.264 37.3342L54.2641 37.3341L54.1655 37.3171ZM53.7151 39.9179L53.6166 39.9008L53.5821 40.1L53.7614 40.0066L53.7151 39.9179ZM43.9339 62.1543L43.846 62.2021L43.8744 62.2543H43.9339V62.1543ZM58.7735 62.1543V62.2543H58.9496L58.8594 62.1031L58.7735 62.1543ZM41.9555 58.5206L41.937 58.4223L41.8019 58.4477L41.8677 58.5684L41.9555 58.5206ZM55.1292 56.0438L55.2151 55.9925L55.1793 55.9326L55.1107 55.9455L55.1292 56.0438ZM25.4532 48.3115V48.4115H25.5087L25.5381 48.3645L25.4532 48.3115ZM51.1571 48.3115L51.1009 48.3943L51.1264 48.4115H51.1571V48.3115ZM62.0924 42.7975H59.5065V42.9975H62.0924V42.7975ZM64.0997 44.8047C64.0997 43.6978 63.1993 42.7975 62.0924 42.7975V42.9975C63.0889 42.9975 63.8997 43.8083 63.8997 44.8047H64.0997ZM64.0997 45.543V44.8047H63.8997V45.543H64.0997ZM59.3854 50.2572C61.9852 50.2572 64.0997 48.1428 64.0997 45.543H63.8997C63.8997 48.0323 61.8747 50.0572 59.3854 50.0572V50.2572ZM53.1287 50.2572H59.3854V50.0572H53.1287V50.2572ZM54.9481 54.2019C54.6904 52.6465 54.1008 51.2537 53.2079 50.0961L53.0496 50.2183C53.9207 51.3477 54.4981 52.709 54.7508 54.2346L54.9481 54.2019ZM55.4025 54.0123L54.831 54.12L54.868 54.3165L55.4395 54.2089L55.4025 54.0123ZM56.4701 54.4934C56.2506 54.1252 55.8234 53.9329 55.4024 54.0123L55.4395 54.2089C55.778 54.145 56.1218 54.2998 56.2983 54.5958L56.4701 54.4934ZM61.2771 62.553L56.4701 54.4934L56.2983 54.5958L61.1053 62.6554L61.2771 62.553ZM61.2878 63.5822C61.4695 63.262 61.4652 62.8694 61.2772 62.5531L61.1053 62.6553C61.2566 62.91 61.26 63.2259 61.1139 63.4835L61.2878 63.5822ZM60.3986 64.1C60.7662 64.1 61.1061 63.9024 61.2878 63.5822L61.1139 63.4835C60.9677 63.741 60.6943 63.9 60.3986 63.9V64.1ZM43.3854 64.1H60.3986V63.9H43.3854V64.1ZM42.4872 63.5662C42.6662 63.8954 43.0109 64.1 43.3854 64.1V63.9C43.0841 63.9 42.8069 63.7354 42.6629 63.4706L42.4872 63.5662ZM39.9023 58.8183L42.4872 63.5662L42.6629 63.4706L40.0779 58.7227L39.9023 58.8183ZM39.8719 58.8705H39.9901V58.6705H39.8719V58.8705ZM36.3524 58.4203C37.5016 58.719 38.6858 58.8705 39.8719 58.8705V58.6705C38.7028 58.6705 37.5355 58.5211 36.4027 58.2267L36.3524 58.4203ZM33.0566 57.0987C34.0954 57.6772 35.204 58.1221 36.3524 58.4203L36.4026 58.2267C35.2708 57.9328 34.178 57.4942 33.1539 56.924L33.0566 57.0987ZM27.2374 55.5853C29.2689 55.5853 31.281 56.1086 33.0565 57.0987L33.1539 56.924C31.3486 55.9174 29.303 55.3853 27.2374 55.3853V55.5853ZM24.6251 55.5853H27.2374V55.3853H24.6251V55.5853ZM23.6022 54.5624C23.6022 55.1271 24.0604 55.5853 24.6251 55.5853V55.3853C24.1708 55.3853 23.8022 55.0167 23.8022 54.5624H23.6022ZM24.6251 53.5396C24.0604 53.5396 23.6022 53.9972 23.6022 54.5624H23.8022C23.8022 54.1077 24.1708 53.7395 24.6251 53.7395V53.5396ZM27.2374 53.5396H24.6251V53.7395H27.2374V53.5396ZM34.0528 55.3119C31.9739 54.1524 29.6169 53.5396 27.2374 53.5396V53.7395C29.5828 53.7395 31.9063 54.3437 33.9553 55.4865L34.0528 55.3119ZM36.867 56.4406C35.8865 56.1856 34.9393 55.8062 34.0527 55.3119L33.9554 55.4866C34.8568 55.9891 35.8198 56.3749 36.8167 56.6342L36.867 56.4406ZM39.8719 56.8248C38.8594 56.8248 37.8484 56.6956 36.867 56.4406L36.8167 56.6342C37.8145 56.8935 38.8425 57.0248 39.8719 57.0248V56.8248ZM40.4525 56.8248H39.8719V57.0248H40.4525V56.8248ZM53.0199 54.4603L40.434 56.8265L40.471 57.0231L53.0569 54.6568L53.0199 54.4603ZM50.2965 50.0839C51.9604 51.3115 52.6855 52.9697 52.9396 54.5742L53.1372 54.5429C52.877 52.9001 52.1313 51.189 50.4152 49.9229L50.2965 50.0839ZM50.2188 50.0264C50.2453 50.0485 50.2729 50.0685 50.3008 50.0869L50.411 49.92C50.3879 49.9047 50.3665 49.8891 50.3468 49.8728L50.2188 50.0264ZM42.7769 48.1621C46.3165 48.1621 48.6735 48.9163 50.2244 50.0308L50.3412 49.8684C48.7457 48.7219 46.3433 47.9621 42.7769 47.9621V48.1621ZM29.2307 48.1621H42.7769V47.9621H29.2307V48.1621ZM26.939 49.6504C27.3416 48.7464 28.2411 48.1621 29.2307 48.1621V47.9621C28.1621 47.9621 27.191 48.5929 26.7563 49.5691L26.939 49.6504ZM26.7319 50.4375C26.7568 50.1659 26.826 49.9027 26.9389 49.6506L26.7563 49.5689C26.6346 49.8408 26.5597 50.1255 26.5327 50.4192L26.7319 50.4375ZM37.4624 51.9072C36.9904 51.6166 36.2843 51.3814 35.4472 51.1891C34.6079 50.9964 33.6281 50.845 32.6028 50.726C30.552 50.488 28.312 50.3786 26.6353 50.3284L26.6293 50.5283C28.3037 50.5785 30.5371 50.6876 32.5797 50.9247C33.601 51.0432 34.5729 51.1936 35.4024 51.3841C36.2341 51.575 36.9141 51.8045 37.3575 52.0775L37.4624 51.9072ZM39.2465 53.202C38.6574 52.7374 38.0307 52.2562 37.4623 51.9071L37.3576 52.0776C37.9149 52.4197 38.5331 52.8941 39.1226 53.359L39.2465 53.202ZM39.4159 54.6383C39.7659 54.195 39.6902 53.552 39.2465 53.202L39.1226 53.359C39.4796 53.6406 39.5404 54.1578 39.2589 54.5144L39.4159 54.6383ZM37.9796 54.8082C38.4229 55.1577 39.0659 55.082 39.4159 54.6383L39.2589 54.5144C38.9773 54.8714 38.46 54.9323 38.1035 54.6511L37.9796 54.8082ZM36.391 53.6498C36.8688 53.9433 37.46 54.3982 37.9796 54.8082L38.1035 54.6512C37.5849 54.2421 36.985 53.7799 36.4957 53.4794L36.391 53.6498ZM26.3234 52.3658C28.8664 52.4354 31.1282 52.5974 32.885 52.8228C33.7635 52.9355 34.5142 53.0639 35.11 53.2042C35.7086 53.3452 36.1414 53.4961 36.3909 53.6497L36.4958 53.4794C36.2173 53.3079 35.7578 53.1513 35.1558 53.0096C34.551 52.8671 33.7929 52.7377 32.9104 52.6244C31.1452 52.3979 28.8764 52.2356 26.3288 52.1659L26.3234 52.3658ZM25.1532 51.8525C25.4626 52.1711 25.8787 52.3541 26.3235 52.3658L26.3287 52.1659C25.9363 52.1555 25.5698 51.9944 25.2967 51.7131L25.1532 51.8525ZM24.675 50.6715C24.675 51.1119 24.8438 51.5298 25.1528 51.852L25.2971 51.7136C25.0235 51.4282 24.875 51.0597 24.875 50.6715H24.675ZM24.706 50.146C24.6864 50.3189 24.675 50.4942 24.675 50.6715H24.875C24.875 50.5027 24.8858 50.3349 24.9047 50.1685L24.706 50.146ZM15.4816 50.2572H24.8053V50.0572H15.4816V50.2572ZM12.1127 53.64C12.1212 51.7726 13.6303 50.2572 15.4816 50.2572V50.0572C13.5185 50.0572 11.9216 51.6632 11.9127 53.6391L12.1127 53.64ZM20.6876 53.5396H12.0127V53.7395H20.6876V53.5396ZM21.7104 54.5624C21.7104 53.9972 21.2528 53.5396 20.6876 53.5396V53.7395C21.1423 53.7395 21.5104 54.1077 21.5104 54.5624H21.7104ZM20.6876 55.5853C21.2528 55.5853 21.7104 55.1271 21.7104 54.5624H21.5104C21.5104 55.0167 21.1423 55.3853 20.6876 55.3853V55.5853ZM11.9906 55.5853H20.6876V55.3853H11.9906V55.5853ZM10.067 53.6554C10.067 54.7192 10.9296 55.5853 11.9906 55.5853V55.3853C11.0407 55.3853 10.267 54.6094 10.267 53.6554H10.067ZM11.3934 50.0919C10.5685 51.0475 10.067 52.2932 10.067 53.6554H10.267C10.267 52.3432 10.7499 51.1434 11.5448 50.2226L11.3934 50.0919ZM5.61478 50.2572H11.4691V50.0572H5.61478V50.2572ZM0.900512 45.543C0.900512 48.1428 3.01497 50.2572 5.61478 50.2572V50.0572C3.12543 50.0572 1.10051 48.0323 1.10051 45.543H0.900512ZM0.900512 44.8047V45.543H1.10051V44.8047H0.900512ZM2.90774 42.7975C1.80085 42.7975 0.900512 43.6978 0.900512 44.8047H1.10051C1.10051 43.8083 1.9113 42.9975 2.90774 42.9975V42.7975ZM5.49365 42.7975H2.90774V42.9975H5.49365V42.7975ZM5.02211 41.3594C5.02211 41.9295 5.16071 42.4675 5.40468 42.9431L5.58263 42.8518C5.35267 42.4036 5.22211 41.8967 5.22211 41.3594H5.02211ZM5.02211 20.6567V41.3594H5.22211V20.6567H5.02211ZM6.04496 19.6339C5.48028 19.6339 5.02211 20.0915 5.02211 20.6567H5.22211C5.22211 20.202 5.59066 19.8339 6.04496 19.8339V19.6339ZM7.06782 20.6567C7.06782 20.0915 6.61016 19.6339 6.04496 19.6339V19.8339C6.49971 19.8339 6.86782 20.202 6.86782 20.6567H7.06782ZM7.06782 41.3594V20.6567H6.86782V41.3594H7.06782ZM8.5059 42.7975C7.71324 42.7975 7.06782 42.1525 7.06782 41.3594H6.86782C6.86782 42.263 7.60283 42.9975 8.5059 42.9975V42.7975ZM56.4938 42.7975H8.5059V42.9975H56.4938V42.7975ZM57.9319 41.3594C57.9319 42.1525 57.2869 42.7975 56.4938 42.7975V42.9975C57.3974 42.9975 58.1319 42.263 58.1319 41.3594H57.9319ZM57.9319 40.9042V41.3594H58.1319V40.9042H57.9319ZM56.8782 40.4156L57.9857 40.9929L58.0781 40.8155L56.9707 40.2383L56.8782 40.4156ZM54.5645 41.6701L56.9707 40.4156L56.8782 40.2383L54.4721 41.4928L54.5645 41.6701ZM53.6738 41.8896C53.9772 41.8896 54.2824 41.817 54.5645 41.6701L54.4721 41.4927C54.2187 41.6247 53.9452 41.6896 53.6738 41.6896V41.8896ZM52.542 41.518C52.8789 41.7642 53.2745 41.8896 53.6738 41.8896V41.6896C53.3166 41.6896 52.9624 41.5775 52.66 41.3565L52.542 41.518ZM52.1323 41.1113C52.2454 41.264 52.3823 41.4014 52.542 41.518L52.66 41.3565C52.5168 41.252 52.3942 41.1289 52.293 40.9922L52.1323 41.1113ZM9.73638 41.1518H52.2126V40.9518H9.73638V41.1518ZM8.71352 40.1289C8.71352 40.6941 9.17169 41.1518 9.73638 41.1518V40.9518C9.28208 40.9518 8.91352 40.5836 8.91352 40.1289H8.71352ZM8.71352 13.4566V40.1289H8.91352V13.4566H8.71352ZM8.02905 13.1607L8.76733 13.5453L8.85972 13.3679L8.12143 12.9834L8.02905 13.1607ZM7.01404 13.738L8.12146 13.1607L8.02902 12.9834L6.92159 13.5606L7.01404 13.738ZM7.06782 16.7192V13.6493H6.86782V16.7192H7.06782ZM6.04496 17.7421C6.61016 17.7421 7.06782 17.2844 7.06782 16.7192H6.86782C6.86782 17.174 6.49971 17.5421 6.04496 17.5421V17.7421ZM5.02211 16.7192C5.02211 17.2845 5.48028 17.7421 6.04496 17.7421V17.5421C5.59066 17.5421 5.22211 17.1739 5.22211 16.7192H5.02211ZM5.02211 14.5068V16.7192H5.22211V14.5068H5.02211ZM4.82458 14.6347C4.93158 14.6347 5.03697 14.6223 5.13847 14.6055L5.10575 14.4081C5.01018 14.424 4.91658 14.4347 4.82458 14.4347V14.6347ZM3.69234 14.2631C4.02966 14.5093 4.42523 14.6347 4.82458 14.6347V14.4347C4.4674 14.4347 4.11315 14.3226 3.81023 14.1016L3.69234 14.2631ZM2.93706 12.3989C2.8128 13.1176 3.1027 13.8322 3.69228 14.2631L3.81029 14.1016C3.28188 13.7154 3.02287 13.0765 3.13413 12.433L2.93706 12.3989ZM3.39512 9.75292L2.93706 12.3989L3.13413 12.433L3.59219 9.78703L3.39512 9.75292ZM1.48329 7.96638L3.42417 9.84189L3.56315 9.69806L1.62227 7.82256L1.48329 7.96638ZM0.993302 6.01133C0.768634 6.70765 0.956524 7.45685 1.48326 7.96635L1.62231 7.82259C1.15024 7.36598 0.982449 6.6963 1.18364 6.07274L0.993302 6.01133ZM2.54353 4.70635C1.81383 4.81175 1.21948 5.31149 0.993317 6.01129L1.18363 6.07279C1.3862 5.44598 1.91754 4.99884 2.57212 4.90429L2.54353 4.70635ZM5.23234 4.31894L2.54357 4.70634L2.57209 4.9043L5.26086 4.51689L5.23234 4.31894ZM6.35823 1.96095L5.15708 4.37334L5.33612 4.46249L6.53727 2.0501L6.35823 1.96095ZM8.07524 0.9C7.34244 0.9 6.68378 1.30681 6.35822 1.96097L6.53727 2.05008C6.82887 1.46416 7.41799 1.1 8.07524 1.1V0.9ZM9.79272 1.96142C9.4667 1.30684 8.80856 0.9 8.07524 0.9V1.1C8.73293 1.1 9.3216 1.46413 9.6137 2.05059L9.79272 1.96142ZM10.9939 4.37382L9.79273 1.96143L9.61369 2.05058L10.8148 4.46297L10.9939 4.37382ZM13.6069 4.70634L10.9186 4.31942L10.8901 4.51738L13.5784 4.9043L13.6069 4.70634ZM15.1349 5.94949C14.8945 5.28259 14.3149 4.80872 13.607 4.70635L13.5783 4.90429C14.2133 4.99611 14.7315 5.42009 14.9468 6.01731L15.1349 5.94949ZM56.4938 5.8834H15.0409V6.0834H56.4938V5.8834ZM59.9776 9.36719C59.9776 7.44607 58.4149 5.8834 56.4938 5.8834V6.0834C58.3045 6.0834 59.7776 7.55653 59.7776 9.36719H59.9776ZM59.9776 31.6911V9.36719H59.7776V31.6911H59.9776ZM62.4561 31.9612L59.8918 31.5921L59.8633 31.79L62.4276 32.1592L62.4561 31.9612ZM64.0064 33.2662C63.7802 32.5664 63.1859 32.0666 62.4562 31.9612L62.4276 32.1592C63.0822 32.2537 63.6135 32.7009 63.8161 33.3277L64.0064 33.2662ZM63.5169 35.2212C64.0437 34.7117 64.2316 33.9625 64.0064 33.2662L63.8161 33.3277C64.0177 33.9512 63.8499 34.6209 63.3779 35.0775L63.5169 35.2212ZM61.576 37.0968L63.5169 35.2213L63.3779 35.0774L61.437 36.9529L61.576 37.0968ZM62.0631 39.6543L61.6051 37.0078L61.408 37.0419L61.8661 39.6884L62.0631 39.6543ZM61.3074 41.518C61.8975 41.0871 62.1869 40.3725 62.0631 39.6543L61.866 39.6883C61.9769 40.3314 61.7183 40.9703 61.1894 41.3565L61.3074 41.518ZM59.8352 41.8582C60.344 41.9505 60.8741 41.8347 61.3074 41.518L61.1894 41.3565C60.8008 41.6406 60.3263 41.744 59.8709 41.6614L59.8352 41.8582ZM59.5955 42.9431C59.7796 42.5837 59.9029 42.1887 59.9524 41.7715L59.7538 41.748C59.7071 42.1412 59.591 42.5133 59.4175 42.8519L59.5955 42.9431ZM7.18693 11.341L5.56328 12.1869L5.6557 12.3643L7.27934 11.5183L7.18693 11.341ZM8.07524 11.1235C7.77007 11.1235 7.46481 11.196 7.18687 11.341L7.2794 11.5183C7.52826 11.3884 7.8017 11.3235 8.07524 11.3235V11.1235ZM8.96451 11.341C8.68612 11.196 8.38089 11.1235 8.07524 11.1235V11.3235C8.34926 11.3235 8.62273 11.3884 8.8721 11.5184L8.96451 11.341ZM10.1964 11.9831L8.96453 11.341L8.87208 11.5183L10.104 12.1605L10.1964 11.9831ZM10.2068 11.9885L10.1958 11.9828L10.1047 12.1608L10.1158 12.1665L10.2068 11.9885ZM10.2386 12.0054C10.227 11.9987 10.2154 11.9928 10.2066 11.9883L10.116 12.1666C10.1257 12.1715 10.1325 12.175 10.1387 12.1786L10.2386 12.0054ZM11.3308 12.5748L10.2349 12.0033L10.1424 12.1807L11.2383 12.7522L11.3308 12.5748ZM10.7361 10.0793L11.186 12.6805L11.3831 12.6465L10.9332 10.0452L10.7361 10.0793ZM11.2905 8.38493C10.8361 8.82411 10.6286 9.45772 10.7361 10.0793L10.9332 10.0452C10.837 9.48911 11.0226 8.92205 11.4295 8.52874L11.2905 8.38493ZM13.1891 6.55027L11.2905 8.38492L11.4295 8.52874L13.3281 6.6941L13.1891 6.55027ZM10.6132 6.34193L13.2443 6.72116L13.2729 6.52321L10.6418 6.14397L10.6132 6.34193ZM9.17004 5.30073C9.45007 5.86333 9.98972 6.2522 10.6133 6.34193L10.6417 6.14397C10.0829 6.06355 9.5997 5.71511 9.34909 5.21161L9.17004 5.30073ZM7.98619 2.92198L9.17004 5.30073L9.34909 5.21162L8.16525 2.83287L7.98619 2.92198ZM6.98091 5.30074L8.16524 2.922L7.9862 2.83286L6.80187 5.2116L6.98091 5.30074ZM5.5377 6.34193C6.16124 6.2522 6.70089 5.86333 6.98092 5.30073L6.80187 5.21161C6.55126 5.71511 6.06807 6.06355 5.50921 6.14397L5.5377 6.34193ZM2.90663 6.72116L5.53772 6.34193L5.50919 6.14397L2.87809 6.52321L2.90663 6.72116ZM4.86043 8.38492L2.96185 6.55027L2.82287 6.6941L4.72145 8.52874L4.86043 8.38492ZM5.41484 10.0792C5.52189 9.45772 5.31485 8.82463 4.86048 8.38497L4.7214 8.5287C5.12836 8.92248 5.31353 9.48911 5.21774 10.0452L5.41484 10.0792ZM4.96445 12.6801L5.41483 10.0793L5.21776 10.0451L4.76739 12.646L4.96445 12.6801ZM5.55705 12.1903L4.81973 12.5743L4.91212 12.7517L5.64944 12.3677L5.55705 12.1903ZM5.54949 12.1956C5.55297 12.193 5.55646 12.1908 5.55976 12.1891C5.56286 12.1875 5.56524 12.1865 5.5661 12.1861L5.64038 12.3718C5.6475 12.369 5.6581 12.3642 5.66949 12.3556L5.54949 12.1956ZM12.3402 14.1016C11.8576 14.4542 11.243 14.5291 10.696 14.3129L10.6225 14.4989C11.2329 14.7402 11.9199 14.6564 12.4582 14.2631L12.3402 14.1016ZM13.0168 12.4334C13.1276 13.0765 12.8691 13.7154 12.3402 14.1016L12.4582 14.2631C13.0483 13.8322 13.3377 13.1176 13.2139 12.3995L13.0168 12.4334ZM12.8616 11.5376L13.0168 12.4335L13.2139 12.3994L13.0586 11.5034L12.8616 11.5376ZM48.2501 11.4205H12.9601V11.6205H48.2501V11.4205ZM49.073 10.5977C49.073 11.0524 48.7044 11.4205 48.2501 11.4205V11.6205C48.8148 11.6205 49.273 11.1629 49.273 10.5977H49.073ZM48.2501 9.77481C48.7044 9.77481 49.073 10.1429 49.073 10.5977H49.273C49.273 10.0324 48.8148 9.5748 48.2501 9.5748V9.77481ZM12.7558 9.77481H48.2501V9.5748H12.7558V9.77481ZM14.5287 7.82256L12.6863 9.60289L12.8253 9.74672L14.6677 7.96638L14.5287 7.82256ZM14.579 7.7706C14.5611 7.78979 14.5455 7.80645 14.5291 7.82221L14.6673 7.96673C14.6886 7.94635 14.708 7.92547 14.7253 7.90693L14.579 7.7706ZM14.588 7.7609L14.579 7.77056L14.7253 7.90697L14.7343 7.89731L14.588 7.7609ZM56.4943 7.7291H14.6611V7.9291H56.4943V7.7291ZM58.1324 9.36719C58.1324 8.46359 57.3974 7.7291 56.4943 7.7291V7.9291C57.2869 7.9291 57.9324 8.57409 57.9324 9.36719H58.1324ZM58.1324 28.6288V9.36719H57.9324V28.6288H58.1324ZM56.9245 28.3549C57.3137 28.3549 57.6778 28.483 57.9715 28.7082L58.0932 28.5495C57.765 28.2978 57.3581 28.1549 56.9245 28.1549V28.3549ZM56.2269 28.5007C56.4417 28.4063 56.6784 28.3549 56.9245 28.3549V28.1549C56.6504 28.1549 56.3863 28.2121 56.1464 28.3176L56.2269 28.5007ZM56.0867 10.5977V28.4092H56.2867V10.5977H56.0867ZM55.2638 9.77481C55.7181 9.77481 56.0867 10.1429 56.0867 10.5977H56.2867C56.2867 10.0324 55.8285 9.5748 55.2638 9.5748V9.77481ZM52.2184 9.77481H55.2638V9.5748H52.2184V9.77481ZM51.3955 10.5977C51.3955 10.1429 51.7636 9.77481 52.2184 9.77481V9.5748C51.6532 9.5748 51.1955 10.0325 51.1955 10.5977H51.3955ZM52.2184 11.4205C51.7636 11.4205 51.3955 11.0524 51.3955 10.5977H51.1955C51.1955 11.1629 51.6532 11.6205 52.2184 11.6205V11.4205ZM54.341 11.4205H52.2184V11.6205H54.341V11.4205ZM54.4409 31.1811V11.5205H54.241V31.1811H54.4409ZM54.1853 31.7179L54.4305 31.2257L54.2514 31.1365L54.0063 31.6287L54.1853 31.7179ZM51.4218 32.1592L54.1101 31.7723L54.0816 31.5743L51.3933 31.9612L51.4218 32.1592ZM50.0333 33.3276C50.2354 32.7014 50.7672 32.2537 51.4218 32.1592L51.3932 31.9612C50.6635 32.0666 50.0687 32.5668 49.843 33.2662L50.0333 33.3276ZM50.4715 35.0775C49.9995 34.6209 49.8317 33.9512 50.0333 33.3277L49.843 33.2662C49.6178 33.9625 49.8057 34.7117 50.3325 35.2212L50.4715 35.0775ZM52.4124 36.9529L50.4715 35.0774L50.3325 35.2213L52.2734 37.0968L52.4124 36.9529ZM52.0641 39.2231L52.4414 37.0419L52.2443 37.0078L51.867 39.189L52.0641 39.2231ZM10.6592 39.3061H51.9656V39.1061H10.6592V39.3061ZM10.5592 14.4059V39.2061H10.7592V14.4059H10.5592ZM56.9245 38.3783C56.6193 38.3783 56.314 38.4508 56.0357 38.5959L56.1281 38.7732C56.3775 38.6433 56.6509 38.5783 56.9245 38.5783V38.3783ZM57.8128 38.5959C57.5349 38.4508 57.2301 38.3783 56.9245 38.3783V38.5783C57.1985 38.5783 57.4714 38.6433 57.7203 38.7732L57.8128 38.5959ZM59.435 39.4413L57.8128 38.5959L57.7203 38.7732L59.3425 39.6187L59.435 39.4413ZM59.4421 39.4449L59.4335 39.4406L59.344 39.6195L59.3527 39.6238L59.4421 39.4449ZM60.18 39.8297L59.4437 39.4457L59.3512 39.623L60.0875 40.007L60.18 39.8297ZM59.5854 37.3341L60.0352 39.9354L60.2323 39.9013L59.7824 37.3001L59.5854 37.3341ZM60.1393 35.6398C59.6849 36.079 59.4773 36.7126 59.5854 37.3342L59.7824 37.3C59.6857 36.744 59.8713 36.1769 60.2783 35.7836L60.1393 35.6398ZM62.0378 33.8052L60.1393 35.6398L60.2782 35.7836L62.1768 33.949L62.0378 33.8052ZM59.462 33.5968L62.0931 33.976L62.1216 33.7781L59.4905 33.3989L59.462 33.5968ZM58.1085 32.7114C58.405 33.1885 58.898 33.5157 59.462 33.5968L59.4905 33.3989C58.9856 33.3262 58.5441 33.0333 58.2783 32.6058L58.1085 32.7114ZM58.0369 32.5871C58.0583 32.6304 58.0826 32.6733 58.1105 32.7146L58.2763 32.6026C58.2541 32.5699 58.2342 32.535 58.2162 32.4985L58.0369 32.5871ZM58.0321 32.5787C58.0338 32.5814 58.0347 32.5829 58.0355 32.5843C58.0362 32.5856 58.0364 32.586 58.0364 32.5859L58.2168 32.4996C58.2117 32.489 58.206 32.4797 58.2033 32.4752L58.0321 32.5787ZM58.0264 32.5691C58.0286 32.5728 58.0307 32.5763 58.0321 32.5787L58.2032 32.4752C58.2016 32.4725 58.2007 32.471 58.1999 32.4696L58.0264 32.5691ZM58.0186 32.5542C58.0213 32.56 58.0241 32.565 58.0264 32.569L58.2 32.4697C58.1992 32.4683 58.199 32.4678 58.199 32.4679L58.0186 32.5542ZM56.8349 30.1769L58.0193 32.5556L58.1983 32.4665L57.014 30.0877L56.8349 30.1769ZM55.8297 32.5556L57.014 30.1769L56.8349 30.0877L55.6506 32.4665L55.8297 32.5556ZM54.3869 33.5968C55.0105 33.5071 55.5496 33.1182 55.8297 32.5556L55.6506 32.4665C55.4 32.97 54.9173 33.3184 54.3584 33.3989L54.3869 33.5968ZM51.7558 33.976L54.3869 33.5968L54.3584 33.3989L51.7273 33.7781L51.7558 33.976ZM53.7096 35.6398L51.8111 33.8052L51.6721 33.949L53.5707 35.7836L53.7096 35.6398ZM54.2641 37.3341C54.3711 36.7126 54.1641 36.0795 53.7097 35.6399L53.5706 35.7836C53.9776 36.1774 54.1628 36.744 54.067 37.3001L54.2641 37.3341ZM53.8137 39.935L54.264 37.3342L54.067 37.3L53.6166 39.9008L53.8137 39.935ZM56.0357 38.5959L53.6689 39.8292L53.7614 40.0066L56.1281 38.7732L56.0357 38.5959ZM43.9339 62.2543H58.7735V62.0543H43.9339V62.2543ZM41.8677 58.5684L43.846 62.2021L44.0217 62.1065L42.0433 58.4728L41.8677 58.5684ZM55.1107 55.9455L41.937 58.4223L41.974 58.6188L55.1477 56.142L55.1107 55.9455ZM58.8594 62.1031L55.2151 55.9925L55.0433 56.095L58.6876 62.2055L58.8594 62.1031ZM62.054 45.543C62.054 47.0143 60.8567 48.2115 59.3854 48.2115V48.4115C60.9672 48.4115 62.254 47.1247 62.254 45.543H62.054ZM62.054 44.8047V45.543H62.254V44.8047H62.054ZM62.0924 44.8432C62.0708 44.8432 62.054 44.8258 62.054 44.8047H62.254C62.254 44.7163 62.1823 44.6432 62.0924 44.6432V44.8432ZM2.90774 44.8432H62.0924V44.6432H2.90774V44.8432ZM2.94622 44.8047C2.94622 44.8258 2.92935 44.8432 2.90774 44.8432V44.6432C2.81788 44.6432 2.74622 44.7163 2.74622 44.8047H2.94622ZM2.94622 45.543V44.8047H2.74622V45.543H2.94622ZM5.61478 48.2115C4.14345 48.2115 2.94622 47.0143 2.94622 45.543H2.74622C2.74622 47.1247 4.033 48.4115 5.61478 48.4115V48.2115ZM25.4532 48.2115H5.61478V48.4115H25.4532V48.2115ZM29.2307 46.1159C27.6471 46.1159 26.1916 46.9405 25.3684 48.2586L25.5381 48.3645C26.3251 47.1043 27.7169 46.3159 29.2307 46.3159V46.1159ZM42.7769 46.1159H29.2307V46.3159H42.7769V46.1159ZM51.2133 48.2288C49.1411 46.8218 46.3097 46.1159 42.7769 46.1159V46.3159C46.2857 46.3159 49.0731 47.0173 51.1009 48.3943L51.2133 48.2288ZM59.3854 48.2115H51.1571V48.4115H59.3854V48.2115Z" fill="#FB1600"/>
<path d="M25.0526 16H14.9474C14.4243 16 14 16.4474 14 17C14 17.5526 14.4243 18 14.9474 18H25.0526C25.5762 18 26 17.5526 26 17C26 16.4474 25.5762 16 25.0526 16Z" fill="#FD0D06" stroke="#FB1600" stroke-width="0.2"/>
<path d="M25.0526 23H14.9474C14.4243 23 14 23.4474 14 24C14 24.5526 14.4243 25 14.9474 25H25.0526C25.5762 25 26 24.5526 26 24C26 23.4474 25.5762 23 25.0526 23Z" fill="#FD0D06" stroke="#FB1600" stroke-width="0.2"/>
<path d="M25.0526 31H14.9474C14.4243 31 14 31.4474 14 32C14 32.5526 14.4243 33 14.9474 33H25.0526C25.5762 33 26 32.5526 26 32C26 31.4474 25.5762 31 25.0526 31V31Z" fill="#FD0D06" stroke="#FB1600" stroke-width="0.2"/>
<path fill-rule="evenodd" clip-rule="evenodd" d="M49.3425 26.1973L49.3421 26.1979L49.3416 26.1987C49.2 26.4139 49.0538 26.6362 49.015 26.7816C48.9719 26.9439 48.9872 27.2207 49.0021 27.4888V27.4889L49.0021 27.4891C49.0313 28.0129 49.0676 28.6645 48.7277 29.2519C48.3851 29.8444 47.7993 30.1394 47.3282 30.3766L47.3252 30.3781C47.0891 30.4964 46.8454 30.619 46.7319 30.7325C46.6184 30.8459 46.4958 31.0897 46.3776 31.3257L46.3775 31.3259C46.1405 31.7975 45.8455 32.3845 45.2513 32.7282C44.6643 33.0677 44.0122 33.0313 43.4883 33.0021L43.4882 33.0021C43.2205 32.9873 42.9438 32.972 42.7814 33.0155C42.6359 33.0543 42.4132 33.2008 42.1982 33.3426C41.7534 33.6356 41.1993 34 40.4998 34C39.8007 34 39.2466 33.6356 38.8018 33.3426L38.7975 33.3398C38.5834 33.1989 38.3632 33.0541 38.2186 33.0155C38.0586 32.9727 37.7886 32.9872 37.5254 33.0014L37.5113 33.0021C36.9879 33.0318 36.3357 33.0682 35.7482 32.7282C35.1554 32.385 34.8604 31.7992 34.6231 31.3279L34.622 31.3257C34.5037 31.0897 34.3811 30.8455 34.2676 30.7325C34.1542 30.619 33.9106 30.4965 33.6746 30.3778L33.6743 30.3776L33.6742 30.3776C33.2025 30.1406 32.6156 29.8456 32.2718 29.2519C31.9323 28.6644 31.9687 28.0122 31.9979 27.4889L31.9979 27.4888C32.0128 27.2207 32.0281 26.9439 31.9845 26.7816C31.9457 26.6361 31.7992 26.4134 31.6575 26.1984L31.6572 26.198C31.3642 25.7528 31 25.1994 31 24.5C31 23.8006 31.3642 23.2472 31.6572 22.802L31.6575 22.8016C31.7992 22.5866 31.9457 22.3639 31.9845 22.2184C32.0281 22.0561 32.0128 21.7793 31.9979 21.5112L31.9979 21.5111C31.9682 20.9873 31.9323 20.3356 32.2718 19.7481C32.6144 19.1556 33.2002 18.8606 33.6714 18.6234L33.6743 18.6219C33.9104 18.5036 34.1546 18.381 34.2676 18.2675C34.3811 18.1541 34.5037 17.9103 34.622 17.6743C34.859 17.2026 35.1544 16.6156 35.7482 16.2718C36.3353 15.9323 36.9874 15.9682 37.5113 15.9979C37.779 16.0127 38.0557 16.028 38.2186 15.9845C38.3632 15.9459 38.5834 15.8011 38.7975 15.6602L38.8018 15.6574C39.2466 15.3644 39.8007 15 40.4998 15C41.1991 15 41.7526 15.3642 42.1978 15.6572L42.1982 15.6574C42.4132 15.7992 42.6359 15.9457 42.7814 15.9845C42.9438 16.028 43.2205 16.0127 43.4882 15.9979L43.4883 15.9979C44.0122 15.9687 44.6643 15.9323 45.2513 16.2718C45.8455 16.6155 46.1405 17.2025 46.3775 17.6741L46.3776 17.6743L46.3792 17.6776C46.4975 17.9126 46.6194 18.1551 46.7319 18.2675C46.8453 18.381 47.0889 18.5035 47.3249 18.6222L47.3252 18.6224L47.3254 18.6224C47.797 18.8594 48.3839 19.1544 48.7277 19.7481C49.0677 20.3356 49.0313 20.9878 49.0021 21.5111V21.5112C48.9872 21.7793 48.9719 22.0561 49.015 22.2184C49.0538 22.3639 49.2003 22.5866 49.3421 22.8016L49.3432 22.8034C49.6361 23.2484 50 23.8014 50 24.5C50 25.1992 49.6355 25.7526 49.3425 26.1973ZM47.8038 25.1911L47.8064 25.1871L47.8098 25.182C47.9672 24.9426 48.1612 24.6474 48.1612 24.5C48.1612 24.3526 47.966 24.0556 47.8083 23.8157L47.8064 23.8129C47.5943 23.4916 47.3544 23.1267 47.2385 22.6934C47.1197 22.2485 47.144 21.8046 47.1655 21.4129L47.1657 21.4091C47.1806 21.1444 47.2007 20.7814 47.136 20.6694C47.068 20.5513 46.743 20.3878 46.5034 20.2674L46.4992 20.2652C46.1501 20.09 45.7546 19.8913 45.4318 19.568C45.1088 19.2455 44.9101 18.8498 44.735 18.5009L44.7346 18.5003L44.7331 18.4972C44.6126 18.2581 44.4483 17.9321 44.3305 17.8639C44.2185 17.7988 43.855 17.8189 43.5902 17.8337C43.1976 17.8557 42.7527 17.8802 42.3064 17.7614C41.8749 17.646 41.5117 17.4071 41.1909 17.1961L41.1869 17.1935C40.947 17.0355 40.6482 16.8387 40.4998 16.8387C40.3513 16.8387 40.0525 17.0355 39.8126 17.1935L39.8104 17.195C39.4892 17.4063 39.125 17.6458 38.6931 17.7609C38.2468 17.8806 37.802 17.8557 37.4088 17.8337C37.144 17.8189 36.7811 17.7988 36.669 17.8639C36.5514 17.9317 36.3887 18.2545 36.2684 18.4933L36.2649 18.5003L36.2646 18.5009C36.0894 18.8498 35.8907 19.2455 35.5682 19.568C35.2449 19.8913 34.8494 20.09 34.4999 20.2652L34.4929 20.2687C34.2541 20.3891 33.9313 20.5518 33.8635 20.6694C33.7992 20.78 33.8185 21.1355 33.8328 21.3994L33.8333 21.4091C33.8553 21.8023 33.8802 22.2471 33.761 22.6934C33.6451 23.1266 33.4048 23.4915 33.1932 23.8127L33.1931 23.8129L33.1912 23.8157C33.0335 24.0556 32.8383 24.3526 32.8383 24.5C32.8383 24.6484 33.0351 24.9472 33.1931 25.1871C33.4052 25.5089 33.6451 25.8738 33.761 26.3066C33.8802 26.7534 33.8553 27.1982 33.8333 27.5909L33.8328 27.601C33.8184 27.8653 33.7992 28.2205 33.8635 28.3311C33.932 28.4494 34.2604 28.6146 34.4999 28.7348L34.5007 28.7352C34.85 28.9108 35.2452 29.1095 35.5677 29.432C35.8909 29.7552 36.0896 30.1507 36.2649 30.4997L36.267 30.504C36.3875 30.7435 36.551 31.0685 36.669 31.1366C36.7811 31.2012 37.144 31.1811 37.4088 31.1663L37.4305 31.1651C37.5835 31.1568 37.7447 31.1481 37.9102 31.1481C38.1635 31.1481 38.4283 31.1682 38.6931 31.2391C39.1264 31.3549 39.4913 31.5948 39.8126 31.807L39.8177 31.8103C40.0572 31.9677 40.3524 32.1618 40.4998 32.1618C40.6482 32.1618 40.947 31.965 41.1869 31.807C41.5087 31.5948 41.8736 31.3549 42.3064 31.2391C42.7513 31.1202 43.1952 31.1446 43.5869 31.1661L43.5907 31.1663C43.8555 31.1811 44.2185 31.2012 44.3305 31.1366C44.4486 31.0685 44.612 30.7435 44.7325 30.504L44.7346 30.4997C44.9099 30.1507 45.1086 29.7552 45.4318 29.432C45.7543 29.1095 46.1495 28.9108 46.4988 28.7352L46.4997 28.7348C46.7391 28.6146 47.0676 28.4494 47.136 28.3311C47.2003 28.2205 47.1811 27.8653 47.1668 27.601L47.1662 27.5909C47.1442 27.1982 47.1193 26.7534 47.2385 26.3066C47.3539 25.8751 47.5928 25.5119 47.8038 25.1911Z" fill="#FD0D06"/>
<path d="M49.3421 26.1979L49.4255 26.2531L49.4255 26.2531L49.3421 26.1979ZM49.3425 26.1973L49.4259 26.2524L49.426 26.2523L49.3425 26.1973ZM49.3416 26.1987L49.2582 26.1435L49.258 26.1437L49.3416 26.1987ZM49.015 26.7816L48.9184 26.7559L48.9184 26.756L49.015 26.7816ZM49.0021 27.4888H49.1022L49.1019 27.4833L49.0021 27.4888ZM49.0021 27.4889H48.902L48.9022 27.4939L49.0021 27.4889ZM49.0021 27.4891L48.9022 27.4941L48.9023 27.4947L49.0021 27.4891ZM48.7277 29.2519L48.6412 29.2018L48.6411 29.2019L48.7277 29.2519ZM47.3282 30.3766L47.3731 30.4659L47.3282 30.3766ZM47.3252 30.3781L47.37 30.4675L47.3702 30.4674L47.3252 30.3781ZM46.7319 30.7325L46.8026 30.8032L46.8026 30.8032L46.7319 30.7325ZM46.3776 31.3257L46.2881 31.2809L46.2881 31.281L46.3776 31.3257ZM46.3775 31.3259L46.4668 31.3708L46.4669 31.3706L46.3775 31.3259ZM45.2513 32.7282L45.3014 32.8148L45.3014 32.8148L45.2513 32.7282ZM43.4883 33.0021L43.4939 32.9023L43.4936 32.9023L43.4883 33.0021ZM43.4882 33.0021L43.4827 33.102L43.483 33.102L43.4882 33.0021ZM42.7814 33.0155L42.8072 33.1122L42.8074 33.1121L42.7814 33.0155ZM42.1982 33.3426L42.2532 33.4261L42.2533 33.4261L42.1982 33.3426ZM38.8018 33.3426L38.8568 33.2591L38.8567 33.259L38.8018 33.3426ZM38.7975 33.3398L38.7426 33.4233L38.7426 33.4233L38.7975 33.3398ZM38.2186 33.0155L38.1927 33.1121L38.1928 33.1122L38.2186 33.0155ZM37.5254 33.0014L37.5307 33.1012H37.5307L37.5254 33.0014ZM37.5113 33.0021L37.5059 32.9023L37.5056 32.9023L37.5113 33.0021ZM35.7482 32.7282L35.6981 32.8148L35.6981 32.8148L35.7482 32.7282ZM34.6231 31.3279L34.7124 31.2829L34.7124 31.2829L34.6231 31.3279ZM34.622 31.3257L34.5326 31.3705L34.5327 31.3707L34.622 31.3257ZM34.2676 30.7325L34.1969 30.8032L34.1971 30.8033L34.2676 30.7325ZM33.6746 30.3778L33.7196 30.2885L33.7195 30.2884L33.6746 30.3778ZM33.6743 30.3776L33.7192 30.2883L33.7188 30.2881L33.6743 30.3776ZM33.6742 30.3776L33.6293 30.4669L33.6297 30.4671L33.6742 30.3776ZM32.2718 29.2519L32.1852 29.3019L32.1853 29.302L32.2718 29.2519ZM31.9979 27.4889L32.0978 27.4944L32.0978 27.4944L31.9979 27.4889ZM31.9979 27.4888L32.0978 27.4944L32.0978 27.4944L31.9979 27.4888ZM31.9845 26.7816L31.8879 26.8074L31.8879 26.8076L31.9845 26.7816ZM31.6575 26.1984L31.5739 26.2533L31.574 26.2535L31.6575 26.1984ZM31.6572 26.198L31.7408 26.1431L31.7407 26.1431L31.6572 26.198ZM31.6572 22.802L31.5737 22.747L31.5737 22.747L31.6572 22.802ZM31.6575 22.8016L31.574 22.7465L31.5739 22.7466L31.6575 22.8016ZM31.9845 22.2184L31.8879 22.1924L31.8879 22.1926L31.9845 22.2184ZM31.9979 21.5112L32.0978 21.5056L32.0977 21.5053L31.9979 21.5112ZM31.9979 21.5111L31.8981 21.5168L31.8981 21.517L31.9979 21.5111ZM32.2718 19.7481L32.1852 19.698L32.1852 19.6981L32.2718 19.7481ZM33.6714 18.6234L33.7163 18.7127L33.7163 18.7127L33.6714 18.6234ZM33.6743 18.6219L33.6295 18.5325L33.6294 18.5326L33.6743 18.6219ZM34.2676 18.2675L34.1969 18.1968L34.1968 18.197L34.2676 18.2675ZM34.622 17.6743L34.5326 17.6294L34.5326 17.6295L34.622 17.6743ZM35.7482 16.2718L35.6981 16.1852L35.6981 16.1852L35.7482 16.2718ZM37.5113 15.9979L37.5056 16.0977L37.5058 16.0977L37.5113 15.9979ZM38.2186 15.9845L38.1928 15.8878L38.1927 15.8879L38.2186 15.9845ZM38.7975 15.6602L38.7426 15.5767L38.7426 15.5767L38.7975 15.6602ZM38.8018 15.6574L38.8567 15.741L38.8568 15.7409L38.8018 15.6574ZM42.1978 15.6572L42.1429 15.7407L42.1429 15.7407L42.1978 15.6572ZM42.1982 15.6574L42.2533 15.5739L42.2531 15.5739L42.1982 15.6574ZM42.7814 15.9845L42.8074 15.8879L42.8072 15.8878L42.7814 15.9845ZM43.4882 15.9979L43.4938 16.0977L43.4938 16.0977L43.4882 15.9979ZM43.4883 15.9979L43.4828 15.898L43.4827 15.898L43.4883 15.9979ZM45.2513 16.2718L45.3014 16.1852L45.3014 16.1852L45.2513 16.2718ZM46.3775 17.6741L46.2881 17.719L46.2882 17.7192L46.3775 17.6741ZM46.3776 17.6743L46.4669 17.6293L46.4668 17.6291L46.3776 17.6743ZM46.3792 17.6776L46.2899 17.7225L46.2899 17.7225L46.3792 17.6776ZM46.7319 18.2675L46.6612 18.3383V18.3383L46.7319 18.2675ZM47.3249 18.6222L47.2799 18.7115L47.2803 18.7117L47.3249 18.6222ZM47.3252 18.6224L47.3705 18.5332L47.3697 18.5328L47.3252 18.6224ZM47.3254 18.6224L47.2801 18.7116L47.2805 18.7118L47.3254 18.6224ZM48.7277 19.7481L48.8143 19.698L48.8143 19.698L48.7277 19.7481ZM49.0021 21.5111L48.9021 21.5056V21.5111H49.0021ZM49.0021 21.5112L49.1021 21.5167V21.5112H49.0021ZM49.015 22.2184L48.9184 22.244L48.9184 22.2441L49.015 22.2184ZM49.3421 22.8016L49.4256 22.7467L49.4256 22.7465L49.3421 22.8016ZM49.3432 22.8034L49.2597 22.8583L49.2597 22.8583L49.3432 22.8034ZM47.8064 25.1871L47.89 25.2421L47.89 25.2421L47.8064 25.1871ZM47.8038 25.1911L47.7203 25.1361L47.7203 25.1361L47.8038 25.1911ZM47.8098 25.182L47.8933 25.237L47.8933 25.237L47.8098 25.182ZM47.8083 23.8157L47.7247 23.8706L47.7247 23.8706L47.8083 23.8157ZM47.8064 23.8129L47.89 23.758L47.8899 23.7578L47.8064 23.8129ZM47.2385 22.6934L47.1419 22.7192L47.1419 22.7192L47.2385 22.6934ZM47.1655 21.4129L47.2654 21.4184L47.2654 21.4184L47.1655 21.4129ZM47.1657 21.4091L47.0659 21.4036L47.0659 21.4037L47.1657 21.4091ZM47.136 20.6694L47.0494 20.7193L47.0494 20.7193L47.136 20.6694ZM46.5034 20.2674L46.5484 20.178L46.5484 20.178L46.5034 20.2674ZM46.4992 20.2652L46.5441 20.1759L46.544 20.1759L46.4992 20.2652ZM45.4318 19.568L45.5026 19.4974L45.5025 19.4973L45.4318 19.568ZM44.735 18.5009L44.8243 18.456L44.8243 18.456L44.735 18.5009ZM44.7346 18.5003L44.824 18.4553L44.8239 18.4552L44.7346 18.5003ZM44.7331 18.4972L44.6438 18.5422L44.6438 18.5422L44.7331 18.4972ZM44.3305 17.8639L44.2803 17.9503L44.2804 17.9504L44.3305 17.8639ZM43.5902 17.8337L43.5846 17.7339L43.5846 17.7339L43.5902 17.8337ZM42.3064 17.7614L42.2806 17.858L42.2807 17.8581L42.3064 17.7614ZM41.1909 17.1961L41.2458 17.1126L41.2458 17.1126L41.1909 17.1961ZM41.1869 17.1935L41.1319 17.277L41.132 17.2771L41.1869 17.1935ZM39.8126 17.1935L39.8676 17.2771L39.8676 17.277L39.8126 17.1935ZM39.8104 17.195L39.8654 17.2785L39.8654 17.2785L39.8104 17.195ZM38.6931 17.7609L38.6673 17.6643L38.6672 17.6644L38.6931 17.7609ZM37.4088 17.8337L37.4032 17.9336L37.4032 17.9336L37.4088 17.8337ZM36.669 17.8639L36.719 17.9505L36.7193 17.9503L36.669 17.8639ZM36.2684 18.4933L36.1791 18.4483L36.2684 18.4933ZM36.2649 18.5003L36.1756 18.4552L36.1755 18.4554L36.2649 18.5003ZM36.2646 18.5009L36.3539 18.5457L36.3539 18.5457L36.2646 18.5009ZM35.5682 19.568L35.4974 19.4973L35.5682 19.568ZM34.4999 20.2652L34.455 20.1758L34.4549 20.1759L34.4999 20.2652ZM34.4929 20.2687L34.4479 20.1794L34.4479 20.1794L34.4929 20.2687ZM33.8635 20.6694L33.9499 20.7196L33.9501 20.7193L33.8635 20.6694ZM33.8328 21.3994L33.9326 21.3939V21.3939L33.8328 21.3994ZM33.8333 21.4091L33.7335 21.4146L33.7335 21.4147L33.8333 21.4091ZM33.761 22.6934L33.8576 22.7192L33.8576 22.7192L33.761 22.6934ZM33.1932 23.8127L33.2765 23.868L33.2767 23.8677L33.1932 23.8127ZM33.1931 23.8129L33.1098 23.7576L33.1095 23.758L33.1931 23.8129ZM33.1912 23.8157L33.2748 23.8706L33.2748 23.8706L33.1912 23.8157ZM33.1931 25.1871L33.1096 25.2421L33.1096 25.2422L33.1931 25.1871ZM33.761 26.3066L33.8576 26.2808L33.8576 26.2808L33.761 26.3066ZM33.8333 27.5909L33.7335 27.5853L33.7335 27.5854L33.8333 27.5909ZM33.8328 27.601L33.9326 27.6065V27.6064L33.8328 27.601ZM33.8635 28.3311L33.95 28.281L33.9499 28.2809L33.8635 28.3311ZM34.4999 28.7348L34.5448 28.6454L34.5447 28.6454L34.4999 28.7348ZM34.5007 28.7352L34.4557 28.8245L34.4558 28.8245L34.5007 28.7352ZM35.5677 29.432L35.6384 29.3612L35.5677 29.432ZM36.2649 30.4997L36.1755 30.5446L36.1755 30.5447L36.2649 30.4997ZM36.267 30.504L36.3564 30.4591L36.3564 30.4591L36.267 30.504ZM36.669 31.1366L36.719 31.05L36.719 31.05L36.669 31.1366ZM37.4088 31.1663L37.4034 31.0664L37.4032 31.0664L37.4088 31.1663ZM37.4305 31.1651L37.4359 31.265H37.4359L37.4305 31.1651ZM38.6931 31.2391L38.6672 31.3357L38.6673 31.3357L38.6931 31.2391ZM39.8126 31.807L39.7575 31.8904L39.7577 31.8905L39.8126 31.807ZM39.8177 31.8103L39.7628 31.8938L39.7628 31.8939L39.8177 31.8103ZM41.1869 31.807L41.2419 31.8905L41.2419 31.8904L41.1869 31.807ZM42.3064 31.2391L42.2806 31.1425L42.2806 31.1425L42.3064 31.2391ZM43.5869 31.1661L43.5814 31.2659L43.5815 31.2659L43.5869 31.1661ZM43.5907 31.1663L43.5963 31.0664L43.5961 31.0664L43.5907 31.1663ZM44.3305 31.1366L44.2806 31.05L44.2805 31.05L44.3305 31.1366ZM44.7325 30.504L44.6432 30.4591L44.6432 30.4591L44.7325 30.504ZM44.7346 30.4997L44.824 30.5447L44.824 30.5446L44.7346 30.4997ZM45.4318 29.432L45.3611 29.3612V29.3612L45.4318 29.432ZM46.4988 28.7352L46.5438 28.8245L46.5438 28.8245L46.4988 28.7352ZM46.4997 28.7348L46.4548 28.6454L46.4547 28.6455L46.4997 28.7348ZM47.136 28.3311L47.0496 28.2809L47.0495 28.281L47.136 28.3311ZM47.1668 27.601L47.0669 27.6064L47.1668 27.601ZM47.1662 27.5909L47.2661 27.5854L47.2661 27.5853L47.1662 27.5909ZM47.2385 26.3066L47.1419 26.2808L47.1419 26.2808L47.2385 26.3066ZM49.4255 26.2531L49.4259 26.2524L49.2591 26.1422L49.2586 26.1428L49.4255 26.2531ZM49.425 26.2538L49.4255 26.2531L49.2587 26.1428L49.2582 26.1435L49.425 26.2538ZM49.1116 26.8074C49.1273 26.7488 49.1673 26.6668 49.226 26.567C49.2835 26.4689 49.354 26.3618 49.4251 26.2536L49.258 26.1437C49.1876 26.2508 49.1141 26.3624 49.0535 26.4657C48.9939 26.5672 48.9415 26.6691 48.9184 26.7559L49.1116 26.8074ZM49.1019 27.4833C49.0945 27.3486 49.0871 27.2152 49.0868 27.0953C49.0865 26.9738 49.0937 26.8751 49.1117 26.8073L48.9184 26.756C48.8933 26.8505 48.8865 26.9713 48.8868 27.0958C48.8871 27.2219 48.8949 27.3609 48.9022 27.4944L49.1019 27.4833ZM49.1021 27.4889V27.4888H48.9021V27.4889H49.1021ZM49.102 27.4841L49.102 27.4839L48.9022 27.4939L48.9022 27.4941L49.102 27.4841ZM48.8143 29.302C49.1713 28.6851 49.131 28.0036 49.1019 27.4835L48.9023 27.4947C48.9317 28.0222 48.964 28.6439 48.6412 29.2018L48.8143 29.302ZM47.3731 30.4659C47.841 30.2303 48.4547 29.9239 48.8143 29.302L48.6411 29.2019C48.3156 29.7649 47.7576 30.0484 47.2832 30.2873L47.3731 30.4659ZM47.3702 30.4674L47.3731 30.4659L47.2832 30.2873L47.2802 30.2888L47.3702 30.4674ZM46.8026 30.8032C46.8493 30.7565 46.9286 30.7029 47.0321 30.644C47.134 30.5859 47.2514 30.5269 47.37 30.4675L47.2804 30.2887C47.1629 30.3476 47.0404 30.409 46.9331 30.4702C46.8273 30.5305 46.728 30.5949 46.6612 30.6617L46.8026 30.8032ZM46.467 31.3705C46.5264 31.252 46.5854 31.1345 46.6434 31.0326C46.7024 30.9292 46.7559 30.8498 46.8026 30.8032L46.6612 30.6617C46.5944 30.7286 46.5299 30.8279 46.4696 30.9336C46.4085 31.041 46.347 31.1634 46.2881 31.2809L46.467 31.3705ZM46.4669 31.3706L46.467 31.3705L46.2881 31.281L46.288 31.2812L46.4669 31.3706ZM45.3014 32.8148C45.925 32.454 46.2314 31.8392 46.4668 31.3708L46.2881 31.281C46.0495 31.7559 45.7659 32.315 45.2012 32.6417L45.3014 32.8148ZM43.4828 33.102C44.0028 33.131 44.6849 33.1713 45.3014 32.8148L45.2013 32.6417C44.6437 32.9641 44.0215 32.9317 43.4939 32.9023L43.4828 33.102ZM43.483 33.102L43.4831 33.102L43.4936 32.9023L43.4935 32.9023L43.483 33.102ZM42.8074 33.1121C42.8751 33.0939 42.9737 33.0867 43.0951 33.0869C43.2149 33.0871 43.3482 33.0945 43.4827 33.102L43.4938 32.9023C43.3606 32.8949 43.2216 32.8872 43.0955 32.8869C42.971 32.8867 42.8502 32.8935 42.7555 32.9189L42.8074 33.1121ZM42.2533 33.4261C42.3612 33.3549 42.4684 33.2843 42.5665 33.2267C42.6664 33.1679 42.7485 33.1278 42.8072 33.1122L42.7557 32.9189C42.6688 32.942 42.5668 32.9945 42.4652 33.0542C42.3618 33.115 42.2502 33.1885 42.1432 33.2591L42.2533 33.4261ZM40.4998 34.1C41.2334 34.1 41.8112 33.7173 42.2532 33.4261L42.1432 33.2591C41.6956 33.5539 41.1653 33.9 40.4998 33.9V34.1ZM38.7468 33.4261C39.1888 33.7173 39.7666 34.1 40.4998 34.1V33.9C39.8347 33.9 39.3044 33.5539 38.8568 33.2591L38.7468 33.4261ZM38.7426 33.4233L38.7469 33.4261L38.8567 33.259L38.8524 33.2562L38.7426 33.4233ZM38.1928 33.1122C38.251 33.1277 38.3323 33.1674 38.4313 33.2255C38.5286 33.2826 38.635 33.3525 38.7426 33.4233L38.8525 33.2562C38.7459 33.1861 38.6351 33.1132 38.5326 33.053C38.4318 32.9939 38.3307 32.9419 38.2443 32.9189L38.1928 33.1122ZM37.5307 33.1012C37.663 33.0941 37.7935 33.0871 37.9107 33.0871C38.0295 33.087 38.126 33.0943 38.1927 33.1121L38.2444 32.9189C38.1511 32.894 38.0327 32.887 37.9107 32.8871C37.7871 32.8871 37.651 32.8945 37.52 32.9015L37.5307 33.1012ZM37.5167 33.102L37.5307 33.1012L37.52 32.9015L37.5059 32.9023L37.5167 33.102ZM35.6981 32.8148C36.3152 33.1718 36.9972 33.1314 37.517 33.102L37.5056 32.9023C36.9786 32.9322 36.3563 32.9646 35.7983 32.6417L35.6981 32.8148ZM34.5337 31.3729C34.7694 31.8409 35.0759 32.4545 35.6981 32.8148L35.7983 32.6417C35.2349 32.3154 34.9513 31.7574 34.7124 31.2829L34.5337 31.3729ZM34.5327 31.3707L34.5338 31.3729L34.7124 31.2829L34.7113 31.2807L34.5327 31.3707ZM34.1971 30.8033C34.2436 30.8497 34.2971 30.9289 34.3561 31.0324C34.4142 31.1344 34.4732 31.252 34.5326 31.3705L34.7114 31.2809C34.6525 31.1634 34.5911 31.0409 34.5299 30.9335C34.4696 30.8277 34.4051 30.7283 34.3382 30.6616L34.1971 30.8033ZM33.6297 30.4671C33.7482 30.5268 33.8657 30.5859 33.9675 30.644C34.071 30.703 34.1503 30.7565 34.1969 30.8032L34.3383 30.6617C34.2716 30.595 34.1723 30.5305 34.0666 30.4702C33.9593 30.409 33.837 30.3475 33.7196 30.2885L33.6297 30.4671ZM33.6294 30.467L33.6297 30.4671L33.7195 30.2884L33.7192 30.2883L33.6294 30.467ZM33.6297 30.4671L33.6299 30.4672L33.7188 30.2881L33.7186 30.288L33.6297 30.4671ZM32.1853 29.302C32.5461 29.9251 33.1609 30.2315 33.6293 30.4669L33.7191 30.2882C33.2442 30.0496 32.6851 29.766 32.3583 29.2018L32.1853 29.302ZM31.8981 27.4833C31.8691 28.0029 31.8287 28.685 32.1852 29.3019L32.3584 29.2019C32.0359 28.6438 32.0683 28.0215 32.0978 27.4944L31.8981 27.4833ZM31.8981 27.4833L31.8981 27.4833L32.0978 27.4944L32.0978 27.4944L31.8981 27.4833ZM31.8879 26.8076C31.9061 26.8752 31.9133 26.9739 31.9131 27.0954C31.9129 27.2152 31.9055 27.3486 31.8981 27.4833L32.0978 27.4944C32.1051 27.3609 32.1129 27.2219 32.1131 27.0957C32.1134 26.9712 32.1065 26.8503 32.0811 26.7557L31.8879 26.8076ZM31.574 26.2535C31.6452 26.3614 31.7157 26.4686 31.7734 26.5667C31.8321 26.6666 31.8722 26.7487 31.8879 26.8074L32.0811 26.7559C32.058 26.669 32.0055 26.5669 31.9458 26.4654C31.8851 26.362 31.8115 26.2504 31.7409 26.1434L31.574 26.2535ZM31.5736 26.2529L31.5739 26.2533L31.741 26.1435L31.7408 26.1431L31.5736 26.2529ZM30.9 24.5C30.9 25.2334 31.2825 25.8106 31.5737 26.253L31.7407 26.1431C31.4459 25.695 31.1 25.1653 31.1 24.5H30.9ZM31.5737 22.747C31.2825 23.1894 30.9 23.7666 30.9 24.5H31.1C31.1 23.8347 31.4459 23.305 31.7407 22.8569L31.5737 22.747ZM31.5739 22.7466L31.5737 22.747L31.7407 22.857L31.741 22.8566L31.5739 22.7466ZM31.8879 22.1926C31.8722 22.2513 31.8321 22.3334 31.7734 22.4333C31.7157 22.5314 31.6452 22.6386 31.574 22.7465L31.7409 22.8566C31.8115 22.7496 31.8851 22.638 31.9458 22.5346C32.0055 22.4331 32.058 22.331 32.0811 22.2441L31.8879 22.1926ZM31.8981 21.5167C31.9055 21.6514 31.9129 21.7848 31.9131 21.9046C31.9133 22.0261 31.9061 22.1248 31.8879 22.1924L32.0811 22.2443C32.1065 22.1497 32.1134 22.0288 32.1131 21.9043C32.1129 21.7781 32.1051 21.6391 32.0978 21.5056L31.8981 21.5167ZM31.8981 21.517L31.8981 21.517L32.0977 21.5053L32.0977 21.5053L31.8981 21.517ZM32.1852 19.6981C31.8287 20.315 31.8686 20.9965 31.8981 21.5168L32.0977 21.5055C32.0679 20.9781 32.0359 20.3562 32.3584 19.7981L32.1852 19.6981ZM33.6264 18.5341C33.1585 18.7697 32.5449 19.0761 32.1852 19.698L32.3584 19.7981C32.684 19.2351 33.2419 18.9516 33.7163 18.7127L33.6264 18.5341ZM33.6294 18.5326L33.6264 18.5341L33.7163 18.7127L33.7193 18.7112L33.6294 18.5326ZM34.1968 18.197C34.1504 18.2435 34.0712 18.297 33.9676 18.356C33.8657 18.4141 33.7481 18.4731 33.6295 18.5325L33.7191 18.7113C33.8366 18.6524 33.9592 18.591 34.0666 18.5298C34.1724 18.4696 34.2718 18.405 34.3385 18.3381L34.1968 18.197ZM34.5326 17.6295C34.4732 17.748 34.4142 17.8655 34.3561 17.9674C34.2971 18.0708 34.2436 18.1502 34.1969 18.1968L34.3383 18.3383C34.4051 18.2714 34.4696 18.1721 34.5299 18.0664C34.5911 17.959 34.6525 17.8366 34.7114 17.7191L34.5326 17.6295ZM35.6981 16.1852C35.0749 16.5461 34.768 17.1609 34.5326 17.6294L34.7113 17.7192C34.9499 17.2443 35.234 16.6851 35.7983 16.3583L35.6981 16.1852ZM37.517 15.898C36.9967 15.8686 36.3147 15.8287 35.6981 16.1852L35.7983 16.3583C36.3559 16.0359 36.9782 16.0678 37.5056 16.0977L37.517 15.898ZM38.1927 15.8879C38.1247 15.9061 38.0259 15.9133 37.9044 15.9131C37.7846 15.9129 37.6513 15.9055 37.5168 15.898L37.5058 16.0977C37.639 16.1051 37.7779 16.1128 37.9041 16.1131C38.0286 16.1133 38.1496 16.1065 38.2444 16.0811L38.1927 15.8879ZM38.7426 15.5767C38.635 15.6475 38.5286 15.7174 38.4314 15.7745C38.3323 15.8326 38.251 15.8723 38.1928 15.8878L38.2443 16.0811C38.3307 16.0581 38.4319 16.0061 38.5326 15.947C38.6351 15.8868 38.7459 15.8139 38.8525 15.7438L38.7426 15.5767ZM38.7468 15.5739L38.7426 15.5767L38.8525 15.7438L38.8567 15.741L38.7468 15.5739ZM40.4998 14.9C39.7666 14.9 39.1888 15.2827 38.7468 15.5739L38.8568 15.7409C39.3044 15.4461 39.8347 15.1 40.4998 15.1V14.9ZM42.2528 15.5736C41.8104 15.2825 41.2332 14.9 40.4998 14.9V15.1C41.1651 15.1 41.6948 15.4458 42.1429 15.7407L42.2528 15.5736ZM42.2531 15.5739L42.2528 15.5736L42.1429 15.7407L42.1433 15.741L42.2531 15.5739ZM42.8072 15.8878C42.7485 15.8722 42.6664 15.8321 42.5665 15.7733C42.4684 15.7157 42.3612 15.6451 42.2533 15.5739L42.1432 15.7409C42.2502 15.8115 42.3618 15.885 42.4652 15.9458C42.5668 16.0055 42.6688 16.058 42.7557 16.0811L42.8072 15.8878ZM43.4827 15.898C43.3482 15.9055 43.2149 15.9129 43.0951 15.9131C42.9737 15.9133 42.8751 15.9061 42.8074 15.8879L42.7555 16.0811C42.8502 16.1065 42.971 16.1133 43.0955 16.1131C43.2216 16.1128 43.3606 16.1051 43.4938 16.0977L43.4827 15.898ZM43.4827 15.898L43.4826 15.898L43.4938 16.0977L43.4939 16.0977L43.4827 15.898ZM45.3014 16.1852C44.6849 15.8287 44.0029 15.869 43.4828 15.898L43.4939 16.0977C44.0215 16.0683 44.6437 16.0359 45.2013 16.3583L45.3014 16.1852ZM46.4668 17.6292C46.2314 17.1608 45.925 16.546 45.3014 16.1852L45.2012 16.3583C45.7659 16.685 46.0495 17.2441 46.2881 17.719L46.4668 17.6292ZM46.4668 17.6291L46.4667 17.6289L46.2882 17.7192L46.2883 17.7194L46.4668 17.6291ZM46.4686 17.6326L46.4669 17.6293L46.2882 17.7192L46.2899 17.7225L46.4686 17.6326ZM46.8026 18.1968C46.7564 18.1507 46.7033 18.072 46.6446 17.969C46.5868 17.8676 46.528 17.7507 46.4686 17.6326L46.2899 17.7225C46.3487 17.8395 46.41 17.9613 46.4708 18.0681C46.5308 18.1732 46.5949 18.2719 46.6612 18.3383L46.8026 18.1968ZM47.3698 18.5329C47.2513 18.4732 47.1339 18.4141 47.032 18.356C46.9285 18.297 46.8493 18.2435 46.8026 18.1968L46.6612 18.3383C46.728 18.405 46.8272 18.4695 46.9329 18.5298C47.0402 18.591 47.1625 18.6525 47.2799 18.7115L47.3698 18.5329ZM47.3697 18.5328L47.3694 18.5327L47.2803 18.7117L47.2806 18.7119L47.3697 18.5328ZM47.3707 18.5333L47.3705 18.5332L47.2799 18.7115L47.2801 18.7116L47.3707 18.5333ZM48.8143 19.698C48.4534 19.0749 47.8387 18.7685 47.3703 18.5331L47.2805 18.7118C47.7553 18.9504 48.3145 19.234 48.6412 19.7982L48.8143 19.698ZM49.1019 21.5167C49.1309 20.9971 49.1713 20.315 48.8143 19.698L48.6412 19.7982C48.9641 20.3562 48.9317 20.9785 48.9022 21.5056L49.1019 21.5167ZM49.1021 21.5112V21.5111H48.9021V21.5112H49.1021ZM49.1117 22.1927C49.0937 22.1249 49.0865 22.0262 49.0868 21.9047C49.0871 21.7848 49.0945 21.6514 49.1019 21.5167L48.9022 21.5056C48.8949 21.6391 48.8871 21.7781 48.8868 21.9042C48.8865 22.0287 48.8933 22.1495 48.9184 22.244L49.1117 22.1927ZM49.4256 22.7465C49.3544 22.6386 49.2838 22.5314 49.2262 22.4333C49.1674 22.3334 49.1273 22.2513 49.1116 22.1926L48.9184 22.2441C48.9415 22.331 48.994 22.4331 49.0537 22.5346C49.1145 22.638 49.188 22.7496 49.2586 22.8566L49.4256 22.7465ZM49.4268 22.7484L49.4256 22.7467L49.2585 22.8565L49.2597 22.8583L49.4268 22.7484ZM50.1 24.5C50.1 23.7673 49.7178 23.1905 49.4268 22.7484L49.2597 22.8583C49.5544 23.3062 49.9 23.8354 49.9 24.5H50.1ZM49.426 26.2523C49.7171 25.8104 50.1 25.2333 50.1 24.5H49.9C49.9 25.1652 49.5538 25.6947 49.259 26.1423L49.426 26.2523ZM47.7229 25.1322L47.7203 25.1361L47.8874 25.246L47.89 25.2421L47.7229 25.1322ZM47.7262 25.1271L47.7229 25.1322L47.89 25.2421L47.8933 25.237L47.7262 25.1271ZM48.0612 24.5C48.0612 24.5179 48.0546 24.55 48.0355 24.5982C48.0171 24.6447 47.9902 24.6986 47.9572 24.7577C47.8911 24.8761 47.8054 25.0066 47.7262 25.1271L47.8933 25.237C47.9716 25.118 48.0616 24.9811 48.1319 24.8552C48.167 24.7922 48.1985 24.7297 48.2214 24.6719C48.2436 24.6159 48.2612 24.5558 48.2612 24.5H48.0612ZM47.7247 23.8706C47.804 23.9913 47.8902 24.1224 47.9566 24.2413C47.9898 24.3007 48.0168 24.3549 48.0353 24.4015C48.0546 24.45 48.0612 24.4822 48.0612 24.5H48.2612C48.2612 24.4441 48.2435 24.3839 48.2212 24.3277C48.1982 24.2697 48.1666 24.2071 48.1312 24.1438C48.0606 24.0174 47.9702 23.88 47.8918 23.7608L47.7247 23.8706ZM47.7229 23.8678L47.7247 23.8706L47.8918 23.7608L47.89 23.758L47.7229 23.8678ZM47.1419 22.7192C47.2626 23.1705 47.5119 23.5483 47.723 23.868L47.8899 23.7578C47.6767 23.4349 47.4462 23.0829 47.3351 22.6675L47.1419 22.7192ZM47.0657 21.4074C47.0443 21.7972 47.0183 22.2567 47.1419 22.7192L47.3351 22.6676C47.221 22.2404 47.2438 21.812 47.2654 21.4184L47.0657 21.4074ZM47.0659 21.4037L47.0657 21.4075L47.2654 21.4184L47.2656 21.4146L47.0659 21.4037ZM47.0494 20.7193C47.0552 20.7293 47.0642 20.7564 47.0709 20.8078C47.0771 20.8561 47.0801 20.9158 47.0807 20.9828C47.0819 21.1169 47.0733 21.2705 47.0659 21.4036L47.2656 21.4147C47.273 21.283 47.2819 21.1228 47.2807 20.9811C47.2801 20.9103 47.2769 20.8417 47.2692 20.7822C47.2619 20.7257 47.2492 20.6654 47.2227 20.6194L47.0494 20.7193ZM46.4585 20.3567C46.5789 20.4173 46.7169 20.4867 46.8332 20.5554C46.8913 20.5897 46.9419 20.6226 46.981 20.6528C47.0224 20.6847 47.0425 20.7073 47.0494 20.7193L47.2227 20.6194C47.1955 20.5724 47.1495 20.5302 47.1033 20.4945C47.0549 20.4572 46.9965 20.4195 46.9349 20.3832C46.8117 20.3104 46.6675 20.2379 46.5484 20.178L46.4585 20.3567ZM46.4543 20.3546L46.4585 20.3567L46.5484 20.178L46.5441 20.1759L46.4543 20.3546ZM45.3611 19.6387C45.6969 19.9751 46.107 20.1802 46.4543 20.3546L46.544 20.1759C46.1932 19.9997 45.8122 19.8074 45.5026 19.4974L45.3611 19.6387ZM44.6456 18.5457C44.8199 18.8929 45.025 19.3031 45.3612 19.6388L45.5025 19.4973C45.1926 19.1879 45.0004 18.8067 44.8243 18.456L44.6456 18.5457ZM44.6453 18.5452L44.6456 18.5458L44.8243 18.456L44.824 18.4553L44.6453 18.5452ZM44.6438 18.5422L44.6453 18.5453L44.8239 18.4552L44.8224 18.4522L44.6438 18.5422ZM44.2804 17.9504C44.2923 17.9573 44.315 17.9776 44.347 18.0191C44.3773 18.0584 44.4103 18.1091 44.4447 18.1673C44.5135 18.2838 44.5832 18.422 44.6438 18.5422L44.8224 18.4522C44.7625 18.3333 44.6897 18.1889 44.6169 18.0656C44.5804 18.0039 44.5427 17.9454 44.5053 17.8969C44.4696 17.8506 44.4275 17.8045 44.3806 17.7773L44.2804 17.9504ZM43.5958 17.9336C43.7289 17.9261 43.8826 17.9176 44.0167 17.9188C44.0838 17.9194 44.1435 17.9225 44.1919 17.9288C44.2432 17.9355 44.2703 17.9446 44.2803 17.9503L44.3807 17.7774C44.3347 17.7507 44.2743 17.7378 44.2177 17.7305C44.1581 17.7227 44.0895 17.7195 44.0185 17.7188C43.8767 17.7175 43.7163 17.7265 43.5846 17.7339L43.5958 17.9336ZM42.2807 17.8581C42.7446 17.9815 43.205 17.9555 43.5958 17.9336L43.5846 17.7339C43.1902 17.756 42.7608 17.7788 42.3321 17.6648L42.2807 17.8581ZM41.1359 17.2797C41.455 17.4895 41.8311 17.7378 42.2806 17.858L42.3323 17.6648C41.9186 17.5542 41.5684 17.3247 41.2458 17.1126L41.1359 17.2797ZM41.132 17.2771L41.1359 17.2797L41.2458 17.1126L41.2418 17.11L41.132 17.2771ZM40.4998 16.9387C40.5178 16.9387 40.5503 16.9455 40.5991 16.9649C40.646 16.9835 40.7005 17.0107 40.7602 17.0441C40.8797 17.111 41.0112 17.1976 41.1319 17.277L41.2419 17.11C41.1227 17.0315 40.9849 16.9406 40.8579 16.8696C40.7943 16.834 40.7313 16.8022 40.6729 16.779C40.6165 16.7566 40.5559 16.7387 40.4998 16.7387V16.9387ZM39.8676 17.277C39.9883 17.1976 40.1198 17.111 40.2393 17.0441C40.299 17.0107 40.3535 16.9835 40.4004 16.9649C40.4492 16.9455 40.4817 16.9387 40.4998 16.9387V16.7387C40.4436 16.7387 40.383 16.7566 40.3266 16.779C40.2682 16.8022 40.2052 16.834 40.1417 16.8696C40.0147 16.9406 39.8768 17.0315 39.7576 17.11L39.8676 17.277ZM39.8654 17.2785L39.8676 17.2771L39.7577 17.11L39.7555 17.1114L39.8654 17.2785ZM38.7188 17.8576C39.1688 17.7376 39.5459 17.4886 39.8654 17.2785L39.7555 17.1114C39.4325 17.3239 39.0812 17.554 38.6673 17.6643L38.7188 17.8576ZM37.4032 17.9336C37.7944 17.9555 38.2549 17.982 38.719 17.8575L38.6672 17.6644C38.2387 17.7793 37.8095 17.756 37.4144 17.7339L37.4032 17.9336ZM36.7193 17.9503C36.7292 17.9445 36.7563 17.9355 36.8076 17.9288C36.8559 17.9225 36.9156 17.9194 36.9826 17.9188C37.1166 17.9176 37.2701 17.9261 37.4032 17.9336L37.4144 17.7339C37.2827 17.7265 37.1224 17.7175 36.9807 17.7188C36.9099 17.7195 36.8413 17.7227 36.7817 17.7305C36.7252 17.7378 36.6648 17.7507 36.6188 17.7774L36.7193 17.9503ZM36.3577 18.5383C36.4182 18.4182 36.4874 18.281 36.5558 18.1654C36.59 18.1076 36.6227 18.0574 36.6528 18.0184C36.6846 17.9774 36.7071 17.9574 36.719 17.9505L36.6191 17.7773C36.5722 17.8043 36.5302 17.8501 36.4946 17.8961C36.4574 17.9442 36.4199 18.0023 36.3837 18.0635C36.3112 18.186 36.2389 18.3296 36.1791 18.4483L36.3577 18.5383ZM36.3542 18.5453L36.3577 18.5383L36.1791 18.4483L36.1756 18.4552L36.3542 18.5453ZM36.3539 18.5457L36.3543 18.5451L36.1755 18.4554L36.1752 18.456L36.3539 18.5457ZM35.6389 19.6388C35.9745 19.3031 36.1797 18.8928 36.3539 18.5457L36.1752 18.456C35.9991 18.8067 35.8069 19.1879 35.4974 19.4973L35.6389 19.6388ZM34.5447 20.3546C34.8925 20.1802 35.3025 19.9751 35.6389 19.6388L35.4974 19.4973C35.1873 19.8074 34.8063 19.9997 34.455 20.1758L34.5447 20.3546ZM34.5379 20.358L34.5449 20.3545L34.4549 20.1759L34.4479 20.1794L34.5379 20.358ZM33.9501 20.7193C33.957 20.7074 33.977 20.6849 34.018 20.6532C34.057 20.6231 34.1072 20.5903 34.165 20.5561C34.2806 20.4878 34.4178 20.4185 34.5379 20.358L34.4479 20.1794C34.3292 20.2393 34.1856 20.3116 34.0632 20.384C34.0019 20.4202 33.9438 20.4577 33.8957 20.495C33.8497 20.5306 33.8039 20.5725 33.7768 20.6194L33.9501 20.7193ZM33.9326 21.3939C33.9254 21.2613 33.9172 21.1098 33.9186 20.978C33.9193 20.912 33.9224 20.8535 33.9287 20.8061C33.9353 20.7558 33.9443 20.7294 33.9499 20.7196L33.777 20.6191C33.7505 20.6647 33.7378 20.7242 33.7304 20.7799C33.7226 20.8385 33.7194 20.9061 33.7186 20.9759C33.7172 21.1154 33.7258 21.2736 33.7329 21.4048L33.9326 21.3939ZM33.9332 21.4037L33.9326 21.3939L33.7329 21.4048L33.7335 21.4146L33.9332 21.4037ZM33.8576 22.7192C33.9816 22.2552 33.9551 21.7947 33.9332 21.4036L33.7335 21.4147C33.7556 21.8098 33.7789 22.239 33.6644 22.6676L33.8576 22.7192ZM33.2767 23.8677C33.4872 23.5482 33.7369 23.1705 33.8576 22.7192L33.6644 22.6675C33.5534 23.0828 33.3225 23.4347 33.1097 23.7577L33.2767 23.8677ZM33.2764 23.8682L33.2765 23.868L33.1099 23.7574L33.1098 23.7576L33.2764 23.8682ZM33.2748 23.8706L33.2767 23.8678L33.1095 23.758L33.1077 23.7608L33.2748 23.8706ZM32.9383 24.5C32.9383 24.4822 32.9449 24.45 32.9642 24.4015C32.9827 24.3549 33.0097 24.3007 33.0429 24.2413C33.1094 24.1224 33.1955 23.9913 33.2748 23.8706L33.1077 23.7608C33.0293 23.88 32.9389 24.0174 32.8683 24.1438C32.833 24.2071 32.8013 24.2697 32.7783 24.3277C32.756 24.3839 32.7383 24.4441 32.7383 24.5H32.9383ZM33.2766 25.1321C33.1971 25.0114 33.1106 24.8799 33.0437 24.7604C33.0103 24.7008 32.9831 24.6463 32.9644 24.5993C32.945 24.5505 32.9383 24.5181 32.9383 24.5H32.7383C32.7383 24.5561 32.7561 24.6167 32.7786 24.6732C32.8017 24.7315 32.8336 24.7945 32.8692 24.8581C32.9402 24.9851 33.0311 25.1229 33.1096 25.2421L33.2766 25.1321ZM33.8576 26.2808C33.7369 25.8299 33.4876 25.4522 33.2766 25.1321L33.1096 25.2422C33.3228 25.5656 33.5533 25.9176 33.6644 26.3325L33.8576 26.2808ZM33.9332 27.5965C33.9551 27.2057 33.9816 26.7453 33.8576 26.2808L33.6644 26.3324C33.7789 26.7615 33.7556 27.1907 33.7335 27.5853L33.9332 27.5965ZM33.9326 27.6064L33.9332 27.5963L33.7335 27.5854L33.7329 27.5956L33.9326 27.6064ZM33.9499 28.2809C33.9443 28.2711 33.9353 28.2447 33.9287 28.1944C33.9224 28.1471 33.9193 28.0886 33.9186 28.0227C33.9172 27.8908 33.9254 27.7393 33.9326 27.6065L33.7329 27.5956C33.7258 27.727 33.7172 27.8853 33.7186 28.0248C33.7194 28.0945 33.7226 28.162 33.7304 28.2207C33.7378 28.2763 33.7505 28.3358 33.777 28.3814L33.9499 28.2809ZM34.5447 28.6454C34.4244 28.585 34.2855 28.5152 34.1684 28.4461C34.1098 28.4116 34.0587 28.3784 34.0191 28.3479C33.9774 28.3158 33.957 28.293 33.95 28.281L33.7769 28.3812C33.8042 28.4283 33.8506 28.4706 33.8971 28.5064C33.9459 28.544 34.0047 28.5818 34.0668 28.6184C34.1908 28.6915 34.3359 28.7644 34.455 28.8242L34.5447 28.6454ZM34.5456 28.6459L34.5448 28.6454L34.4549 28.8241L34.4557 28.8245L34.5456 28.6459ZM35.6384 29.3612C35.3028 29.0257 34.8931 28.8206 34.5456 28.6458L34.4558 28.8245C34.8069 29.0011 35.1876 29.1933 35.497 29.5027L35.6384 29.3612ZM36.3542 30.4549C36.1799 30.1076 35.9747 29.6976 35.6384 29.3612L35.497 29.5027C35.8071 29.8128 35.9994 30.1938 36.1755 30.5446L36.3542 30.4549ZM36.3564 30.4591L36.3542 30.4548L36.1755 30.5447L36.1777 30.5489L36.3564 30.4591ZM36.719 31.05C36.707 31.0431 36.6844 31.0229 36.6525 30.9816C36.6222 30.9424 36.5893 30.8918 36.555 30.8337C36.4864 30.7175 36.4169 30.5795 36.3564 30.4591L36.1777 30.5489C36.2376 30.668 36.3101 30.8123 36.3828 30.9354C36.4192 30.997 36.4568 31.0554 36.4942 31.1038C36.5299 31.1501 36.572 31.1961 36.6191 31.2232L36.719 31.05ZM37.4032 31.0664C37.2701 31.0739 37.1165 31.0824 36.9825 31.0812C36.9155 31.0807 36.8558 31.0777 36.8075 31.0714C36.7561 31.0648 36.729 31.0558 36.719 31.05L36.619 31.2232C36.6651 31.2498 36.7253 31.2625 36.7818 31.2698C36.8413 31.2775 36.9099 31.2806 36.9808 31.2812C37.1224 31.2825 37.2827 31.2735 37.4144 31.2661L37.4032 31.0664ZM37.4251 31.0653L37.4034 31.0664L37.4142 31.2661L37.4359 31.265L37.4251 31.0653ZM37.9102 31.0481C37.7415 31.0481 37.5777 31.057 37.4251 31.0653L37.4359 31.265C37.5893 31.2567 37.7478 31.2481 37.9102 31.2481V31.0481ZM38.7189 31.1425C38.4428 31.0685 38.1685 31.0481 37.9102 31.0481V31.2481C38.1585 31.2481 38.4138 31.2678 38.6672 31.3357L38.7189 31.1425ZM39.8677 31.7235C39.548 31.5124 39.1703 31.2631 38.7189 31.1425L38.6673 31.3357C39.0826 31.4467 39.4346 31.6772 39.7575 31.8904L39.8677 31.7235ZM39.8727 31.7267L39.8676 31.7234L39.7577 31.8905L39.7628 31.8938L39.8727 31.7267ZM40.4998 32.0618C40.4818 32.0618 40.4498 32.0551 40.4015 32.036C40.3551 32.0176 40.3011 31.9908 40.242 31.9578C40.1236 31.8917 39.9931 31.8059 39.8726 31.7267L39.7628 31.8939C39.8818 31.9721 40.0186 32.0621 40.1445 32.1324C40.2076 32.1676 40.27 32.1991 40.3279 32.222C40.3839 32.2442 40.444 32.2618 40.4998 32.2618V32.0618ZM41.1319 31.7234C41.0112 31.8029 40.8797 31.8895 40.7602 31.9563C40.7005 31.9897 40.646 32.017 40.5991 32.0356C40.5503 32.055 40.5178 32.0618 40.4998 32.0618V32.2618C40.5559 32.2618 40.6165 32.2439 40.6729 32.2215C40.7313 32.1983 40.7943 32.1665 40.8579 32.1309C40.9849 32.0598 41.1227 31.969 41.2419 31.8905L41.1319 31.7234ZM42.2806 31.1425C41.8297 31.2631 41.452 31.5124 41.1319 31.7235L41.2419 31.8904C41.5654 31.6772 41.9174 31.4467 42.3323 31.3357L42.2806 31.1425ZM43.5924 31.0662C43.2026 31.0448 42.7431 31.0189 42.2806 31.1425L42.3322 31.3357C42.7594 31.2215 43.1878 31.2443 43.5814 31.2659L43.5924 31.0662ZM43.5961 31.0664L43.5924 31.0662L43.5815 31.2659L43.5852 31.2661L43.5961 31.0664ZM44.2805 31.05C44.2705 31.0558 44.2434 31.0648 44.192 31.0714C44.1437 31.0777 44.084 31.0807 44.017 31.0812C43.883 31.0824 43.7294 31.0739 43.5963 31.0664L43.5851 31.2661C43.7168 31.2735 43.8771 31.2825 44.0187 31.2812C44.0896 31.2806 44.1582 31.2775 44.2177 31.2698C44.2742 31.2625 44.3345 31.2498 44.3805 31.2232L44.2805 31.05ZM44.6432 30.4591C44.5826 30.5795 44.5131 30.7175 44.4445 30.8337C44.4102 30.8918 44.3773 30.9424 44.347 30.9816C44.3151 31.0229 44.2925 31.0431 44.2806 31.05L44.3805 31.2232C44.4275 31.1961 44.4696 31.1501 44.5053 31.1038C44.5427 31.0554 44.5803 30.997 44.6167 30.9354C44.6894 30.8123 44.7619 30.668 44.8218 30.5489L44.6432 30.4591ZM44.6453 30.4548L44.6432 30.4591L44.8218 30.5489L44.824 30.5447L44.6453 30.4548ZM45.3611 29.3612C45.0248 29.6976 44.8196 30.1076 44.6453 30.4549L44.824 30.5446C45.0002 30.1938 45.1924 29.8128 45.5026 29.5027L45.3611 29.3612ZM46.4539 28.6458C46.1064 28.8206 45.6967 29.0257 45.3611 29.3612L45.5026 29.5027C45.8119 29.1933 46.1926 29.0011 46.5438 28.8245L46.4539 28.6458ZM46.4547 28.6455L46.4539 28.6459L46.5438 28.8245L46.5446 28.8241L46.4547 28.6455ZM47.0495 28.281C47.0425 28.293 47.0222 28.3158 46.9804 28.3479C46.9408 28.3784 46.8897 28.4116 46.8312 28.4461C46.714 28.5152 46.5751 28.585 46.4548 28.6454L46.5445 28.8242C46.6636 28.7644 46.8087 28.6915 46.9327 28.6184C46.9948 28.5818 47.0536 28.544 47.1024 28.5064C47.149 28.4706 47.1953 28.4283 47.2226 28.3812L47.0495 28.281ZM47.0669 27.6064C47.0741 27.7393 47.0823 27.8908 47.0809 28.0226C47.0802 28.0885 47.0771 28.1471 47.0708 28.1944C47.0642 28.2447 47.0552 28.2711 47.0496 28.2809L47.2225 28.3814C47.249 28.3358 47.2617 28.2763 47.2691 28.2207C47.2769 28.162 47.2801 28.0945 47.2809 28.0248C47.2824 27.8853 47.2737 27.727 47.2666 27.5956L47.0669 27.6064ZM47.0664 27.5963L47.0669 27.6064L47.2666 27.5956L47.2661 27.5854L47.0664 27.5963ZM47.1419 26.2808C47.0179 26.7453 47.0444 27.2057 47.0664 27.5965L47.2661 27.5853C47.2439 27.1907 47.2206 26.7615 47.3351 26.3324L47.1419 26.2808ZM47.7203 25.1361C47.5104 25.4552 47.2621 25.8313 47.1419 26.2808L47.3351 26.3325C47.4457 25.9188 47.6752 25.5686 47.8874 25.246L47.7203 25.1361Z" fill="#FB1600"/>
<path d="M39 22C39 22.5521 38.5521 23 38 23C37.4479 23 37 22.5521 37 22C37 21.4479 37.4479 21 38 21C38.5521 21 39 21.4479 39 22Z" fill="#FD0D06" stroke="#FB1600" stroke-width="0.2"/>
<path d="M44 27C44 27.5521 43.5521 28 43 28C42.4474 28 42 27.5521 42 27C42 26.4479 42.4474 26 43 26C43.5521 26 44 26.4479 44 27Z" fill="#FD0D06" stroke="#FB1600" stroke-width="0.2"/>
<path d="M42.5164 21.2542L37.2545 26.5165C36.9152 26.8559 36.9152 27.4062 37.2545 27.7457C37.4242 27.9149 37.6469 28 37.8691 28C38.0912 28 38.3139 27.9149 38.4836 27.7457L43.7455 22.4834C44.0848 22.1435 44.0848 21.5936 43.7455 21.2542C43.4056 20.9153 42.8558 20.9153 42.5164 21.2542Z" fill="#FD0D06" stroke="#FB1600" stroke-width="0.2"/>
</svg>
