<svg width="53" height="47" viewBox="0 0 53 47" fill="none" xmlns="http://www.w3.org/2000/svg">
<path d="M51.4393 15.094C51.096 14.9265 50.688 14.9706 50.3882 15.2076C47.6082 17.4046 44.1293 18.6145 40.5923 18.6145H27.6211C28.8788 16.7427 29.546 14.5366 29.5292 12.2242C29.4848 6.0771 24.4709 1.04203 18.3524 1.0002C18.326 1.0001 18.3004 1 18.274 1C12.5139 1 7.72418 5.34434 7.09046 11.0311L2.34416 13.0327C1.43831 13.4146 0.903902 14.3303 1.01437 15.3112C1.12484 16.292 1.8494 17.0646 2.8173 17.2335L8.53938 18.2327V26.8283C8.53938 30.341 9.49375 33.7768 11.2992 36.7645C11.5847 37.237 12.1974 37.3874 12.6676 37.1006C13.1379 36.8137 13.2876 36.1982 13.0021 35.7257C11.3859 33.0512 10.5317 29.9746 10.5317 26.8283V17.7072C10.5317 17.5218 10.4804 17.3401 10.3836 17.1822C10.3105 17.0632 10.2491 16.959 10.1958 16.8638C10.0491 16.6019 9.79307 16.4201 9.49833 16.3685L3.15827 15.2617C3.11793 15.2547 3.01065 15.2359 2.99381 15.0863C2.97698 14.9367 3.07739 14.8944 3.11514 14.8785L8.41756 12.6424C8.76879 12.4942 9.00516 12.1579 9.02658 11.7759C9.30309 6.84359 13.359 3.00174 18.2742 3.00174C18.2956 3.00174 18.3174 3.00174 18.3388 3.00194C23.3741 3.03637 27.5004 7.18015 27.537 12.239C27.5553 14.7604 26.5857 17.1281 24.8067 18.9061C24.5208 19.1919 24.4346 19.6227 24.5885 19.9973C24.7423 20.3719 25.1059 20.6163 25.5093 20.6163H40.5922C43.9163 20.6163 47.1946 19.6671 50.0078 17.9144V26.8284C50.0078 36.296 42.3413 43.9985 32.9179 43.9985H27.6212C24.5824 43.9985 21.5987 43.1873 18.9926 41.6527C18.518 41.3732 17.9078 41.5332 17.6296 42.01C17.3515 42.4869 17.5106 43.1 17.9853 43.3795C20.8966 45.0938 24.2286 46 27.6212 46H32.9179C43.4397 46 52 37.3996 52 26.8284V15.9942C52.0002 15.611 51.7824 15.2615 51.4393 15.094Z" fill="#FD0D06" stroke="#FD0D06" stroke-width="0.3"/>
<path fill-rule="evenodd" clip-rule="evenodd" d="M44 25.9732C44 33.1562 37.7969 39 30.1721 39V38.9999H27.4304C23.3333 38.9999 20 35.8597 20 32C20 28.1402 23.3332 25 27.4304 25H42.9669C43.5375 25 44 25.4357 44 25.9732ZM27.4303 26.9465C24.4724 26.9465 22.0661 29.2134 22.0661 32C22.0661 34.7865 24.4724 37.0535 27.4302 37.0536H30.172C34.0947 37.0536 37.5749 35.2352 39.7128 32.4462C38.7318 32.7906 37.6849 32.9733 36.621 32.9733H32.9626C32.392 32.9733 31.9295 32.5376 31.9295 32C31.9295 31.4625 32.392 31.0268 32.9626 31.0268H36.621C38.4306 31.0268 40.1752 30.3374 41.4465 29.131C41.6684 28.4291 41.8191 27.6986 41.8888 26.9465H27.4303Z" fill="#FD0D06"/>
<path d="M30.1721 39H30.0221V39.15H30.1721V39ZM30.1721 38.9999H30.3221V38.8499H30.1721V38.9999ZM27.4302 37.0536L27.4302 37.2036H27.4302V37.0536ZM39.7128 32.4462L39.8319 32.5374L40.1382 32.1379L39.6631 32.3046L39.7128 32.4462ZM41.4465 29.131L41.5498 29.2398L41.5779 29.2131L41.5896 29.1762L41.4465 29.131ZM41.8888 26.9465L42.0382 26.9603L42.0533 26.7965H41.8888V26.9465ZM30.1721 39.15C37.8712 39.15 44.15 33.2474 44.15 25.9732H43.85C43.85 33.0651 37.7226 38.85 30.1721 38.85V39.15ZM30.0221 38.9999V39H30.3221V38.9999H30.0221ZM27.4304 39.1499H30.1721V38.8499H27.4304V39.1499ZM19.85 32C19.85 35.9508 23.2591 39.1499 27.4304 39.1499V38.8499C23.4076 38.8499 20.15 35.7685 20.15 32H19.85ZM27.4304 24.85C23.2589 24.85 19.85 28.0491 19.85 32H20.15C20.15 28.2314 23.4075 25.15 27.4304 25.15V24.85ZM42.9669 24.85H27.4304V25.15H42.9669V24.85ZM44.15 25.9732C44.15 25.3446 43.6118 24.85 42.9669 24.85V25.15C43.4632 25.15 43.85 25.5269 43.85 25.9732H44.15ZM22.2161 32C22.2161 29.3046 24.5467 27.0965 27.4303 27.0965V26.7965C24.3981 26.7965 21.9161 29.1223 21.9161 32H22.2161ZM27.4302 36.9036C24.5467 36.9035 22.2161 34.6954 22.2161 32H21.9161C21.9161 34.8776 24.3981 37.2035 27.4302 37.2036L27.4302 36.9036ZM30.172 36.9036H27.4302V37.2036H30.172V36.9036ZM39.5938 32.3549C37.4842 35.1069 34.0481 36.9036 30.172 36.9036V37.2036C34.1414 37.2036 37.6655 35.3634 39.8319 32.5374L39.5938 32.3549ZM36.621 33.1233C37.702 33.1233 38.7657 32.9377 39.7625 32.5877L39.6631 32.3046C38.6979 32.6435 37.6678 32.8233 36.621 32.8233V33.1233ZM32.9626 33.1233H36.621V32.8233H32.9626V33.1233ZM31.7795 32C31.7795 32.6287 32.3177 33.1233 32.9626 33.1233V32.8233C32.4663 32.8233 32.0795 32.4464 32.0795 32H31.7795ZM32.9626 30.8768C32.3177 30.8768 31.7795 31.3714 31.7795 32H32.0795C32.0795 31.5537 32.4663 31.1768 32.9626 31.1768V30.8768ZM36.621 30.8768H32.9626V31.1768H36.621V30.8768ZM41.3433 29.0222C40.1006 30.2014 38.3932 30.8768 36.621 30.8768V31.1768C38.468 31.1768 40.2499 30.4733 41.5498 29.2398L41.3433 29.0222ZM41.7394 26.9326C41.6707 27.6738 41.5223 28.3938 41.3035 29.0858L41.5896 29.1762C41.8146 28.4643 41.9674 27.7233 42.0382 26.9603L41.7394 26.9326ZM27.4303 27.0965H41.8888V26.7965H27.4303V27.0965Z" fill="#FD0D06"/>
<path d="M16.443 12.8792C16.443 13.4982 16.7915 14 17.2215 14C17.6515 14 18 13.4982 18 12.8792C18 11.2916 17.1028 10 16 10C14.8972 10 14 11.2916 14 12.8792C14 13.4982 14.3485 14 14.7785 14C15.2085 14 15.557 13.4982 15.557 12.8792C15.557 12.5277 15.7557 12.2415 16 12.2415C16.2443 12.2415 16.443 12.5277 16.443 12.8792Z" fill="#FD0D06" stroke="#FD0D06" stroke-width="0.3"/>
<path d="M15.5 39C15.1055 39 14.7185 39.1605 14.4395 39.4395C14.1605 39.7185 14 40.1055 14 40.5C14 40.8945 14.1605 41.2815 14.4395 41.5605C14.72 41.8395 15.1055 42 15.5 42C15.896 42 16.2815 41.8395 16.562 41.5605C16.841 41.2815 17 40.8945 17 40.5C17 40.1055 16.841 39.7185 16.562 39.4395C16.2817 39.1605 15.8961 39 15.5 39Z" fill="#FD0D06" stroke="#FD0D06" stroke-width="0.3"/>
</svg>
