<svg width="45" height="40" viewBox="0 0 45 40" fill="none" xmlns="http://www.w3.org/2000/svg">
<path fill-rule="evenodd" clip-rule="evenodd" d="M38.7519 3.12933V10.053C41.7081 10.4362 44 12.9701 44 16.0314C44 19.0926 41.7081 21.6265 38.7518 22.0098V28.9334C38.7518 29.6961 38.3596 30.3814 37.7029 30.767C37.3671 30.9641 36.9965 31.0628 36.6255 31.0629C36.2682 31.0629 35.9104 30.9714 35.5824 30.7878C29.6382 27.4611 23.2086 25.4239 16.4493 24.7212L20.5972 36.1713C20.8317 36.8162 20.7367 37.5379 20.3428 38.101C19.9488 38.6639 19.3036 39 18.6168 39H13.772C12.8892 39 12.0936 38.4423 11.7918 37.6123L6.96398 24.2787C5.93593 23.8235 5.18712 22.8495 5.0504 21.6901H3.6938C2.20854 21.6901 1 20.4808 1 18.9944V13.0718C1 11.5854 2.20854 10.3762 3.6938 10.3762H5.05057C5.24045 8.76518 6.61259 7.51097 8.27271 7.51097C8.27271 7.51097 14.8827 7.48206 14.9387 7.47794C22.2521 6.93526 29.1977 4.84849 35.5825 1.2752C36.2511 0.900949 37.044 0.908933 37.7032 1.29596C38.3599 1.68148 38.7519 2.36687 38.7519 3.12933ZM3.6938 19.611H5.02713V12.4552H3.6938C3.35391 12.4552 3.07752 12.732 3.07752 13.0718V18.9943C3.07752 19.3344 3.35391 19.611 3.6938 19.611ZM7.79686 22.3738C7.38953 22.1911 7.10466 21.7822 7.10466 21.3075V10.7587H7.10474C7.10474 10.1143 7.62872 9.59 8.27263 9.59H13.9275V22.4762C13.9275 22.4762 8.22333 22.474 8.19872 22.4725C7.99036 22.4484 7.94652 22.4376 7.79686 22.3738ZM18.6409 36.908C18.6499 36.8953 18.6477 36.8893 18.6444 36.8808L14.1793 24.5552H9.27372L13.7445 36.9026C13.7482 36.9129 13.7596 36.9207 13.7719 36.9207H18.6167C18.6255 36.9207 18.6321 36.9207 18.6409 36.908ZM36.6744 28.9335C36.6744 28.9486 36.6744 28.9606 36.652 28.9738C36.6252 28.9892 36.6093 28.9804 36.5965 28.9733C30.2109 25.3997 23.2876 23.2544 16.0051 22.5892V9.47469C23.2882 8.80846 30.2114 6.66303 36.5963 3.08975C36.6094 3.0826 36.6256 3.07378 36.652 3.08924C36.6744 3.10244 36.6744 3.11429 36.6744 3.12933V28.9335ZM38.7519 12.1575V19.9053C40.5577 19.5428 41.9225 17.9437 41.9225 16.0313C41.9225 14.1191 40.5578 12.5201 38.7519 12.1575Z" fill="#050407"/>
<path d="M38.7519 10.053H38.5019V10.2727L38.7198 10.3009L38.7519 10.053ZM38.7518 22.0098L38.7197 21.7618L38.5018 21.7901V22.0098H38.7518ZM37.7029 30.767L37.8295 30.9826L37.8295 30.9826L37.7029 30.767ZM36.6255 31.0629V31.3129H36.6256L36.6255 31.0629ZM35.5824 30.7878L35.7045 30.5697L35.7045 30.5697L35.5824 30.7878ZM16.4493 24.7212L16.4752 24.4725L16.0784 24.4312L16.2143 24.8063L16.4493 24.7212ZM20.5972 36.1713L20.3622 36.2564L20.3623 36.2567L20.5972 36.1713ZM20.3428 38.101L20.5476 38.2443L20.5476 38.2443L20.3428 38.101ZM11.7918 37.6123L11.5568 37.6974L11.5569 37.6978L11.7918 37.6123ZM6.96398 24.2787L7.19905 24.1935L7.16273 24.0932L7.0652 24.0501L6.96398 24.2787ZM5.0504 21.6901L5.29868 21.6609L5.27265 21.4401H5.0504V21.6901ZM5.05057 10.3762V10.6262H5.27283L5.29885 10.4054L5.05057 10.3762ZM8.27271 7.51097V7.76097L8.2738 7.76097L8.27271 7.51097ZM14.9387 7.47794L14.957 7.72727L14.9572 7.72725L14.9387 7.47794ZM35.5825 1.2752L35.7046 1.49336L35.7046 1.49335L35.5825 1.2752ZM37.7032 1.29596L37.5766 1.51155L37.5766 1.51156L37.7032 1.29596ZM5.02713 19.611V19.861H5.27713V19.611H5.02713ZM5.02713 12.4552H5.27713V12.2052H5.02713V12.4552ZM7.79686 22.3738L7.69452 22.602L7.69883 22.6038L7.79686 22.3738ZM7.10466 10.7587V10.5087H6.85466V10.7587H7.10466ZM7.10474 10.7587V11.0087H7.35474V10.7587H7.10474ZM13.9275 9.59H14.1775V9.34H13.9275V9.59ZM13.9275 22.4762L13.9275 22.7262L14.1775 22.7263V22.4762H13.9275ZM8.19872 22.4725L8.16993 22.7212L8.18338 22.722L8.19872 22.4725ZM18.6444 36.8808L18.4092 36.966L18.4119 36.9728L18.6444 36.8808ZM18.6409 36.908L18.4369 36.7636L18.4356 36.7654L18.6409 36.908ZM14.1793 24.5552L14.4144 24.47L14.3547 24.3052H14.1793V24.5552ZM9.27372 24.5552V24.3052H8.91732L9.03866 24.6403L9.27372 24.5552ZM13.7445 36.9026L13.5094 36.9878L13.5099 36.9891L13.7445 36.9026ZM36.652 28.9738L36.7772 29.1901L36.7787 29.1893L36.652 28.9738ZM36.5965 28.9733L36.4744 29.1914L36.5965 28.9733ZM16.0051 22.5892H15.7551V22.8174L15.9823 22.8381L16.0051 22.5892ZM16.0051 9.47469L15.9823 9.22573L15.7551 9.24652V9.47469H16.0051ZM36.5963 3.08975L36.4766 2.87025L36.4742 2.87159L36.5963 3.08975ZM36.652 3.08924L36.7787 2.87377L36.7784 2.87359L36.652 3.08924ZM38.7519 19.9053H38.5019V20.2104L38.8011 20.1504L38.7519 19.9053ZM38.7519 12.1575L38.8011 11.9124L38.5019 11.8523V12.1575H38.7519ZM39.0019 10.053V3.12933H38.5019V10.053H39.0019ZM44.25 16.0314C44.25 12.8428 41.8632 10.2042 38.784 9.80509L38.7198 10.3009C41.5531 10.6682 43.75 13.0975 43.75 16.0314H44.25ZM38.784 22.2577C41.8631 21.8585 44.25 19.22 44.25 16.0314H43.75C43.75 18.9652 41.5532 21.3945 38.7197 21.7618L38.784 22.2577ZM39.0018 28.9334V22.0098H38.5018V28.9334H39.0018ZM37.8295 30.9826C38.5627 30.552 39.0018 29.7846 39.0018 28.9334H38.5018C38.5018 29.6075 38.1565 30.2107 37.5763 30.5514L37.8295 30.9826ZM36.6256 31.3129C37.0412 31.3128 37.4554 31.2022 37.8295 30.9826L37.5764 30.5514C37.2787 30.7261 36.9518 30.8128 36.6254 30.8129L36.6256 31.3129ZM35.4603 31.006C35.8253 31.2103 36.2252 31.3129 36.6255 31.3129V30.8129C36.3113 30.8129 35.9954 30.7325 35.7045 30.5697L35.4603 31.006ZM16.4235 24.9698C23.1489 25.669 29.5457 27.6959 35.4603 31.006L35.7045 30.5697C29.7306 27.2264 23.2683 25.1787 16.4752 24.4725L16.4235 24.9698ZM20.8323 36.0861L16.6844 24.636L16.2143 24.8063L20.3622 36.2564L20.8323 36.0861ZM20.5476 38.2443C20.9883 37.6144 21.0946 36.8074 20.8322 36.0858L20.3623 36.2567C20.5689 36.8249 20.4852 37.4613 20.1379 37.9576L20.5476 38.2443ZM18.6168 39.25C19.3853 39.25 20.1069 38.874 20.5476 38.2443L20.138 37.9576C19.7907 38.4538 19.222 38.75 18.6168 38.75V39.25ZM13.772 39.25H18.6168V38.75H13.772V39.25ZM11.5569 37.6978C11.8945 38.6264 12.784 39.25 13.772 39.25V38.75C12.9945 38.75 12.2926 38.2581 12.0268 37.5269L11.5569 37.6978ZM6.72892 24.3638L11.5568 37.6974L12.0269 37.5272L7.19905 24.1935L6.72892 24.3638ZM4.80212 21.7194C4.94947 22.9689 5.75607 24.0172 6.86277 24.5072L7.0652 24.0501C6.11579 23.6297 5.42478 22.7302 5.29868 21.6609L4.80212 21.7194ZM3.6938 21.9401H5.0504V21.4401H3.6938V21.9401ZM0.75 18.9944C0.75 20.6187 2.0703 21.9401 3.6938 21.9401V21.4401C2.34677 21.4401 1.25 20.3429 1.25 18.9944H0.75ZM0.75 13.0718V18.9944H1.25V13.0718H0.75ZM3.6938 10.1262C2.07031 10.1262 0.75 11.4475 0.75 13.0718H1.25C1.25 11.7233 2.34676 10.6262 3.6938 10.6262V10.1262ZM5.05057 10.1262H3.6938V10.6262H5.05057V10.1262ZM8.27271 7.26097C6.48396 7.26097 5.00679 8.61191 4.80228 10.3469L5.29885 10.4054C5.47412 8.91845 6.74122 7.76097 8.27271 7.76097V7.26097ZM14.9204 7.22861C14.9245 7.22831 14.8305 7.2293 14.6346 7.23055C14.4487 7.23173 14.186 7.2332 13.8722 7.23484C13.2447 7.23813 12.4133 7.24213 11.5835 7.246C10.7538 7.24987 9.92583 7.25361 9.30528 7.25639C8.995 7.25778 8.73659 7.25892 8.55574 7.25972C8.46532 7.26012 8.39428 7.26043 8.34586 7.26064C8.32165 7.26075 8.30309 7.26083 8.29058 7.26089C8.28432 7.26091 8.27958 7.26094 8.27641 7.26095C8.27482 7.26096 8.27362 7.26096 8.27282 7.26096C8.27242 7.26097 8.27212 7.26097 8.27192 7.26097C8.27182 7.26097 8.27174 7.26097 8.27169 7.26097C8.27164 7.26097 8.27162 7.26097 8.27271 7.51097C8.2738 7.76097 8.27383 7.76097 8.27388 7.76096C8.27393 7.76096 8.27401 7.76096 8.27411 7.76096C8.27431 7.76096 8.27461 7.76096 8.27501 7.76096C8.27581 7.76096 8.27701 7.76095 8.2786 7.76094C8.28177 7.76093 8.28652 7.76091 8.29277 7.76088C8.30528 7.76083 8.32384 7.76075 8.34806 7.76064C8.39648 7.76043 8.46752 7.76011 8.55795 7.75972C8.7388 7.75892 8.99723 7.75777 9.30752 7.75638C9.92809 7.75361 10.7561 7.74987 11.5859 7.74599C12.4156 7.74212 13.2472 7.73812 13.8748 7.73483C14.1886 7.73319 14.4515 7.73172 14.6378 7.73054C14.8141 7.72941 14.9389 7.7286 14.957 7.72727L14.9204 7.22861ZM35.4604 1.05705C29.1075 4.61246 22.1973 6.68863 14.9202 7.22862L14.9572 7.72725C22.3069 7.18188 29.2878 5.08451 35.7046 1.49336L35.4604 1.05705ZM37.8298 1.08038C37.0939 0.648311 36.2063 0.639516 35.4604 1.05706L35.7046 1.49335C36.2959 1.16238 36.9941 1.16956 37.5766 1.51155L37.8298 1.08038ZM39.0019 3.12933C39.0019 2.27835 38.563 1.51085 37.8298 1.08037L37.5766 1.51156C38.1567 1.85211 38.5019 2.45539 38.5019 3.12933H39.0019ZM5.02713 19.361H3.6938V19.861H5.02713V19.361ZM4.77713 12.4552V19.611H5.27713V12.4552H4.77713ZM3.6938 12.7052H5.02713V12.2052H3.6938V12.7052ZM3.32752 13.0718C3.32752 12.8698 3.49218 12.7052 3.6938 12.7052V12.2052C3.21565 12.2052 2.82752 12.5941 2.82752 13.0718H3.32752ZM3.32752 18.9943V13.0718H2.82752V18.9943H3.32752ZM3.6938 19.361C3.49216 19.361 3.32752 19.1965 3.32752 18.9943H2.82752C2.82752 19.4723 3.21567 19.861 3.6938 19.861V19.361ZM6.85466 21.3075C6.85466 21.8848 7.20116 22.3806 7.69454 22.6019L7.89918 22.1457C7.57791 22.0016 7.35466 21.6797 7.35466 21.3075H6.85466ZM6.85466 10.7587V21.3075H7.35466V10.7587H6.85466ZM7.10474 10.5087H7.10466V11.0087H7.10474V10.5087ZM8.27263 9.34C7.4905 9.34 6.85474 9.97636 6.85474 10.7587H7.35474C7.35474 10.2522 7.76694 9.84 8.27263 9.84V9.34ZM13.9275 9.34H8.27263V9.84H13.9275V9.34ZM14.1775 22.4762V9.59H13.6775V22.4762H14.1775ZM8.18338 22.722C8.20582 22.7234 9.65308 22.7242 11.0722 22.7249C11.7868 22.7253 12.5006 22.7256 13.0358 22.7258C13.3034 22.726 13.5263 22.7261 13.6823 22.7261C13.7603 22.7261 13.8216 22.7262 13.8634 22.7262C13.8843 22.7262 13.9003 22.7262 13.9111 22.7262C13.9165 22.7262 13.9206 22.7262 13.9233 22.7262C13.9247 22.7262 13.9257 22.7262 13.9264 22.7262C13.9268 22.7262 13.927 22.7262 13.9272 22.7262C13.9273 22.7262 13.9273 22.7262 13.9274 22.7262C13.9274 22.7262 13.9275 22.7262 13.9275 22.4762C13.9276 22.2262 13.9276 22.2262 13.9276 22.2262C13.9275 22.2262 13.9275 22.2262 13.9274 22.2262C13.9272 22.2262 13.9269 22.2262 13.9266 22.2262C13.9259 22.2262 13.9249 22.2262 13.9235 22.2262C13.9208 22.2262 13.9167 22.2262 13.9113 22.2262C13.9005 22.2262 13.8845 22.2262 13.8636 22.2262C13.8218 22.2262 13.7605 22.2261 13.6825 22.2261C13.5265 22.2261 13.3036 22.226 13.036 22.2258C12.5008 22.2256 11.787 22.2253 11.0725 22.2249C10.3579 22.2246 9.64262 22.2241 9.10443 22.2237C8.55643 22.2233 8.21013 22.2227 8.21406 22.223L8.18338 22.722ZM7.69883 22.6038C7.77612 22.6368 7.83986 22.6621 7.91616 22.6808C7.98912 22.6988 8.06683 22.7089 8.16997 22.7209L8.22747 22.2242C8.12225 22.212 8.07385 22.2047 8.03538 22.1953C8.00026 22.1866 7.96725 22.1747 7.89488 22.1439L7.69883 22.6038ZM18.4119 36.9728C18.4159 36.9829 18.3953 36.9394 18.3974 36.8834C18.3998 36.8209 18.4261 36.7788 18.4369 36.7636L18.845 37.0525C18.8647 37.0246 18.8944 36.9731 18.8971 36.9023C18.8984 36.8686 18.893 36.8406 18.8876 36.8208C18.8829 36.8037 18.8771 36.7895 18.8768 36.7888L18.4119 36.9728ZM13.9443 24.6403L18.4093 36.9659L18.8794 36.7956L14.4144 24.47L13.9443 24.6403ZM9.27372 24.8052H14.1793V24.3052H9.27372V24.8052ZM13.9795 36.8175L9.50879 24.4701L9.03866 24.6403L13.5094 36.9878L13.9795 36.8175ZM13.7719 36.6707C13.8181 36.6707 13.86 36.6851 13.8937 36.7076C13.9268 36.7296 13.9603 36.7653 13.979 36.8162L13.5099 36.9891C13.5527 37.1053 13.6633 37.1707 13.7719 37.1707V36.6707ZM18.6167 36.6707H13.7719V37.1707H18.6167V36.6707ZM18.4356 36.7654C18.4471 36.7488 18.4774 36.7112 18.5334 36.688C18.5827 36.6677 18.6292 36.6707 18.6167 36.6707V37.1707C18.6173 37.1707 18.6214 37.1707 18.6259 37.1706C18.6308 37.1705 18.6385 37.1702 18.6478 37.1693C18.6672 37.1674 18.6942 37.1626 18.7242 37.1502C18.7879 37.1239 18.8259 37.08 18.8462 37.0507L18.4356 36.7654ZM36.7787 29.1893C36.8184 29.1659 36.8708 29.1241 36.9013 29.0529C36.9154 29.0201 36.9206 28.9905 36.9227 28.9696C36.9246 28.9513 36.9244 28.9347 36.9244 28.9335H36.4244C36.4244 28.9501 36.421 28.9042 36.4418 28.8558C36.4668 28.7976 36.5079 28.7685 36.5252 28.7583L36.7787 29.1893ZM36.4744 29.1914C36.4778 29.1933 36.5239 29.2217 36.5866 29.2299C36.6587 29.2393 36.7243 29.2208 36.7772 29.1901L36.5267 28.7574C36.5529 28.7422 36.5972 28.727 36.6514 28.7341C36.6963 28.74 36.728 28.7604 36.7186 28.7551L36.4744 29.1914ZM15.9823 22.8381C23.23 23.5002 30.1194 25.6349 36.4744 29.1914L36.7186 28.7551C30.3023 25.1644 23.3452 23.0086 16.0278 22.3402L15.9823 22.8381ZM15.7551 9.47469V22.5892H16.2551V9.47469H15.7551ZM36.4742 2.87159C30.12 6.42774 23.2305 8.56269 15.9823 9.22573L16.0278 9.72365C23.3458 9.05423 30.3029 6.89832 36.7184 3.30791L36.4742 2.87159ZM36.7784 2.87359C36.7246 2.84204 36.6587 2.82379 36.587 2.8331C36.5253 2.8411 36.4794 2.86872 36.4766 2.87027L36.716 3.30923C36.7262 3.30364 36.695 3.32327 36.6513 3.32894C36.5975 3.33592 36.5529 3.32098 36.5255 3.3049L36.7784 2.87359ZM36.9244 3.12933C36.9244 3.1282 36.9246 3.11157 36.9227 3.09322C36.9206 3.07215 36.9153 3.04244 36.9011 3.00952C36.8703 2.93821 36.8178 2.89677 36.7787 2.87377L36.5252 3.30472C36.5085 3.29492 36.4672 3.266 36.442 3.20767C36.421 3.1589 36.4244 3.11261 36.4244 3.12933H36.9244ZM36.9244 28.9335V3.12933H36.4244V28.9335H36.9244ZM39.0019 19.9053V12.1575H38.5019V19.9053H39.0019ZM41.6725 16.0313C41.6725 17.8222 40.3941 19.3206 38.7027 19.6601L38.8011 20.1504C40.7213 19.7649 42.1725 18.0652 42.1725 16.0313H41.6725ZM38.7027 12.4026C40.3942 12.7422 41.6725 14.2406 41.6725 16.0313H42.1725C42.1725 13.9975 40.7214 12.2979 38.8011 11.9124L38.7027 12.4026Z" fill="#050407"/>
</svg>
