<svg width="49" height="49" viewBox="0 0 49 49" fill="none" xmlns="http://www.w3.org/2000/svg">
<path d="M33.8459 8.16922C33.8459 8.16922 39.4706 2.55294 39.4846 2.53904C39.7043 2.31959 40.0708 2.32023 40.29 2.53904L41.644 3.89092C41.7908 4.0375 41.8465 4.2506 41.7893 4.44696C41.2745 6.21612 42.2129 7.86575 43.4358 9.08071C44.7771 10.4132 46.6141 12.2382 46.6174 14.8812C46.6205 17.2502 45.1294 19.9416 42.1859 22.8808C40.2904 24.7735 37.8353 25.9247 35.2729 26.1222C32.8115 26.312 30.5097 25.6232 28.7927 24.1824C27.4818 23.0823 25.5638 23.1284 24.3319 24.2891C24.268 24.3492 24.2042 24.4128 24.1426 24.4781C22.9795 25.7087 22.9334 27.6238 24.0351 28.9328C25.4781 30.647 26.168 32.9449 25.9778 35.4032C25.7799 37.9617 24.627 40.4131 22.7315 42.3057C21.2095 43.8253 19.7405 44.9685 18.3651 45.7037C18.0286 45.8836 17.9018 46.3019 18.0819 46.638C18.259 46.9683 18.6873 47.0973 19.0177 46.9208C20.5128 46.1216 22.0913 44.8974 23.7091 43.2818C25.8378 41.1564 27.133 38.3961 27.3563 35.5094C27.5745 32.6885 26.7709 30.0374 25.0935 28.0446C24.4434 27.2723 24.4669 26.1463 25.1482 25.4255C25.1913 25.3798 25.2355 25.3356 25.2801 25.2936C26.002 24.6135 27.1297 24.5901 27.9032 25.2392C29.899 26.914 32.554 27.7164 35.3793 27.4986C38.2704 27.2756 41.0348 25.9823 43.1634 23.8569C46.4214 20.6038 48.0035 17.6673 48 14.8795C47.9959 11.6636 45.8385 9.52035 44.411 8.10214C43.5434 7.23895 42.7438 6.11518 43.1171 4.83213C43.3149 4.15224 43.1251 3.4176 42.6217 2.91492C42.6217 2.91492 41.2688 1.56406 41.2677 1.56296C40.5155 0.811842 39.2584 0.812854 38.5072 1.56296L32.8685 7.19313C32.5985 7.46264 32.5985 7.89971 32.8685 8.16922C33.1382 8.43882 33.576 8.43882 33.8459 8.16922Z" fill="#FD0D06" stroke="#FD0D06" stroke-width="0.4"/>
<path d="M2.89899 42.6714C3.39746 43.1719 4.12615 43.3607 4.80027 43.1639C6.06647 42.7944 7.19362 43.5934 8.04166 44.4491C10.3033 46.7314 13.0646 48.5746 16.4092 47.8337C16.7784 47.752 17.0116 47.3852 16.9301 47.0145C16.8487 46.6438 16.4832 46.4096 16.1143 46.4915C12.7377 47.2394 10.5844 45.0664 9.01205 43.4796C7.80424 42.2607 6.18528 41.3282 4.41831 41.8438C4.22342 41.9006 4.01227 41.8453 3.86692 41.6993C3.86692 41.6993 2.53027 40.3572 2.52626 40.3531C2.30791 40.1339 2.30827 39.7713 2.52626 39.5524L8.9271 33.1252C15.0899 26.937 16.847 26.4496 18.2587 26.0579C19.3807 25.7467 20.4403 25.4527 22.8422 23.0409C25.2442 20.629 25.5371 19.5649 25.8472 18.4383C26.2108 17.1174 26.6633 15.4733 31.8061 10.1665C32.0697 9.89453 32.0638 9.45942 31.7928 9.19472C31.5218 8.93003 31.0885 8.93589 30.825 9.20801C25.8341 14.358 25.0432 16.1998 24.5278 18.0723C24.2446 19.101 24.021 19.9137 21.8744 22.069C19.7279 24.2244 18.9187 24.4489 17.8943 24.7331C15.9016 25.2859 13.9048 26.1833 7.95926 32.1533C7.95926 32.1533 1.56344 38.5755 1.55842 38.5805C0.813313 39.3287 0.814408 40.578 1.55842 41.3251L2.89899 42.6714Z" fill="#FD0D06" stroke="#FD0D06" stroke-width="0.4"/>
<path fill-rule="evenodd" clip-rule="evenodd" d="M24.3959 31.5091C24.7177 32.374 25.081 33.6689 24.9841 34.926C24.8119 37.1573 23.8037 39.3011 22.1452 40.9626C19.5084 43.6039 17.0841 45 15.1338 45H15.1285C13.237 44.9977 11.8377 43.7436 10.3333 42.2289L7.63599 39.5265C6.78794 38.6768 6.78804 37.2944 7.63608 36.4448L10.2428 33.8336C13.2925 30.7786 15.6192 28.7417 17.3558 27.6064C18.6902 26.734 20.4261 26.8089 21.6753 27.7927C22.9135 28.7679 23.8542 30.053 24.3959 31.5091ZM15.1302 43.6023H15.1338C16.6835 43.6023 18.8229 42.3141 21.1586 39.9742C22.582 38.5484 23.4465 36.7173 23.593 34.8184C23.6533 34.0356 23.4742 33.0336 23.0886 31.9971C22.6364 30.7817 21.8495 29.7077 20.8129 28.8913C20.3966 28.5634 19.8933 28.3977 19.3877 28.3977C18.9477 28.3977 18.506 28.5231 18.1183 28.7766C16.4863 29.8435 14.1685 31.8774 11.2292 34.8217L8.62251 37.4329C8.3184 37.7376 8.31831 38.2334 8.62251 38.5382L11.321 41.2418C12.6488 42.5787 13.7716 43.6006 15.1302 43.6023Z" fill="#FD0D06"/>
<path d="M24.9841 34.926L25.1835 34.9414V34.9414L24.9841 34.926ZM24.3959 31.5091L24.2085 31.5789L24.2085 31.5789L24.3959 31.5091ZM22.1452 40.9626L22.2867 41.1039L22.2868 41.1039L22.1452 40.9626ZM15.1285 45L15.1283 45.2H15.1285V45ZM10.3333 42.2289L10.4752 42.088L10.4748 42.0877L10.3333 42.2289ZM7.63599 39.5265L7.49443 39.6678L7.49443 39.6678L7.63599 39.5265ZM7.63608 36.4448L7.49454 36.3035L7.49453 36.3035L7.63608 36.4448ZM10.2428 33.8336L10.3843 33.9749L10.3844 33.9749L10.2428 33.8336ZM17.3558 27.6064L17.4653 27.7738L17.4653 27.7738L17.3558 27.6064ZM21.6753 27.7927L21.5515 27.9498L21.5515 27.9498L21.6753 27.7927ZM15.1302 43.6023L15.13 43.8023H15.1302V43.6023ZM21.1586 39.9742L21.0171 39.8328L21.017 39.8329L21.1586 39.9742ZM23.593 34.8184L23.7924 34.8337V34.8337L23.593 34.8184ZM23.0886 31.9971L22.9011 32.0668L22.9011 32.0668L23.0886 31.9971ZM20.8129 28.8913L20.9367 28.7342L20.9367 28.7342L20.8129 28.8913ZM18.1183 28.7766L18.2277 28.944L18.2278 28.944L18.1183 28.7766ZM11.2292 34.8217L11.3708 34.963L11.2292 34.8217ZM8.62251 37.4329L8.48096 37.2916L8.48094 37.2916L8.62251 37.4329ZM8.62251 38.5382L8.48094 38.6795L8.48095 38.6795L8.62251 38.5382ZM11.321 41.2418L11.4629 41.1009L11.4626 41.1006L11.321 41.2418ZM25.1835 34.9414C25.2837 33.6413 24.9088 32.3141 24.5834 31.4394L24.2085 31.5789C24.5266 32.4339 24.8782 33.6964 24.7846 34.9107L25.1835 34.9414ZM22.2868 41.1039C23.9772 39.4104 25.0075 37.2226 25.1835 34.9414L24.7846 34.9107C24.6164 37.0919 23.6303 39.1917 22.0037 40.8214L22.2868 41.1039ZM15.1338 45.2C17.1686 45.2 19.6429 43.7524 22.2867 41.1039L22.0037 40.8213C19.374 43.4555 16.9996 44.8 15.1338 44.8V45.2ZM15.1285 45.2H15.1338V44.8H15.1285V45.2ZM10.1914 42.3699C11.6886 43.8773 13.1429 45.1976 15.1283 45.2L15.1288 44.8C13.3311 44.7978 11.9868 43.6099 10.4752 42.088L10.1914 42.3699ZM7.49443 39.6678L10.1917 42.3702L10.4748 42.0877L7.77754 39.3852L7.49443 39.6678ZM7.49453 36.3035C6.56856 37.2312 6.56845 38.74 7.49443 39.6678L7.77755 39.3852C7.00743 38.6136 7.00751 37.3576 7.77763 36.5861L7.49453 36.3035ZM10.1013 33.6923L7.49454 36.3035L7.77762 36.5861L10.3843 33.9749L10.1013 33.6923ZM17.2464 27.439C15.4914 28.5863 13.1526 30.6356 10.1013 33.6923L10.3844 33.9749C13.4324 30.9215 15.7469 28.8971 17.4653 27.7738L17.2464 27.439ZM21.799 27.6356C20.4822 26.5984 18.6524 26.5197 17.2464 27.439L17.4653 27.7738C18.7281 26.9482 20.3701 27.0193 21.5515 27.9498L21.799 27.6356ZM24.5834 31.4394C24.0287 29.9483 23.0656 28.6331 21.799 27.6356L21.5515 27.9498C22.7613 28.9026 23.6798 30.1577 24.2085 31.5789L24.5834 31.4394ZM15.1338 43.4023H15.1302V43.8023H15.1338V43.4023ZM21.017 39.8329C19.8569 40.9951 18.7509 41.8906 17.7483 42.4944C16.7426 43.0999 15.8571 43.4023 15.1338 43.4023V43.8023C15.9603 43.8023 16.9193 43.4605 17.9546 42.837C18.993 42.2117 20.1245 41.2932 21.3001 40.1154L21.017 39.8329ZM23.3936 34.803C23.251 36.6515 22.4089 38.4387 21.0171 39.8328L21.3001 40.1155C22.7551 38.6581 23.642 36.7831 23.7924 34.8337L23.3936 34.803ZM22.9011 32.0668C23.2805 33.0865 23.451 34.0584 23.3936 34.803L23.7924 34.8337C23.8557 34.0127 23.6679 32.9806 23.276 31.9273L22.9011 32.0668ZM20.6892 29.0484C21.6974 29.8426 22.462 30.8864 22.9011 32.0668L23.276 31.9273C22.8108 30.6769 22.0015 29.5729 20.9367 28.7342L20.6892 29.0484ZM19.3877 28.5977C19.8495 28.5977 20.309 28.749 20.6892 29.0484L20.9367 28.7342C20.4841 28.3778 19.937 28.1977 19.3877 28.1977V28.5977ZM18.2278 28.944C18.5823 28.7122 18.9858 28.5977 19.3877 28.5977V28.1977C18.9096 28.1977 18.4298 28.334 18.0089 28.6092L18.2278 28.944ZM11.3708 34.963C14.3087 32.02 16.6142 29.9988 18.2277 28.944L18.0089 28.6092C16.3584 29.6881 14.0283 31.7347 11.0877 34.6804L11.3708 34.963ZM8.76405 37.5742L11.3708 34.963L11.0877 34.6804L8.48096 37.2916L8.76405 37.5742ZM8.76407 38.3969C8.53781 38.1702 8.53787 37.8009 8.76407 37.5742L8.48094 37.2916C8.09894 37.6744 8.09882 38.2966 8.48094 38.6795L8.76407 38.3969ZM11.4626 41.1006L8.76406 38.3969L8.48095 38.6795L11.1795 41.3831L11.4626 41.1006ZM15.1305 43.4023C14.5048 43.4015 13.9234 43.1667 13.3272 42.7578C12.7281 42.347 12.1275 41.77 11.4629 41.1009L11.1791 41.3828C11.8424 42.0506 12.467 42.653 13.101 43.0877C13.7377 43.5244 14.397 43.8014 15.13 43.8023L15.1305 43.4023Z" fill="#FD0D06"/>
<path fill-rule="evenodd" clip-rule="evenodd" d="M34.9262 24.9831C33.7655 25.0725 32.5906 24.7973 31.5092 24.395C30.053 23.8533 28.7678 22.9126 27.7927 21.6745C26.8089 20.4254 26.734 18.6896 27.6063 17.3553C28.7417 15.6187 30.7786 13.2922 33.8336 10.2427L36.4448 7.63608C37.2944 6.78799 38.6769 6.78799 39.5265 7.63599L42.2301 10.3344C43.7436 11.8375 44.9977 13.2367 45 15.1282C45.0025 17.0792 43.6064 19.5054 40.9626 22.1444C39.3012 23.8029 37.1575 24.8111 34.9262 24.9831ZM34.8219 11.2291C31.8776 14.1682 29.8437 16.4858 28.7768 18.1177C28.2321 18.9508 28.2782 20.0336 28.8914 20.8122C29.7078 21.8488 30.7817 22.6356 31.9972 23.0877C33.0337 23.4734 34.0359 23.6525 34.8185 23.5921C36.7176 23.4457 38.5486 22.5812 39.9744 21.1579C42.316 18.8206 43.6044 16.6798 43.6024 15.13C43.6007 13.7714 42.5789 12.6488 41.2432 11.3221L38.5383 8.62255C38.2389 8.32376 37.7333 8.32292 37.433 8.62264L34.8219 11.2291Z" fill="#FD0D06"/>
<path d="M31.5092 24.395L31.5789 24.2076L31.5789 24.2076L31.5092 24.395ZM34.9262 24.9831L34.9416 25.1825L34.9416 25.1825L34.9262 24.9831ZM27.7927 21.6745L27.9498 21.5508L27.9498 21.5508L27.7927 21.6745ZM27.6063 17.3553L27.4389 17.2458L27.4389 17.2459L27.6063 17.3553ZM33.8336 10.2427L33.9749 10.3842L33.8336 10.2427ZM36.4448 7.63608L36.5861 7.77763L36.4448 7.63608ZM39.5265 7.63599L39.3852 7.77754L39.3852 7.77755L39.5265 7.63599ZM42.2301 10.3344L42.0888 10.4759L42.0892 10.4763L42.2301 10.3344ZM45 15.1282L44.8 15.1285V15.1285L45 15.1282ZM40.9626 22.1444L40.8213 22.0029L40.8213 22.0029L40.9626 22.1444ZM28.7768 18.1177L28.9441 18.2272L28.9441 18.2272L28.7768 18.1177ZM34.8219 11.2291L34.6806 11.0876L34.8219 11.2291ZM28.8914 20.8122L29.0486 20.6885L29.0485 20.6885L28.8914 20.8122ZM31.9972 23.0877L32.067 22.9003L32.067 22.9003L31.9972 23.0877ZM34.8185 23.5921L34.8032 23.3927L34.8032 23.3927L34.8185 23.5921ZM39.9744 21.1579L39.8331 21.0164L39.8331 21.0164L39.9744 21.1579ZM43.6024 15.13L43.8024 15.1297V15.1297L43.6024 15.13ZM41.2432 11.3221L41.1019 11.4637L41.1023 11.464L41.2432 11.3221ZM38.5383 8.62255L38.6796 8.48099L38.6796 8.48098L38.5383 8.62255ZM37.433 8.62264L37.5743 8.76419L37.433 8.62264ZM31.4394 24.5825C32.5349 24.99 33.7407 25.275 34.9416 25.1825L34.9109 24.7837C33.7903 24.87 32.6462 24.6046 31.5789 24.2076L31.4394 24.5825ZM27.6356 21.7983C28.6331 23.0648 29.9484 24.0278 31.4394 24.5825L31.5789 24.2076C30.1577 23.6789 28.9025 22.7605 27.9498 21.5508L27.6356 21.7983ZM27.4389 17.2459C26.5198 18.6518 26.5984 20.4814 27.6356 21.7983L27.9498 21.5508C27.0193 20.3693 26.9482 18.7275 27.7737 17.4647L27.4389 17.2459ZM33.6923 10.1011C30.6357 13.1523 28.5863 15.491 27.4389 17.2458L27.7737 17.4647C28.8971 15.7465 30.9216 13.4321 33.9749 10.3842L33.6923 10.1011ZM36.3035 7.49453L33.6923 10.1011L33.9749 10.3842L36.5861 7.77763L36.3035 7.49453ZM39.6678 7.49443C38.7401 6.56851 37.2312 6.56851 36.3035 7.49453L36.5861 7.77763C37.3576 7.00747 38.6137 7.00747 39.3852 7.77754L39.6678 7.49443ZM42.3714 10.1928L39.6678 7.49443L39.3852 7.77755L42.0888 10.4759L42.3714 10.1928ZM45.2 15.128C45.1975 13.1426 43.8773 11.6884 42.3711 10.1924L42.0892 10.4763C43.6099 11.9866 44.7978 13.3308 44.8 15.1285L45.2 15.128ZM41.1039 22.286C43.7548 19.6398 45.2026 17.1636 45.2 15.128L44.8 15.1285C44.8024 16.9948 43.458 19.3709 40.8213 22.0029L41.1039 22.286ZM34.9416 25.1825C37.2228 25.0066 39.4106 23.9764 41.1039 22.286L40.8213 22.0029C39.1919 23.6295 37.0921 24.6155 34.9108 24.7837L34.9416 25.1825ZM28.9441 18.2272C29.999 16.6137 32.0203 14.3083 34.9632 11.3707L34.6806 11.0876C31.735 14.028 29.6884 16.3579 28.6094 18.0083L28.9441 18.2272ZM29.0485 20.6885C28.4887 19.9777 28.4462 18.9888 28.9441 18.2272L28.6094 18.0083C28.0179 18.9128 28.0676 20.0895 28.7343 20.9359L29.0485 20.6885ZM32.067 22.9003C30.8865 22.4612 29.8426 21.6967 29.0486 20.6885L28.7343 20.9359C29.573 22.0009 30.6769 22.81 31.9275 23.2752L32.067 22.9003ZM34.8032 23.3927C34.0587 23.4501 33.0866 23.2797 32.067 22.9003L31.9275 23.2752C32.9808 23.6671 34.0131 23.8548 34.8339 23.7915L34.8032 23.3927ZM39.8331 21.0164C38.4389 22.4081 36.6518 23.2502 34.8032 23.3927L34.8339 23.7915C36.7834 23.6413 38.6583 22.7543 40.1157 21.2995L39.8331 21.0164ZM43.4024 15.1302C43.4033 15.8535 43.1015 16.7393 42.4959 17.7455C41.8921 18.7487 40.9961 19.8555 39.8331 21.0164L40.1157 21.2995C41.2943 20.1231 42.2133 18.9908 42.8386 17.9518C43.4621 16.9158 43.8035 15.9563 43.8024 15.1297L43.4024 15.1302ZM41.1023 11.464C41.7708 12.128 42.3474 12.7283 42.7581 13.3272C43.1668 13.9232 43.4016 14.5045 43.4024 15.1302L43.8024 15.1297C43.8015 14.3968 43.5245 13.7375 43.088 13.1009C42.6534 12.4672 42.0513 11.8429 41.3841 11.1802L41.1023 11.464ZM38.3971 8.76411L41.1019 11.4637L41.3845 11.1806L38.6796 8.48099L38.3971 8.76411ZM37.5743 8.76419C37.7964 8.54254 38.1756 8.5431 38.3971 8.76412L38.6796 8.48098C38.3023 8.10442 37.6702 8.1033 37.2917 8.48109L37.5743 8.76419ZM34.9632 11.3707L37.5743 8.76419L37.2917 8.48109L34.6806 11.0876L34.9632 11.3707Z" fill="#FD0D06"/>
<path d="M13.1843 38.2036C12.9134 37.9321 12.4741 37.9321 12.2032 38.2036C11.9323 38.4749 11.9323 38.915 12.2032 39.1863C12.2032 39.1863 12.8155 39.7996 12.8157 39.7999C13.0787 40.0633 13.527 40.0701 13.7968 39.7999C14.0677 39.5285 14.0677 39.0886 13.7968 38.8171L13.1843 38.2036Z" fill="#FD0D06" stroke="#FD0D06" stroke-width="0.4"/>
<path d="M19.1843 32.2035C18.9134 31.9322 18.4741 31.9322 18.2032 32.2035C17.9322 32.4749 17.9323 32.915 18.2032 33.1863C18.2032 33.1863 18.8156 33.7998 18.8157 33.7999C19.0788 34.0633 19.5272 34.07 19.7968 33.7999C20.0678 33.5285 20.0677 33.0885 19.7968 32.817L19.1843 32.2035Z" fill="#FD0D06" stroke="#FD0D06" stroke-width="0.4"/>
<path d="M17.2722 35.0016C16.899 35.0273 16.6172 35.3507 16.6428 35.724C16.66 35.9732 16.5689 36.2171 16.3929 36.3931C16.2169 36.5691 15.9733 36.6601 15.7239 36.6431C15.3509 36.6175 15.0272 36.8992 15.0016 37.2726C14.976 37.6459 15.2578 37.9694 15.6311 37.9949C16.2658 38.0384 16.9011 37.8012 17.3512 37.3512C17.8041 36.8981 18.0387 36.2711 17.9948 35.631C17.9689 35.2578 17.6459 34.9759 17.2722 35.0016Z" fill="#FD0D06" stroke="#FD0D06" stroke-width="0.4"/>
<path d="M38.8157 13.8005C39.0776 14.063 39.5279 14.0699 39.7968 13.8005C40.0677 13.5291 40.0677 13.0889 39.7968 12.8174L39.1843 12.2037C38.9134 11.9321 38.4742 11.9321 38.2032 12.2037C37.9323 12.4752 37.9323 12.9153 38.2032 13.1868C38.2032 13.1868 38.8154 13.8002 38.8157 13.8005Z" fill="#FD0D06" stroke="#FD0D06" stroke-width="0.4"/>
<path d="M32.8157 19.8007C33.0775 20.0629 33.5282 20.0699 33.7968 19.8007C34.0678 19.5292 34.0677 19.089 33.7968 18.8175L33.1843 18.2036C32.9134 17.9321 32.4741 17.9322 32.2032 18.2036C31.9322 18.4752 31.9323 18.9154 32.2032 19.1869C32.2032 19.1869 32.8154 19.8004 32.8157 19.8007Z" fill="#FD0D06" stroke="#FD0D06" stroke-width="0.4"/>
<path d="M35.6311 17.9948C36.2654 18.0387 36.9014 17.8008 37.3511 17.3512C37.804 16.8983 38.0387 16.2712 37.9948 15.6311C37.9691 15.2578 37.6456 14.976 37.2725 15.0016C36.8992 15.0273 36.6173 15.3506 36.643 15.7239C36.6601 15.9732 36.569 16.2171 36.393 16.393C36.217 16.569 35.9737 16.6601 35.7239 16.643C35.3515 16.6174 35.0273 16.8992 35.0016 17.2725C34.9759 17.6458 35.2578 17.9693 35.6311 17.9948Z" fill="#FD0D06" stroke="#FD0D06" stroke-width="0.4"/>
</svg>
