<svg width="65" height="65" viewBox="0 0 65 65" fill="none" xmlns="http://www.w3.org/2000/svg">
<path fill-rule="evenodd" clip-rule="evenodd" d="M46.0308 4.00999C37.6047 -0.00614511 27.3943 -0.000516521 18.9681 4.00999C12.4698 7.1002 7.10008 12.4729 4.00993 18.9685C-0.000496613 27.3948 -0.0061252 37.6054 4.00993 46.0317C7.10852 52.5245 12.4783 57.8887 18.9681 60.9902C20.7018 61.7445 22.4495 62.479 24.2816 62.9659C29.4487 64.2577 34.9114 64.3844 40.0954 63.0897C49.1575 60.9311 57.0095 54.4383 60.989 46.0317C65.0051 37.6054 65.0023 27.3948 60.989 18.9685C57.8904 12.4785 52.5207 7.10864 46.0308 4.00999ZM7.44061 20.4686C9.70053 15.7094 13.3901 11.6454 17.8621 8.86764C21.6868 6.42193 26.1588 5.13012 30.6617 4.72204C30.6596 5.63452 30.6602 6.547 30.6608 7.45934C30.6619 9.02329 30.6629 10.5868 30.6505 12.1492C31.8803 12.1492 33.1102 12.1464 34.34 12.1436C34.34 11.319 34.3404 10.4944 34.3407 9.66974C34.3413 8.0205 34.3419 6.37127 34.34 4.72204C38.2069 5.08791 42.0626 6.03917 45.4848 7.92763C50.3874 10.5028 54.4991 14.6062 57.0686 19.5145C58.9683 22.9312 59.9055 26.7925 60.277 30.6595C58.6278 30.6557 56.9786 30.657 55.3294 30.6582C54.5048 30.6589 53.6802 30.6595 52.8556 30.6595C52.8546 31.0694 52.854 31.479 52.8534 31.8886C52.8521 32.7077 52.8509 33.5264 52.8471 34.3463C54.4981 34.337 56.1491 34.3376 57.8001 34.3382C58.6257 34.3385 59.4514 34.3388 60.277 34.3379C59.9393 37.6533 59.2413 40.9827 57.806 44.0081C55.563 48.9868 51.7777 53.2506 47.1425 56.1297C43.315 58.5783 38.8402 59.8673 34.3372 60.2782C34.3382 59.4525 34.3379 58.6269 34.3375 57.8012C34.3369 56.1502 34.3363 54.4992 34.3457 52.8482C33.5257 52.8519 32.7071 52.8532 31.888 52.8544C31.4784 52.855 31.0688 52.8557 30.6589 52.8566C30.6589 53.6812 30.6583 54.5058 30.6576 55.3305C30.6564 56.9797 30.6551 58.6289 30.6589 60.2782C26.792 59.9067 22.9307 58.9695 19.5141 57.0669C14.6087 54.503 10.5026 50.394 7.93594 45.4913C6.03626 42.0747 5.09345 38.2105 4.72196 34.3379C5.13417 34.3384 5.54638 34.3389 5.9586 34.3395C8.02026 34.3422 10.0822 34.3449 12.1462 34.3379C12.1445 33.6001 12.1458 32.8632 12.1472 32.1262C12.1481 31.6347 12.149 31.1431 12.149 30.651C10.498 30.6642 8.8482 30.6623 7.19801 30.6604C6.37283 30.6595 5.54755 30.6585 4.72196 30.6595C5.07094 27.1528 5.85051 23.6376 7.44061 20.4686Z" fill="#FD0D06"/>
<path d="M18.9681 4.00999L19.1829 4.46154L19.183 4.46146L18.9681 4.00999ZM46.0308 4.00999L46.2462 3.55879L46.2459 3.55864L46.0308 4.00999ZM4.00993 18.9685L4.46141 19.1834L4.46145 19.1833L4.00993 18.9685ZM4.00993 46.0317L3.55858 46.2468L3.55869 46.2471L4.00993 46.0317ZM18.9681 60.9902L18.7525 61.4413L18.7605 61.4452L18.7687 61.4487L18.9681 60.9902ZM24.2816 62.9659L24.1532 63.4492L24.1603 63.451L24.2816 62.9659ZM40.0954 63.0897L39.9795 62.6033L39.9742 62.6046L40.0954 63.0897ZM60.989 46.0317L60.5377 45.8166L60.5371 45.8178L60.989 46.0317ZM60.989 18.9685L61.4404 18.7535L61.4402 18.7531L60.989 18.9685ZM17.8621 8.86764L18.126 9.2924L18.1315 9.28888L17.8621 8.86764ZM7.44061 20.4686L7.88761 20.6929L7.89228 20.683L7.44061 20.4686ZM30.6617 4.72204L31.1617 4.72317L31.163 4.17456L30.6166 4.22408L30.6617 4.72204ZM30.6608 7.45934L31.1608 7.45901L31.1608 7.45901L30.6608 7.45934ZM30.6505 12.1492L30.1505 12.1452L30.1465 12.6492H30.6505V12.1492ZM34.34 12.1436L34.3412 12.6436L34.84 12.6424V12.1436H34.34ZM34.34 4.72204L34.3871 4.22426L33.8394 4.17244L33.8401 4.7226L34.34 4.72204ZM45.4848 7.92763L45.2432 8.36549L45.2523 8.37028L45.4848 7.92763ZM57.0686 19.5145L56.6255 19.7465L56.6316 19.7575L57.0686 19.5145ZM60.277 30.6595L60.2758 31.1595L60.8274 31.1607L60.7747 30.6117L60.277 30.6595ZM52.8556 30.6595V30.1595H52.3567L52.3556 30.6583L52.8556 30.6595ZM52.8534 31.8886L52.3534 31.8878L52.3534 31.8878L52.8534 31.8886ZM52.8471 34.3463L52.3471 34.344L52.3448 34.8492L52.85 34.8463L52.8471 34.3463ZM57.8001 34.3382L57.7999 34.8382L57.7999 34.8382L57.8001 34.3382ZM60.277 34.3379L60.7744 34.3886L60.8306 33.8373L60.2764 33.8379L60.277 34.3379ZM57.806 44.0081L57.3542 43.7938L57.3501 43.8028L57.806 44.0081ZM47.1425 56.1297L46.8786 55.705L46.873 55.7086L47.1425 56.1297ZM34.3372 60.2782L33.8372 60.2776L33.8366 60.8259L34.3827 60.7761L34.3372 60.2782ZM34.3375 57.8012L34.8375 57.801L34.8375 57.801L34.3375 57.8012ZM34.3457 52.8482L34.8457 52.851L34.8485 52.3459L34.3434 52.3482L34.3457 52.8482ZM31.888 52.8544L31.8872 52.3544L31.8872 52.3544L31.888 52.8544ZM30.6589 52.8566L30.6578 52.3566L30.1589 52.3577V52.8566H30.6589ZM30.6576 55.3305L30.1576 55.3301L30.6576 55.3305ZM30.6589 60.2782L30.6111 60.7759L31.1601 60.8286L31.1589 60.277L30.6589 60.2782ZM19.5141 57.0669L19.7575 56.6299L19.7457 56.6238L19.5141 57.0669ZM7.93594 45.4913L8.37904 45.2594L8.37293 45.2484L7.93594 45.4913ZM4.72196 34.3379L4.72253 33.8379L4.17164 33.8373L4.22425 34.3856L4.72196 34.3379ZM5.9586 34.3395L5.95927 33.8395L5.95927 33.8395L5.9586 34.3395ZM12.1462 34.3379L12.1479 34.8379L12.6473 34.8362L12.6462 34.3368L12.1462 34.3379ZM12.1472 32.1262L12.6472 32.1271L12.6472 32.1271L12.1472 32.1262ZM12.149 30.651H12.649V30.147L12.145 30.1511L12.149 30.651ZM7.19801 30.6604L7.19744 31.1604L7.19744 31.1604L7.19801 30.6604ZM4.72196 30.6595L4.22442 30.61L4.16967 31.1601L4.72253 31.1595L4.72196 30.6595ZM19.183 4.46146C27.4734 0.515567 37.5258 0.510164 45.8157 4.46135L46.2459 3.55864C37.6835 -0.522454 27.3151 -0.5166 18.7533 3.55852L19.183 4.46146ZM4.46145 19.1833C7.50226 12.7914 12.7885 7.50234 19.1829 4.46154L18.7534 3.55845C12.1512 6.69806 6.69789 12.1544 3.55842 18.7537L4.46145 19.1833ZM4.46129 45.8166C0.510183 37.5266 0.515585 27.4739 4.46141 19.1834L3.55846 18.7536C-0.516579 27.3157 -0.522433 37.6843 3.55858 46.2468L4.46129 45.8166ZM19.1837 60.5391C12.7968 57.4868 7.51038 52.2057 4.46118 45.8163L3.55869 46.2471C6.70666 52.8433 12.1597 58.2907 18.7525 61.4413L19.1837 60.5391ZM24.41 62.4827C22.6182 62.0065 20.9015 61.2861 19.1676 60.5317L18.7687 61.4487C20.502 62.2028 22.2807 62.9515 24.1532 63.4491L24.41 62.4827ZM39.9742 62.6046C34.8774 63.8775 29.4984 63.7547 24.4029 62.4808L24.1603 63.451C29.3991 64.7607 34.9453 64.8912 40.2165 63.5748L39.9742 62.6046ZM60.5371 45.8178C56.6209 54.0907 48.8905 60.4807 39.9795 62.6033L40.2112 63.5761C49.4246 61.3815 57.3982 54.7859 61.4409 46.2456L60.5371 45.8178ZM60.5376 19.1835C64.4861 27.4739 64.4888 37.5265 60.5377 45.8166L61.4404 46.2468C65.5213 37.6843 65.5184 27.3157 61.4404 18.7535L60.5376 19.1835ZM45.8154 4.4612C52.202 7.51055 57.4885 12.7972 60.5378 19.1839L61.4402 18.7531C58.2923 12.1598 52.8394 6.70673 46.2462 3.55879L45.8154 4.4612ZM17.5983 8.44291C13.0473 11.2698 9.29123 15.4057 6.98895 20.2541L7.89228 20.683C10.1098 16.0131 13.733 12.0211 18.1259 9.29237L17.5983 8.44291ZM30.6166 4.22408C26.0515 4.63779 21.4985 5.94886 17.5927 8.4464L18.1315 9.28888C21.8751 6.895 26.266 5.62245 30.7068 5.21999L30.6166 4.22408ZM31.1608 7.45901C31.1602 6.54655 31.1596 5.6348 31.1617 4.72317L30.1617 4.7209C30.1596 5.63424 30.1602 6.54745 30.1608 7.45967L31.1608 7.45901ZM31.1504 12.1532C31.1629 10.5883 31.1619 9.0226 31.1608 7.45901L30.1608 7.45967C30.1619 9.02397 30.1629 10.5853 30.1505 12.1452L31.1504 12.1532ZM34.3389 11.6436C33.1089 11.6464 31.8797 11.6492 30.6505 11.6492V12.6492C31.881 12.6492 33.1114 12.6464 34.3412 12.6436L34.3389 11.6436ZM33.8407 9.66955C33.8404 10.4942 33.84 11.3189 33.84 12.1436H34.84C34.84 11.3191 34.8404 10.4946 34.8407 9.66993L33.8407 9.66955ZM33.8401 4.7226C33.8419 6.3714 33.8413 8.02025 33.8407 9.66955L34.8407 9.66993C34.8413 8.02076 34.8419 6.37114 34.84 4.72147L33.8401 4.7226ZM45.7264 7.48986C42.2281 5.55942 38.3013 4.5946 34.3871 4.22426L34.293 5.21981C38.1126 5.58121 41.8971 6.51893 45.2433 8.3654L45.7264 7.48986ZM57.5116 19.2826C54.8947 14.2838 50.7093 10.1071 45.7173 7.48498L45.2523 8.37028C50.0655 10.8985 54.1036 14.9286 56.6257 19.7464L57.5116 19.2826ZM60.7747 30.6117C60.3989 26.6996 59.4486 22.766 57.5056 19.2715L56.6316 19.7575C58.4881 23.0963 59.4121 26.8854 59.7793 30.7073L60.7747 30.6117ZM55.3298 31.1582C56.9791 31.157 58.6275 31.1557 60.2758 31.1595L60.2781 30.1595C58.628 30.1557 56.9781 30.157 55.329 30.1582L55.3298 31.1582ZM52.8556 31.1595C53.6804 31.1595 54.5052 31.1589 55.3298 31.1582L55.329 30.1582C54.5044 30.1589 53.68 30.1595 52.8556 30.1595V31.1595ZM53.3534 31.8893C53.354 31.4798 53.3546 31.0703 53.3556 30.6606L52.3556 30.6583C52.3546 31.0685 52.354 31.4783 52.3534 31.8878L53.3534 31.8893ZM53.3471 34.3486C53.3509 33.5278 53.3521 32.7083 53.3534 31.8893L52.3534 31.8878C52.3521 32.707 52.3509 33.525 52.3471 34.344L53.3471 34.3486ZM57.8003 33.8382C56.1495 33.8376 54.497 33.837 52.8443 33.8463L52.85 34.8463C54.4992 34.837 56.1487 34.8376 57.7999 34.8382L57.8003 33.8382ZM60.2764 33.8379C59.4512 33.8388 58.626 33.8385 57.8003 33.8382L57.7999 34.8382C58.6255 34.8385 59.4515 34.8388 60.2776 34.8379L60.2764 33.8379ZM58.2577 44.2225C59.7262 41.1271 60.4334 37.7362 60.7744 34.3886L59.7796 34.2872C59.4451 37.5703 58.7564 40.8382 57.3543 43.7938L58.2577 44.2225ZM47.4063 56.5545C52.1238 53.6242 55.977 49.285 58.2619 44.2135L57.3501 43.8028C55.1489 48.6886 51.4316 52.877 46.8787 55.705L47.4063 56.5545ZM34.3827 60.7761C38.9472 60.3596 43.5032 59.0514 47.4119 56.5509L46.873 55.7086C43.1268 58.1051 38.7331 59.3749 34.2918 59.7802L34.3827 60.7761ZM33.8375 57.8014C33.8379 58.6271 33.8382 59.4524 33.8372 60.2776L34.8372 60.2787C34.8382 59.4526 34.8379 58.6266 34.8375 57.801L33.8375 57.8014ZM33.8457 52.8453C33.8363 54.4981 33.8369 56.1506 33.8375 57.8014L34.8375 57.801C34.8369 56.1498 34.8363 54.5002 34.8457 52.851L33.8457 52.8453ZM31.8887 53.3544C32.7077 53.3532 33.5271 53.3519 34.348 53.3482L34.3434 52.3482C33.5243 52.3519 32.7064 52.3532 31.8872 52.3544L31.8887 53.3544ZM30.66 53.3566C31.0697 53.3557 31.4792 53.355 31.8887 53.3544L31.8872 52.3544C31.4777 52.355 31.0679 52.3557 30.6578 52.3566L30.66 53.3566ZM31.1576 55.3308C31.1583 54.5062 31.1589 53.6814 31.1589 52.8566H30.1589C30.1589 53.681 30.1583 54.5054 30.1576 55.3301L31.1576 55.3308ZM31.1589 60.277C31.1551 58.6287 31.1564 56.9802 31.1576 55.3308L30.1576 55.3301C30.1564 56.9792 30.1551 58.6292 30.1589 60.2793L31.1589 60.277ZM19.2709 57.5038C22.7654 59.4497 26.6991 60.4 30.6111 60.7759L30.7067 59.7804C26.8849 59.4133 23.096 58.4892 19.7574 56.6301L19.2709 57.5038ZM7.49297 45.7232C10.1068 50.716 14.2866 54.8988 19.2825 57.5101L19.7457 56.6238C14.9309 54.1072 10.8984 50.072 8.3789 45.2594L7.49297 45.7232ZM4.22425 34.3856C4.60011 38.3038 5.55615 42.2401 7.49894 45.7343L8.37293 45.2484C6.51636 41.9092 5.5868 38.1172 5.21968 34.2901L4.22425 34.3856ZM5.95927 33.8395C5.54705 33.8389 5.13479 33.8384 4.72253 33.8379L4.72139 34.8379C5.13355 34.8384 5.54571 34.8389 5.95794 34.8395L5.95927 33.8395ZM12.1445 33.8379C10.0819 33.8449 8.02112 33.8422 5.95927 33.8395L5.95794 34.8395C8.0194 34.8422 10.0826 34.8449 12.1479 34.8379L12.1445 33.8379ZM11.6472 32.1253C11.6458 32.8621 11.6445 33.6 11.6462 34.339L12.6462 34.3368C12.6445 33.6001 12.6458 32.8643 12.6472 32.1271L11.6472 32.1253ZM11.649 30.651C11.649 31.1426 11.6481 31.6337 11.6472 32.1253L12.6472 32.1271C12.6481 31.6357 12.649 31.1436 12.649 30.651H11.649ZM7.19744 31.1604C8.84725 31.1623 10.4993 31.1642 12.153 31.151L12.145 30.1511C10.4966 30.1642 8.84914 30.1623 7.19857 30.1604L7.19744 31.1604ZM4.72253 31.1595C5.54746 31.1585 6.37217 31.1595 7.19744 31.1604L7.19857 30.1604C6.37349 30.1595 5.54765 30.1585 4.72139 30.1595L4.72253 31.1595ZM6.99371 20.2443C5.36725 23.4858 4.5771 27.066 4.22442 30.61L5.2195 30.709C5.56478 27.2395 6.33378 23.7893 7.88751 20.6928L6.99371 20.2443Z" fill="white"/>
<path fill-rule="evenodd" clip-rule="evenodd" d="M29.4148 17.394C31.5436 16.2238 34.2747 16.1906 36.4371 17.3027C38.72 18.3651 40.3475 20.6198 40.6948 23.082C41.0421 25.1292 40.3447 27.1931 39.2186 28.8945C41.6976 29.7881 43.748 31.7827 44.6864 34.2228C45.4294 35.9351 45.4149 37.8386 45.4009 39.67L45.4006 39.7061C45.4146 41.1653 45.4097 42.6246 45.4048 44.0842V44.0844C45.3999 45.5441 45.395 47.0042 45.409 48.4649C37.1486 48.5286 28.8853 48.5147 20.6249 48.4705C20.621 46.7853 20.6237 45.1001 20.6263 43.415C20.6294 41.4234 20.6325 39.4319 20.6249 37.4403L20.7285 37.2549C20.7481 33.6114 23.3056 30.1145 26.7845 28.9138C25.5884 27.0381 24.8854 24.7308 25.44 22.5232C25.8994 20.3376 27.4008 18.4066 29.4148 17.394ZM31.2131 20.5368C29.5772 21.3225 28.5828 23.2757 29.0142 25.0379C29.44 27.052 31.5156 28.5182 33.5884 28.1669C36.2158 27.9234 37.9553 24.7723 36.7088 22.4651C35.8321 20.4593 33.171 19.5325 31.2131 20.5368ZM24.398 37.4735C24.3196 35.2796 25.8546 33.2379 27.8461 32.372C29.085 31.8048 30.4444 31.8297 31.7874 31.8543C32.1935 31.8618 32.5981 31.8692 32.9974 31.8602C33.416 31.8718 33.8415 31.8643 34.2688 31.8567C35.6682 31.8317 37.0877 31.8065 38.3559 32.455C40.2802 33.3486 41.6808 35.3626 41.6332 37.4873C41.6402 39.5366 41.6374 41.5879 41.6347 43.6394C41.6342 44.05 41.6336 44.4606 41.6332 44.8712C39.5166 44.8722 37.4003 44.8706 35.2842 44.869C31.6566 44.8662 28.0292 44.8635 24.4008 44.874C24.3976 43.4638 24.398 42.0536 24.3985 40.6439C24.3988 39.5867 24.3992 38.5299 24.398 37.4735Z" fill="#FD0D06"/>
<path d="M36.4371 17.3027L36.2084 17.7473L36.2172 17.7519L36.2262 17.756L36.4371 17.3027ZM29.4148 17.394L29.6393 17.8407L29.6476 17.8366L29.6556 17.8322L29.4148 17.394ZM40.6948 23.082L40.1995 23.1519L40.2018 23.1656L40.6948 23.082ZM39.2186 28.8945L38.8017 28.6185L38.4505 29.1491L39.0491 29.3649L39.2186 28.8945ZM44.6864 34.2228L44.2197 34.4023L44.2235 34.4122L44.2277 34.4219L44.6864 34.2228ZM45.4009 39.67L44.9009 39.6662L44.9009 39.6662L45.4009 39.67ZM45.4006 39.7061L44.9006 39.7023L44.9007 39.7109L45.4006 39.7061ZM45.4048 44.0842L44.9048 44.0825V44.0842H45.4048ZM45.4048 44.0844L45.9048 44.0861V44.0844H45.4048ZM45.409 48.4649L45.4129 48.9649L45.9138 48.9611L45.909 48.4601L45.409 48.4649ZM20.6249 48.4705L20.1249 48.4716L20.126 48.9678L20.6222 48.9705L20.6249 48.4705ZM20.6263 43.415L21.1263 43.4157L20.6263 43.415ZM20.6249 37.4403L20.1885 37.1963L20.1244 37.3109L20.1249 37.4422L20.6249 37.4403ZM20.7285 37.2549L21.165 37.499L21.2278 37.3865L21.2285 37.2576L20.7285 37.2549ZM26.7845 28.9138L26.9476 29.3865L27.547 29.1796L27.2061 28.645L26.7845 28.9138ZM25.44 22.5232L25.9249 22.645L25.9273 22.6355L25.9293 22.626L25.44 22.5232ZM29.0142 25.0379L29.5034 24.9345L29.5017 24.9268L29.4999 24.9191L29.0142 25.0379ZM31.2131 20.5368L31.4296 20.9876L31.4413 20.9817L31.2131 20.5368ZM33.5884 28.1669L33.5423 27.669L33.5235 27.6708L33.5048 27.6739L33.5884 28.1669ZM36.7088 22.4651L36.2507 22.6653L36.259 22.6844L36.2689 22.7027L36.7088 22.4651ZM27.8461 32.372L28.0455 32.8306L28.0543 32.8266L27.8461 32.372ZM24.398 37.4735L24.898 37.4729L24.898 37.4643L24.8977 37.4556L24.398 37.4735ZM31.7874 31.8543L31.7782 32.3543L31.7782 32.3543L31.7874 31.8543ZM32.9974 31.8602L33.0113 31.3604L32.9987 31.36L32.9861 31.3603L32.9974 31.8602ZM34.2688 31.8567L34.2599 31.3567L34.2599 31.3567L34.2688 31.8567ZM38.3559 32.455L38.1282 32.9002L38.1367 32.9045L38.1453 32.9085L38.3559 32.455ZM41.6332 37.4873L41.1331 37.4761L41.1332 37.489L41.6332 37.4873ZM41.6347 43.6394L41.1347 43.6388L41.1347 43.6388L41.6347 43.6394ZM41.6332 44.8712L41.6334 45.3712L42.1326 45.371L42.1332 44.8718L41.6332 44.8712ZM35.2842 44.869L35.2846 44.369L35.2846 44.369L35.2842 44.869ZM24.4008 44.874L23.9008 44.8751L23.9019 45.3754L24.4022 45.374L24.4008 44.874ZM24.3985 40.6439L23.8985 40.6437L23.8985 40.6437L24.3985 40.6439ZM36.6658 16.8581C34.3562 15.6702 31.4491 15.7051 29.1739 16.9558L29.6556 17.8322C31.6381 16.7424 34.1931 16.7109 36.2084 17.7473L36.6658 16.8581ZM41.1899 23.0122C40.8195 20.3864 39.0883 17.9849 36.6481 16.8494L36.2262 17.756C38.3518 18.7452 39.8754 20.8532 40.1997 23.1518L41.1899 23.0122ZM39.6356 29.1704C40.8057 27.4024 41.5631 25.2105 41.1877 22.9984L40.2018 23.1656C40.5212 25.048 39.8836 26.9837 38.8017 28.6185L39.6356 29.1704ZM45.153 34.0433C44.1619 31.466 42.0019 29.3663 39.3882 28.4241L39.0491 29.3649C41.3932 30.2098 43.3341 32.0995 44.2197 34.4023L45.153 34.0433ZM45.9009 39.6738C45.9147 37.8627 45.9373 35.8496 45.145 34.0238L44.2277 34.4219C44.9214 36.0206 44.915 37.8144 44.9009 39.6662L45.9009 39.6738ZM45.9006 39.7099L45.9009 39.6738L44.9009 39.6662L44.9007 39.7023L45.9006 39.7099ZM45.9048 44.0859C45.9097 42.6268 45.9147 41.1643 45.9006 39.7013L44.9007 39.7109C44.9146 41.1664 44.9098 42.6224 44.9048 44.0825L45.9048 44.0859ZM45.9048 44.0844V44.0842H44.9048V44.0844H45.9048ZM45.909 48.4601C45.8951 47.0031 45.8999 45.5463 45.9048 44.0861L44.9048 44.0827C44.8999 45.5419 44.895 47.0052 44.9091 48.4697L45.909 48.4601ZM20.6222 48.9705C28.8838 49.0147 37.1494 49.0286 45.4129 48.9649L45.4052 47.9649C37.1478 48.0285 28.8869 48.0147 20.6276 47.9705L20.6222 48.9705ZM20.1263 43.4142C20.1237 45.0992 20.121 46.7853 20.1249 48.4716L21.1249 48.4693C21.121 46.7853 21.1237 45.1011 21.1263 43.4157L20.1263 43.4142ZM20.1249 37.4422C20.1325 39.4322 20.1294 41.4224 20.1263 43.4142L21.1263 43.4157C21.1294 41.4244 21.1325 39.4315 21.1249 37.4384L20.1249 37.4422ZM20.2921 37.0109L20.1885 37.1963L21.0613 37.6843L21.165 37.499L20.2921 37.0109ZM26.6214 28.4412C22.9473 29.7092 20.2493 33.3907 20.2285 37.2522L21.2285 37.2576C21.247 33.8321 23.6638 30.5198 26.9476 29.3865L26.6214 28.4412ZM24.9551 22.4013C24.3555 24.7879 25.1226 27.2376 26.3629 29.1827L27.2061 28.645C26.0543 26.8387 25.4152 24.6738 25.9249 22.645L24.9551 22.4013ZM29.1902 16.9473C27.0426 18.027 25.4419 20.0832 24.9507 22.4203L25.9293 22.626C26.3568 20.592 27.7589 18.7861 29.6393 17.8407L29.1902 16.9473ZM29.4999 24.9191C29.1283 23.4012 29.9928 21.6776 31.4295 20.9875L30.9966 20.0861C29.1617 20.9674 28.0373 23.1501 28.5285 25.1568L29.4999 24.9191ZM33.5048 27.6739C31.7032 27.9793 29.8751 26.6928 29.5034 24.9345L28.525 25.1413C29.0048 27.4111 31.3279 29.0572 33.672 28.6598L33.5048 27.6739ZM36.2689 22.7027C36.7966 23.6795 36.7051 24.8619 36.163 25.8493C35.6209 26.8369 34.6627 27.5652 33.5423 27.669L33.6345 28.6647C35.1416 28.5251 36.3668 27.5562 37.0396 26.3305C37.7125 25.1047 37.8675 23.5579 37.1487 22.2274L36.2689 22.7027ZM31.4413 20.9817C33.1476 20.1065 35.4916 20.9288 36.2507 22.6653L37.167 22.2648C36.1725 19.9898 33.1944 18.9586 30.9849 20.0919L31.4413 20.9817ZM27.6468 31.9135C25.5024 32.8458 23.8112 35.0557 23.8983 37.4914L24.8977 37.4556C24.8279 35.5035 26.2068 33.63 28.0455 32.8305L27.6468 31.9135ZM31.7965 31.3544C30.4747 31.3302 28.9976 31.2949 27.638 31.9174L28.0543 32.8266C29.1724 32.3147 30.4141 32.3293 31.7782 32.3543L31.7965 31.3544ZM32.9861 31.3603C32.5987 31.369 32.2044 31.3619 31.7965 31.3544L31.7782 32.3543C32.1825 32.3617 32.5974 32.3693 33.0086 32.3601L32.9861 31.3603ZM34.2599 31.3567C33.8305 31.3644 33.4166 31.3717 33.0113 31.3604L32.9835 32.36C33.4155 32.372 33.8524 32.3642 34.2777 32.3566L34.2599 31.3567ZM38.5835 32.0098C37.1853 31.2948 35.6356 31.3322 34.2599 31.3567L34.2777 32.3566C35.7008 32.3312 36.99 32.3181 38.1282 32.9002L38.5835 32.0098ZM42.133 37.4985C42.1856 35.1525 40.6494 32.9687 38.5665 32.0015L38.1453 32.9085C39.911 33.7284 41.1759 35.5728 41.1333 37.4761L42.133 37.4985ZM42.1347 43.6401C42.1374 41.5887 42.1402 39.5363 42.1332 37.4856L41.1332 37.489C41.1402 39.537 41.1374 41.587 41.1347 43.6388L42.1347 43.6401ZM42.1332 44.8718C42.1336 44.4612 42.1342 44.0507 42.1347 43.6401L41.1347 43.6388C41.1342 44.0493 41.1336 44.46 41.1332 44.8706L42.1332 44.8718ZM35.2839 45.369C37.3999 45.3706 39.5164 45.3722 41.6334 45.3712L41.6329 44.3712C39.5167 44.3722 37.4008 44.3706 35.2846 44.369L35.2839 45.369ZM24.4022 45.374C28.0296 45.3635 31.6561 45.3662 35.2839 45.369L35.2846 44.369C31.6571 44.3662 28.0289 44.3635 24.3993 44.374L24.4022 45.374ZM23.8985 40.6437C23.898 42.0533 23.8976 43.4641 23.9008 44.8751L24.9008 44.8728C24.8976 43.4634 24.898 42.0538 24.8985 40.644L23.8985 40.6437ZM23.898 37.4741C23.8992 38.53 23.8988 39.5865 23.8985 40.6437L24.8985 40.644C24.8988 39.5869 24.8992 38.5297 24.898 37.4729L23.898 37.4741Z" fill="white"/>
</svg>
