<svg width="61" height="61" viewBox="0 0 61 61" fill="none" xmlns="http://www.w3.org/2000/svg">
<path fill-rule="evenodd" clip-rule="evenodd" d="M12.6378 8.51171H14.9758C16.092 8.51171 17 9.35143 17 10.3837V16.1279C17.0001 17.1602 16.0921 18 14.9759 18H8.02423C6.90804 18 6 17.1603 6 16.1281V9.94448C6 2.1095 10.8415 0.213074 14.903 0.00180608C15.2555 -0.0161363 15.6011 0.100192 15.8579 0.32465C16.1146 0.549107 16.26 0.861494 16.26 1.18814V4.74393C16.26 5.35849 15.7534 5.87157 15.0915 5.9273L15.0914 5.92731C14.4289 5.98304 12.9894 6.10412 12.6378 8.51171ZM8.56979 15.6234H14.4303V10.8882H11.2742C10.5646 10.8882 9.98935 10.3562 9.98935 9.69994C9.98935 5.68359 11.9696 4.25319 13.6902 3.76887V2.51956C11.1988 2.95053 8.56979 4.47741 8.56979 9.94448V15.6234Z" fill="#FD0D06"/>
<path fill-rule="evenodd" clip-rule="evenodd" d="M24.6377 8.51171H26.9758C28.092 8.51171 29 9.35143 29 10.3837V16.1278C29.0001 17.1602 28.092 18 26.9758 18H20.0242C18.908 18 18 17.1603 18 16.1281V9.94448C18 2.1095 22.8414 0.213074 26.9029 0.00180608C27.2551 -0.0161363 27.601 0.100192 27.8577 0.32465C28.1145 0.549107 28.2599 0.861494 28.2599 1.18814V4.74393C28.2599 5.35849 27.7533 5.87157 27.0914 5.9273L27.0913 5.92731C26.4288 5.98304 24.9894 6.10412 24.6377 8.51171ZM20.5698 15.6235H26.4302V10.8882H23.2742C22.5645 10.8882 21.9893 10.3562 21.9893 9.69994C21.9893 5.68359 23.9696 4.25319 25.6901 3.76887V2.51956C23.1988 2.95053 20.5698 4.47741 20.5698 9.94448V15.6235Z" fill="#FD0D06"/>
<path d="M33.707 10.293C33.521 10.107 33.263 10 33 10C32.737 10 32.479 10.107 32.293 10.293C32.107 10.479 32 10.737 32 11C32 11.263 32.107 11.521 32.293 11.707C32.479 11.893 32.737 12 33 12C33.263 12 33.521 11.893 33.707 11.707C33.893 11.521 34 11.263 34 11C34 10.737 33.893 10.479 33.707 10.293Z" fill="#FD0D06"/>
<path d="M39.8248 10H38.3235C37.6655 10 37.1321 10.5259 37.1321 11.1748C37.1321 11.8236 37.6655 12.3495 38.3235 12.3495H39.8248C50.1869 12.3495 58.6172 20.662 58.6172 30.8794C58.6172 39.5999 52.3447 47.2264 43.7023 49.0136C43.1506 49.1278 42.7555 49.6075 42.7555 50.1633V56.9891L35.4172 49.7533C35.1938 49.533 34.8907 49.4092 34.5747 49.4092H21.1752C10.8131 49.4092 2.38281 41.0967 2.38281 30.8794C2.38281 27.7304 3.19809 24.621 4.74061 21.8868C5.06062 21.3199 4.85367 20.6046 4.2787 20.2891C3.70361 19.9736 2.97816 20.1777 2.65838 20.7446C0.91917 23.8271 0 27.3316 0 30.8794C0 42.3924 9.49908 51.7587 21.1752 51.7587H34.0812L43.1045 60.6559C43.3324 60.8806 43.637 61 43.9472 61C44.1006 61 44.2555 60.9707 44.4029 60.9105C44.848 60.7287 45.1383 60.3004 45.1383 59.8252V51.0943C49.4492 49.9928 53.3471 47.5419 56.1954 44.1229C59.2937 40.404 61 35.7007 61 30.8794C61 19.3665 51.5009 10.0001 39.8248 10Z" fill="#FD0D06"/>
<path d="M45.7976 21H16.2024C15.5383 21 15 21.4477 15 22C15 22.5523 15.5383 23 16.2024 23H45.7974C46.4616 23 47 22.5523 47 22C47 21.4477 46.4617 21 45.7976 21Z" fill="#FD0D06"/>
<path d="M45.7976 28H16.2024C15.5383 28 15 28.4477 15 29C15 29.5523 15.5383 30 16.2024 30H45.7974C46.4616 30 47 29.5523 47 29C47 28.4477 46.4617 28 45.7976 28Z" fill="#FD0D06"/>
<path d="M45.7976 34H16.2024C15.5383 34 15 34.4478 15 35C15 35.5522 15.5383 36 16.2024 36H45.7974C46.4616 36 47 35.5522 47 35C47 34.4478 46.4617 34 45.7976 34Z" fill="#FD0D06"/>
<path d="M44.8095 41H29.1905C28.533 41 28 41.4478 28 42C28 42.5522 28.533 43 29.1905 43H44.8095C45.467 43 46 42.5522 46 42C46 41.4478 45.467 41 44.8095 41Z" fill="#FD0D06"/>
<path d="M22.008 41H21.992C21.4441 41 21 41.4478 21 42C21 42.5522 21.4441 43 21.992 43H22.008C22.5559 43 23 42.5522 23 42C23 41.4478 22.5559 41 22.008 41Z" fill="#FD0D06"/>
</svg>
