<svg width="41" height="49" viewBox="0 0 41 49" fill="none" xmlns="http://www.w3.org/2000/svg">
<path fill-rule="evenodd" clip-rule="evenodd" d="M34.3817 20.4104H39.2677C39.6721 20.4104 39.9995 20.7377 39.9995 21.1414C39.9995 21.5452 39.6718 21.8724 39.2674 21.8724H34.9066L34.5115 23.1058C34.5092 27.095 33.6638 33.1554 31.7966 37.1853L27.5809 46.2836C27.2231 47.3194 26.2564 48 25.1707 48C25.0999 48.0001 25.0286 47.9972 24.9567 47.9912C23.6659 47.8851 22.6159 46.7231 22.6159 45.401C22.6159 45.3346 22.625 45.2682 22.6429 45.2042C23.457 42.2935 25.0805 34.0955 22.8443 31.154C22.2943 30.4304 21.5416 30.0787 20.5434 30.0787C19.52 30.0787 18.7511 30.4377 18.1928 31.1759C15.9519 34.1395 17.6159 42.3411 18.4462 45.2511C18.4648 45.3162 18.4742 45.3838 18.4742 45.4515C18.4742 46.1366 18.2058 46.7796 17.7183 47.2618C17.2366 47.7383 16.5996 47.9999 15.9222 47.9999L15.898 47.9998C14.815 47.9898 13.8545 47.2823 13.4933 46.2341L9.2973 37.1918C7.42573 33.1585 6.57809 27.0936 6.5755 23.1059L6.18023 21.8724H1.73218C1.32779 21.8724 1 21.5452 1 21.1414C1 20.7377 1.32779 20.4104 1.73218 20.4104H6.7065H6.71247H12.4099V19.6217H6.00203H5.99516H1.73218C1.32779 19.6217 1 19.2945 1 18.8907C1 18.487 1.32779 18.1597 1.73218 18.1597H4.99061L3.31031 12.9165C3.00854 11.9506 2.86988 10.9482 2.89646 9.93208C3.02521 4.99851 7.14345 1.00017 12.0854 1.00017H12.127L12.2453 1.00074C14.2529 1.00962 16.1031 2.06271 17.1946 3.81789C17.9196 4.98344 19.1716 5.67935 20.5437 5.67935C21.9158 5.67935 23.1677 4.98355 23.8927 3.81789C24.9843 2.06271 26.8344 1.00951 28.8418 1.00074L28.9605 1.00017C33.9222 0.97847 38.0616 4.98457 38.191 9.93208C38.2175 10.9482 38.0788 11.9505 37.7787 12.9113L36.0968 18.1597H39.2678C39.6722 18.1597 40 18.487 40 18.8907C40 19.2945 39.6722 19.6217 39.2678 19.6217H35.0975L35.0941 19.622L35.0906 19.6217H28.577V20.4104H34.3735H34.3817ZM4.70652 12.4762L6.52796 18.1599V18.1597H12.41V12.8181C12.41 12.4143 12.7378 12.0871 13.1421 12.0871H18.239C18.6417 12.0871 18.9687 12.4116 18.9712 12.8136L18.9736 13.2123H21.9651V12.8181C21.9651 12.4143 22.2929 12.0871 22.6973 12.0871H27.8446C28.2489 12.0871 28.5767 12.4143 28.5767 12.8181V18.1597H34.5592L36.3822 12.471C36.6328 11.6688 36.7492 10.8257 36.7269 9.9702C36.6187 5.82308 33.1565 2.46217 29.0017 2.46217L28.9668 2.46228L28.8478 2.46285C27.348 2.46937 25.9605 3.26425 25.1367 4.58915C24.1428 6.18734 22.4257 7.14146 20.5436 7.14146C18.6614 7.14146 16.9444 6.18734 15.9505 4.58915C15.1265 3.26436 13.739 2.46937 12.239 2.46285L12.1204 2.46228C7.95414 2.44092 4.46873 5.81138 4.36015 9.9702C4.33784 10.8257 4.45432 11.6688 4.70652 12.4762ZM22.6973 25.3577H18.978V14.6745H21.9639V22.8253C21.9639 23.229 22.2917 23.5563 22.6961 23.5563C23.1005 23.5563 23.4283 23.229 23.4283 22.8253V13.9674C23.4285 13.9594 23.4295 13.9516 23.4295 13.9435V13.5492H27.1124V26.4831H23.4295V26.0888C23.4295 25.6851 23.1017 25.3577 22.6973 25.3577ZM17.5112 13.5492H13.8743H13.8742V26.4831H17.5136V26.0888V13.948L17.5112 13.5492ZM12.41 21.8725V23.6684C10.1787 23.1964 8.55284 22.6609 7.89613 22.429L7.71781 21.8725H12.41ZM33.0472 23.0035C33.047 22.9269 33.0587 22.8423 33.0821 22.7695L33.3693 21.8727H28.5766V23.6801L28.6324 23.6685C28.7664 23.6404 28.9004 23.6124 29.0334 23.5831C29.4289 23.4956 29.8191 23.7449 29.9063 24.1391C29.9936 24.5333 29.7442 24.9235 29.3494 25.0105C29.0931 25.0671 28.8349 25.121 28.5767 25.1732V27.2142C28.5767 27.618 28.249 27.9452 27.8446 27.9452H22.6973C22.2929 27.9452 21.9652 27.618 21.9652 27.2142V26.8199H18.978V27.2142C18.978 27.618 18.6502 27.9452 18.2458 27.9452H13.142C12.7376 27.9452 12.4099 27.618 12.4099 27.2142V25.1619C10.4851 24.7698 8.97728 24.3279 8.05529 24.0277C8.17278 27.8228 8.98483 33.0405 10.626 36.5774L14.839 45.6564C14.8513 45.6828 14.862 45.7101 14.871 45.7378C15.023 46.2048 15.4508 46.5338 15.9116 46.5381H15.922C16.2108 46.5381 16.4824 46.4267 16.6877 46.2236C16.8746 46.0388 16.986 45.7986 17.0066 45.5397C16.6625 44.2952 14.0201 34.2699 17.0239 30.296C17.8661 29.182 19.0503 28.6171 20.5437 28.6171C22.0108 28.6171 23.1775 29.1736 24.0115 30.2711C27.0108 34.2176 24.4204 44.2464 24.0842 45.4867C24.1282 46.014 24.5733 46.493 25.0771 46.5344C25.5843 46.5762 26.0469 46.2688 26.2036 45.7873C26.2125 45.7597 26.2232 45.7326 26.2353 45.7062L30.4679 36.5716C32.2592 32.7056 33.0606 26.8283 33.0472 23.0035Z" fill="#FD0D06"/>
<path d="M34.9066 21.8724V21.7224H34.7972L34.7638 21.8267L34.9066 21.8724ZM34.5115 23.1058L34.3686 23.06L34.3615 23.0823L34.3615 23.1057L34.5115 23.1058ZM31.7966 37.1853L31.9327 37.2483L31.9327 37.2483L31.7966 37.1853ZM27.5809 46.2836L27.4448 46.2206L27.4416 46.2275L27.4391 46.2346L27.5809 46.2836ZM25.1707 48V47.85H25.1705L25.1707 48ZM24.9567 47.9912L24.9691 47.8417L24.969 47.8417L24.9567 47.9912ZM22.6429 45.2042L22.7874 45.2446L22.7874 45.2446L22.6429 45.2042ZM22.8443 31.154L22.7249 31.2447L22.7249 31.2447L22.8443 31.154ZM18.1928 31.1759L18.0732 31.0854L18.0732 31.0854L18.1928 31.1759ZM18.4462 45.2511L18.3019 45.2923L18.3019 45.2923L18.4462 45.2511ZM17.7183 47.2618L17.6128 47.1552L17.6128 47.1552L17.7183 47.2618ZM15.9222 47.9999L15.9215 48.1499H15.9222V47.9999ZM15.898 47.9998L15.8966 48.1498L15.8973 48.1498L15.898 47.9998ZM13.4933 46.2341L13.6351 46.1853L13.6326 46.178L13.6293 46.171L13.4933 46.2341ZM9.2973 37.1918L9.16123 37.2549L9.2973 37.1918ZM6.5755 23.1059L6.7255 23.1058L6.72548 23.0824L6.71835 23.0601L6.5755 23.1059ZM6.18023 21.8724L6.32308 21.8267L6.28968 21.7224H6.18023V21.8724ZM12.4099 20.4104V20.5604H12.5599V20.4104H12.4099ZM12.4099 19.6217H12.5599V19.4717H12.4099V19.6217ZM4.99061 18.1597V18.3097H5.19619L5.13345 18.114L4.99061 18.1597ZM3.31031 12.9165L3.16713 12.9612L3.16747 12.9622L3.31031 12.9165ZM2.89646 9.93208L3.04641 9.936L3.04641 9.93599L2.89646 9.93208ZM12.127 1.00017L12.1277 0.850175H12.127V1.00017ZM12.2453 1.00074L12.2446 1.15074L12.2446 1.15074L12.2453 1.00074ZM17.1946 3.81789L17.0672 3.89711L17.0672 3.89712L17.1946 3.81789ZM23.8927 3.81789L23.7653 3.73867V3.73867L23.8927 3.81789ZM28.8418 1.00074L28.8424 1.15074L28.8425 1.15074L28.8418 1.00074ZM28.9605 1.00017L28.9599 0.850176L28.9598 0.850177L28.9605 1.00017ZM38.191 9.93208L38.041 9.936V9.936L38.191 9.93208ZM37.7787 12.9113L37.9215 12.9571L37.9219 12.956L37.7787 12.9113ZM36.0968 18.1597L35.954 18.114L35.8912 18.3097H36.0968V18.1597ZM35.0975 19.6217V19.4714L35.0879 19.4721L35.0975 19.6217ZM35.0941 19.622L35.0844 19.7717L35.0941 19.7723L35.1037 19.7717L35.0941 19.622ZM35.0906 19.6217L35.1002 19.4717H35.0906V19.6217ZM28.577 19.6217V19.4717H28.427V19.6217H28.577ZM28.577 20.4104H28.427V20.5604H28.577V20.4104ZM6.52796 18.1599L6.38512 18.2056L6.67796 18.1599H6.52796ZM4.70652 12.4762L4.56334 12.5209L4.56368 12.522L4.70652 12.4762ZM6.52796 18.1597V18.0097H6.37796V18.1597H6.52796ZM12.41 18.1597V18.3097H12.56V18.1597H12.41ZM18.9712 12.8136L19.1212 12.8127V12.8126L18.9712 12.8136ZM18.9736 13.2123L18.8236 13.2132L18.8245 13.3623H18.9736V13.2123ZM21.9651 13.2123V13.3623H22.1151V13.2123H21.9651ZM28.5767 18.1597H28.4267V18.3097H28.5767V18.1597ZM34.5592 18.1597V18.3097H34.6687L34.7021 18.2055L34.5592 18.1597ZM36.3822 12.471L36.5251 12.5168L36.5254 12.5157L36.3822 12.471ZM36.7269 9.9702L36.8769 9.96629V9.96629L36.7269 9.9702ZM29.0017 2.46217V2.31217L29.0013 2.31217L29.0017 2.46217ZM28.9668 2.46228L28.9663 2.31228L28.9661 2.31229L28.9668 2.46228ZM28.8478 2.46285L28.8484 2.61284L28.8485 2.61284L28.8478 2.46285ZM25.1367 4.58915L25.2641 4.66837L25.2641 4.66835L25.1367 4.58915ZM15.9505 4.58915L16.0778 4.50993L16.0778 4.50993L15.9505 4.58915ZM12.239 2.46285L12.2383 2.61284L12.2383 2.61284L12.239 2.46285ZM12.1204 2.46228L12.1196 2.61228L12.1196 2.61228L12.1204 2.46228ZM4.36015 9.9702L4.2102 9.96628L4.2102 9.96629L4.36015 9.9702ZM18.978 25.3577H18.828V25.5077H18.978V25.3577ZM18.978 14.6745V14.5245H18.828V14.6745H18.978ZM21.9639 14.6745H22.1139V14.5245H21.9639V14.6745ZM23.4283 13.9674L23.2783 13.9632V13.9674H23.4283ZM23.4295 13.5492V13.3992H23.2795V13.5492H23.4295ZM27.1124 13.5492H27.2624V13.3992H27.1124V13.5492ZM27.1124 26.4831V26.6331H27.2624V26.4831H27.1124ZM23.4295 26.4831H23.2795V26.6331H23.4295V26.4831ZM17.5112 13.5492L17.6612 13.5483L17.6604 13.3992H17.5112V13.5492ZM13.8742 13.5492V13.3992H13.7242V13.5492H13.8742ZM13.8742 26.4831H13.7242V26.6331H13.8742V26.4831ZM17.5136 26.4831V26.6331H17.6636V26.4831H17.5136ZM17.5136 13.948H17.6636L17.6636 13.9471L17.5136 13.948ZM12.41 23.6684L12.3789 23.8152L12.56 23.8535V23.6684H12.41ZM12.41 21.8725H12.56V21.7225H12.41V21.8725ZM7.89613 22.429L7.75328 22.4748L7.776 22.5457L7.84618 22.5704L7.89613 22.429ZM7.71781 21.8725V21.7225H7.51223L7.57497 21.9183L7.71781 21.8725ZM33.0821 22.7695L33.2249 22.8155L33.225 22.8153L33.0821 22.7695ZM33.0472 23.0035L32.8972 23.0039V23.004L33.0472 23.0035ZM33.3693 21.8727L33.5121 21.9184L33.5748 21.7227H33.3693V21.8727ZM28.5766 21.8727V21.7227H28.4266V21.8727H28.5766ZM28.5766 23.6801H28.4266V23.8648L28.6074 23.827L28.5766 23.6801ZM28.6324 23.6685L28.6017 23.5216L28.6017 23.5216L28.6324 23.6685ZM29.0334 23.5831L29.0657 23.7296L29.0658 23.7295L29.0334 23.5831ZM29.9063 24.1391L29.7598 24.1715L29.7598 24.1715L29.9063 24.1391ZM29.3494 25.0105L29.3171 24.8641L29.317 24.8641L29.3494 25.0105ZM28.5767 25.1732L28.547 25.0261L28.4267 25.0505V25.1732H28.5767ZM21.9652 26.8199H22.1152V26.6699H21.9652V26.8199ZM18.978 26.8199V26.6699H18.828V26.8199H18.978ZM12.4099 25.1619H12.5599V25.0394L12.4398 25.0149L12.4099 25.1619ZM8.05529 24.0277L8.10173 23.8851L7.89876 23.819L7.90537 24.0324L8.05529 24.0277ZM10.626 36.5774L10.49 36.6406L10.626 36.5774ZM14.839 45.6564L14.7029 45.7196L14.703 45.7196L14.839 45.6564ZM14.871 45.7378L14.7283 45.7841L14.7284 45.7843L14.871 45.7378ZM15.9116 46.5381L15.9102 46.6881H15.9116V46.5381ZM16.6877 46.2236L16.5822 46.1169L16.5822 46.1169L16.6877 46.2236ZM17.0066 45.5397L17.1561 45.5516L17.1582 45.5252L17.1512 45.4997L17.0066 45.5397ZM17.0239 30.296L16.9043 30.2055L16.9043 30.2056L17.0239 30.296ZM24.0115 30.2711L23.8921 30.3619L23.8921 30.3619L24.0115 30.2711ZM24.0842 45.4867L23.9394 45.4475L23.9325 45.4729L23.9347 45.4992L24.0842 45.4867ZM25.0771 46.5344L25.0895 46.3849L25.0894 46.3849L25.0771 46.5344ZM26.2036 45.7873L26.3462 45.8337L26.3464 45.8332L26.2036 45.7873ZM26.2353 45.7062L26.0992 45.6432L26.0992 45.6433L26.2353 45.7062ZM30.4679 36.5716L30.604 36.6346L30.4679 36.5716ZM39.2677 20.2604H34.3817V20.5604H39.2677V20.2604ZM40.1496 21.1414C40.1496 20.6547 39.7548 20.2604 39.2677 20.2604V20.5604C39.5894 20.5604 39.8495 20.8207 39.8495 21.1414H40.1496ZM39.2674 22.0224C39.7544 22.0224 40.1496 21.6282 40.1496 21.1414H39.8495C39.8495 21.4621 39.5891 21.7224 39.2674 21.7224V22.0224ZM34.9066 22.0224H39.2674V21.7224H34.9066V22.0224ZM34.6543 23.1516L35.0495 21.9182L34.7638 21.8267L34.3686 23.06L34.6543 23.1516ZM31.9327 37.2483C33.8124 33.1917 34.6592 27.1074 34.6615 23.1059L34.3615 23.1057C34.3592 27.0827 33.5153 33.1192 31.6605 37.1222L31.9327 37.2483ZM27.717 46.3467L31.9327 37.2483L31.6605 37.1222L27.4448 46.2206L27.717 46.3467ZM25.1707 48.15C26.3199 48.15 27.3439 47.4292 27.7226 46.3326L27.4391 46.2346C27.1024 47.2095 26.1929 47.85 25.1707 47.85V48.15ZM24.9443 48.1407C25.0203 48.147 25.0958 48.1501 25.171 48.15L25.1705 47.85C25.104 47.8501 25.0369 47.8474 24.9691 47.8417L24.9443 48.1407ZM22.4659 45.401C22.4659 46.7986 23.5733 48.0279 24.9444 48.1407L24.969 47.8417C23.7586 47.7422 22.7659 46.6476 22.7659 45.401H22.4659ZM22.4985 45.1638C22.4769 45.2409 22.4659 45.3209 22.4659 45.401H22.7659C22.7659 45.3482 22.7731 45.2955 22.7874 45.2446L22.4985 45.1638ZM22.7249 31.2447C23.2604 31.9491 23.5736 32.982 23.7218 34.1991C23.8697 35.4131 23.8516 36.7936 23.738 38.1784C23.5108 40.948 22.9035 43.7156 22.4985 45.1638L22.7874 45.2446C23.1964 43.7821 23.8079 40.9953 24.037 38.2029C24.1515 36.8067 24.1708 35.4042 24.0196 34.1628C23.8688 32.9245 23.5463 31.8296 22.9637 31.0632L22.7249 31.2447ZM20.5434 30.2287C21.5001 30.2287 22.2063 30.5625 22.7249 31.2447L22.9637 31.0632C22.3823 30.2983 21.5832 29.9287 20.5434 29.9287V30.2287ZM18.3125 31.2664C18.8391 30.57 19.5613 30.2287 20.5434 30.2287V29.9287C19.4787 29.9287 18.6631 30.3054 18.0732 31.0854L18.3125 31.2664ZM18.5904 45.2099C18.1773 43.7622 17.5559 40.9939 17.3173 38.2207C17.1979 36.8342 17.1747 35.4512 17.3192 34.2339C17.4641 33.0135 17.7757 31.9762 18.3125 31.2664L18.0732 31.0854C17.4895 31.8574 17.1688 32.9566 17.0213 34.1985C16.8735 35.4434 16.898 36.8484 17.0184 38.2464C17.259 41.0425 17.8847 43.83 18.3019 45.2923L18.5904 45.2099ZM18.6242 45.4515C18.6242 45.3699 18.6128 45.2884 18.5904 45.2099L18.3019 45.2923C18.3167 45.344 18.3242 45.3977 18.3242 45.4515H18.6242ZM17.8238 47.3684C18.3397 46.8581 18.6242 46.1767 18.6242 45.4515H18.3242C18.3242 46.0965 18.0718 46.7011 17.6128 47.1552L17.8238 47.3684ZM15.9222 48.1499C16.6391 48.1499 17.314 47.8727 17.8238 47.3684L17.6128 47.1552C17.1592 47.6039 16.5602 47.8499 15.9222 47.8499V48.1499ZM15.8973 48.1498L15.9215 48.1499L15.9229 47.8499L15.8987 47.8498L15.8973 48.1498ZM13.3514 46.283C13.7326 47.3889 14.7478 48.1391 15.8966 48.1498L15.8993 47.8498C14.8822 47.8404 13.9764 47.1756 13.6351 46.1853L13.3514 46.283ZM9.16123 37.2549L13.3572 46.2973L13.6293 46.171L9.43336 37.1287L9.16123 37.2549ZM6.4255 23.106C6.4281 27.106 7.27721 33.1948 9.16123 37.2549L9.43336 37.1287C7.57425 33.1222 6.72808 27.0812 6.7255 23.1058L6.4255 23.106ZM6.03739 21.9182L6.43265 23.1517L6.71835 23.0601L6.32308 21.8267L6.03739 21.9182ZM1.73218 22.0224H6.18023V21.7224H1.73218V22.0224ZM0.85 21.1414C0.85 21.6282 1.24518 22.0224 1.73218 22.0224V21.7224C1.41041 21.7224 1.15 21.4621 1.15 21.1414H0.85ZM1.73218 20.2604C1.24518 20.2604 0.85 20.6546 0.85 21.1414H1.15C1.15 20.8208 1.41041 20.5604 1.73218 20.5604V20.2604ZM6.7065 20.2604H1.73218V20.5604H6.7065V20.2604ZM6.71247 20.2604H6.7065V20.5604H6.71247V20.2604ZM12.4099 20.2604H6.71247V20.5604H12.4099V20.2604ZM12.2599 19.6217V20.4104H12.5599V19.6217H12.2599ZM6.00203 19.7717H12.4099V19.4717H6.00203V19.7717ZM5.99516 19.7717H6.00203V19.4717H5.99516V19.7717ZM1.73218 19.7717H5.99516V19.4717H1.73218V19.7717ZM0.85 18.8907C0.85 19.3776 1.24518 19.7717 1.73218 19.7717V19.4717C1.41041 19.4717 1.15 19.2114 1.15 18.8907H0.85ZM1.73218 18.0097C1.24518 18.0097 0.85 18.4039 0.85 18.8907H1.15C1.15 18.5701 1.41041 18.3097 1.73218 18.3097V18.0097ZM4.99061 18.0097H1.73218V18.3097H4.99061V18.0097ZM3.16747 12.9622L4.84777 18.2055L5.13345 18.114L3.45316 12.8707L3.16747 12.9622ZM2.74651 9.92815C2.7195 10.9606 2.86041 11.9795 3.16714 12.9612L3.45349 12.8717C3.15667 11.9218 3.02025 10.9357 3.04641 9.936L2.74651 9.92815ZM12.0854 0.850175C7.0625 0.850175 2.87739 4.91294 2.74651 9.92816L3.04641 9.93599C3.17303 5.08408 7.2244 1.15017 12.0854 1.15017V0.850175ZM12.127 0.850175H12.0854V1.15017H12.127V0.850175ZM12.246 0.850739L12.1277 0.850177L12.1263 1.15017L12.2446 1.15074L12.246 0.850739ZM17.322 3.73868C16.2042 1.94124 14.307 0.859859 12.2459 0.850739L12.2446 1.15074C14.1988 1.15938 16.002 2.18417 17.0672 3.89711L17.322 3.73868ZM20.5437 5.52935C19.2235 5.52935 18.0196 4.86022 17.322 3.73867L17.0672 3.89712C17.8196 5.10666 19.1197 5.82935 20.5437 5.82935V5.52935ZM23.7653 3.73867C23.0677 4.86034 21.864 5.52935 20.5437 5.52935V5.82935C21.9677 5.82935 23.2677 5.10677 24.0201 3.89711L23.7653 3.73867ZM28.8411 0.850739C26.7803 0.859744 24.8832 1.94126 23.7653 3.73867L24.0201 3.89711C25.0854 2.18416 26.8885 1.15927 28.8424 1.15074L28.8411 0.850739ZM28.9598 0.850177L28.8411 0.850739L28.8425 1.15074L28.9612 1.15017L28.9598 0.850177ZM38.3409 9.92816C38.2094 4.89878 34.0028 0.828116 28.9599 0.850176L28.9612 1.15017C33.8416 1.12882 37.9138 5.07035 38.041 9.936L38.3409 9.92816ZM37.9219 12.956C38.2269 11.9794 38.3679 10.9606 38.3409 9.92815L38.041 9.936C38.0672 10.9358 37.9306 11.9217 37.6355 12.8666L37.9219 12.956ZM36.2396 18.2055L37.9215 12.9571L37.6358 12.8655L35.954 18.114L36.2396 18.2055ZM39.2678 18.0097H36.0968V18.3097H39.2678V18.0097ZM40.15 18.8907C40.15 18.4039 39.7548 18.0097 39.2678 18.0097V18.3097C39.5896 18.3097 39.85 18.5701 39.85 18.8907H40.15ZM39.2678 19.7717C39.7548 19.7717 40.15 19.3776 40.15 18.8907H39.85C39.85 19.2114 39.5896 19.4717 39.2678 19.4717V19.7717ZM35.0975 19.7717H39.2678V19.4717H35.0975V19.7717ZM35.1037 19.7717L35.1072 19.7714L35.0879 19.4721L35.0844 19.4723L35.1037 19.7717ZM35.0809 19.7714L35.0844 19.7717L35.1037 19.4723L35.1002 19.4721L35.0809 19.7714ZM28.577 19.7717H35.0906V19.4717H28.577V19.7717ZM28.727 20.4104V19.6217H28.427V20.4104H28.727ZM34.3735 20.2604H28.577V20.5604H34.3735V20.2604ZM34.3817 20.2604H34.3735V20.5604H34.3817V20.2604ZM6.67081 18.1141L4.84937 12.4304L4.56368 12.522L6.38512 18.2056L6.67081 18.1141ZM6.37796 18.1597V18.1599H6.67796V18.1597H6.37796ZM12.41 18.0097H6.52796V18.3097H12.41V18.0097ZM12.26 12.8181V18.1597H12.56V12.8181H12.26ZM13.1421 11.9371C12.6551 11.9371 12.26 12.3313 12.26 12.8181H12.56C12.56 12.4974 12.8204 12.2371 13.1421 12.2371V11.9371ZM18.239 11.9371H13.1421V12.2371H18.239V11.9371ZM19.1212 12.8126C19.1182 12.328 18.724 11.9371 18.239 11.9371V12.2371C18.5595 12.2371 18.8192 12.4952 18.8212 12.8145L19.1212 12.8126ZM19.1236 13.2115L19.1212 12.8127L18.8212 12.8144L18.8236 13.2132L19.1236 13.2115ZM21.9651 13.0623H18.9736V13.3623H21.9651V13.0623ZM21.8151 12.8181V13.2123H22.1151V12.8181H21.8151ZM22.6973 11.9371C22.2103 11.9371 21.8151 12.3312 21.8151 12.8181H22.1151C22.1151 12.4974 22.3756 12.2371 22.6973 12.2371V11.9371ZM27.8446 11.9371H22.6973V12.2371H27.8446V11.9371ZM28.7267 12.8181C28.7267 12.3312 28.3316 11.9371 27.8446 11.9371V12.2371C28.1663 12.2371 28.4267 12.4974 28.4267 12.8181H28.7267ZM28.7267 18.1597V12.8181H28.4267V18.1597H28.7267ZM34.5592 18.0097H28.5767V18.3097H34.5592V18.0097ZM36.2394 12.4252L34.4164 18.114L34.7021 18.2055L36.5251 12.5168L36.2394 12.4252ZM36.577 9.97411C36.5989 10.8134 36.4846 11.6401 36.2391 12.4263L36.5254 12.5157C36.7809 11.6976 36.8996 10.838 36.8769 9.96629L36.577 9.97411ZM29.0017 2.61217C33.0755 2.61217 36.4709 5.90867 36.577 9.97411L36.8769 9.96629C36.7665 5.73749 33.2374 2.31217 29.0017 2.31217V2.61217ZM28.9673 2.61228L29.0022 2.61217L29.0013 2.31217L28.9663 2.31228L28.9673 2.61228ZM28.8485 2.61284L28.9675 2.61228L28.9661 2.31229L28.8471 2.31285L28.8485 2.61284ZM25.2641 4.66835C26.0619 3.38515 27.4027 2.61913 28.8484 2.61284L28.8471 2.31285C27.2933 2.31961 25.859 3.14334 25.0093 4.50995L25.2641 4.66835ZM20.5436 7.29146C22.4776 7.29146 24.2428 6.31058 25.2641 4.66837L25.0094 4.50993C24.0428 6.0641 22.3739 6.99146 20.5436 6.99146V7.29146ZM15.8231 4.66837C16.8444 6.31058 18.6096 7.29146 20.5436 7.29146V6.99146C18.7133 6.99146 17.0444 6.0641 16.0778 4.50993L15.8231 4.66837ZM12.2383 2.61284C13.6843 2.61913 15.025 3.38526 15.8231 4.66837L16.0778 4.50993C15.2279 3.14346 13.7938 2.31961 12.2396 2.31285L12.2383 2.61284ZM12.1196 2.61228L12.2383 2.61284L12.2397 2.31285L12.1211 2.31229L12.1196 2.61228ZM4.5101 9.97411C4.61655 5.89716 8.03471 2.59133 12.1196 2.61228L12.1211 2.31229C7.87357 2.2905 4.32092 5.7256 4.2102 9.96628L4.5101 9.97411ZM4.8497 12.4314C4.60247 11.64 4.48822 10.8133 4.5101 9.97411L4.2102 9.96629C4.18747 10.838 4.30616 11.6976 4.56335 12.5209L4.8497 12.4314ZM18.978 25.5077H22.6973V25.2077H18.978V25.5077ZM18.828 14.6745V25.3577H19.128V14.6745H18.828ZM21.9639 14.5245H18.978V14.8245H21.9639V14.5245ZM22.1139 22.8253V14.6745H21.8139V22.8253H22.1139ZM22.6961 23.4063C22.3743 23.4063 22.1139 23.146 22.1139 22.8253H21.8139C21.8139 23.3121 22.2091 23.7063 22.6961 23.7063V23.4063ZM23.2783 22.8253C23.2783 23.146 23.0179 23.4063 22.6961 23.4063V23.7063C23.1831 23.7063 23.5783 23.3121 23.5783 22.8253H23.2783ZM23.2783 13.9674V22.8253H23.5783V13.9674H23.2783ZM23.2795 13.9435C23.2795 13.9417 23.2796 13.9411 23.2793 13.9449C23.2793 13.9462 23.279 13.9492 23.2789 13.9519C23.2787 13.9549 23.2785 13.9588 23.2783 13.9632L23.5782 13.9716C23.5782 13.9717 23.5782 13.9717 23.5786 13.9661C23.5789 13.9619 23.5795 13.9533 23.5795 13.9435H23.2795ZM23.2795 13.5492V13.9435H23.5795V13.5492H23.2795ZM27.1124 13.3992H23.4295V13.6992H27.1124V13.3992ZM27.2624 26.4831V13.5492H26.9624V26.4831H27.2624ZM23.4295 26.6331H27.1124V26.3331H23.4295V26.6331ZM23.2795 26.0888V26.4831H23.5795V26.0888H23.2795ZM22.6973 25.5077C23.0191 25.5077 23.2795 25.7681 23.2795 26.0888H23.5795C23.5795 25.6021 23.1844 25.2077 22.6973 25.2077V25.5077ZM13.8743 13.6992H17.5112V13.3992H13.8743V13.6992ZM13.8742 13.6992H13.8743V13.3992H13.8742V13.6992ZM14.0242 26.4831V13.5492H13.7242V26.4831H14.0242ZM17.5136 26.3331H13.8742V26.6331H17.5136V26.3331ZM17.3636 26.0888V26.4831H17.6636V26.0888H17.3636ZM17.3636 13.948V26.0888H17.6636V13.948H17.3636ZM17.3612 13.5501L17.3636 13.9488L17.6636 13.9471L17.6612 13.5483L17.3612 13.5501ZM12.56 23.6684V21.8725H12.26V23.6684H12.56ZM7.84618 22.5704C8.50758 22.804 10.1399 23.3415 12.3789 23.8152L12.441 23.5217C10.2176 23.0513 8.5981 22.5178 7.94607 22.2876L7.84618 22.5704ZM7.57497 21.9183L7.75328 22.4748L8.03897 22.3832L7.86066 21.8268L7.57497 21.9183ZM12.41 21.7225H7.71781V22.0225H12.41V21.7225ZM32.9394 22.7236C32.9106 22.813 32.8969 22.9134 32.8972 23.0039L33.1972 23.003C33.197 22.9403 33.2068 22.8716 33.2249 22.8155L32.9394 22.7236ZM33.2264 21.8269L32.9393 22.7238L33.225 22.8153L33.5121 21.9184L33.2264 21.8269ZM28.5766 22.0227H33.3693V21.7227H28.5766V22.0227ZM28.7266 23.6801V21.8727H28.4266V23.6801H28.7266ZM28.6017 23.5216L28.5459 23.5333L28.6074 23.827L28.6632 23.8153L28.6017 23.5216ZM29.0011 23.4366C28.869 23.4657 28.7358 23.4936 28.6017 23.5216L28.6632 23.8153C28.797 23.7873 28.9317 23.7591 29.0657 23.7296L29.0011 23.4366ZM30.0527 24.1067C29.9476 23.6316 29.4774 23.3312 29.001 23.4366L29.0658 23.7295C29.3804 23.6599 29.6905 23.8582 29.7598 24.1715L30.0527 24.1067ZM29.3817 25.157C29.8572 25.0522 30.158 24.582 30.0527 24.1066L29.7598 24.1715C29.8291 24.4846 29.6311 24.7948 29.3171 24.8641L29.3817 25.157ZM28.6065 25.3202C28.8652 25.2679 29.1243 25.2138 29.3817 25.157L29.317 24.8641C29.0619 24.9204 28.8046 24.9741 28.547 25.0261L28.6065 25.3202ZM28.7267 27.2142V25.1732H28.4267V27.2142H28.7267ZM27.8446 28.0952C28.3316 28.0952 28.7267 27.701 28.7267 27.2142H28.4267C28.4267 27.5349 28.1663 27.7952 27.8446 27.7952V28.0952ZM22.6973 28.0952H27.8446V27.7952H22.6973V28.0952ZM21.8152 27.2142C21.8152 27.701 22.2103 28.0952 22.6973 28.0952V27.7952C22.3756 27.7952 22.1152 27.5349 22.1152 27.2142H21.8152ZM21.8152 26.8199V27.2142H22.1152V26.8199H21.8152ZM18.978 26.9699H21.9652V26.6699H18.978V26.9699ZM19.128 27.2142V26.8199H18.828V27.2142H19.128ZM18.2458 28.0952C18.7328 28.0952 19.128 27.701 19.128 27.2142H18.828C18.828 27.5349 18.5676 27.7952 18.2458 27.7952V28.0952ZM13.142 28.0952H18.2458V27.7952H13.142V28.0952ZM12.2599 27.2142C12.2599 27.701 12.655 28.0952 13.142 28.0952V27.7952C12.8203 27.7952 12.5599 27.5349 12.5599 27.2142H12.2599ZM12.2599 25.1619V27.2142H12.5599V25.1619H12.2599ZM8.00886 24.1704C8.93531 24.472 10.4487 24.9154 12.3799 25.3089L12.4398 25.0149C10.5215 24.6241 9.01925 24.1838 8.10173 23.8851L8.00886 24.1704ZM10.7621 36.5143C9.13282 33.0031 8.32239 27.808 8.20522 24.0231L7.90537 24.0324C8.02317 27.8376 8.83683 33.0779 10.49 36.6406L10.7621 36.5143ZM14.9751 45.5933L10.7621 36.5143L10.49 36.6406L14.7029 45.7196L14.9751 45.5933ZM15.0137 45.6916C15.0028 45.658 14.9899 45.6251 14.975 45.5932L14.703 45.7196C14.7127 45.7406 14.7212 45.7621 14.7283 45.7841L15.0137 45.6916ZM15.913 46.3881C15.5222 46.3845 15.1474 46.1025 15.0136 45.6914L14.7284 45.7843C14.8985 46.307 15.3794 46.6832 15.9102 46.6881L15.913 46.3881ZM15.922 46.3881H15.9116V46.6881H15.922V46.3881ZM16.5822 46.1169C16.405 46.2922 16.1713 46.3881 15.922 46.3881V46.6881C16.2502 46.6881 16.5597 46.5611 16.7932 46.3302L16.5822 46.1169ZM16.8571 45.5278C16.8393 45.7507 16.7436 45.9573 16.5822 46.1169L16.7932 46.3302C17.0055 46.1202 17.1326 45.8464 17.1561 45.5516L16.8571 45.5278ZM16.9043 30.2056C16.13 31.2298 15.7272 32.6323 15.5565 34.1627C15.3856 35.6954 15.4459 37.3716 15.6106 38.9569C15.94 42.1276 16.6891 44.9542 16.862 45.5797L17.1512 45.4997C16.98 44.8807 16.2358 42.0724 15.909 38.9259C15.7455 37.3525 15.687 35.6996 15.8547 34.1959C16.0226 32.69 16.4159 31.3491 17.1436 30.3865L16.9043 30.2056ZM20.5437 28.4671C19.0071 28.4671 17.777 29.0511 16.9043 30.2055L17.1436 30.3865C17.9552 29.3128 19.0935 28.7671 20.5437 28.7671V28.4671ZM24.131 30.1804C23.2665 29.0429 22.0542 28.4671 20.5437 28.4671V28.7671C21.9674 28.7671 23.0885 29.3044 23.8921 30.3619L24.131 30.1804ZM24.229 45.526C24.398 44.9026 25.132 42.0762 25.4479 38.9086C25.6059 37.3249 25.6598 35.651 25.4845 34.122C25.3094 32.5953 24.9041 31.1978 24.131 30.1804L23.8921 30.3619C24.6185 31.3178 25.0142 32.6537 25.1865 34.1562C25.3585 35.6563 25.3062 37.307 25.1494 38.8789C24.8359 42.0224 24.1067 44.8305 23.9394 45.4475L24.229 45.526ZM25.0894 46.3849C24.6665 46.3502 24.2723 45.9366 24.2337 45.4742L23.9347 45.4992C23.9842 46.0915 24.4801 46.6359 25.0649 46.6839L25.0894 46.3849ZM26.0609 45.7409C25.9259 46.156 25.5276 46.421 25.0895 46.3849L25.0648 46.6839C25.641 46.7314 26.1679 46.3816 26.3462 45.8337L26.0609 45.7409ZM26.0992 45.6433C26.0846 45.6748 26.0717 45.7076 26.0608 45.7414L26.3464 45.8332C26.3533 45.8118 26.3617 45.7903 26.3715 45.7692L26.0992 45.6433ZM30.3318 36.5085L26.0992 45.6432L26.3714 45.7693L30.604 36.6346L30.3318 36.5085ZM32.8972 23.004C32.9106 26.8165 32.1105 32.6697 30.3318 36.5085L30.604 36.6346C32.4078 32.7415 33.2107 26.84 33.1972 23.0029L32.8972 23.004Z" fill="#FD0D06"/>
</svg>
