<svg width="45" height="45" viewBox="0 0 45 45" fill="none" xmlns="http://www.w3.org/2000/svg">
<path fill-rule="evenodd" clip-rule="evenodd" d="M35.625 45H9.375C4.19812 45 0 40.8019 0 35.625V9.375C0 4.19812 4.19812 0 9.375 0H35.625C40.8037 0 45 4.19812 45 9.375V35.625C45 40.8019 40.8037 45 35.625 45ZM34.1138 11.6419C33.3281 10.9181 30.15 8.61187 23.0756 8.58C23.0756 8.58 14.73 8.0775 10.6631 11.8087C8.4 14.0737 7.60313 17.385 7.51875 21.495C7.43438 25.605 7.32563 33.3037 14.7469 35.3906L14.7544 35.3925L14.7506 38.5781C14.7506 38.5781 14.7037 39.8681 15.5513 40.1306C16.5788 40.4494 17.1825 39.4688 18.1631 38.4131C18.7013 37.8338 19.4438 36.9806 20.0044 36.33C25.08 36.7556 28.9837 35.7806 29.4281 35.6362C30.4538 35.3025 36.2513 34.56 37.1944 26.8631C38.1675 18.9244 36.7238 13.905 34.1138 11.6419ZM34.9725 26.2894C34.1756 32.7169 29.4731 33.1237 28.6069 33.4012C28.2375 33.5194 24.8081 34.3725 20.4975 34.0913C20.4975 34.0913 17.2838 37.9669 16.2806 38.9756C16.125 39.1331 15.9412 39.1969 15.8175 39.1669C15.645 39.1237 15.5962 38.9194 15.6 38.6213L15.6263 33.3262C9.34875 31.5825 9.71438 25.0294 9.78563 21.5981C9.85688 18.1669 10.5019 15.3544 12.4163 13.4644C15.8569 10.3481 22.9444 10.8131 22.9444 10.8131C28.9294 10.8394 31.7981 12.6431 32.4637 13.2469C34.6706 15.1369 35.7956 19.6612 34.9725 26.2894ZM23.6756 26.6756C23.6756 26.6756 24.2381 26.7244 24.54 26.3494L25.1306 25.6069C25.4156 25.2394 26.1038 25.0031 26.7769 25.3781C27.6675 25.8806 28.8206 26.6719 29.61 27.4087C30.045 27.7762 30.1462 28.3162 29.85 28.8862L29.8463 28.8975C29.5425 29.4375 29.1338 29.9419 28.6181 30.4106L28.6069 30.42C28.0275 30.9037 27.36 31.185 26.6456 30.9525L26.6325 30.9338C25.3519 30.5719 22.2788 29.0044 20.3194 27.4425C17.115 24.9131 14.8387 20.7431 14.2069 18.5081L14.1881 18.495C13.9556 17.7787 14.2388 17.1112 14.7206 16.5338L14.73 16.5225C15.2006 16.0069 15.705 15.6 16.2431 15.2944L16.2544 15.2925C16.8244 14.9944 17.3644 15.0956 17.7319 15.5306C18.2156 16.0312 19.125 17.2331 19.7625 18.3638C20.1375 19.0369 19.9031 19.725 19.5338 20.01L18.7913 20.6006C18.4163 20.9025 18.465 21.465 18.465 21.465C18.465 21.465 19.5638 25.6256 23.6756 26.6756ZM30.1463 23.2256C30.3675 23.2237 30.5456 23.0438 30.5438 22.8225C30.5231 20.19 29.7169 18.0769 28.1475 16.545C26.5819 15.0188 24.6094 14.2369 22.2863 14.22H22.2844C22.065 14.22 21.885 14.3963 21.8831 14.6175C21.8831 14.8387 22.0594 15.0188 22.2806 15.0206C24.39 15.0356 26.1769 15.7406 27.5888 17.1187C29.0006 18.495 29.7244 20.4169 29.7431 22.83C29.745 23.0494 29.9231 23.2256 30.1425 23.2256H30.1463ZM28.0406 22.4044H28.0312C27.81 22.3988 27.6356 22.2169 27.6413 21.9956C27.6713 20.6269 27.2812 19.5206 26.4469 18.6094C25.6163 17.7019 24.4762 17.205 22.9594 17.0944C22.74 17.0775 22.5731 16.8862 22.59 16.6669C22.6069 16.4456 22.7981 16.2806 23.0175 16.2956C24.7238 16.4212 26.0756 17.0175 27.0375 18.0694C28.0031 19.1231 28.4756 20.4506 28.44 22.0125C28.4363 22.2319 28.2581 22.4044 28.0406 22.4044ZM25.9875 21.7163C25.7756 21.7163 25.5994 21.5494 25.5881 21.3356C25.5206 19.9781 24.8813 19.3125 23.5744 19.2431C23.355 19.23 23.1844 19.0425 23.1975 18.8213C23.2087 18.6019 23.3962 18.4313 23.6175 18.4444C25.3406 18.5363 26.2987 19.5225 26.3869 21.2963C26.3981 21.5175 26.2294 21.705 26.0081 21.7163H25.9875Z" fill="#793BAA"/>
</svg>
