<svg width="45" height="45" viewBox="0 0 45 45" fill="none" xmlns="http://www.w3.org/2000/svg">
<path fill-rule="evenodd" clip-rule="evenodd" d="M35.625 0H9.375C4.19812 0 0 4.19812 0 9.375V35.625C0 40.8019 4.19812 45 9.375 45H35.625C40.8037 45 45 40.8019 45 35.625V9.375C45 4.19812 40.8037 0 35.625 0ZM10.2056 22.365C10.2094 15.5531 15.7519 10.0106 22.5675 10.0106C29.4 10.0125 34.9219 15.5475 34.9163 22.3744C34.9144 29.1881 29.3662 34.7306 22.5562 34.7306C19.9106 34.7306 17.91 33.9844 15.8156 32.7412L11.1394 33.9675L12.3881 29.4075C11.0194 27.2288 10.2037 25.1456 10.2056 22.365ZM27.3281 29.445C28.0406 29.3381 29.5256 28.5469 29.835 27.6787C30.1444 26.8106 30.1444 26.0662 30.0525 25.9069C29.9768 25.7828 29.8009 25.6977 29.5406 25.5719C29.4785 25.5419 29.4115 25.5095 29.34 25.4738C28.9688 25.2863 27.1425 24.3881 26.8013 24.2644C26.46 24.1406 26.2125 24.0769 25.965 24.45C25.7175 24.8231 25.0069 25.6594 24.7894 25.9069C24.5737 26.1562 24.3562 26.1862 23.985 26.0006C23.9245 25.9704 23.842 25.9346 23.7402 25.8905C23.2177 25.664 22.1861 25.2167 20.9981 24.1575C19.8937 23.1731 19.1494 21.9562 18.9319 21.585C18.7162 21.2137 18.9094 21.0131 19.095 20.8275L19.6519 20.1769C19.8093 19.994 19.8777 19.8543 19.9704 19.665C19.987 19.6312 20.0043 19.5957 20.0231 19.5581C20.1488 19.3106 20.085 19.0931 19.9931 18.9075C19.929 18.7806 19.5615 17.8855 19.2366 17.0942L19.2365 17.0938L19.2363 17.0934L19.2362 17.0931C19.0861 16.7277 18.9452 16.3845 18.8475 16.1494C18.5808 15.5099 18.3112 15.5116 18.0942 15.5128C18.0656 15.513 18.0379 15.5132 18.0112 15.5119L17.2987 15.4987C17.0513 15.4987 16.65 15.5925 16.3088 15.9675C16.2861 15.9924 16.2606 16.0197 16.2329 16.0494C15.8454 16.4648 15.0094 17.3609 15.0094 19.0669C15.0094 20.8866 16.3284 22.645 16.5236 22.9052L16.5262 22.9087C16.5385 22.9251 16.5605 22.9566 16.592 23.0017C17.0383 23.6415 19.3912 27.0142 22.8713 28.5169C23.7563 28.8994 24.4481 29.1281 24.9881 29.2987C25.8787 29.58 26.6887 29.5406 27.3281 29.445ZM15.4519 35.4319C17.6231 36.6169 20.0737 37.2412 22.5619 37.2412C30.7556 37.2412 37.425 30.5737 37.4287 22.3763C37.4306 18.405 35.8856 14.6681 33.0788 11.8594C30.2719 9.05062 26.5387 7.50187 22.5619 7.5C14.3681 7.5 7.70062 14.1675 7.69688 22.365C7.695 24.9862 8.37938 27.5438 9.68062 29.7975L7.57125 37.5L15.4519 35.4319Z" fill="#4FC95E"/>
</svg>
